#N canvas 701 226 808 270 10;
#X floatatom 672 144 5 0 0 0 - - -;
#X obj 663 48 inlet;
#X floatatom 45 134 5 0 0 0 - - -;
#X obj 37 38 inlet;
#X floatatom 119 135 5 0 0 0 - - -;
#X obj 111 39 inlet;
#X floatatom 208 137 5 0 0 0 - - -;
#X obj 200 41 inlet;
#X floatatom 285 137 5 0 0 0 - - -;
#X obj 277 41 inlet;
#X floatatom 359 138 5 0 0 0 - - -;
#X obj 351 42 inlet;
#X floatatom 449 138 5 0 0 0 - - -;
#X obj 441 42 inlet;
#X floatatom 526 138 5 0 0 0 - - -;
#X obj 518 42 inlet;
#X floatatom 600 139 5 0 0 0 - - -;
#X obj 592 43 inlet;
#X obj 37 154 bus led58;
#X obj 111 155 bus led59;
#X obj 200 157 bus led60;
#X obj 277 157 bus led61;
#X obj 351 158 bus led62;
#X obj 440 158 bus led63;
#X obj 518 158 bus led64;
#X obj 592 162 bus led65;
#X obj 663 161 bus led66;
#X connect 0 0 26 0;
#X connect 1 0 26 0;
#X connect 2 0 18 0;
#X connect 3 0 18 0;
#X connect 4 0 19 0;
#X connect 5 0 19 0;
#X connect 6 0 20 0;
#X connect 7 0 20 0;
#X connect 8 0 21 0;
#X connect 9 0 21 0;
#X connect 10 0 22 0;
#X connect 11 0 22 0;
#X connect 12 0 23 0;
#X connect 13 0 23 0;
#X connect 14 0 24 0;
#X connect 15 0 24 0;
#X connect 16 0 25 0;
#X connect 17 0 25 0;
