#N canvas 1057 131 925 633 10;
#X obj 84 168 list prepend;
#X obj 84 195 list;
#X obj 61 221 list;
#X msg 203 141 list;
#X obj 232 427 unpack f f;
#X obj 232 370 t l b;
#X obj 61 470 spigot 1;
#X msg 264 393 0;
#X obj 299 451 delay;
#X msg 299 474 1;
#X obj 61 421 max 0;
#X obj 61 533 f;
#X obj 61 445 min 100;
#X obj 61 248 list_max;
#X floatatom 396 601 3 0 0 0 - - -;
#X obj 396 575 change;
#X obj 396 553 i;
#X obj 293 175 list prepend;
#X obj 293 202 list;
#X obj 270 228 list;
#X msg 415 174 list;
#X obj 293 115 s effet\$1-bang;
#X obj 293 149 r effet\$1-bus;
#X obj 270 255 list_add;
#X obj 61 317 +;
#X obj 526 174 list prepend;
#X obj 526 201 list;
#X obj 503 227 list;
#X msg 659 161 list;
#X obj 61 54 t b b b;
#X obj 526 114 s master\$1-bang;
#X obj 526 149 r master\$1-bus;
#X obj 503 254 list_mul;
#X obj 61 361 *;
#X obj 93 315 r effet;
#X obj 94 363 r master;
#X obj 61 390 * 1;
#X obj 61 339 +;
#X obj 84 108 s led\$1-bang;
#X obj 84 142 r led\$1-bus;
#X obj 61 32 r metro_dmx_int2;
#X obj 232 342 r set_led\$1;
#X obj 268 319 r set_led;
#X obj 107 559 \$1;
#X obj 107 580 + 512;
#X obj 107 539 loadbang;
#X obj 61 606 dmx_out;
#X obj 277 34 inlet;
#X obj 61 76 t b b b b;
#X msg 194 114 list;
#X obj 270 83 t b b b b;
#X obj 503 82 t b b b b;
#X msg 412 128 list;
#X msg 656 132 list;
#X connect 0 0 1 0;
#X connect 1 0 0 1;
#X connect 1 0 2 1;
#X connect 2 0 13 0;
#X connect 3 0 0 1;
#X connect 4 0 11 0;
#X connect 4 1 8 0;
#X connect 5 0 4 0;
#X connect 5 1 7 0;
#X connect 6 0 11 0;
#X connect 7 0 6 1;
#X connect 8 0 9 0;
#X connect 9 0 6 1;
#X connect 10 0 12 0;
#X connect 11 0 16 0;
#X connect 11 0 46 0;
#X connect 12 0 6 0;
#X connect 13 0 24 0;
#X connect 15 0 14 0;
#X connect 16 0 15 0;
#X connect 17 0 18 0;
#X connect 18 0 17 1;
#X connect 18 0 19 1;
#X connect 19 0 23 0;
#X connect 20 0 17 1;
#X connect 22 0 17 0;
#X connect 23 0 24 1;
#X connect 24 0 37 0;
#X connect 25 0 26 0;
#X connect 26 0 25 1;
#X connect 26 0 27 1;
#X connect 27 0 32 0;
#X connect 28 0 25 1;
#X connect 29 0 48 0;
#X connect 29 1 50 0;
#X connect 29 2 51 0;
#X connect 31 0 25 0;
#X connect 32 0 33 1;
#X connect 33 0 36 0;
#X connect 34 0 37 1;
#X connect 35 0 36 1;
#X connect 36 0 10 0;
#X connect 37 0 33 0;
#X connect 39 0 0 0;
#X connect 40 0 29 0;
#X connect 41 0 5 0;
#X connect 42 0 5 0;
#X connect 43 0 44 0;
#X connect 44 0 46 1;
#X connect 45 0 43 0;
#X connect 47 0 43 0;
#X connect 48 0 2 0;
#X connect 48 1 38 0;
#X connect 48 2 49 0;
#X connect 48 3 3 0;
#X connect 49 0 0 0;
#X connect 50 0 19 0;
#X connect 50 1 21 0;
#X connect 50 2 52 0;
#X connect 50 3 20 0;
#X connect 51 0 27 0;
#X connect 51 1 30 0;
#X connect 51 2 53 0;
#X connect 51 3 28 0;
#X connect 52 0 17 0;
#X connect 53 0 25 0;
#X coords 0 -1 1 1 120 16 1 300 600;
