#N canvas 504 191 924 705 10;
#X obj 84 168 list prepend;
#X obj 84 195 list;
#X obj 61 221 list;
#X msg 206 131 list;
#X obj 232 427 unpack f f;
#X obj 232 370 t l b;
#X obj 61 470 spigot 1;
#X msg 264 393 0;
#X obj 299 451 delay;
#X msg 299 474 1;
#X obj 61 421 max 0;
#X obj 61 555 outlet;
#X obj 61 533 f;
#X obj 61 445 min 100;
#X obj 61 248 list_max;
#X floatatom 426 601 3 0 0 0 - - -, f 3;
#X obj 426 575 change;
#X obj 425 554 i;
#X obj 61 32 r metro_dmx_int;
#X obj 293 175 list prepend;
#X obj 293 202 list;
#X obj 270 228 list;
#X msg 414 146 list;
#X obj 293 115 s effet\$1-bang;
#X obj 293 149 r effet\$1-bus;
#X obj 270 255 list_add;
#X obj 61 317 +;
#X obj 526 174 list prepend;
#X obj 526 201 list;
#X obj 503 227 list;
#X msg 673 151 list;
#X obj 61 54 t b b b;
#X obj 526 114 s master\$1-bang;
#X obj 526 149 r master\$1-bus;
#X obj 503 254 list_mul;
#X obj 61 361 *;
#X obj 268 319 r set_lumiere;
#X obj 232 342 r set_lumiere\$1;
#X obj 93 315 r effet;
#X obj 94 363 r master;
#X obj 61 390 * 1;
#X obj 61 339 +;
#X obj 61 76 t b b b b;
#X obj 270 83 t b b b b;
#X obj 504 82 t b b b b;
#X msg 209 104 list;
#X msg 425 123 list;
#X msg 677 121 list;
#X obj 84 108 s lum\$1-bang;
#X obj 84 142 r lum\$1-bus;
#X obj 133 568 pack;
#X obj 154 507 loadbang;
#X obj 154 529 \$1;
#X msg 133 590 simulation_light_\$2 \$1;
#X obj 134 613 s light_simulator;
#X connect 0 0 1 0;
#X connect 1 0 0 1;
#X connect 1 0 2 1;
#X connect 2 0 14 0;
#X connect 3 0 0 0;
#X connect 4 0 12 0;
#X connect 4 1 8 0;
#X connect 5 0 4 0;
#X connect 5 1 7 0;
#X connect 6 0 12 0;
#X connect 7 0 6 1;
#X connect 8 0 9 0;
#X connect 9 0 6 1;
#X connect 10 0 13 0;
#X connect 12 0 11 0;
#X connect 12 0 17 0;
#X connect 12 0 50 0;
#X connect 13 0 6 0;
#X connect 14 0 26 0;
#X connect 16 0 15 0;
#X connect 17 0 16 0;
#X connect 18 0 31 0;
#X connect 19 0 20 0;
#X connect 20 0 19 1;
#X connect 20 0 21 1;
#X connect 21 0 25 0;
#X connect 22 0 19 0;
#X connect 24 0 19 0;
#X connect 25 0 26 1;
#X connect 26 0 41 0;
#X connect 27 0 28 0;
#X connect 28 0 27 1;
#X connect 28 0 29 1;
#X connect 29 0 34 0;
#X connect 30 0 27 0;
#X connect 31 0 42 0;
#X connect 31 1 43 0;
#X connect 31 2 44 0;
#X connect 33 0 27 0;
#X connect 34 0 35 1;
#X connect 35 0 40 0;
#X connect 36 0 5 0;
#X connect 37 0 5 0;
#X connect 38 0 41 1;
#X connect 39 0 40 1;
#X connect 40 0 10 0;
#X connect 41 0 35 0;
#X connect 42 0 2 0;
#X connect 42 1 48 0;
#X connect 42 2 3 0;
#X connect 42 3 45 0;
#X connect 43 0 21 0;
#X connect 43 1 23 0;
#X connect 43 2 22 0;
#X connect 43 3 46 0;
#X connect 44 0 29 0;
#X connect 44 1 32 0;
#X connect 44 2 30 0;
#X connect 44 3 47 0;
#X connect 45 0 0 1;
#X connect 46 0 19 1;
#X connect 47 0 27 1;
#X connect 49 0 0 0;
#X connect 50 0 53 0;
#X connect 51 0 52 0;
#X connect 52 0 50 1;
#X connect 53 0 54 0;
#X coords 0 -1 1 1 150 16 1 300 600;
