#N canvas 105 48 386 544 10;
#X declare -path abs -path abs_light;
#X declare -lib Jamoma -lib zexy -lib Cream;
#X declare -stdpath grrrr;
#X declare -stdpath grrrr;
#X declare -stdpath grrrr;
#X declare -path ../abs_light;
#X declare -path ../abs_light;
#X declare -path ../abs_light;
#N canvas 455 664 1135 441 master 1;
#N canvas 704 417 450 300 metro 0;
#X obj 77 3 loadbang;
#X obj 116 118 s metro_dmx;
#X obj 96 141 s metro_dmx_int;
#X obj 77 75 t b b b;
#X obj 76 167 s send-dmx;
#X obj 77 35 tgl 15 0 empty empty empty 17 7 0 10 -262144 -1 -1 1 1
;
#X obj 77 53 metro 20;
#X obj 154 53 bng 15 250 50 0 empty empty empty 17 7 0 10 -262144 -1
-1;
#X connect 0 0 5 0;
#X connect 3 0 4 0;
#X connect 3 1 2 0;
#X connect 3 2 1 0;
#X connect 5 0 6 0;
#X connect 6 0 3 0;
#X connect 7 0 3 0;
#X restore 43 8 pd metro;
#X obj 109 81 nbx 3 14 0 512 0 1 empty empty dmx_ch 0 -8 0 10 -262144
-1 -1 50 256;
#X obj 109 261 nbx 3 14 0 512 0 1 empty empty dmx_ch 0 -8 0 10 -262144
-1 -1 30 256;
#X obj 109 201 nbx 3 14 0 512 0 1 empty empty dmx_ch 0 -8 0 10 -262144
-1 -1 29 256;
#X obj 109 321 nbx 3 14 0 512 0 1 empty empty dmx_ch 0 -8 0 10 -262144
-1 -1 13 256;
#X obj 109 141 nbx 3 14 0 512 0 1 empty empty dmx_ch 0 -8 0 10 -262144
-1 -1 31 256;
#N canvas 654 94 450 300 panic 0;
#X obj 73 14 inlet;
#X obj 75 40 s dmx-reset;
#X connect 0 0 1 0;
#X restore 116 27 pd panic;
#X obj 115 9 bng 15 250 50 0 empty empty empty 17 7 0 10 -262144 -1
-1;
#X obj 43 48 bus_master 1;
#X text 3 361 Pour chaque circuit entrer le;
#X text 12 375 numéro de grada dans la case dmx_ch;
#X obj 289 81 nbx 3 14 0 512 0 1 empty empty dmx_ch 0 -8 0 10 -262144
-1 -1 25 256;
#X obj 289 261 nbx 3 14 0 512 0 1 empty empty dmx_ch 0 -8 0 10 -262144
-1 -1 28 256;
#X obj 289 201 nbx 3 14 0 512 0 1 empty empty dmx_ch 0 -8 0 10 -262144
-1 -1 27 256;
#X obj 289 321 nbx 3 14 0 512 0 1 empty empty dmx_ch 0 -8 0 10 -262144
-1 -1 7 256;
#X obj 289 141 nbx 3 14 0 512 0 1 empty empty dmx_ch 0 -8 0 10 -262144
-1 -1 12 256;
#N canvas 1047 245 559 378 send_DMX 0;
#N canvas 54 478 341 328 list-creation 0;
#X msg 236 81 231;
#X obj 137 85 until;
#X msg 137 119 0;
#X msg 38 82 126 6 1 2;
#X obj 138 266 outlet;
#X obj 118 -69 loadbang;
#X obj 183 -41 bng 15 250 50 0 empty empty empty 17 7 0 10 -262144
-1 -1;
#X obj 122 235 l;
#X obj 92 -44 t b b;
#X obj 219 226 l;
#X obj 137 198 list append;
#X obj 118 -15 t b b b b;
#X obj 196 267 list length;
#X floatatom 196 289 5 0 0 0 - - -, f 5;
#X msg 137 53 513;
#X obj 222 -64 r dmx-reset;
#X connect 0 0 10 0;
#X connect 1 0 2 0;
#X connect 2 0 10 0;
#X connect 3 0 10 0;
#X connect 5 0 8 0;
#X connect 6 0 8 0;
#X connect 7 0 4 0;
#X connect 7 0 12 0;
#X connect 8 0 7 0;
#X connect 8 1 11 0;
#X connect 9 0 10 1;
#X connect 10 0 7 1;
#X connect 10 0 9 0;
#X connect 11 0 3 0;
#X connect 11 1 14 0;
#X connect 11 2 0 0;
#X connect 11 3 10 1;
#X connect 12 0 13 0;
#X connect 14 0 1 0;
#X connect 15 0 8 0;
#X restore 267 46 pd list-creation;
#X obj 295 103 l;
#X obj 144 12 r value;
#X obj 178 39 r index;
#X msg 249 213 devicename /dev/tty.usbserial-EN093215;
#X obj 249 189 loadbang;
#X obj 123 119 list;
#X obj 69 75 r send-dmx;
#X obj 123 180 route bang;
#X obj 262 316 route open;
#X obj 262 343 tgl 15 0 empty empty empty 17 7 0 10 -262144 -1 -1 0
1;
#X msg 266 256 close;
#X obj 320 349 print COMPORT;
#X obj 199 212 tgl 15 0 empty empty empty 17 7 0 10 -262144 -1 -1 0
1;
#X obj 144 76 list-abs/list-replace;
#X msg 310 257 devices;
#X msg 333 157 open 1;
#X obj 154 238 spigot 1;
#X obj 380 250 s dmx-reset;
#X obj 211 283 comport 1;
#X obj 169 117 list length;
#X floatatom 169 139 5 0 0 0 - - -, f 5;
#X connect 0 0 14 2;
#X connect 0 0 6 1;
#X connect 1 0 14 2;
#X connect 2 0 14 0;
#X connect 3 0 14 1;
#X connect 4 0 19 0;
#X connect 5 0 4 0;
#X connect 5 0 18 0;
#X connect 6 0 8 0;
#X connect 6 0 20 0;
#X connect 7 0 6 0;
#X connect 8 1 17 0;
#X connect 9 0 10 0;
#X connect 9 0 13 0;
#X connect 9 1 12 0;
#X connect 11 0 19 0;
#X connect 13 0 17 1;
#X connect 14 0 1 0;
#X connect 14 0 6 1;
#X connect 15 0 19 0;
#X connect 16 0 19 0;
#X connect 17 0 19 0;
#X connect 19 1 9 0;
#X connect 20 0 21 0;
#X restore 43 28 pd send_DMX;
#X obj 479 81 nbx 3 14 0 512 0 1 empty empty dmx_ch 0 -8 0 10 -262144
-1 -1 21 256;
#X obj 479 261 nbx 3 14 0 512 0 1 empty empty dmx_ch 0 -8 0 10 -262144
-1 -1 20 256;
#X obj 479 201 nbx 3 14 0 512 0 1 empty empty dmx_ch 0 -8 0 10 -262144
-1 -1 14 256;
#X obj 479 321 nbx 3 14 0 512 0 1 empty empty dmx_ch 0 -8 0 10 -262144
-1 -1 16 256;
#X obj 479 141 nbx 3 14 0 512 0 1 empty empty dmx_ch 0 -8 0 10 -262144
-1 -1 26 256;
#X obj 659 81 nbx 3 14 0 512 0 1 empty empty dmx_ch 0 -8 0 10 -262144
-1 -1 15 256;
#X obj 659 261 nbx 3 14 0 512 0 1 empty empty dmx_ch 0 -8 0 10 -262144
-1 -1 32 256;
#X obj 659 201 nbx 3 14 0 512 0 1 empty empty dmx_ch 0 -8 0 10 -262144
-1 -1 17 256;
#X obj 659 321 nbx 3 14 0 512 0 1 empty empty dmx_ch 0 -8 0 10 -262144
-1 -1 19 256;
#X obj 659 141 nbx 3 14 0 512 0 1 empty empty dmx_ch 0 -8 0 10 -262144
-1 -1 18 256;
#X text 316 359 1 - 9 : cyliodes;
#X text 316 392 13 - 15 : PAR COUR;
#X text 316 379 10 - 12 : PAR JARDIN;
#X text 316 404 16 - 18 : PC;
#X obj 849 81 nbx 3 14 0 512 0 1 empty empty dmx_ch 0 -8 0 10 -262144
-1 -1 8 256;
#X obj 849 261 nbx 3 14 0 512 0 1 empty empty dmx_ch 0 -8 0 10 -262144
-1 -1 10 256;
#X obj 849 201 nbx 3 14 0 512 0 1 empty empty dmx_ch 0 -8 0 10 -262144
-1 -1 23 256;
#X obj 849 321 nbx 3 14 0 512 0 1 empty empty dmx_ch 0 -8 0 10 -262144
-1 -1 49 256;
#X obj 849 141 nbx 3 14 0 512 0 1 empty empty dmx_ch 0 -8 0 10 -262144
-1 -1 9 256;
#X obj 1029 81 nbx 3 14 0 512 0 1 empty empty dmx_ch 0 -8 0 10 -262144
-1 -1 22 256;
#X obj 1029 261 nbx 3 14 0 512 0 1 empty empty dmx_ch 0 -8 0 10 -262144
-1 -1 1 256;
#X obj 1029 201 nbx 3 14 0 512 0 1 empty empty dmx_ch 0 -8 0 10 -262144
-1 -1 24 256;
#X obj 1029 321 nbx 3 14 0 512 0 1 empty empty dmx_ch 0 -8 0 10 -262144
-1 -1 5 256;
#X obj 1029 141 nbx 3 14 0 512 0 1 empty empty dmx_ch 0 -8 0 10 -262144
-1 -1 4 256;
#X obj 1219 81 nbx 3 14 0 512 0 1 empty empty dmx_ch 0 -8 0 10 -262144
-1 -1 3 256;
#X obj 1219 261 nbx 3 14 0 512 0 1 empty empty dmx_ch 0 -8 0 10 -262144
-1 -1 0 256;
#X obj 1219 201 nbx 3 14 0 512 0 1 empty empty dmx_ch 0 -8 0 10 -262144
-1 -1 6 256;
#X obj 1219 321 nbx 3 14 0 512 0 1 empty empty dmx_ch 0 -8 0 10 -262144
-1 -1 0 256;
#X obj 1219 141 nbx 3 14 0 512 0 1 empty empty dmx_ch 0 -8 0 10 -262144
-1 -1 2 256;
#X obj 1399 81 nbx 3 14 0 512 0 1 empty empty dmx_ch 0 -8 0 10 -262144
-1 -1 0 256;
#X obj 1399 261 nbx 3 14 0 512 0 1 empty empty dmx_ch 0 -8 0 10 -262144
-1 -1 0 256;
#X obj 1399 201 nbx 3 14 0 512 0 1 empty empty dmx_ch 0 -8 0 10 -262144
-1 -1 0 256;
#X obj 1399 321 nbx 3 14 0 512 0 1 empty empty dmx_ch 0 -8 0 10 -262144
-1 -1 0 256;
#X obj 1399 141 nbx 3 14 0 512 0 1 empty empty dmx_ch 0 -8 0 10 -262144
-1 -1 0 256;
#X obj 1579 81 nbx 3 14 0 512 0 1 empty empty dmx_ch 0 -8 0 10 -262144
-1 -1 0 256;
#X obj 1579 261 nbx 3 14 0 512 0 1 empty empty dmx_ch 0 -8 0 10 -262144
-1 -1 0 256;
#X obj 1579 201 nbx 3 14 0 512 0 1 empty empty dmx_ch 0 -8 0 10 -262144
-1 -1 0 256;
#X obj 1579 321 nbx 3 14 0 512 0 1 empty empty dmx_ch 0 -8 0 10 -262144
-1 -1 0 256;
#X obj 1579 141 nbx 3 14 0 512 0 1 empty empty dmx_ch 0 -8 0 10 -262144
-1 -1 0 256;
#X obj 1769 81 nbx 3 14 0 512 0 1 empty empty dmx_ch 0 -8 0 10 -262144
-1 -1 0 256;
#X obj 1769 201 nbx 3 14 0 512 0 1 empty empty dmx_ch 0 -8 0 10 -262144
-1 -1 0 256;
#X obj 1769 141 nbx 3 14 0 512 0 1 empty empty dmx_ch 0 -8 0 10 -262144
-1 -1 0 256;
#X obj 43 108 bus_master 2;
#X obj 43 168 bus_master 3;
#X obj 43 228 bus_master 4;
#X obj 43 288 bus_master 5;
#X obj 223 47 bus_master 6;
#X obj 223 108 bus_master 7;
#X obj 223 168 bus_master 8;
#X obj 223 288 bus_master 10;
#X obj 413 48 bus_master 11;
#X obj 413 108 bus_master 12;
#X obj 413 168 bus_master 13;
#X obj 413 227 bus_master 14;
#X obj 413 288 bus_master 15;
#X obj 593 47 bus_master 16;
#X obj 593 108 bus_master 17;
#X obj 593 168 bus_master 18;
#X obj 593 227 bus_master 19;
#X obj 593 288 bus_master 20;
#X obj 783 48 bus_master 21;
#X obj 783 108 bus_master 22;
#X obj 783 168 bus_master 23;
#X obj 783 228 bus_master 24;
#X obj 783 288 bus_master 25;
#X obj 963 47 bus_master 26;
#X obj 963 109 bus_master 27;
#X obj 963 168 bus_master 28;
#X obj 963 228 bus_master 29;
#X obj 963 288 bus_master 30;
#X obj 1153 48 bus_master 31;
#X obj 1153 108 bus_master 32;
#X obj 1153 168 bus_master 33;
#X obj 1153 227 bus_master 34;
#X obj 1153 288 bus_master 35;
#X obj 1333 47 bus_master 36;
#X obj 1333 108 bus_master 37;
#X obj 1333 168 bus_master 38;
#X obj 1333 227 bus_master 39;
#X obj 1333 288 bus_master 40;
#X obj 1513 47 bus_master 41;
#X obj 1513 108 bus_master 42;
#X obj 1513 167 bus_master 43;
#X obj 1513 227 bus_master 44;
#X obj 1513 288 bus_master 45;
#X obj 1703 47 bus_master 46;
#X obj 1703 108 bus_master 47;
#X obj 1703 168 bus_master 48;
#X obj 223 227 bus_master 9;
#X obj 544 389 s proj-num;
#X obj 544 368 nbx 3 14 0 48 0 1 empty empty empty 0 -8 0 10 -262144
-1 -1 33 256;
#X obj 43 320 enttec_out;
#X obj 43 80 enttec_out;
#X obj 43 260 enttec_out;
#X obj 43 200 enttec_out;
#X obj 43 140 enttec_out;
#X obj 223 80 enttec_out;
#X obj 223 260 enttec_out;
#X obj 223 200 enttec_out;
#X obj 223 320 enttec_out;
#X obj 223 140 enttec_out;
#X obj 413 80 enttec_out;
#X obj 413 260 enttec_out;
#X obj 413 200 enttec_out;
#X obj 413 320 enttec_out;
#X obj 413 140 enttec_out;
#X obj 593 80 enttec_out;
#X obj 593 260 enttec_out;
#X obj 593 200 enttec_out;
#X obj 593 320 enttec_out;
#X obj 593 140 enttec_out;
#X obj 783 80 enttec_out;
#X obj 783 260 enttec_out;
#X obj 783 200 enttec_out;
#X obj 783 320 enttec_out;
#X obj 783 140 enttec_out;
#X obj 963 80 enttec_out;
#X obj 963 260 enttec_out;
#X obj 963 200 enttec_out;
#X obj 963 320 enttec_out;
#X obj 963 140 enttec_out;
#X obj 1153 80 enttec_out;
#X obj 1153 260 enttec_out;
#X obj 1153 200 enttec_out;
#X obj 1153 320 enttec_out;
#X obj 1153 140 enttec_out;
#X obj 1333 80 enttec_out;
#X obj 1333 260 enttec_out;
#X obj 1333 200 enttec_out;
#X obj 1333 320 enttec_out;
#X obj 1333 140 enttec_out;
#X obj 1513 80 enttec_out;
#X obj 1513 260 enttec_out;
#X obj 1513 200 enttec_out;
#X obj 1513 320 enttec_out;
#X obj 1513 140 enttec_out;
#X obj 1703 80 enttec_out;
#X obj 1703 200 enttec_out;
#X obj 1703 140 enttec_out;
#X obj 645 369 loadbang;
#X obj 645 391 del 1000;
#N canvas 195 238 668 341 check 0;
#X obj 181 262 pack f f;
#N canvas 0 22 1920 301 output 0;
#X obj 63 141 bus effet1;
#X obj 103 171 bus effet2;
#X obj 133 141 bus effet3;
#X obj 173 171 bus effet4;
#X obj 203 141 bus effet5;
#X obj 243 171 bus effet6;
#X obj 273 141 bus effet7;
#X obj 313 171 bus effet8;
#X obj 344 142 bus effet9;
#X obj 383 171 bus effet10;
#X obj 413 142 bus effet11;
#X obj 483 142 bus effet13;
#X obj 553 142 bus effet15;
#X obj 625 143 bus effet17;
#X obj 696 143 bus effet19;
#X obj 766 143 bus effet21;
#X obj 836 143 bus effet23;
#X obj 453 171 bus effet12;
#X obj 522 171 bus effet14;
#X obj 593 171 bus effet16;
#X obj 662 171 bus effet18;
#X obj 732 171 bus effet20;
#X obj 802 171 bus effet22;
#X obj 872 171 bus effet24;
#X obj 906 143 bus effet25;
#X obj 942 171 bus effet26;
#X obj 62 80 inlet;
#X obj 980 142 bus effet27;
#X obj 1020 172 bus effet28;
#X obj 1050 142 bus effet29;
#X obj 1090 171 bus effet30;
#X obj 1120 142 bus effet31;
#X obj 1160 172 bus effet32;
#X obj 1192 143 bus effet33;
#X obj 1230 172 bus effet34;
#X obj 1261 142 bus effet35;
#X obj 1300 172 bus effet36;
#X obj 1330 143 bus effet37;
#X obj 1369 172 bus effet38;
#X obj 1400 143 bus effet39;
#X obj 1440 172 bus effet40;
#X obj 1472 144 bus effet41;
#X obj 1509 172 bus effet42;
#X obj 1543 144 bus effet43;
#X obj 1579 172 bus effet44;
#X obj 1614 144 bus effet45;
#X obj 1649 172 bus effet46;
#X obj 1683 144 bus effet47;
#X obj 1719 172 bus effet48;
#X obj 63 107 route 1 2 3 4 5 6 7 8 9 10 11 12 13 14 15 16 17 18 19
20 21 22 23 24 25 26 27 28 29 30 31 32 33 34 35 36 37 38 39 40 41 42
43 44 45 46 47 48, f 277;
#X connect 26 0 49 0;
#X connect 49 0 0 0;
#X connect 49 1 1 0;
#X connect 49 2 2 0;
#X connect 49 3 3 0;
#X connect 49 4 4 0;
#X connect 49 5 5 0;
#X connect 49 6 6 0;
#X connect 49 7 7 0;
#X connect 49 8 8 0;
#X connect 49 9 9 0;
#X connect 49 10 10 0;
#X connect 49 11 17 0;
#X connect 49 12 11 0;
#X connect 49 13 18 0;
#X connect 49 14 12 0;
#X connect 49 15 19 0;
#X connect 49 16 13 0;
#X connect 49 17 20 0;
#X connect 49 18 14 0;
#X connect 49 19 21 0;
#X connect 49 20 15 0;
#X connect 49 21 22 0;
#X connect 49 22 16 0;
#X connect 49 23 23 0;
#X connect 49 24 24 0;
#X connect 49 25 25 0;
#X connect 49 26 27 0;
#X connect 49 27 28 0;
#X connect 49 28 29 0;
#X connect 49 29 30 0;
#X connect 49 30 31 0;
#X connect 49 31 32 0;
#X connect 49 32 33 0;
#X connect 49 33 34 0;
#X connect 49 34 35 0;
#X connect 49 35 36 0;
#X connect 49 36 37 0;
#X connect 49 37 38 0;
#X connect 49 38 39 0;
#X connect 49 39 40 0;
#X connect 49 40 41 0;
#X connect 49 41 42 0;
#X connect 49 42 43 0;
#X connect 49 43 44 0;
#X connect 49 44 45 0;
#X connect 49 45 46 0;
#X connect 49 46 47 0;
#X connect 49 47 48 0;
#X restore 181 283 pd output;
#X obj 181 170 t f b b b;
#X floatatom 217 206 5 0 0 0 - - -, f 5;
#X msg 259 236 0;
#X obj 181 121 f;
#X obj 181 75 bng 15 250 50 0 empty empty empty 17 7 0 10 -262144 -1
-1;
#X obj 181 8 key;
#X obj 181 30 sel 32;
#X floatatom 196 99 5 0 0 0 - - -, f 5;
#X obj 256 116 + 1;
#X obj 139 178 bng 15 250 50 0 empty empty empty 17 7 0 10 -262144
-1 -1;
#X floatatom 181 145 5 0 0 0 - - -, f 5;
#X obj 181 52 spigot;
#X obj 227 53 tgl 15 0 empty empty empty 17 7 0 10 -262144 -1 -1 0
1;
#X text 253 204 niveau de test (10);
#X obj 286 153 loadbang;
#X msg 286 175 10;
#X obj 285 48 nbx 3 28 -1e+37 1e+37 0 0 empty empty empty 0 -8 0 24
-262144 -1 -1 0 256;
#X obj 285 79 j.remote /master/limit;
#X text 279 27 Ne pas oublié de monter le limiteur;
#X obj 447 256 pack f f;
#N canvas 0 22 1920 301 output 0;
#X obj 63 141 bus effet1;
#X obj 103 171 bus effet2;
#X obj 133 141 bus effet3;
#X obj 173 171 bus effet4;
#X obj 203 141 bus effet5;
#X obj 243 171 bus effet6;
#X obj 273 141 bus effet7;
#X obj 313 171 bus effet8;
#X obj 344 142 bus effet9;
#X obj 383 171 bus effet10;
#X obj 413 142 bus effet11;
#X obj 483 142 bus effet13;
#X obj 553 142 bus effet15;
#X obj 625 143 bus effet17;
#X obj 696 143 bus effet19;
#X obj 766 143 bus effet21;
#X obj 836 143 bus effet23;
#X obj 453 171 bus effet12;
#X obj 522 171 bus effet14;
#X obj 593 171 bus effet16;
#X obj 662 171 bus effet18;
#X obj 732 171 bus effet20;
#X obj 802 171 bus effet22;
#X obj 872 171 bus effet24;
#X obj 906 143 bus effet25;
#X obj 942 171 bus effet26;
#X obj 62 80 inlet;
#X obj 980 142 bus effet27;
#X obj 1020 172 bus effet28;
#X obj 1050 142 bus effet29;
#X obj 1090 171 bus effet30;
#X obj 1120 142 bus effet31;
#X obj 1160 172 bus effet32;
#X obj 1192 143 bus effet33;
#X obj 1230 172 bus effet34;
#X obj 1261 142 bus effet35;
#X obj 1300 172 bus effet36;
#X obj 1330 143 bus effet37;
#X obj 1369 172 bus effet38;
#X obj 1400 143 bus effet39;
#X obj 1440 172 bus effet40;
#X obj 1472 144 bus effet41;
#X obj 1509 172 bus effet42;
#X obj 1543 144 bus effet43;
#X obj 1579 172 bus effet44;
#X obj 1614 144 bus effet45;
#X obj 1649 172 bus effet46;
#X obj 1683 144 bus effet47;
#X obj 1719 172 bus effet48;
#X obj 63 107 route 1 2 3 4 5 6 7 8 9 10 11 12 13 14 15 16 17 18 19
20 21 22 23 24 25 26 27 28 29 30 31 32 33 34 35 36 37 38 39 40 41 42
43 44 45 46 47 48, f 277;
#X connect 26 0 49 0;
#X connect 49 0 0 0;
#X connect 49 1 1 0;
#X connect 49 2 2 0;
#X connect 49 3 3 0;
#X connect 49 4 4 0;
#X connect 49 5 5 0;
#X connect 49 6 6 0;
#X connect 49 7 7 0;
#X connect 49 8 8 0;
#X connect 49 9 9 0;
#X connect 49 10 10 0;
#X connect 49 11 17 0;
#X connect 49 12 11 0;
#X connect 49 13 18 0;
#X connect 49 14 12 0;
#X connect 49 15 19 0;
#X connect 49 16 13 0;
#X connect 49 17 20 0;
#X connect 49 18 14 0;
#X connect 49 19 21 0;
#X connect 49 20 15 0;
#X connect 49 21 22 0;
#X connect 49 22 16 0;
#X connect 49 23 23 0;
#X connect 49 24 24 0;
#X connect 49 25 25 0;
#X connect 49 26 27 0;
#X connect 49 27 28 0;
#X connect 49 28 29 0;
#X connect 49 29 30 0;
#X connect 49 30 31 0;
#X connect 49 31 32 0;
#X connect 49 32 33 0;
#X connect 49 33 34 0;
#X connect 49 34 35 0;
#X connect 49 35 36 0;
#X connect 49 36 37 0;
#X connect 49 37 38 0;
#X connect 49 38 39 0;
#X connect 49 39 40 0;
#X connect 49 40 41 0;
#X connect 49 41 42 0;
#X connect 49 42 43 0;
#X connect 49 43 44 0;
#X connect 49 44 45 0;
#X connect 49 45 46 0;
#X connect 49 46 47 0;
#X connect 49 47 48 0;
#X restore 447 277 pd output;
#X floatatom 463 124 5 0 0 0 - - -, f 5;
#X obj 447 199 until;
#X obj 447 221 f;
#X obj 473 221 + 1;
#X obj 456 152 t b f b;
#X msg 495 179 1;
#X msg 447 177 48;
#X connect 0 0 1 0;
#X connect 2 0 0 0;
#X connect 2 1 3 0;
#X connect 2 2 0 0;
#X connect 2 3 4 0;
#X connect 3 0 0 1;
#X connect 4 0 0 1;
#X connect 5 0 10 0;
#X connect 5 0 12 0;
#X connect 6 0 5 0;
#X connect 7 0 8 0;
#X connect 8 0 13 0;
#X connect 9 0 5 1;
#X connect 10 0 9 0;
#X connect 11 0 0 0;
#X connect 12 0 2 0;
#X connect 13 0 6 0;
#X connect 14 0 13 1;
#X connect 16 0 17 0;
#X connect 17 0 3 0;
#X connect 18 0 19 0;
#X connect 19 0 18 0;
#X connect 21 0 22 0;
#X connect 23 0 27 0;
#X connect 24 0 25 0;
#X connect 25 0 26 0;
#X connect 25 0 21 0;
#X connect 26 0 25 1;
#X connect 27 0 29 0;
#X connect 27 1 21 1;
#X connect 27 2 28 0;
#X connect 28 0 25 1;
#X connect 29 0 24 0;
#X restore 225 14 pd check;
#X text 148 78 5kW;
#X text 701 197 2kW;
#X text 891 321 5kW;
#X text 1066 259 2kW;
#X connect 1 0 109 1;
#X connect 2 0 110 1;
#X connect 3 0 111 1;
#X connect 4 0 108 1;
#X connect 5 0 112 1;
#X connect 7 0 6 0;
#X connect 8 0 109 0;
#X connect 11 0 113 1;
#X connect 12 0 114 1;
#X connect 13 0 115 1;
#X connect 14 0 116 1;
#X connect 15 0 117 1;
#X connect 17 0 118 1;
#X connect 18 0 119 1;
#X connect 19 0 120 1;
#X connect 20 0 121 1;
#X connect 21 0 122 1;
#X connect 22 0 123 1;
#X connect 23 0 124 1;
#X connect 24 0 125 1;
#X connect 25 0 126 1;
#X connect 26 0 127 1;
#X connect 31 0 128 1;
#X connect 32 0 129 1;
#X connect 33 0 130 1;
#X connect 34 0 131 1;
#X connect 35 0 132 1;
#X connect 36 0 133 1;
#X connect 37 0 134 1;
#X connect 38 0 135 1;
#X connect 39 0 136 1;
#X connect 40 0 137 1;
#X connect 41 0 138 1;
#X connect 42 0 139 1;
#X connect 43 0 140 1;
#X connect 44 0 141 1;
#X connect 45 0 142 1;
#X connect 46 0 143 1;
#X connect 47 0 144 1;
#X connect 48 0 145 1;
#X connect 49 0 146 1;
#X connect 50 0 147 1;
#X connect 51 0 148 1;
#X connect 52 0 149 1;
#X connect 53 0 150 1;
#X connect 54 0 151 1;
#X connect 55 0 152 1;
#X connect 56 0 153 1;
#X connect 57 0 154 1;
#X connect 58 0 155 1;
#X connect 59 0 112 0;
#X connect 60 0 111 0;
#X connect 61 0 110 0;
#X connect 62 0 108 0;
#X connect 63 0 113 0;
#X connect 64 0 117 0;
#X connect 65 0 115 0;
#X connect 66 0 116 0;
#X connect 67 0 118 0;
#X connect 68 0 122 0;
#X connect 69 0 120 0;
#X connect 70 0 119 0;
#X connect 71 0 121 0;
#X connect 72 0 123 0;
#X connect 73 0 127 0;
#X connect 74 0 125 0;
#X connect 75 0 124 0;
#X connect 76 0 126 0;
#X connect 77 0 128 0;
#X connect 78 0 132 0;
#X connect 79 0 130 0;
#X connect 80 0 129 0;
#X connect 81 0 131 0;
#X connect 82 0 133 0;
#X connect 83 0 137 0;
#X connect 84 0 135 0;
#X connect 85 0 134 0;
#X connect 86 0 136 0;
#X connect 87 0 138 0;
#X connect 88 0 142 0;
#X connect 89 0 140 0;
#X connect 90 0 139 0;
#X connect 91 0 141 0;
#X connect 92 0 143 0;
#X connect 93 0 147 0;
#X connect 94 0 145 0;
#X connect 95 0 144 0;
#X connect 96 0 146 0;
#X connect 97 0 148 0;
#X connect 98 0 152 0;
#X connect 99 0 150 0;
#X connect 100 0 149 0;
#X connect 101 0 151 0;
#X connect 102 0 153 0;
#X connect 103 0 155 0;
#X connect 104 0 154 0;
#X connect 105 0 114 0;
#X connect 107 0 106 0;
#X connect 156 0 157 0;
#X connect 157 0 107 0;
#X restore 70 199 pd master;
#N canvas 745 440 508 200 init 0;
#X msg 62 131 dsp 1;
#X obj 62 25 loadbang;
#X obj 62 45 del 1000;
#X obj 62 155 s pd;
#X obj 182 22 declare -path abs -path abs_light;
#N canvas 606 487 570 244 midisetting 0;
#X obj 102 19 bng 15 250 50 0 empty empty empty 17 7 0 10 -262144 -1
-1;
#X obj 253 10 inlet;
#X obj 28 144 pack s s;
#X msg 28 168 device @in \$1 @out \$2;
#X obj 97 47 t b b;
#X obj 28 98 list2symbol;
#X obj 138 98 list2symbol;
#X obj 28 188 mediasettings/midisettings;
#X msg 28 77 BCF2000 Port 1;
#X msg 138 78 BCF2000 Port 1;
#X msg 253 108 2 0 0 0 0 0 0 0 0 2 0 0 0 0 0 0 0 0 4 5;
#X obj 254 130 list prepend midi-dialog;
#X obj 254 152 list trim;
#X obj 254 174 s pd;
#X obj 253 50 t b;
#X obj 263 30 bng 15 250 50 0 empty empty empty 17 7 0 10 -262144 -1
-1;
#X connect 0 0 4 0;
#X connect 1 0 14 0;
#X connect 2 0 3 0;
#X connect 3 0 7 0;
#X connect 4 0 8 0;
#X connect 4 1 9 0;
#X connect 5 0 2 0;
#X connect 6 0 2 1;
#X connect 8 0 5 0;
#X connect 9 0 6 0;
#X connect 10 0 11 0;
#X connect 11 0 12 0;
#X connect 12 0 13 0;
#X connect 14 0 10 0;
#X connect 15 0 14 0;
#X restore 123 103 pd midisetting;
#X obj 62 67 t b b b;
#X obj 182 42 declare -lib Jamoma -lib zexy -lib Cream;
#X obj 107 131 selectAudioDevice (0)PreSonus_FP10_(0121);
#X connect 0 0 3 0;
#X connect 1 0 2 0;
#X connect 2 0 6 0;
#X connect 6 0 0 0;
#X connect 6 1 8 0;
#X connect 6 2 5 0;
#X restore 70 219 pd init;
#X text 25 313 Antoine Villeret pour Contour Progressif / Mylène Benoit
;
#N canvas 1361 519 465 446 README 0;
#X text 30 128 Troubleshooting :;
#X text 44 149 1- Le son ne controle pas les lumières ?;
#X text 44 169 Vérifier le branchement de la carte son (Firewire +
micro);
#X text 44 189 Vérifier que Puredata utilise bien la carte son : dans
Media -> Configuration Audio \, sélectionner Presonus FP10. Vérifier
le gain d'entrée doit être à 9h si entrée ligne \, 12h si entrée
micro);
#X text 36 24 Pour patcher les gradas lumière \, voir [pd master].
;
#X text 36 38 Brancher les micros sur les entrées (input) de la carte
son de 3 à 7;
#N canvas 359 574 466 248 bcf2000 0;
#X text 47 34 Affectation BCF2000 :;
#X text 59 81 Fader 6 : Groupe de contre;
#X text 59 101 Fader 7 : Groupe de face;
#X text 59 121 Fader 8 : Douche;
#X text 59 51 Fader 1 à 5 : Directs cycliodes Nina \, Celia \, Julien
\, Alex \, Maeva;
#X text 59 201 Encodeur 8 : master public;
#X text 59 161 Encodeurs rotatifs de 1 à 5 : master cycliodes;
#X text 59 141 Encodeurs rotatifs de 1 à 5 : master individuels cycliodes
;
#X text 59 181 Encodeur 6 : master glbal cycliode;
#X restore 32 87 pd bcf2000;
#X text 46 277 2- la BCF2000 ne controle plus correctement le patch
?;
#X text 48 296 Vérifier qu'elle est bien sur le preset 2 et que le
groupe d'encodeur 1 est sélectionné (le bouton en haut à gauche
de la partie "Encoder Group" en haut à droite de la BCF2000 doit être
allumé).;
#X restore 70 259 pd README;
#X obj 149 198 bng 15 250 50 0 display-vague-1 empty display_vague_1
17 7 0 10 -262144 -1 -1;
#X obj 149 218 bng 15 250 50 0 display-vague-2 empty display_vague_2
17 7 0 10 -262144 -1 -1;
#X obj 149 238 bng 15 250 50 0 display-vague-3 empty display_vague_3
17 7 0 10 -262144 -1 -1;
#X obj 149 258 bng 15 250 50 0 display-vague-loin-face empty display_vague_loin-face
17 7 0 10 -262144 -1 -1;
#N canvas 0 586 1542 333 BCF2000 0;
#X obj 404 239 nrpnin;
#X floatatom 396 272 5 0 0 0 - - -, f 5;
#X floatatom 433 273 5 0 0 0 - - -, f 5;
#X obj 342 241 NRPNin;
#X obj 24 25 BCFjamoma 0 /alex/env-follower/gain 0 1000;
#X obj 544 274 nrpnout;
#X floatatom 589 244 5 0 0 0 - - -, f 5;
#X floatatom 543 248 5 0 0 0 - - -, f 5;
#X text 61 241 BCF2000 controller number :;
#X text 86 260 fader 1-8 : cc 0 à 7;
#X text 86 270 encoder 1-8 grp 1 : cc 8 à 15;
#X text 86 280 encoder 1-8 grp 2 : cc 16 à 23;
#X text 86 290 encoder 1-8 grp 3 : cc 24 à 31;
#X text 86 300 encoder 1-8 grp 4 : cc 32 à 39;
#X obj 24 65 BCFjamoma 2 /nina/env-follower/gain 0 1000;
#X obj 24 45 BCFjamoma 1 /celia/env-follower/gain 0 1000;
#X obj 24 125 BCFjamoma 5 /master/pitch 0 1;
#X obj 24 105 BCFjamoma 4 /master/brightness 0 1;
#X obj 24 145 BCFjamoma 6 /master/spec 0 1;
#X obj 24 165 BCFjamoma 7 /master/send 0 1;
#X obj 305 70 BCFjamoma 10 /celia/brightness/input/min 0 100;
#X obj 305 30 BCFjamoma 8 /alex/brightness/input/min 0 100;
#X obj 305 50 BCFjamoma 9 /alex/brightness/input/max 0 100;
#X obj 305 90 BCFjamoma 11 /celia/brightness/input/max 0 100;
#X obj 305 110 BCFjamoma 12 /nina/brightness/input/min 0 100;
#X obj 305 130 BCFjamoma 13 /nina/brightness/input/max 0 100;
#X obj 305 150 BCFjamoma 14 /nico.1/brightness/input/min 0 100;
#X obj 305 170 BCFjamoma 15 /nico.1/brightness/input/max 0 100;
#X obj 615 30 BCFjamoma 16 /alex/pitch/input/min 0 127;
#X obj 615 50 BCFjamoma 17 /alex/pitch/input/max 0 127;
#X obj 615 70 BCFjamoma 18 /celia/pitch/input/min 0 127;
#X obj 615 90 BCFjamoma 19 /celia/pitch/input/max 0 127;
#X obj 615 110 BCFjamoma 20 /nina/pitch/input/min 0 127;
#X obj 615 130 BCFjamoma 21 /nina/pitch/input/max 0 127;
#X obj 615 150 BCFjamoma 22 /nico.1/pitch/input/min 0 127;
#X obj 615 170 BCFjamoma 23 /nico.1/pitch/input/max 0 127;
#X obj 887 30 BCFjamoma 24 /alex/constantq/scale.1 1 1000;
#X obj 887 70 BCFjamoma 26 /celia/constantq/scale.1 1 1000;
#X obj 887 110 BCFjamoma 28 /nina/constantq/scale.1 1 1000;
#X obj 887 150 BCFjamoma 30 /nico.1/constantq/scale.1 1 1000;
#X obj 887 50 BCFjamoma 25 /alex/constantq/scale.2 1 1000;
#X obj 887 90 BCFjamoma 27 /celia/constantq/scale.2 1 1000;
#X obj 887 130 BCFjamoma 29 /nina/constantq/scale.2 1 1000;
#X obj 887 170 BCFjamoma 31 /nico.1/constantq/scale.2 1 1000;
#X obj 1167 30 BCFjamoma 32 /alex/brightness/proj/width 100 300;
#X obj 1167 70 BCFjamoma 34 /celia/brightness/proj/width 100 300;
#X obj 1167 110 BCFjamoma 36 /nina/brightness/proj/width 100 300;
#X obj 1167 150 BCFjamoma 38 /nico.1/brightness/proj/width 100 300
;
#X obj 1167 130 BCFjamoma 37 /nina/pitch/proj/width 100 300;
#X obj 1167 90 BCFjamoma 35 /celia/pitch/proj/width 100 300;
#X obj 1167 50 BCFjamoma 33 /alex/pitch/proj/width 100 300;
#X obj 1167 170 BCFjamoma 39 /nico.1/pitch/proj/width 100 300;
#X obj 24 85 BCFjamoma 3 /master/limit 0 255;
#X connect 0 0 1 0;
#X connect 0 1 2 0;
#X connect 6 0 5 1;
#X connect 7 0 5 0;
#X restore 70 350 pd BCF2000;
#X text 59 197 >;
#X text 80 329 Aveuglement - 2016;
#N canvas 40 417 431 324 audio-record 0;
#X obj 101 122 adc~ 1 2 3;
#X obj 101 263 writesf~ 3;
#X text 198 61 choose a filename :;
#X symbolatom 198 84 20 0 0 0 - - -, f 20;
#X msg 198 135 open -bytes 3 \$1;
#X obj 198 111 makefilename record/%s.wav;
#X obj 197 170 tgl 15 0 empty empty empty 17 7 0 10 -262144 -1 -1 0
1;
#X obj 197 191 sel 0 1;
#X msg 197 221 stop;
#X msg 236 221 start;
#X text 215 170 start/stop;
#X obj 37 300 dac~ 1 2;
#X obj 37 241 *~;
#X obj 179 85 bng 15 250 50 0 empty empty empty 17 7 0 10 -262144 -1
-1;
#X obj 39 192 tgl 15 0 empty empty empty 17 7 0 10 -262144 -1 -1 0
1;
#X connect 0 0 1 0;
#X connect 0 0 12 0;
#X connect 0 1 1 1;
#X connect 0 1 12 0;
#X connect 0 2 1 2;
#X connect 0 2 12 0;
#X connect 3 0 5 0;
#X connect 4 0 1 0;
#X connect 5 0 4 0;
#X connect 6 0 7 0;
#X connect 6 0 12 1;
#X connect 7 0 8 0;
#X connect 7 1 9 0;
#X connect 8 0 1 0;
#X connect 9 0 1 0;
#X connect 12 0 11 0;
#X connect 12 0 11 1;
#X connect 13 0 3 0;
#X connect 14 0 12 1;
#X restore 80 125 pd audio-record;
#X obj 70 371 j.minuit_device;
#N canvas 909 184 462 215 simulation_light 0;
#X obj 158 179 pd~ -ninsig 0 -noutsig 0, f 25;
#X obj 158 44 loadbang;
#X obj 158 66 del 10000;
#X obj 48 87 r light_simulator;
#X msg 158 91 pd~ start -nogui ./abs/light_simulator.pd;
#X msg 180 119 pd~ start ./abs/light_simulator.pd;
#X msg 194 150 pd~ stop;
#X connect 1 0 2 0;
#X connect 2 0 4 0;
#X connect 3 0 0 0;
#X connect 4 0 0 0;
#X connect 5 0 0 0;
#X connect 6 0 0 0;
#X restore 80 165 pd simulation_light;
#N canvas 607 25 741 798 effet 1;
#N canvas 1292 28 612 1008 sends 1;
#X obj 3 42 cnv 15 1000 20 empty empty empty 20 12 0 14 -162280 -66577
0;
#X obj 3 62 cnv 15 1000 20 empty empty empty 20 12 0 14 -233017 -66577
0;
#X obj 3 82 cnv 15 1000 20 empty empty empty 20 12 0 14 -162280 -66577
0;
#X obj 3 22 cnv 15 1000 20 empty empty empty 20 12 0 14 -233017 -66577
0;
#X obj 3 102 cnv 15 1000 20 empty empty empty 20 12 0 14 -233017 -66577
0;
#X obj 3 122 cnv 15 1000 20 empty empty empty 20 12 0 14 -162280 -66577
0;
#X obj 3 142 cnv 15 1000 20 empty empty empty 20 12 0 14 -233017 -66577
0;
#X obj 3 162 cnv 15 1000 20 empty empty empty 20 12 0 14 -162280 -66577
0;
#X obj 3 182 cnv 15 1000 20 empty empty empty 20 12 0 14 -233017 -66577
0;
#X obj 3 202 cnv 15 1000 20 empty empty empty 20 12 0 14 -162280 -66577
0;
#X obj 3 222 cnv 15 1000 20 empty empty empty 20 12 0 14 -233017 -66577
0;
#X obj 3 242 cnv 15 1000 20 empty empty empty 20 12 0 14 -162280 -66577
0;
#X obj 3 262 cnv 15 1000 20 empty empty empty 20 12 0 14 -233017 -66577
0;
#X obj 3 282 cnv 15 1000 20 empty empty empty 20 12 0 14 -162280 -66577
0;
#X obj 3 302 cnv 15 1000 20 empty empty empty 20 12 0 14 -233017 -66577
0;
#X obj 3 322 cnv 15 1000 20 empty empty empty 20 12 0 14 -162280 -66577
0;
#X obj 3 342 cnv 15 1000 20 empty empty empty 20 12 0 14 -233017 -66577
0;
#X obj 3 362 cnv 15 1000 20 empty empty empty 20 12 0 14 -162280 -66577
0;
#X obj 3 382 cnv 15 1000 20 empty empty empty 20 12 0 14 -233017 -66577
0;
#X obj 3 402 cnv 15 1000 20 empty empty empty 20 12 0 14 -162280 -66577
0;
#X obj 3 422 cnv 15 1000 20 empty empty empty 20 12 0 14 -233017 -66577
0;
#X obj 3 442 cnv 15 1000 20 empty empty empty 20 12 0 14 -162280 -66577
0;
#X obj 3 462 cnv 15 1000 20 empty empty empty 20 12 0 14 -233017 -66577
0;
#X obj 3 482 cnv 15 1000 20 empty empty empty 20 12 0 14 -162280 -66577
0;
#X obj 3 502 cnv 15 1000 20 empty empty empty 20 12 0 14 -233017 -66577
0;
#X obj 3 522 cnv 15 1000 20 empty empty empty 20 12 0 14 -162280 -66577
0;
#X obj 3 542 cnv 15 1000 20 empty empty empty 20 12 0 14 -233017 -66577
0;
#X obj 3 562 cnv 15 1000 20 empty empty empty 20 12 0 14 -162280 -66577
0;
#X obj 3 582 cnv 15 1000 20 empty empty empty 20 12 0 14 -233017 -66577
0;
#X obj 3 602 cnv 15 1000 20 empty empty empty 20 12 0 14 -162280 -66577
0;
#X obj 3 622 cnv 15 1000 20 empty empty empty 20 12 0 14 -233017 -66577
0;
#X obj 3 642 cnv 15 1000 20 empty empty empty 20 12 0 14 -162280 -66577
0;
#X obj 3 662 cnv 15 1000 20 empty empty empty 20 12 0 14 -233017 -66577
0;
#X obj 3 682 cnv 15 1000 20 empty empty empty 20 12 0 14 -162280 -66577
0;
#X obj 3 702 cnv 15 1000 20 empty empty empty 20 12 0 14 -233017 -66577
0;
#X obj 3 722 cnv 15 1000 20 empty empty empty 20 12 0 14 -162280 -66577
0;
#X obj 3 742 cnv 15 1000 20 empty empty empty 20 12 0 14 -233017 -66577
0;
#X obj 3 762 cnv 15 1000 20 empty empty empty 20 12 0 14 -162280 -66577
0;
#X obj 3 782 cnv 15 1000 20 empty empty empty 20 12 0 14 -233017 -66577
0;
#X obj 3 802 cnv 15 1000 20 empty empty empty 20 12 0 14 -162280 -66577
0;
#X obj 3 822 cnv 15 1000 20 empty empty empty 20 12 0 14 -233017 -66577
0;
#X obj 3 842 cnv 15 1000 20 empty empty empty 20 12 0 14 -162280 -66577
0;
#X obj 3 862 cnv 15 1000 20 empty empty empty 20 12 0 14 -233017 -66577
0;
#X obj 3 882 cnv 15 1000 20 empty empty empty 20 12 0 14 -162280 -66577
0;
#X obj 3 902 cnv 15 1000 20 empty empty empty 20 12 0 14 -233017 -66577
0;
#X obj 3 922 cnv 15 1000 20 empty empty empty 20 12 0 14 -162280 -66577
0;
#X obj 3 942 cnv 15 1000 20 empty empty empty 20 12 0 14 -233017 -66577
0;
#X obj 3 962 cnv 15 1000 20 empty empty empty 20 12 0 14 -162280 -66577
0;
#X obj 3 982 cnv 15 1000 20 empty empty empty 20 12 0 14 -233017 -66577
0;
#X obj 3 1002 cnv 15 1000 20 empty empty empty 20 12 0 14 -162280 -66577
0;
#X obj 3 1022 cnv 15 1000 20 empty empty empty 20 12 0 14 -233017 -66577
0;
#X obj 3 1042 cnv 15 1000 20 empty empty empty 20 12 0 14 -162280 -66577
0;
#X text 77 23 1;
#X text 4 824 Vague.1 level;
#X text 4 844 Vague.1 largeur;
#X text 4 946 foret level;
#X text 4 966 foret speed;
#X text 4 985 Rwalk level;
#X text 4 1006 Rwalk speed;
#X text 4 864 Vague.2 level;
#X text 4 905 Vague.3 level;
#X text 4 925 Vague.3 largeur;
#X text 4 884 Vague.2 largeur;
#X text 77 43 2;
#X text 77 63 3;
#X text 77 83 4;
#X text 77 103 5;
#X text 77 123 6;
#X text 77 143 7;
#X text 77 163 8;
#X text 77 183 9;
#X text 77 203 10;
#X text 77 223 11;
#X text 77 243 12;
#X text 77 263 13;
#X text 77 283 14;
#X text 77 303 15;
#X text 77 323 16;
#X text 77 343 17;
#X text 77 363 18;
#X text 77 383 19;
#X text 77 403 20;
#X text 77 423 21;
#X text 77 443 22;
#X text 77 463 23;
#X text 77 483 24;
#X text 77 503 25;
#X text 77 523 26;
#X text 77 543 27;
#X text 77 563 28;
#X text 77 583 29;
#X text 77 603 30;
#X text 77 623 31;
#X text 77 643 32;
#X text 77 663 33;
#X text 77 683 34;
#X text 77 703 35;
#X text 77 723 36;
#X text 77 743 37;
#X text 77 763 38;
#X text 77 783 39;
#X text 77 803 40;
#X text 109 4 alex;
#X text 179 4 celia;
#X text 252 4 nina;
#X text 321 6 nico.1;
#X text 389 5 nico.2;
#X text 456 5 nico.3;
#X text 534 5 nico.4;
#X obj 104 23 send.view /alex;
#X obj 175 23 send.view /celia;
#X obj 244 23 send.view /nina;
#X obj 314 23 send.view /player.1;
#X obj 384 23 send.view /player.2;
#X obj 454 23 send.view /player.3;
#X obj 524 23 send.view /player.4;
#X obj 175 23 send.view /celia;
#X obj 175 23 send.view /celia;
#X obj 175 23 send.view /celia;
#X obj 175 23 send.view /celia;
#X obj 175 23 send.view /celia;
#X obj 175 23 send.view /celia;
#X coords 0 1008 1 1007 1000 1255 0;
#X restore 100 505 pd sends;
#N canvas 116 627 487 144 audiograph 1;
#N canvas 0 391 1280 480 audio-input 0;
#X obj 53 188 adc~ 1;
#X obj 183 344 outlet~;
#X obj 243 344 outlet~;
#X obj 303 344 outlet~;
#X obj 113 188 adc~ 2;
#X obj 173 188 adc~ 3;
#X obj 235 215 == 0;
#X obj 274 215 == 1;
#X obj 323 222 readsf~ 3, f 30;
#X obj 323 157 openpanel;
#X obj 235 124 vradio 15 1 0 2 empty empty empty 0 -8 0 10 -262144
-1 -1 1;
#X obj 53 288 *~ 1;
#X obj 113 288 *~ 1;
#X obj 173 288 *~ 1;
#X obj 323 288 *~ 0;
#X obj 382 287 *~ 0;
#X obj 441 287 *~ 0;
#X text 252 122 adc;
#X text 251 139 audiofile;
#X obj 323 93 sel 1, f 6;
#X obj 885 100 player.model player.1;
#X obj 886 140 dac~ 1 2;
#X obj 1019 142 dac~ 1 2;
#X obj 1154 144 dac~ 1 2;
#X obj 1287 145 dac~ 1 2;
#X obj 689 456 outlet~;
#X obj 823 460 outlet~;
#X obj 957 460 outlet~;
#X obj 1090 460 outlet~;
#X msg 323 136 symbol \$1/record;
#X obj 235 98 inlet;
#X obj 789 298 == 0;
#X obj 828 298 == 1;
#X obj 789 207 vradio 15 1 0 2 empty empty empty 0 -8 0 10 -262144
-1 -1 0;
#X obj 607 371 *~ 1;
#X obj 667 371 *~ 1;
#X obj 727 371 *~ 1;
#X obj 877 371 *~ 0;
#X obj 936 370 *~ 0;
#X obj 995 370 *~ 0;
#X text 806 205 adc;
#X text 805 222 audiofile;
#X obj 789 181 inlet;
#X obj 414 348 dac~ 1 2;
#X obj 787 371 *~ 1;
#X obj 1055 370 *~ 0;
#X obj 564 276 adc~ 5;
#X obj 624 276 adc~ 6;
#X obj 684 276 adc~ 7;
#X obj 744 276 adc~ 8;
#X obj 1018 101 player.model player.2;
#X obj 1153 103 player.model player.3;
#X obj 1286 104 player.model player.4;
#X obj 1173 354 j.remote /player.*/play;
#X msg 1173 333 0;
#X obj 323 115 ggee/getdir, f 12;
#X obj 323 180 pack s 0;
#X obj 466 139 * 48000;
#X obj 466 117 * 60;
#X floatatom 439 76 5 0 0 0 - - -, f 5;
#X msg 323 202 open \$1 \$2 \, 1;
#X obj 439 95 t b f;
#X text 472 73 offset en minutes dans le fichier à ouvrir;
#X connect 0 0 11 0;
#X connect 4 0 12 0;
#X connect 5 0 13 0;
#X connect 6 0 11 1;
#X connect 6 0 12 1;
#X connect 6 0 13 1;
#X connect 7 0 14 1;
#X connect 7 0 15 1;
#X connect 7 0 16 1;
#X connect 7 0 19 0;
#X connect 8 0 14 0;
#X connect 8 1 15 0;
#X connect 8 2 16 0;
#X connect 9 0 56 0;
#X connect 10 0 6 0;
#X connect 10 0 7 0;
#X connect 11 0 1 0;
#X connect 12 0 2 0;
#X connect 13 0 3 0;
#X connect 14 0 1 0;
#X connect 14 0 43 0;
#X connect 14 0 43 1;
#X connect 15 0 2 0;
#X connect 15 0 43 0;
#X connect 15 0 43 1;
#X connect 16 0 3 0;
#X connect 16 0 43 0;
#X connect 16 0 43 1;
#X connect 19 0 55 0;
#X connect 19 1 8 0;
#X connect 20 0 21 0;
#X connect 20 1 21 1;
#X connect 20 2 37 0;
#X connect 29 0 9 0;
#X connect 30 0 10 0;
#X connect 31 0 34 1;
#X connect 31 0 35 1;
#X connect 31 0 36 1;
#X connect 31 0 44 1;
#X connect 32 0 37 1;
#X connect 32 0 38 1;
#X connect 32 0 39 1;
#X connect 32 0 45 1;
#X connect 33 0 31 0;
#X connect 33 0 32 0;
#X connect 34 0 25 0;
#X connect 35 0 26 0;
#X connect 36 0 27 0;
#X connect 37 0 25 0;
#X connect 38 0 26 0;
#X connect 39 0 27 0;
#X connect 42 0 33 0;
#X connect 44 0 28 0;
#X connect 45 0 28 0;
#X connect 46 0 34 0;
#X connect 47 0 35 0;
#X connect 48 0 36 0;
#X connect 49 0 44 0;
#X connect 50 0 22 0;
#X connect 50 1 22 1;
#X connect 50 2 38 0;
#X connect 51 0 23 0;
#X connect 51 1 23 1;
#X connect 51 2 39 0;
#X connect 52 0 24 0;
#X connect 52 1 24 1;
#X connect 52 2 45 0;
#X connect 54 0 53 0;
#X connect 55 0 29 0;
#X connect 56 0 60 0;
#X connect 57 0 56 1;
#X connect 58 0 57 0;
#X connect 59 0 61 0;
#X connect 60 0 8 0;
#X connect 61 0 56 0;
#X connect 61 1 58 0;
#X restore 53 43 pd audio-input;
#X obj 53 16 inlet;
#N canvas 41 190 450 300 master 0;
#X obj 87 58 j.parameter master/brightness @type decimal;
#X floatatom 50 59 5 0 0 0 - - -, f 5;
#X floatatom 50 79 5 0 0 0 - - -, f 5;
#X floatatom 50 99 5 0 0 0 - - -, f 5;
#X floatatom 50 119 5 0 0 0 - - -, f 5;
#X obj 87 78 j.parameter master/pitch @type decimal;
#X obj 87 98 j.parameter master/spec @type decimal;
#X obj 87 118 j.parameter master/send @type decimal;
#X floatatom 50 140 5 0 0 0 - - -, f 5;
#X obj 87 138 j.parameter master/limit @type decimal;
#X obj 87 161 s dmxlimit;
#X connect 0 0 1 0;
#X connect 1 0 0 0;
#X connect 2 0 5 0;
#X connect 3 0 6 0;
#X connect 4 0 7 0;
#X connect 5 0 2 0;
#X connect 6 0 3 0;
#X connect 7 0 4 0;
#X connect 8 0 9 0;
#X connect 9 0 8 0;
#X connect 9 0 10 0;
#X restore 357 21 pd master;
#X obj 137 102 track.model celia;
#X obj 219 75 track.model nina;
#X obj 53 76 track.model alex;
#X connect 0 0 5 0;
#X connect 0 1 3 0;
#X connect 0 2 4 0;
#X connect 1 0 0 0;
#X restore 100 545 pd audiograph;
#X obj 59 631 / 100;
#X floatatom 59 613 5 0 200 1 % - -, f 5;
#X text 19 612 master;
#N canvas 0 22 450 300 view 0;
#X obj 55 52 player.view player.1;
#X restore 100 525 pd view;
#X text 22 51 threshold;
#X text 52 71 gain;
#X text 34 92 release;
#X text 46 116 pitch;
#X text 16 135 brightness;
#X text 46 188 width;
#X text 46 269 level;
#X text 40 228 in max;
#X text 40 208 in min;
#X text 46 296 range;
#X text 28 316 position;
#X text 28 336 freq min;
#X text 28 356 freq max;
#N canvas 386 77 453 676 Readme 0;
#X text 32 20 Réglage des entrées audio :;
#X text 57 39 Changer le seuil de sorte que seul le son utile fasse
monter le slider (quand on n'utilise pas le micro \, le son ambiant
ne doit pas faire bouger le slider.;
#X text 58 79 Monter le gain pour qu'une fine variation de volume fasse
bouger le slider.;
#X text 57 108 Le paramètre Release permet de contrôler le temps
de réponse du slider.;
#X text 28 173 Réglage des efffets :;
#X text 75 250 Brightness : c'est la brillance du son qui déplace
la tâche.;
#X text 75 270 Pitch : c'est la hauteur (la note) du son qui déplace
la tâche.;
#X text 73 304 range : nombre de projecteurs sur lesquels la tâche
se déplace;
#X text 73 334 offset : numéro du projecteur de départ;
#X text 73 354 width : largeur de la tâche;
#X text 73 374 in min/max : plage de valeur d'entrée \, quand l'entrée
est à min \, la tâche est à la position de départ \, quand l'entrée
est à max \, la tâche est à la position d'arrivée.;
#X text 73 424 level : niveau de l'effet;
#X text 73 504 offset : numéro du projecteur de départ;
#X text 73 614 level : niveau de l'effet;
#X text 45 450 Spectre : chaque bande de fréquences contrôle un projecteur
;
#X text 73 524 freq min/max : frequence min et max \, cette plage de
fréquence est divisé en autant de bande qu'on a sélectionné de
projecteurs \, toutes les bandes ont la même largeur en octave;
#X text 72 582 scale 1&2 : deux multiplicateur permettant de contrôler
la réponse des projecteurs;
#X text 73 474 range : nombre de projecteurs et nombre de bande de
fréquences à utiliser (<= 26);
#X text 45 190 Brightness et pitch : déplace une tâche de lumière
plus ou moins large sur plusieurs projecteurs. L'amplitude contrôle
l'intensité de la tâche.;
#X restore 100 565 pd Readme;
#X obj 21 497 vradio 15 1 0 2 empty empty empty 0 -8 0 10 -262144 -1
-1 1;
#X text 37 512 audiofile;
#X text 38 497 micros;
#X text 46 435 level;
#X text 22 249 smoothing;
#X text 100 6 Alex;
#X text 205 6 Celia;
#X text 331 5 Nina;
#X text 437 6 Nico.1;
#X text 547 4 Nico.2;
#X obj 59 592 * 100;
#X obj 120 612 j.remote /master/send;
#X obj 80 22 track.view /alex;
#X obj 321 502 j.remote /master/brightness;
#X obj 321 598 vsl 15 128 0 1 0 0 empty empty empty 0 -9 0 10 -262144
-1 -1 0 1;
#X obj 341 598 vsl 15 128 0 1 0 0 empty empty empty 0 -9 0 10 -262144
-1 -1 0 1;
#X obj 361 598 vsl 15 128 0 1 0 0 empty empty empty 0 -9 0 10 -262144
-1 -1 0 1;
#X obj 381 598 vsl 15 128 0 1 0 0 empty empty empty 0 -9 0 10 -262144
-1 -1 0 1;
#X text 262 610 master;
#X text 287 733 bright;
#X text 327 753 pitch;
#X text 375 754 send;
#X text 350 733 freq;
#X obj 341 522 j.remote /master/pitch;
#X obj 361 542 j.remote /master/spec;
#X obj 381 562 j.remote /master/send;
#X text 34 376 salaire;
#X text 34 396 profit;
#X obj 300 22 track.view /nina;
#X obj 190 22 track.view /celia;
#X obj 410 22 track.view /nico.1;
#X obj 522 22 track.view /nico.2;
#X text -41 418 limiteur de vitesse;
#X obj 198 501 nbx 3 28 -1e+37 1e+37 0 0 empty empty empty 0 -8 0 24
-262144 -1 -1 0 256;
#X obj 198 532 j.remote /master/limit;
#X obj 489 670 mtof;
#X floatatom 487 639 5 0 0 0 - - -, f 5;
#X floatatom 489 692 5 0 0 0 - - -, f 5;
#X connect 2 0 31 0;
#X connect 3 0 2 0;
#X connect 20 0 1 0;
#X connect 30 0 3 0;
#X connect 31 0 30 0;
#X connect 33 0 34 0;
#X connect 34 0 33 0;
#X connect 35 0 43 0;
#X connect 36 0 44 0;
#X connect 37 0 45 0;
#X connect 43 0 35 0;
#X connect 44 0 36 0;
#X connect 45 0 37 0;
#X connect 53 0 54 0;
#X connect 54 0 53 0;
#X connect 55 0 57 0;
#X connect 56 0 55 0;
#X restore 80 145 pd effet;
#N canvas 106 71 976 624 cues 0;
#X obj 519 191 j.cue;
#X msg 757 406 write cue-list.txt;
#X text 576 76 Read and write cue files;
#X obj 606 307 c.menu @size 172 17 @fontname "Helvetica" @fontweight
"normal" @fontslant "roman" @fontsize 11 @receive "(null)" @send "(null)"
@presetname "(null)" @hover 0 @items "000-debut" "001-solo_Nina+Alex"
"003-Solo_alex+nina" "004-Sorciere_Celia" "Noir - Reset" @states 0
0 0 0 0 @bgcolor 0.75 0.75 0.75 1 @bdcolor 0.5 0.5 0.5 1 @textcolor
0 0 0 1;
#N canvas 333 202 469 357 fillmenu 0;
#X msg 200 112 clear;
#X obj 144 220 list;
#X obj 69 149 list split 1;
#X obj 69 174 t b a;
#X obj 96 257 list prepend append;
#X obj 96 279 list trim;
#X obj 244 335 outlet;
#X obj 161 33 inlet;
#X obj 161 57 route names current;
#X obj 297 263 list;
#X obj 161 79 t b a b;
#X connect 0 0 6 0;
#X connect 1 0 2 0;
#X connect 2 0 3 0;
#X connect 2 1 1 1;
#X connect 3 0 1 0;
#X connect 3 1 4 0;
#X connect 4 0 5 0;
#X connect 5 0 6 0;
#X connect 7 0 8 0;
#X connect 8 0 10 0;
#X connect 8 1 9 1;
#X connect 10 0 9 0;
#X connect 10 1 2 0;
#X connect 10 2 0 0;
#X restore 606 282 pd fillmenu;
#X obj 747 359 bng 15 250 50 0 empty empty save 17 7 0 10 -262144 -1
-1;
#X obj 519 73 loadbang;
#X msg 519 95 read cue-list.txt \, dump;
#X obj 604 359 bng 15 250 50 0 empty empty new 17 7 0 10 -262144 -1
-1;
#X obj 644 359 bng 15 250 50 0 empty empty update 17 7 0 10 -262144
-1 -1;
#X msg 672 407 vis 1;
#X msg 879 406 recall \$1;
#X msg 534 409 vis 1;
#N canvas 784 22 418 321 cue-update 0;
#X obj 2 1 cnv 15 400 200 empty empty empty 400 300 0 14 -261682 -66577
0;
#N canvas 872 381 806 427 select 0;
#X obj 106 119 c.menu @size 172 17 @fontname "Helvetica" @fontweight
"normal" @fontslant "roman" @fontsize 11 @receive "(null)" @send "(null)"
@presetname "(null)" @hover 0 @items "000-debut" "001-solo_Nina+Alex"
"003-Solo_alex+nina" "004-Sorciere_Celia" "Noir - Reset" @states 0
0 0 0 0 @bgcolor 0.75 0.75 0.75 1 @bdcolor 0.5 0.5 0.5 1 @textcolor
0 0 0 1;
#N canvas 519 214 469 357 fillmenu 0;
#X msg 200 112 clear;
#X obj 144 220 list;
#X obj 69 149 list split 1;
#X obj 69 174 t b a;
#X obj 96 257 list prepend append;
#X obj 96 279 list trim;
#X obj 244 335 outlet;
#X obj 161 33 inlet;
#X obj 297 263 list;
#X obj 161 79 t b a b;
#X obj 368 220 r \$0-to-j.cue;
#X obj 368 242 route recall;
#X obj 161 57 route names current;
#X obj 347 291 list;
#X obj 347 145 r pd-cue-update;
#X obj 347 167 route vis;
#X obj 347 189 sel 1;
#X obj 347 311 list trim;
#X connect 0 0 6 0;
#X connect 1 0 2 0;
#X connect 2 0 3 0;
#X connect 2 1 1 1;
#X connect 3 0 1 0;
#X connect 3 1 4 0;
#X connect 4 0 5 0;
#X connect 5 0 6 0;
#X connect 7 0 12 0;
#X connect 8 0 6 0;
#X connect 9 0 8 0;
#X connect 9 1 2 0;
#X connect 9 2 0 0;
#X connect 10 0 11 0;
#X connect 11 0 13 1;
#X connect 12 0 9 0;
#X connect 12 1 8 1;
#X connect 13 0 17 0;
#X connect 14 0 15 0;
#X connect 15 0 16 0;
#X connect 16 0 13 0;
#X connect 17 0 6 0;
#X restore 106 54 pd fillmenu;
#X text 103 100 Quelle cue faut-il mettre à jour ?;
#X msg 104 263 vis 0;
#X obj 104 139 bng 15 250 50 0 empty empty cancel 17 7 0 10 -262144
-1 -1;
#X obj 194 139 bng 15 250 50 0 empty empty empty 17 7 0 10 -262144
-1 -1;
#X obj 273 237 list trim;
#X msg 246 339 update 000-debut;
#X obj 194 189 t b b;
#X obj 246 384 s \$0-to-j.cue;
#X obj 273 217 list prepend set update;
#X obj 104 285 s pd-cue-update;
#X obj 106 30 r \$0-from-j.cue;
#X obj 134 158 bng 15 250 50 0 empty empty delete 17 7 0 10 -262144
-1 -1;
#X text 210 139 update state;
#X obj 423 237 list trim;
#X obj 134 189 t b b;
#X msg 423 337 delete 000-debut;
#X obj 573 237 list trim;
#X obj 573 217 list prepend set update;
#X msg 573 337 delete blbal;
#N canvas 0 108 450 300 cue-move 0;
#N canvas 0 136 450 300 cue-move 0;
#X obj 106 107 c.menu @size 172 17 @fontname "Helvetica" @fontweight
"normal" @fontslant "roman" @fontsize 11 @receive "(null)" @send "(null)"
@presetname "(null)" @hover 0 @items "000-debut" "001-solo_Nina+Alex"
"003-Solo_alex+nina" "004-Sorciere_Celia" "Noir - Reset" @states 0
0 0 0 0 @bgcolor 0.75 0.75 0.75 1 @bdcolor 0.5 0.5 0.5 1 @textcolor
0 0 0 1;
#N canvas 519 214 469 357 fillmenu 0;
#X msg 200 112 clear;
#X obj 144 220 list;
#X obj 69 149 list split 1;
#X obj 69 174 t b a;
#X obj 96 257 list prepend append;
#X obj 96 279 list trim;
#X obj 244 335 outlet;
#X obj 161 33 inlet;
#X obj 297 263 list;
#X obj 161 79 t b a b;
#X obj 368 220 r \$0-to-j.cue;
#X obj 368 242 route recall;
#X obj 161 57 route names current;
#X obj 347 291 list;
#X obj 347 167 route vis;
#X obj 347 189 sel 1;
#X obj 347 311 list trim;
#X obj 347 145 r pd-cue-move;
#X connect 0 0 6 0;
#X connect 1 0 2 0;
#X connect 2 0 3 0;
#X connect 2 1 1 1;
#X connect 3 0 1 0;
#X connect 3 1 4 0;
#X connect 4 0 5 0;
#X connect 5 0 6 0;
#X connect 7 0 12 0;
#X connect 8 0 6 0;
#X connect 9 0 8 0;
#X connect 9 1 2 0;
#X connect 9 2 0 0;
#X connect 10 0 11 0;
#X connect 11 0 13 1;
#X connect 12 0 9 0;
#X connect 12 1 8 1;
#X connect 13 0 16 0;
#X connect 14 0 15 0;
#X connect 15 0 13 0;
#X connect 16 0 6 0;
#X connect 17 0 14 0;
#X restore 106 52 pd fillmenu;
#X obj 106 28 r \$0-from-j.cue;
#X connect 1 0 0 0;
#X connect 2 0 1 0;
#X coords 0 -1 1 1 200 60 2 100 100;
#X restore 72 86 pd cue-move;
#X restore 413 90 pd cue-move;
#X obj 387 154 bng 15 250 50 0 empty empty move 17 7 0 10 -262144 -1
-1;
#X obj 437 154 bng 15 250 50 0 empty empty move 17 7 0 10 -262144 -1
-1;
#X obj 423 217 list prepend set delete;
#X obj 106 79 spigot;
#X obj 104 226 t b b;
#X msg 160 254 0;
#X msg 206 52 1;
#X obj 206 30 r update-update-menu;
#X connect 0 1 10 0;
#X connect 0 1 24 0;
#X connect 1 0 25 0;
#X connect 3 0 11 0;
#X connect 4 0 26 0;
#X connect 5 0 8 0;
#X connect 6 0 7 0;
#X connect 7 0 9 0;
#X connect 8 0 26 0;
#X connect 8 1 7 0;
#X connect 10 0 6 0;
#X connect 12 0 1 0;
#X connect 13 0 16 0;
#X connect 15 0 17 0;
#X connect 16 0 26 0;
#X connect 16 1 17 0;
#X connect 17 0 9 0;
#X connect 18 0 20 0;
#X connect 19 0 18 0;
#X connect 24 0 15 0;
#X connect 25 0 0 0;
#X connect 26 0 3 0;
#X connect 26 1 27 0;
#X connect 27 0 25 1;
#X connect 28 0 25 1;
#X connect 29 0 28 0;
#X coords 0 -1 1 1 220 80 2 100 100;
#X restore 104 55 pd select;
#X restore 672 449 pd cue-update;
#X obj 672 428 s pd-cue-update;
#X obj 534 436 s pd-cue-new;
#N canvas 692 442 450 300 cue-new 0;
#N canvas 0 136 485 403 setname 0;
#X symbolatom 107 104 20 0 0 0 - - -, f 20;
#X obj 74 181 symbol;
#X obj 193 122 bng 15 250 50 0 empty empty save 17 7 0 10 -262144 -1
-1;
#X obj 123 122 bng 15 250 50 0 empty empty cancel 17 7 0 10 -262144
-1 -1;
#X obj 123 208 s pd-cue-new;
#X msg 123 181 vis 0;
#X obj 101 231 list prepend new;
#X obj 101 253 list trim;
#X obj 107 11 r pd-cue-new;
#X obj 107 33 t b;
#X obj 107 55 symbol new name;
#X obj 193 143 t b b;
#X obj 74 205 t b a;
#X msg 59 240 dump;
#X obj 75 275 s \$0-to-j.cue;
#X connect 0 0 1 1;
#X connect 1 0 12 0;
#X connect 2 0 11 0;
#X connect 3 0 5 0;
#X connect 5 0 4 0;
#X connect 6 0 7 0;
#X connect 7 0 14 0;
#X connect 8 0 9 0;
#X connect 9 0 10 0;
#X connect 10 0 0 0;
#X connect 11 0 5 0;
#X connect 11 1 1 0;
#X connect 12 0 13 0;
#X connect 12 1 6 0;
#X connect 13 0 14 0;
#X coords 0 -1 1 1 140 40 2 100 100;
#X restore 153 91 pd setname;
#X restore 534 456 pd cue-new;
#X obj 393 396 + 1;
#X obj 378 430 i;
#X obj 308 430 i;
#X obj 323 396 - 1;
#X obj 674 327 bng 15 250 50 0 empty empty next 17 7 0 10 -262144 -1
-1;
#X obj 604 327 bng 15 250 50 0 empty empty prev 17 7 0 10 -262144 -1
-1;
#X obj 536 142 r \$0-to-j.cue;
#X obj 778 449 s \$0-to-j.cue;
#X obj 587 227 s \$0-from-j.cue;
#X msg 547 167 dump;
#X msg 706 263 clear;
#X msg 346 112 Move 3 1 \, dump;
#X msg 316 132 move 2 1 \, dump;
#X obj 747 336 bng 15 250 50 0 empty empty reload 17 7 0 10 -262144
-1 -1;
#X msg 226 112 Move init 1 \, dump;
#X msg 196 132 move init 1 \, dump;
#X msg 283 60 delete foo;
#X msg 362 213 rename blbal foo;
#X obj 802 241 iemguts/savebangs;
#X obj 772 211 iemguts/savebangs 1;
#X obj 653 499 s update-update-menu;
#X msg 653 478 1;
#X obj 634 382 t b b b;
#X connect 0 1 4 0;
#X connect 0 1 25 0;
#X connect 1 0 24 0;
#X connect 3 0 17 0;
#X connect 3 0 20 0;
#X connect 3 1 11 0;
#X connect 4 0 3 0;
#X connect 5 0 1 0;
#X connect 6 0 7 0;
#X connect 7 0 0 0;
#X connect 8 0 12 0;
#X connect 9 0 39 0;
#X connect 10 0 14 0;
#X connect 11 0 24 0;
#X connect 12 0 15 0;
#X connect 17 0 18 1;
#X connect 18 0 3 0;
#X connect 19 0 3 0;
#X connect 20 0 19 1;
#X connect 21 0 18 0;
#X connect 22 0 19 0;
#X connect 23 0 0 0;
#X connect 26 0 0 0;
#X connect 27 0 3 0;
#X connect 28 0 0 0;
#X connect 29 0 0 0;
#X connect 30 0 7 0;
#X connect 31 0 0 0;
#X connect 32 0 0 0;
#X connect 33 0 0 0;
#X connect 34 0 0 0;
#X connect 35 0 5 0;
#X connect 36 0 5 0;
#X connect 38 0 37 0;
#X connect 39 0 26 0;
#X connect 39 1 38 0;
#X connect 39 2 10 0;
#X coords 0 -1 1 1 200 80 2 600 300;
#X restore 47 20 pd cues;
#N canvas 577 522 220 176 effet 0;
#X obj 18 98 effet_foret_random2 foret;
#N canvas 531 407 498 473 random-proj 0;
#X obj 394 413 bus effet10;
#X obj 41 383 bus effet11;
#X obj 81 413 bus effet12;
#X obj 111 383 bus effet13;
#X obj 151 413 bus effet14;
#X obj 181 383 bus effet15;
#X obj 221 413 bus effet16;
#X obj 253 382 bus effet17;
#X obj 291 413 bus effet18;
#X obj 321 382 bus effet19;
#X obj 105 -19 notein 1;
#X obj 104 28 spigot;
#X obj 149 7 > 0;
#X obj 104 48 sel 1;
#X obj 105 263 pack;
#X msg 106 287 \$2 \$1;
#X obj 104 68 t b b b;
#X msg 257 115 0;
#X obj 105 116 random 1000;
#X obj 105 224 line;
#X obj 105 146 + 500;
#X obj 181 117 random 6;
#X msg 105 185 15 \, 0 \$1;
#X obj 102 311 route 0 1 2 3 4 5 6 7 8 9;
#X connect 10 0 11 0;
#X connect 10 1 12 0;
#X connect 11 0 13 0;
#X connect 12 0 11 1;
#X connect 13 0 16 0;
#X connect 14 0 15 0;
#X connect 15 0 23 0;
#X connect 16 0 18 0;
#X connect 16 1 21 0;
#X connect 16 2 17 0;
#X connect 17 0 14 0;
#X connect 18 0 20 0;
#X connect 19 0 14 0;
#X connect 20 0 22 0;
#X connect 21 0 14 1;
#X connect 22 0 19 0;
#X connect 23 0 1 0;
#X connect 23 1 2 0;
#X connect 23 2 3 0;
#X connect 23 3 4 0;
#X connect 23 4 5 0;
#X connect 23 5 6 0;
#X connect 23 6 7 0;
#X connect 23 7 8 0;
#X connect 23 8 9 0;
#X connect 23 9 0 0;
#X restore 41 123 pd random-proj;
#X obj 18 16 effet_foret_random;
#X obj 18 37 vague_1D_random;
#X obj 18 58 wave_gaus;
#N canvas 420 311 396 665 salve-generator 0;
#X obj 93 419 salve;
#X obj 93 366 line;
#X obj 74 103 random 100;
#X obj 49 230 del;
#X obj 49 209 t f f;
#X obj 60 266 f;
#X msg 59 310 0 \$1;
#X obj 59 288 * 10;
#X obj 74 53 bng 15 250 50 0 empty empty empty 17 7 0 10 -262144 -1
-1;
#X obj 74 177 t f f f;
#X floatatom 141 362 5 0 0 0 - - -, f 5;
#X floatatom 161 397 5 0 0 0 - - -, f 5;
#X obj 75 -60 notein 1;
#X obj 74 -3 spigot;
#X obj 74 28 sel 0;
#X obj 119 -34 > 0;
#X obj 74 140 + 100;
#X msg 93 277 \$2 \$1;
#X obj 93 241 pack 2 100;
#X obj 211 300 / 2;
#X obj 227 226 nbx 5 14 -1e+37 1e+37 0 1 empty empty empty 0 -8 0 10
-262144 -1 -1 0 256;
#X obj 194 261 * 1;
#X text 285 224 level;
#X connect 1 0 0 0;
#X connect 2 0 16 0;
#X connect 3 0 5 0;
#X connect 4 0 3 0;
#X connect 4 1 5 1;
#X connect 5 0 7 0;
#X connect 6 0 1 0;
#X connect 7 0 6 0;
#X connect 8 0 2 0;
#X connect 9 0 4 0;
#X connect 9 1 18 0;
#X connect 9 2 21 0;
#X connect 10 0 0 0;
#X connect 11 0 0 1;
#X connect 12 0 13 0;
#X connect 12 1 15 0;
#X connect 13 0 14 0;
#X connect 14 0 8 0;
#X connect 15 0 13 1;
#X connect 16 0 9 0;
#X connect 17 0 1 0;
#X connect 18 0 17 0;
#X connect 19 0 0 1;
#X connect 20 0 21 1;
#X connect 21 0 19 0;
#X restore 18 78 pd salve-generator;
#X restore 70 239 pd effet;
