#N canvas 316 100 1144 768 10;
#X declare -path abs -path abs_light;
#X declare -lib Jamoma -lib zexy -lib Cream;
#X declare -path ../abs_light;
#X declare -path ../abs_light;
#X declare -path ../abs_light;
#N canvas 21 539 1554 461 master 0;
#N canvas 704 417 450 300 metro 0;
#X obj 77 3 loadbang;
#X obj 116 118 s metro_dmx;
#X obj 96 141 s metro_dmx_int;
#X obj 77 75 t b b b;
#X obj 76 167 s send-dmx;
#X obj 77 35 tgl 15 0 empty empty empty 17 7 0 10 -262144 -1 -1 1 1
;
#X obj 77 53 metro 20;
#X obj 154 53 bng 15 250 50 0 empty empty empty 17 7 0 10 -262144 -1
-1;
#X connect 0 0 5 0;
#X connect 3 0 4 0;
#X connect 3 1 2 0;
#X connect 3 2 1 0;
#X connect 5 0 6 0;
#X connect 6 0 3 0;
#X connect 7 0 3 0;
#X restore 43 8 pd metro;
#X obj 109 81 nbx 3 14 0 512 0 1 empty empty dmx_ch 0 -8 0 10 -262144
-1 -1 80 256;
#X obj 43 80 enttec_out;
#X obj 109 261 nbx 3 14 0 512 0 1 empty empty dmx_ch 0 -8 0 10 -262144
-1 -1 51 256;
#X obj 109 201 nbx 3 14 0 512 0 1 empty empty dmx_ch 0 -8 0 10 -262144
-1 -1 9 256;
#X obj 109 321 nbx 3 14 0 512 0 1 empty empty dmx_ch 0 -8 0 10 -262144
-1 -1 11 256;
#X obj 109 141 nbx 3 14 0 512 0 1 empty empty dmx_ch 0 -8 0 10 -262144
-1 -1 83 256;
#N canvas 654 94 450 300 panic 0;
#X obj 101 181 \$1;
#X obj 101 235 s index;
#X obj 74 262 s value;
#X obj 101 208 + 4;
#X obj 74 68 until;
#X msg 74 37 512;
#X obj 74 154 t b f;
#X msg 71 196 0;
#X obj 75 103 f;
#X obj 74 127 + 1;
#X obj 73 14 inlet;
#X connect 0 0 3 0;
#X connect 3 0 1 0;
#X connect 4 0 8 0;
#X connect 5 0 4 0;
#X connect 6 0 7 0;
#X connect 6 1 0 0;
#X connect 7 0 2 0;
#X connect 8 0 9 0;
#X connect 9 0 6 0;
#X connect 9 0 8 1;
#X connect 10 0 5 0;
#X restore 116 27 pd panic;
#X obj 115 9 bng 15 250 50 0 empty empty empty 17 7 0 10 -262144 -1
-1;
#X obj 43 48 bus_master 1;
#X obj 43 108 bus_master 2;
#X obj 43 168 bus_master 3;
#X obj 43 228 bus_master 4;
#X obj 43 288 bus_master 5;
#X text 3 361 Pour chaque circuit entrer le;
#X text 12 375 numéro de grada dans la case dmx_ch;
#X obj 289 81 nbx 3 14 0 512 0 1 empty empty dmx_ch 0 -8 0 10 -262144
-1 -1 55 256;
#X obj 289 261 nbx 3 14 0 512 0 1 empty empty dmx_ch 0 -8 0 10 -262144
-1 -1 41 256;
#X obj 289 201 nbx 3 14 0 512 0 1 empty empty dmx_ch 0 -8 0 10 -262144
-1 -1 10 256;
#X obj 289 321 nbx 3 14 0 512 0 1 empty empty dmx_ch 0 -8 0 10 -262144
-1 -1 8 256;
#X obj 289 141 nbx 3 14 0 512 0 1 empty empty dmx_ch 0 -8 0 10 -262144
-1 -1 40 256;
#N canvas 341 247 559 378 send_DMX 0;
#N canvas 51 135 341 328 list-creation 0;
#X obj 234 215 l;
#X obj 118 -15 t b b b;
#X obj 137 198 list append;
#X msg 236 81 231;
#X obj 137 85 until;
#X msg 137 119 0;
#X msg 38 82 126 6 1 2;
#X obj 138 266 outlet;
#X obj 118 -53 loadbang;
#X msg 137 53 513;
#X obj 183 -41 bng 15 250 50 0 empty empty empty 17 7 0 10 -262144
-1 -1;
#X obj 122 235 l;
#X obj 56 -27 t b b;
#X connect 0 0 2 1;
#X connect 1 0 6 0;
#X connect 1 1 9 0;
#X connect 1 2 3 0;
#X connect 2 0 0 0;
#X connect 2 0 11 1;
#X connect 3 0 2 0;
#X connect 4 0 5 0;
#X connect 5 0 2 0;
#X connect 6 0 2 0;
#X connect 8 0 12 0;
#X connect 9 0 4 0;
#X connect 10 0 12 0;
#X connect 11 0 7 0;
#X connect 12 0 11 0;
#X connect 12 1 1 0;
#X restore 231 -293 pd list-creation;
#X obj 295 -228 l;
#X obj 144 -319 r value;
#X obj 178 -292 r index;
#X msg 249 -118 devicename /dev/tty.usbserial-EN093215;
#X obj 249 -142 loadbang;
#X obj 123 -212 list;
#X obj 69 -256 r send-dmx;
#X obj 123 -151 route bang;
#X obj 211 -48 comport 2;
#X obj 262 -15 route open;
#X obj 262 12 tgl 15 0 empty empty empty 17 7 0 10 -262144 -1 -1 0
1;
#X msg 266 -75 close;
#X obj 320 18 print COMPORT;
#X obj 199 -119 tgl 15 0 empty empty empty 17 7 0 10 -262144 -1 -1
0 1;
#X obj 144 -255 list-abs/list-replace;
#X obj 154 -93 spigot 0;
#X connect 0 0 15 2;
#X connect 1 0 15 2;
#X connect 2 0 15 0;
#X connect 3 0 15 1;
#X connect 4 0 9 0;
#X connect 5 0 4 0;
#X connect 6 0 8 0;
#X connect 7 0 6 0;
#X connect 8 1 16 0;
#X connect 9 1 10 0;
#X connect 10 0 11 0;
#X connect 10 1 13 0;
#X connect 12 0 9 0;
#X connect 14 0 16 1;
#X connect 15 0 1 0;
#X connect 15 0 6 1;
#X connect 16 0 9 0;
#X restore 43 28 pd send_DMX;
#X obj 223 47 bus_master 6;
#X obj 223 108 bus_master 7;
#X obj 223 168 bus_master 8;
#X obj 223 228 bus_master 9;
#X obj 223 288 bus_master 10;
#X obj 479 81 nbx 3 14 0 512 0 1 empty empty dmx_ch 0 -8 0 10 -262144
-1 -1 39 256;
#X obj 479 261 nbx 3 14 0 512 0 1 empty empty dmx_ch 0 -8 0 10 -262144
-1 -1 53 256;
#X obj 479 201 nbx 3 14 0 512 0 1 empty empty dmx_ch 0 -8 0 10 -262144
-1 -1 52 256;
#X obj 479 321 nbx 3 14 0 512 0 1 empty empty dmx_ch 0 -8 0 10 -262144
-1 -1 0 256;
#X obj 479 141 nbx 3 14 0 512 0 1 empty empty dmx_ch 0 -8 0 10 -262144
-1 -1 35 256;
#X obj 659 81 nbx 3 14 0 512 0 1 empty empty dmx_ch 0 -8 0 10 -262144
-1 -1 0 256;
#X obj 659 261 nbx 3 14 0 512 0 1 empty empty dmx_ch 0 -8 0 10 -262144
-1 -1 1 256;
#X obj 659 201 nbx 3 14 0 512 0 1 empty empty dmx_ch 0 -8 0 10 -262144
-1 -1 1 256;
#X obj 659 321 nbx 3 14 0 512 0 1 empty empty dmx_ch 0 -8 0 10 -262144
-1 -1 0 256;
#X obj 659 141 nbx 3 14 0 512 0 1 empty empty dmx_ch 0 -8 0 10 -262144
-1 -1 0 256;
#X obj 413 48 bus_master 11;
#X obj 413 108 bus_master 12;
#X obj 413 168 bus_master 13;
#X obj 413 227 bus_master 14;
#X obj 413 288 bus_master 15;
#X obj 593 47 bus_master 16;
#X obj 593 108 bus_master 17;
#X obj 593 168 bus_master 18;
#X obj 593 227 bus_master 19;
#X obj 593 288 bus_master 20;
#X text 316 359 1 - 9 : cyliodes;
#X text 316 392 13 - 15 : PAR COUR;
#X text 316 379 10 - 12 : PAR JARDIN;
#X text 316 404 16 - 18 : PC;
#X obj 849 81 nbx 3 14 0 512 0 1 empty empty dmx_ch 0 -8 0 10 -262144
-1 -1 80 256;
#X obj 849 261 nbx 3 14 0 512 0 1 empty empty dmx_ch 0 -8 0 10 -262144
-1 -1 51 256;
#X obj 849 201 nbx 3 14 0 512 0 1 empty empty dmx_ch 0 -8 0 10 -262144
-1 -1 9 256;
#X obj 849 321 nbx 3 14 0 512 0 1 empty empty dmx_ch 0 -8 0 10 -262144
-1 -1 11 256;
#X obj 849 141 nbx 3 14 0 512 0 1 empty empty dmx_ch 0 -8 0 10 -262144
-1 -1 83 256;
#X obj 1029 81 nbx 3 14 0 512 0 1 empty empty dmx_ch 0 -8 0 10 -262144
-1 -1 55 256;
#X obj 1029 261 nbx 3 14 0 512 0 1 empty empty dmx_ch 0 -8 0 10 -262144
-1 -1 41 256;
#X obj 1029 201 nbx 3 14 0 512 0 1 empty empty dmx_ch 0 -8 0 10 -262144
-1 -1 10 256;
#X obj 1029 321 nbx 3 14 0 512 0 1 empty empty dmx_ch 0 -8 0 10 -262144
-1 -1 8 256;
#X obj 1029 141 nbx 3 14 0 512 0 1 empty empty dmx_ch 0 -8 0 10 -262144
-1 -1 40 256;
#X obj 1219 81 nbx 3 14 0 512 0 1 empty empty dmx_ch 0 -8 0 10 -262144
-1 -1 39 256;
#X obj 1219 261 nbx 3 14 0 512 0 1 empty empty dmx_ch 0 -8 0 10 -262144
-1 -1 53 256;
#X obj 1219 201 nbx 3 14 0 512 0 1 empty empty dmx_ch 0 -8 0 10 -262144
-1 -1 52 256;
#X obj 1219 321 nbx 3 14 0 512 0 1 empty empty dmx_ch 0 -8 0 10 -262144
-1 -1 0 256;
#X obj 1219 141 nbx 3 14 0 512 0 1 empty empty dmx_ch 0 -8 0 10 -262144
-1 -1 35 256;
#X obj 1399 81 nbx 3 14 0 512 0 1 empty empty dmx_ch 0 -8 0 10 -262144
-1 -1 0 256;
#X obj 1399 261 nbx 3 14 0 512 0 1 empty empty dmx_ch 0 -8 0 10 -262144
-1 -1 1 256;
#X obj 1399 201 nbx 3 14 0 512 0 1 empty empty dmx_ch 0 -8 0 10 -262144
-1 -1 1 256;
#X obj 1399 321 nbx 3 14 0 512 0 1 empty empty dmx_ch 0 -8 0 10 -262144
-1 -1 0 256;
#X obj 1399 141 nbx 3 14 0 512 0 1 empty empty dmx_ch 0 -8 0 10 -262144
-1 -1 0 256;
#X obj 783 48 bus_master 21;
#X obj 783 108 bus_master 22;
#X obj 783 168 bus_master 23;
#X obj 783 228 bus_master 24;
#X obj 783 288 bus_master 25;
#X obj 963 47 bus_master 26;
#X obj 963 109 bus_master 27;
#X obj 963 168 bus_master 28;
#X obj 963 228 bus_master 29;
#X obj 963 288 bus_master 30;
#X obj 1153 48 bus_master 31;
#X obj 1153 108 bus_master 32;
#X obj 1153 168 bus_master 33;
#X obj 1153 227 bus_master 34;
#X obj 1153 288 bus_master 35;
#X obj 1333 47 bus_master 36;
#X obj 1333 108 bus_master 37;
#X obj 1333 168 bus_master 38;
#X obj 1333 227 bus_master 39;
#X obj 1333 288 bus_master 40;
#X obj 43 260 enttec_out;
#X obj 43 200 enttec_out;
#X obj 43 320 enttec_out;
#X obj 43 140 enttec_out;
#X obj 223 80 enttec_out;
#X obj 223 260 enttec_out;
#X obj 223 200 enttec_out;
#X obj 223 320 enttec_out;
#X obj 223 140 enttec_out;
#X obj 413 80 enttec_out;
#X obj 413 260 enttec_out;
#X obj 413 200 enttec_out;
#X obj 413 320 enttec_out;
#X obj 413 140 enttec_out;
#X obj 593 80 enttec_out;
#X obj 593 260 enttec_out;
#X obj 593 200 enttec_out;
#X obj 593 320 enttec_out;
#X obj 593 140 enttec_out;
#X obj 783 80 enttec_out;
#X obj 783 260 enttec_out;
#X obj 783 200 enttec_out;
#X obj 783 320 enttec_out;
#X obj 783 140 enttec_out;
#X obj 963 80 enttec_out;
#X obj 963 260 enttec_out;
#X obj 963 200 enttec_out;
#X obj 963 320 enttec_out;
#X obj 963 140 enttec_out;
#X obj 1153 80 enttec_out;
#X obj 1153 260 enttec_out;
#X obj 1153 200 enttec_out;
#X obj 1153 320 enttec_out;
#X obj 1153 140 enttec_out;
#X obj 1333 80 enttec_out;
#X obj 1333 260 enttec_out;
#X obj 1333 200 enttec_out;
#X obj 1333 320 enttec_out;
#X obj 1333 140 enttec_out;
#X connect 1 0 2 1;
#X connect 3 0 91 1;
#X connect 4 0 92 1;
#X connect 5 0 93 1;
#X connect 6 0 94 1;
#X connect 8 0 7 0;
#X connect 9 0 2 0;
#X connect 10 0 94 0;
#X connect 11 0 92 0;
#X connect 12 0 91 0;
#X connect 13 0 93 0;
#X connect 16 0 95 1;
#X connect 17 0 96 1;
#X connect 18 0 97 1;
#X connect 19 0 98 1;
#X connect 20 0 99 1;
#X connect 22 0 95 0;
#X connect 23 0 99 0;
#X connect 24 0 97 0;
#X connect 25 0 96 0;
#X connect 26 0 98 0;
#X connect 27 0 100 1;
#X connect 28 0 101 1;
#X connect 29 0 102 1;
#X connect 30 0 103 1;
#X connect 31 0 104 1;
#X connect 32 0 105 1;
#X connect 33 0 106 1;
#X connect 34 0 107 1;
#X connect 35 0 108 1;
#X connect 36 0 109 1;
#X connect 37 0 100 0;
#X connect 38 0 104 0;
#X connect 39 0 102 0;
#X connect 40 0 101 0;
#X connect 41 0 103 0;
#X connect 42 0 105 0;
#X connect 43 0 109 0;
#X connect 44 0 107 0;
#X connect 45 0 106 0;
#X connect 46 0 108 0;
#X connect 51 0 110 1;
#X connect 52 0 111 1;
#X connect 53 0 112 1;
#X connect 54 0 113 1;
#X connect 55 0 114 1;
#X connect 56 0 115 1;
#X connect 57 0 116 1;
#X connect 58 0 117 1;
#X connect 59 0 118 1;
#X connect 60 0 119 1;
#X connect 61 0 120 1;
#X connect 62 0 121 1;
#X connect 63 0 122 1;
#X connect 64 0 123 1;
#X connect 65 0 124 1;
#X connect 66 0 125 1;
#X connect 67 0 126 1;
#X connect 68 0 127 1;
#X connect 69 0 128 1;
#X connect 70 0 129 1;
#X connect 71 0 110 0;
#X connect 72 0 114 0;
#X connect 73 0 112 0;
#X connect 74 0 111 0;
#X connect 75 0 113 0;
#X connect 76 0 115 0;
#X connect 77 0 119 0;
#X connect 78 0 117 0;
#X connect 79 0 116 0;
#X connect 80 0 118 0;
#X connect 81 0 120 0;
#X connect 82 0 124 0;
#X connect 83 0 122 0;
#X connect 84 0 121 0;
#X connect 85 0 123 0;
#X connect 86 0 125 0;
#X connect 87 0 129 0;
#X connect 88 0 127 0;
#X connect 89 0 126 0;
#X connect 90 0 128 0;
#X restore 71 265 pd master;
#N canvas 427 124 508 200 init 0;
#X msg 62 131 dsp 1;
#X obj 62 25 loadbang;
#X obj 62 45 del 1000;
#X obj 62 155 s pd;
#X obj 107 131 selectAudiodevice (0)PreSonus_FP10_(0121);
#X obj 182 22 declare -path abs -path abs_light;
#N canvas 488 342 257 236 midisetting 0;
#X obj 102 19 bng 15 250 50 0 empty empty empty 17 7 0 10 -262144 -1
-1;
#X obj 28 1 inlet;
#X msg 28 78 BCF2000 Port 11;
#X obj 28 144 pack s s;
#X msg 28 168 device @in \$1 @out \$2;
#X obj 97 47 t b b;
#X msg 138 78 BCF2000 Port 11;
#X obj 28 98 list2symbol;
#X obj 138 98 list2symbol;
#X obj 28 188 mediasettings/midisettings;
#X connect 0 0 5 0;
#X connect 1 0 5 0;
#X connect 2 0 7 0;
#X connect 3 0 4 0;
#X connect 4 0 9 0;
#X connect 5 0 2 0;
#X connect 5 1 6 0;
#X connect 6 0 8 0;
#X connect 7 0 3 0;
#X connect 8 0 3 1;
#X restore 123 103 pd midisetting;
#X obj 62 67 t b b b;
#X obj 182 42 declare -lib Jamoma -lib zexy -lib Cream;
#X connect 0 0 3 0;
#X connect 1 0 2 0;
#X connect 2 0 7 0;
#X connect 7 0 0 0;
#X connect 7 1 4 0;
#X connect 7 2 6 0;
#X restore 71 285 pd init;
#X text 26 379 Antoine Villeret pour Contour Progressif / Mylène Benoit
;
#N canvas 466 214 465 446 README 0;
#X text 30 128 Troubleshooting :;
#X text 44 149 1- Le son ne controle pas les lumières ?;
#X text 44 169 Vérifier le branchement de la carte son (Firewire +
micro);
#X text 44 189 Vérifier que Puredata utilise bien la carte son : dans
Media -> Configuration Audio \, sélectionner Presonus FP10. Vérifier
le gain d'entrée doit être à 9h si entrée ligne \, 12h si entrée
micro);
#X text 36 24 Pour patcher les gradas lumière \, voir [pd master].
;
#X text 36 38 Brancher les micros sur les entrées (input) de la carte
son de 3 à 7;
#N canvas 362 560 466 248 bcf2000 0;
#X text 47 34 Affectation BCF2000 :;
#X text 59 81 Fader 6 : Groupe de contre;
#X text 59 101 Fader 7 : Groupe de face;
#X text 59 121 Fader 8 : Douche;
#X text 59 51 Fader 1 à 5 : Directs cycliodes Nina \, Celia \, Julien
\, Alex \, Maeva;
#X text 59 201 Encodeur 8 : master public;
#X text 59 161 Encodeurs rotatifs de 1 à 5 : master cycliodes;
#X text 59 141 Encodeurs rotatifs de 1 à 5 : master individuels cycliodes
;
#X text 59 181 Encodeur 6 : master glbal cycliode;
#X restore 32 87 pd bcf2000;
#X text 46 277 2- la BCF2000 ne controle plus correctement le patch
?;
#X text 48 296 Vérifier qu'elle est bien sur le preset 2 et que le
groupe d'encodeur 1 est sélectionné (le bouton en haut à gauche
de la partie "Encoder Group" en haut à droite de la BCF2000 doit être
allumé).;
#X restore 71 325 pd README;
#N canvas 571 106 220 176 effet 1;
#X obj 18 37 vague_1D_random;
#X obj 18 58 wave_gaus;
#N canvas 420 311 396 665 salve-generator 0;
#X obj 93 419 salve;
#X obj 93 366 line;
#X obj 74 103 random 100;
#X obj 49 230 del;
#X obj 49 209 t f f;
#X obj 60 266 f;
#X msg 59 310 0 \$1;
#X obj 59 288 * 10;
#X obj 74 53 bng 15 250 50 0 empty empty empty 17 7 0 10 -262144 -1
-1;
#X obj 74 177 t f f f;
#X floatatom 141 362 5 0 0 0 - - -, f 5;
#X floatatom 161 397 5 0 0 0 - - -, f 5;
#X obj 75 -60 notein 1;
#X obj 74 -3 spigot;
#X obj 74 28 sel 0;
#X obj 119 -34 > 0;
#X obj 74 140 + 100;
#X msg 93 277 \$2 \$1;
#X obj 93 241 pack 2 100;
#X obj 173 147 bus_master salve-level;
#X obj 211 300 / 2;
#X obj 227 226 nbx 5 14 -1e+37 1e+37 0 1 empty empty empty 0 -8 0 10
-262144 -1 -1 0 256;
#X obj 194 261 * 1;
#X connect 1 0 0 0;
#X connect 2 0 16 0;
#X connect 3 0 5 0;
#X connect 4 0 3 0;
#X connect 4 1 5 1;
#X connect 5 0 7 0;
#X connect 6 0 1 0;
#X connect 7 0 6 0;
#X connect 8 0 2 0;
#X connect 9 0 4 0;
#X connect 9 1 18 0;
#X connect 9 2 22 0;
#X connect 10 0 0 0;
#X connect 11 0 0 1;
#X connect 12 0 13 0;
#X connect 12 1 15 0;
#X connect 13 0 14 0;
#X connect 14 0 8 0;
#X connect 15 0 13 1;
#X connect 16 0 9 0;
#X connect 17 0 1 0;
#X connect 18 0 17 0;
#X connect 20 0 0 1;
#X connect 21 0 22 1;
#X connect 22 0 20 0;
#X restore 18 78 pd salve-generator;
#N canvas 534 393 498 473 random-proj 0;
#X obj 394 413 bus effet10;
#X obj 41 383 bus effet11;
#X obj 81 413 bus effet12;
#X obj 111 383 bus effet13;
#X obj 151 413 bus effet14;
#X obj 181 383 bus effet15;
#X obj 221 413 bus effet16;
#X obj 253 382 bus effet17;
#X obj 291 413 bus effet18;
#X obj 321 382 bus effet19;
#X obj 105 -19 notein 1;
#X obj 104 28 spigot;
#X obj 149 7 > 0;
#X obj 104 48 sel 1;
#X obj 105 263 pack;
#X msg 106 287 \$2 \$1;
#X obj 104 68 t b b b;
#X msg 257 115 0;
#X obj 105 116 random 1000;
#X obj 105 224 line;
#X obj 105 146 + 500;
#X obj 181 117 random 6;
#X msg 105 185 15 \, 0 \$1;
#X obj 102 311 route 0 1 2 3 4 5 6 7 8 9;
#X connect 10 0 11 0;
#X connect 10 1 12 0;
#X connect 11 0 13 0;
#X connect 12 0 11 1;
#X connect 13 0 16 0;
#X connect 14 0 15 0;
#X connect 15 0 23 0;
#X connect 16 0 18 0;
#X connect 16 1 21 0;
#X connect 16 2 17 0;
#X connect 17 0 14 0;
#X connect 18 0 20 0;
#X connect 19 0 14 0;
#X connect 20 0 22 0;
#X connect 21 0 14 1;
#X connect 22 0 19 0;
#X connect 23 0 1 0;
#X connect 23 1 2 0;
#X connect 23 2 3 0;
#X connect 23 3 4 0;
#X connect 23 4 5 0;
#X connect 23 5 6 0;
#X connect 23 6 7 0;
#X connect 23 7 8 0;
#X connect 23 8 9 0;
#X connect 23 9 0 0;
#X restore 41 123 pd random-proj;
#X obj 18 16 effet_foret_random;
#X obj 18 98 effet_foret_random2 foret;
#X restore 71 305 pd effet;
#X obj 150 264 bng 15 250 50 0 display-vague-1 empty display_vague_1
17 7 0 10 -262144 -1 -1;
#X obj 150 284 bng 15 250 50 0 display-vague-2 empty display_vague_2
17 7 0 10 -262144 -1 -1;
#X obj 150 304 bng 15 250 50 0 display-vague-3 empty display_vague_3
17 7 0 10 -262144 -1 -1;
#X obj 150 324 bng 15 250 50 0 display-vague-loin-face empty display_vague_loin-face
17 7 0 10 -262144 -1 -1;
#X obj 291 262 sendFX nico1;
#X obj 291 283 sendFX nico2;
#X obj 291 304 sendFX nico3;
#N canvas 255 535 1024 215 BCF2000 0;
#X obj -379 33 BCFparam 9 /vague/1/speed;
#X obj -700 47 nrpnin;
#X floatatom -708 80 5 0 0 0 - - -, f 5;
#X floatatom -671 81 5 0 0 0 - - -, f 5;
#X obj -919 153 BCFparam 0 /mic2cyliodes/level;
#X obj -199 53 BCFparam 10 /vague/2/largeur;
#X obj 321 133 BCFparam 7 /foret/level;
#X obj 321 33 BCFparam 15 /foret/speed;
#X obj 161 133 BCFparam 6 /Rwalk/level;
#X obj 161 33 BCFparam 14 /Rwalk/speed;
#X obj -379 133 BCFparam 3 /vague/1/level;
#X obj -199 133 BCFparam 4 /vague/2/level;
#X obj -19 133 BCFparam 5 /vague/3/level;
#X obj -379 53 BCFparam 8 /vague/1/largeur;
#X obj -199 33 BCFparam 11 /vague/2/speed;
#X obj -19 33 BCFparam 13 /vague/3/speed;
#X obj -19 53 BCFparam 12 /vague/3/largeur;
#X obj -739 133 BCFparam 1 /nico/master;
#X obj -19 73 BCFparam 13 /vague/4/speed;
#X obj -19 93 BCFparam 12 /vague/4/largeur;
#X obj -559 133 BCFparam 2 /foret-par/level;
#X connect 1 0 2 0;
#X connect 1 1 3 0;
#X restore 71 416 pd BCF2000;
#X text 60 263 >;
#X text 279 259 >;
#X text 279 281 >;
#X text 279 301 >;
#N canvas 319 263 450 300 audio-thru 0;
#X obj 186 47 adc~ 1 2 3 4 5 6 7 8 9;
#X obj 186 71 dac~ 1 2 3 4 5 6 7 8 9;
#X connect 0 0 1 0;
#X connect 0 1 1 1;
#X connect 0 2 1 2;
#X connect 0 3 1 3;
#X connect 0 4 1 4;
#X connect 0 5 1 5;
#X connect 0 6 1 6;
#X connect 0 7 1 7;
#X connect 0 8 1 8;
#X restore 111 171 pd audio-thru;
#X obj 426 47 cnv 15 200 700 empty empty empty 20 12 0 14 -262130 -66577
0;
#N canvas 1289 46 921 941 Nico 0;
#X obj 9 99 cnv 15 200 700 empty empty empty 20 12 0 14 -262130 -66577
0;
#X obj 19 820 s nico1;
#X obj 89 820 s nico2;
#X obj 159 820 s nico3;
#X obj 624 227 bus_master /nico/master;
#X obj 624 288 s master_cycliode_nico;
#X obj 624 268 / 100;
#X obj 72 -7 readsf~ 2;
#X msg 72 -29 open \$1;
#X obj 72 -49 openpanel;
#X obj 71 -68 bng 15 250 50 0 empty empty empty 17 7 0 10 -262144 -1
-1;
#X floatatom 624 248 5 0 0 1 % - -, f 5;
#N canvas 260 46 482 456 analyse 0;
#X text 38 48 amplitude total;
#X obj 30 225 vu 15 120 empty empty -1 -8 0 10 -66577 -1 0 0;
#X obj 29 176 - 100;
#X obj 153 225 vu 15 120 empty empty -1 -8 0 10 -66577 -1 0 0;
#X obj 152 176 - 100;
#X obj 257 225 vu 15 120 empty empty -1 -8 0 10 -66577 -1 0 0;
#X obj 256 176 - 100;
#X obj 363 228 vu 15 120 empty empty -1 -8 0 10 -66577 -1 0 0;
#X obj 362 176 - 100;
#X obj 152 81 env~ 1024;
#X obj 256 82 env~ 1024;
#X obj 362 81 env~ 1024;
#N canvas 853 484 761 399 high_800 0;
#X obj 195 111 loadbang;
#X obj 178 57 inlet~;
#X obj 179 240 outlet~;
#X floatatom 331 57 5 0 0 0 - - -, f 5;
#X obj 179 163 biquad~;
#X obj 178 186 biquad~;
#X msg 406 56 100;
#X obj 348 201 list prepend set;
#X msg 344 261 1.98769 -0.987983 0.993919 -1.98784 0.993919;
#X obj 346 233 list trim;
#X msg 195 133 1.91004 -0.922519 0.958141 -1.91628 0.958141;
#X obj 331 78 ggee/highpass;
#X connect 0 0 10 0;
#X connect 1 0 4 0;
#X connect 3 0 11 0;
#X connect 4 0 5 0;
#X connect 5 0 2 0;
#X connect 6 0 11 1;
#X connect 7 0 9 0;
#X connect 9 0 8 0;
#X connect 10 0 4 0;
#X connect 10 0 5 0;
#X connect 11 0 4 0;
#X connect 11 0 5 0;
#X connect 11 0 7 0;
#X restore 362 50 pd high_800;
#N canvas 443 276 743 594 low_200 0;
#X obj 117 200 biquad~;
#X obj 118 234 biquad~;
#X obj 168 145 loadbang;
#X obj 116 94 inlet~;
#X obj 117 307 outlet~;
#X floatatom 269 94 5 0 0 0 - - -, f 5;
#X msg 320 89 100;
#X obj 286 238 list prepend set;
#X msg 282 298 1.97925 -0.980052 0.000200955 0.000401911 0.000200955
;
#X obj 284 270 list trim;
#X obj 118 277 *~ 5;
#X msg 155 177 1.97925 -0.980052 0.000200955 0.000401911 0.000200955
;
#X obj 269 115 ggee/lowpass;
#X connect 0 0 1 0;
#X connect 1 0 10 0;
#X connect 2 0 11 0;
#X connect 3 0 0 0;
#X connect 5 0 12 0;
#X connect 6 0 12 1;
#X connect 7 0 9 0;
#X connect 9 0 8 0;
#X connect 10 0 4 0;
#X connect 11 0 0 0;
#X connect 11 0 1 0;
#X connect 12 0 7 0;
#X connect 12 0 11 0;
#X restore 152 50 pd low_200;
#N canvas 44 115 1238 792 200-800 0;
#X obj 243 184 biquad~;
#X obj 242 207 biquad~;
#X obj 259 132 loadbang;
#X obj 242 78 inlet~;
#X obj 242 367 outlet~;
#X obj 242 289 biquad~;
#X obj 241 312 biquad~;
#X obj 258 237 loadbang;
#X floatatom 611 100 5 0 0 0 - - -, f 5;
#X msg 662 95 100;
#X obj 610 157 list prepend set;
#X msg 606 217 1.97925 -0.980052 0.989825 -1.97965 0.989825;
#X obj 608 189 list trim;
#X floatatom 615 261 5 0 0 0 - - -, f 5;
#X msg 666 256 100;
#X obj 615 309 list prepend set;
#X msg 615 360 1.91004 -0.922519 0.0031187 0.00623739 0.0031187;
#X obj 615 334 list trim;
#X obj 706 96 loadbang;
#X obj 707 257 loadbang;
#X msg 258 265 1.91004 -0.922519 0.0031187 0.00623739 0.0031187;
#X msg 261 160 1.97925 -0.980052 0.989825 -1.97965 0.989825;
#X obj 611 121 ggee/highpass;
#X obj 615 282 ggee/lowpass;
#X connect 0 0 1 0;
#X connect 1 0 5 0;
#X connect 2 0 21 0;
#X connect 3 0 0 0;
#X connect 5 0 6 0;
#X connect 6 0 4 0;
#X connect 7 0 20 0;
#X connect 8 0 22 0;
#X connect 9 0 22 1;
#X connect 10 0 12 0;
#X connect 12 0 11 0;
#X connect 13 0 23 0;
#X connect 14 0 23 1;
#X connect 15 0 17 0;
#X connect 17 0 16 0;
#X connect 18 0 9 0;
#X connect 19 0 14 0;
#X connect 20 0 5 0;
#X connect 20 0 6 0;
#X connect 21 0 0 0;
#X connect 21 0 1 0;
#X connect 22 0 10 0;
#X connect 23 0 15 0;
#X restore 255 50 pd 200-800;
#X obj 62 393 s to_OSC;
#X msg 62 363 /amplitude \$1;
#X obj 207 392 s to_OSC;
#X msg 207 362 /bass \$1;
#X obj 279 393 s to_OSC;
#X obj 388 393 s to_OSC;
#X msg 279 363 /med \$1;
#X msg 388 363 /treble \$1;
#X obj 55 223 dbtorms;
#X obj 179 223 dbtorms;
#X obj 281 224 dbtorms;
#X obj 388 225 dbtorms;
#X obj 29 80 env~ 2048;
#X obj 29 106 -;
#X obj 79 106 nbx 5 14 0 100 0 1 empty empty empty 0 -8 0 10 -262144
-1 -1 0 256;
#X obj 152 110 -;
#X obj 186 114 nbx 5 14 0 100 0 1 empty empty empty 0 -8 0 10 -262144
-1 -1 0 256;
#X obj 260 112 -;
#X obj 295 111 nbx 5 14 0 100 0 1 empty empty empty 0 -8 0 10 -262144
-1 -1 0 256;
#X obj 362 110 -;
#X obj 402 110 nbx 5 14 0 100 0 1 empty empty empty 0 -8 0 10 -262144
-1 -1 0 256;
#X obj 55 339 max 0;
#X obj 179 339 max 0;
#X obj 279 339 max 0;
#X obj 389 337 max 0;
#X floatatom 86 171 5 0 0 0 - - -, f 5;
#X floatatom 203 180 5 0 0 0 - - -, f 5;
#X floatatom 309 178 5 0 0 0 - - -, f 5;
#X floatatom 418 177 5 0 0 0 - - -, f 5;
#X obj 29 136 * 2;
#X obj 152 140 * 2;
#X obj 260 142 * 2;
#X obj 362 141 * 2;
#X obj 29 22 inlet~;
#X obj 24 418 outlet amplitude;
#X obj 164 418 outlet basse;
#X obj 367 418 outlet treble;
#X obj 264 418 outlet med;
#X obj 29 199 mapping/iir 3;
#X obj 152 199 mapping/iir 3;
#X obj 257 199 mapping/iir 3;
#X obj 362 199 mapping/iir 3;
#X connect 2 0 53 0;
#X connect 4 0 54 0;
#X connect 6 0 55 0;
#X connect 8 0 56 0;
#X connect 9 0 30 0;
#X connect 10 0 32 0;
#X connect 11 0 34 0;
#X connect 12 0 11 0;
#X connect 13 0 9 0;
#X connect 14 0 10 0;
#X connect 16 0 15 0;
#X connect 18 0 17 0;
#X connect 21 0 19 0;
#X connect 22 0 20 0;
#X connect 23 0 36 0;
#X connect 24 0 37 0;
#X connect 25 0 38 0;
#X connect 26 0 39 0;
#X connect 27 0 28 0;
#X connect 28 0 44 0;
#X connect 29 0 28 1;
#X connect 30 0 45 0;
#X connect 31 0 30 1;
#X connect 32 0 46 0;
#X connect 33 0 32 1;
#X connect 34 0 47 0;
#X connect 35 0 34 1;
#X connect 36 0 49 0;
#X connect 37 0 50 0;
#X connect 38 0 52 0;
#X connect 39 0 22 0;
#X connect 39 0 51 0;
#X connect 44 0 2 0;
#X connect 44 0 23 0;
#X connect 44 0 40 0;
#X connect 45 0 4 0;
#X connect 45 0 24 0;
#X connect 45 0 41 0;
#X connect 46 0 6 0;
#X connect 46 0 42 0;
#X connect 46 0 25 0;
#X connect 47 0 8 0;
#X connect 47 0 43 0;
#X connect 47 0 26 0;
#X connect 48 0 27 0;
#X connect 48 0 13 0;
#X connect 48 0 14 0;
#X connect 48 0 12 0;
#X connect 53 0 1 0;
#X connect 54 0 3 0;
#X connect 55 0 5 0;
#X connect 56 0 7 0;
#X restore 34 58 pd analyse ________________________;
#X obj 19 21 adc~ 1;
#X obj 89 21 adc~ 2;
#X obj 159 20 adc~ 3;
#X obj 229 21 adc~ 4;
#X obj 299 21 adc~ 5;
#X obj 369 20 adc~ 6;
#X obj 439 21 adc~ 7;
#X obj 509 20 adc~ 8;
#X text 625 209 master;
#X text 620 112 threshold;
#X text 620 132 ratio;
#X text 621 152 gain;
#X obj 579 20 adc~ 9;
#X obj 19 346 send.model track.1;
#X obj 19 112 env-follower.model env.1;
#X obj 89 346 send.model track.2;
#X obj 159 346 send.model track.3;
#X obj 229 346 send.model track.4;
#X obj 299 346 send.model track.5;
#X obj 369 346 send.model track.6;
#X obj 439 346 send.model track.7;
#X obj 509 346 send.model track.8;
#X obj 579 346 send.model track.9;
#X obj 89 112 env-follower.model env.2;
#X obj 159 111 env-follower.model env.3;
#X obj 229 111 env-follower.model env.4;
#X obj 299 112 env-follower.model env.5;
#X obj 369 111 env-follower.model env.6;
#X obj 439 112 env-follower.model env.7;
#X obj 509 111 env-follower.model env.8;
#X obj 579 111 env-follower.model env.9;
#X connect 4 0 11 0;
#X connect 6 0 5 0;
#X connect 8 0 7 0;
#X connect 9 0 8 0;
#X connect 10 0 9 0;
#X connect 11 0 6 0;
#X connect 13 0 27 0;
#X connect 14 0 36 0;
#X connect 15 0 37 0;
#X connect 16 0 38 0;
#X connect 17 0 39 0;
#X connect 18 0 40 0;
#X connect 19 0 41 0;
#X connect 20 0 42 0;
#X connect 25 0 43 0;
#X connect 26 0 1 0;
#X connect 27 0 26 0;
#X connect 28 0 2 0;
#X connect 29 0 3 0;
#X connect 36 0 28 0;
#X connect 37 0 29 0;
#X connect 38 0 30 0;
#X connect 39 0 31 0;
#X connect 40 0 32 0;
#X connect 41 0 33 0;
#X connect 42 0 34 0;
#X connect 43 0 35 0;
#X coords 0 -1 1 1 680 700 2 10 100;
#X restore 422 41 pd Nico;
#X text 83 25 ceci est un commentaire \, je peux écrire dedans !;
#X text 118 58 je peux en mettre partout c'est trop chouette !;
#X text 81 395 Aveuglement - 2016;
#N canvas 364 296 1359 624 cues 0;
#X obj 519 191 j.cue;
#X obj 490 254 print left;
#X obj 560 254 print right;
#X msg 115 68 new init;
#X msg 299 69 recall init;
#X msg 309 89 recall anotherCue;
#X text 217 49 Recall cue : recall the state of saved parameters;
#X msg 529 69 update init;
#X msg 539 89 update anotherCue;
#X text 826 51 Output cue content through the leftmost outlet;
#X msg 879 89 output anotherCue;
#X text 909 124 you may also want to get the saved state of a particular
node;
#X msg 889 109 output init /my/test;
#X msg 781 220 write cue-list.txt;
#X msg 791 240 read cue-list.txt;
#X text 774 201 Read and write cue files;
#X msg 869 69 output;
#X msg 586 129 dump;
#X msg 125 88 new blbal;
#X obj 606 307 c.menu @size 172 17 @fontname "Helvetica" @fontweight
"normal" @fontslant "roman" @fontsize 11 @receive "(null)" @send "(null)"
@presetname "(null)" @hover 0 @bgcolor 0.75 0.75 0.75 1 @bdcolor 0.5
0.5 0.5 1 @textcolor 0 0 0 1;
#N canvas 408 308 469 357 fillmenu 0;
#X obj 161 79 t a b;
#X msg 188 101 clear;
#X obj 144 220 list;
#X obj 69 149 list split 1;
#X obj 69 174 t b a;
#X obj 96 257 list prepend append;
#X obj 47 216 print;
#X obj 96 279 list trim;
#X obj 244 335 outlet;
#X obj 161 33 inlet;
#X obj 161 57 route names;
#X connect 0 0 3 0;
#X connect 0 1 1 0;
#X connect 1 0 8 0;
#X connect 2 0 3 0;
#X connect 3 0 4 0;
#X connect 3 1 2 1;
#X connect 4 0 2 0;
#X connect 4 1 5 0;
#X connect 5 0 6 0;
#X connect 5 0 7 0;
#X connect 7 0 8 0;
#X connect 9 0 10 0;
#X connect 10 0 0 0;
#X restore 606 282 pd fillmenu;
#X connect 0 0 1 0;
#X connect 0 1 2 0;
#X connect 0 1 20 0;
#X connect 3 0 0 0;
#X connect 4 0 0 0;
#X connect 5 0 0 0;
#X connect 7 0 0 0;
#X connect 8 0 0 0;
#X connect 10 0 0 0;
#X connect 12 0 0 0;
#X connect 13 0 0 0;
#X connect 14 0 0 0;
#X connect 16 0 0 0;
#X connect 17 0 0 0;
#X connect 18 0 0 0;
#X connect 20 0 19 0;
#X coords 0 -1 1 1 200 60 2 600 300;
#X restore 70 457 pd cues;
#X obj 71 437 j.minuit_device;
