#N canvas 44 308 397 418 10;
#X declare -path abs -path abs_light;
#X declare -lib Jamoma -lib zexy -lib Cream;
#X declare -path ../abs_light;
#X declare -path ../abs_light;
#X declare -path ../abs_light;
#X declare -stdpath grrrr;
#X declare -stdpath grrrr;
#X declare -stdpath grrrr;
#X declare -stdpath grrrr;
#X declare -stdpath grrrr;
#N canvas 0 541 1280 469 master 0;
#N canvas 704 417 450 300 metro 0;
#X obj 77 3 loadbang;
#X obj 116 118 s metro_dmx;
#X obj 96 141 s metro_dmx_int;
#X obj 77 75 t b b b;
#X obj 76 167 s send-dmx;
#X obj 77 35 tgl 15 0 empty empty empty 17 7 0 10 -262144 -1 -1 1 1
;
#X obj 77 53 metro 20;
#X obj 154 53 bng 15 250 50 0 empty empty empty 17 7 0 10 -262144 -1
-1;
#X connect 0 0 5 0;
#X connect 3 0 4 0;
#X connect 3 1 2 0;
#X connect 3 2 1 0;
#X connect 5 0 6 0;
#X connect 6 0 3 0;
#X connect 7 0 3 0;
#X restore 43 8 pd metro;
#X obj 109 81 nbx 3 14 0 512 0 1 empty empty dmx_ch 0 -8 0 10 -262144
-1 -1 49 256;
#X obj 43 80 enttec_out;
#X obj 109 261 nbx 3 14 0 512 0 1 empty empty dmx_ch 0 -8 0 10 -262144
-1 -1 1 256;
#X obj 109 201 nbx 3 14 0 512 0 1 empty empty dmx_ch 0 -8 0 10 -262144
-1 -1 27 256;
#X obj 109 321 nbx 3 14 0 512 0 1 empty empty dmx_ch 0 -8 0 10 -262144
-1 -1 5 256;
#X obj 109 141 nbx 3 14 0 512 0 1 empty empty dmx_ch 0 -8 0 10 -262144
-1 -1 50 256;
#N canvas 654 94 450 300 panic 0;
#X obj 101 181 \$1;
#X obj 101 235 s index;
#X obj 74 262 s value;
#X obj 101 208 + 4;
#X obj 74 68 until;
#X msg 74 37 512;
#X obj 74 154 t b f;
#X msg 71 196 0;
#X obj 75 103 f;
#X obj 74 127 + 1;
#X obj 73 14 inlet;
#X obj 191 181 \$1;
#X obj 191 235 s index;
#X obj 164 262 s value;
#X obj 191 208 + 4;
#X obj 164 68 until;
#X msg 164 37 512;
#X obj 164 154 t b f;
#X obj 165 103 f;
#X obj 164 127 + 1;
#X msg 161 196 30;
#X connect 0 0 3 0;
#X connect 3 0 1 0;
#X connect 4 0 8 0;
#X connect 5 0 4 0;
#X connect 6 0 7 0;
#X connect 6 1 0 0;
#X connect 7 0 2 0;
#X connect 8 0 9 0;
#X connect 9 0 6 0;
#X connect 9 0 8 1;
#X connect 10 0 5 0;
#X connect 11 0 14 0;
#X connect 14 0 12 0;
#X connect 15 0 18 0;
#X connect 16 0 15 0;
#X connect 17 0 20 0;
#X connect 17 1 11 0;
#X connect 18 0 19 0;
#X connect 19 0 17 0;
#X connect 19 0 18 1;
#X connect 20 0 13 0;
#X restore 116 27 pd panic;
#X obj 115 9 bng 15 250 50 0 empty empty empty 17 7 0 10 -262144 -1
-1;
#X obj 43 48 bus_master 1;
#X obj 43 108 bus_master 2;
#X obj 43 168 bus_master 3;
#X obj 43 228 bus_master 4;
#X obj 43 288 bus_master 5;
#X text 3 361 Pour chaque circuit entrer le;
#X text 12 375 numéro de grada dans la case dmx_ch;
#X obj 289 81 nbx 3 14 0 512 0 1 empty empty dmx_ch 0 -8 0 10 -262144
-1 -1 6 256;
#X obj 289 261 nbx 3 14 0 512 0 1 empty empty dmx_ch 0 -8 0 10 -262144
-1 -1 7 256;
#X obj 289 201 nbx 3 14 0 512 0 1 empty empty dmx_ch 0 -8 0 10 -262144
-1 -1 8 256;
#X obj 289 321 nbx 3 14 0 512 0 1 empty empty dmx_ch 0 -8 0 10 -262144
-1 -1 9 256;
#X obj 289 141 nbx 3 14 0 512 0 1 empty empty dmx_ch 0 -8 0 10 -262144
-1 -1 26 256;
#N canvas 678 277 559 378 send_DMX 0;
#N canvas 51 135 341 328 list-creation 0;
#X obj 234 215 l;
#X obj 118 -15 t b b b;
#X obj 137 198 list append;
#X msg 236 81 231;
#X obj 137 85 until;
#X msg 137 119 0;
#X msg 38 82 126 6 1 2;
#X obj 138 266 outlet;
#X obj 118 -53 loadbang;
#X obj 183 -41 bng 15 250 50 0 empty empty empty 17 7 0 10 -262144
-1 -1;
#X obj 122 235 l;
#X obj 56 -27 t b b;
#X msg 137 53 48;
#X connect 0 0 2 1;
#X connect 1 0 6 0;
#X connect 1 1 12 0;
#X connect 1 2 3 0;
#X connect 2 0 0 0;
#X connect 2 0 10 1;
#X connect 3 0 2 0;
#X connect 4 0 5 0;
#X connect 5 0 2 0;
#X connect 6 0 2 0;
#X connect 8 0 11 0;
#X connect 9 0 11 0;
#X connect 10 0 7 0;
#X connect 11 0 10 0;
#X connect 11 1 1 0;
#X connect 12 0 4 0;
#X restore 231 38 pd list-creation;
#X obj 295 103 l;
#X obj 144 12 r value;
#X obj 178 39 r index;
#X msg 249 213 devicename /dev/tty.usbserial-EN093215;
#X obj 249 189 loadbang;
#X obj 123 119 list;
#X obj 69 75 r send-dmx;
#X obj 123 180 route bang;
#X obj 211 283 comport 2;
#X obj 262 316 route open;
#X obj 262 343 tgl 15 0 empty empty empty 17 7 0 10 -262144 -1 -1 0
1;
#X msg 266 256 close;
#X obj 320 349 print COMPORT;
#X obj 199 212 tgl 15 0 empty empty empty 17 7 0 10 -262144 -1 -1 0
1;
#X obj 144 76 list-abs/list-replace;
#X msg 310 257 devices;
#X msg 333 157 open 1;
#X obj 154 238 spigot 1;
#X obj 198 132 timer;
#X connect 0 0 15 2;
#X connect 1 0 15 2;
#X connect 2 0 15 0;
#X connect 3 0 15 1;
#X connect 4 0 9 0;
#X connect 5 0 4 0;
#X connect 6 0 8 0;
#X connect 7 0 6 0;
#X connect 8 1 18 0;
#X connect 9 1 10 0;
#X connect 10 0 11 0;
#X connect 10 0 14 0;
#X connect 10 1 13 0;
#X connect 12 0 9 0;
#X connect 14 0 18 1;
#X connect 15 0 1 0;
#X connect 15 0 6 1;
#X connect 16 0 9 0;
#X connect 17 0 9 0;
#X connect 18 0 9 0;
#X restore 43 28 pd send_DMX;
#X obj 223 47 bus_master 6;
#X obj 223 108 bus_master 7;
#X obj 223 168 bus_master 8;
#X obj 223 288 bus_master 10;
#X obj 479 81 nbx 3 14 0 512 0 1 empty empty dmx_ch 0 -8 0 10 -262144
-1 -1 10 256;
#X obj 479 261 nbx 3 14 0 512 0 1 empty empty dmx_ch 0 -8 0 10 -262144
-1 -1 12 256;
#X obj 479 201 nbx 3 14 0 512 0 1 empty empty dmx_ch 0 -8 0 10 -262144
-1 -1 21 256;
#X obj 479 321 nbx 3 14 0 512 0 1 empty empty dmx_ch 0 -8 0 10 -262144
-1 -1 20 256;
#X obj 479 141 nbx 3 14 0 512 0 1 empty empty dmx_ch 0 -8 0 10 -262144
-1 -1 18 256;
#X obj 659 81 nbx 3 14 0 512 0 1 empty empty dmx_ch 0 -8 0 10 -262144
-1 -1 31 256;
#X obj 659 261 nbx 3 14 0 512 0 1 empty empty dmx_ch 0 -8 0 10 -262144
-1 -1 23 256;
#X obj 659 201 nbx 3 14 0 512 0 1 empty empty dmx_ch 0 -8 0 10 -262144
-1 -1 17 256;
#X obj 659 321 nbx 3 14 0 512 0 1 empty empty dmx_ch 0 -8 0 10 -262144
-1 -1 28 256;
#X obj 659 141 nbx 3 14 0 512 0 1 empty empty dmx_ch 0 -8 0 10 -262144
-1 -1 16 256;
#X obj 413 48 bus_master 11;
#X obj 413 108 bus_master 12;
#X obj 413 168 bus_master 13;
#X obj 413 227 bus_master 14;
#X obj 413 288 bus_master 15;
#X obj 593 47 bus_master 16;
#X obj 593 108 bus_master 17;
#X obj 593 168 bus_master 18;
#X obj 593 227 bus_master 19;
#X obj 593 288 bus_master 20;
#X text 316 359 1 - 9 : cyliodes;
#X text 316 392 13 - 15 : PAR COUR;
#X text 316 379 10 - 12 : PAR JARDIN;
#X text 316 404 16 - 18 : PC;
#X obj 849 81 nbx 3 14 0 512 0 1 empty empty dmx_ch 0 -8 0 10 -262144
-1 -1 22 256;
#X obj 849 261 nbx 3 14 0 512 0 1 empty empty dmx_ch 0 -8 0 10 -262144
-1 -1 30 256;
#X obj 849 201 nbx 3 14 0 512 0 1 empty empty dmx_ch 0 -8 0 10 -262144
-1 -1 24 256;
#X obj 849 321 nbx 3 14 0 512 0 1 empty empty dmx_ch 0 -8 0 10 -262144
-1 -1 25 256;
#X obj 849 141 nbx 3 14 0 512 0 1 empty empty dmx_ch 0 -8 0 10 -262144
-1 -1 19 256;
#X obj 1029 81 nbx 3 14 0 512 0 1 empty empty dmx_ch 0 -8 0 10 -262144
-1 -1 3 256;
#X obj 1029 261 nbx 3 14 0 512 0 1 empty empty dmx_ch 0 -8 0 10 -262144
-1 -1 32 256;
#X obj 1029 201 nbx 3 14 0 512 0 1 empty empty dmx_ch 0 -8 0 10 -262144
-1 -1 2 256;
#X obj 1029 321 nbx 3 14 0 512 0 1 empty empty dmx_ch 0 -8 0 10 -262144
-1 -1 15 256;
#X obj 1029 141 nbx 3 14 0 512 0 1 empty empty dmx_ch 0 -8 0 10 -262144
-1 -1 14 256;
#X obj 1219 81 nbx 3 14 0 512 0 1 empty empty dmx_ch 0 -8 0 10 -262144
-1 -1 13 256;
#X obj 1219 261 nbx 3 14 0 512 0 1 empty empty dmx_ch 0 -8 0 10 -262144
-1 -1 0 256;
#X obj 1219 201 nbx 3 14 0 512 0 1 empty empty dmx_ch 0 -8 0 10 -262144
-1 -1 29 256;
#X obj 1219 321 nbx 3 14 0 512 0 1 empty empty dmx_ch 0 -8 0 10 -262144
-1 -1 0 256;
#X obj 1219 141 nbx 3 14 0 512 0 1 empty empty dmx_ch 0 -8 0 10 -262144
-1 -1 4 256;
#X obj 1399 81 nbx 3 14 0 512 0 1 empty empty dmx_ch 0 -8 0 10 -262144
-1 -1 0 256;
#X obj 1399 261 nbx 3 14 0 512 0 1 empty empty dmx_ch 0 -8 0 10 -262144
-1 -1 0 256;
#X obj 1399 201 nbx 3 14 0 512 0 1 empty empty dmx_ch 0 -8 0 10 -262144
-1 -1 0 256;
#X obj 1399 321 nbx 3 14 0 512 0 1 empty empty dmx_ch 0 -8 0 10 -262144
-1 -1 0 256;
#X obj 1399 141 nbx 3 14 0 512 0 1 empty empty dmx_ch 0 -8 0 10 -262144
-1 -1 0 256;
#X obj 783 48 bus_master 21;
#X obj 783 108 bus_master 22;
#X obj 783 168 bus_master 23;
#X obj 783 228 bus_master 24;
#X obj 783 288 bus_master 25;
#X obj 963 47 bus_master 26;
#X obj 963 109 bus_master 27;
#X obj 963 168 bus_master 28;
#X obj 963 228 bus_master 29;
#X obj 963 288 bus_master 30;
#X obj 1153 48 bus_master 31;
#X obj 1153 108 bus_master 32;
#X obj 1153 168 bus_master 33;
#X obj 1153 227 bus_master 34;
#X obj 1153 288 bus_master 35;
#X obj 1333 47 bus_master 36;
#X obj 1333 108 bus_master 37;
#X obj 1333 168 bus_master 38;
#X obj 1333 227 bus_master 39;
#X obj 1333 288 bus_master 40;
#X obj 43 260 enttec_out;
#X obj 43 200 enttec_out;
#X obj 43 320 enttec_out;
#X obj 43 140 enttec_out;
#X obj 223 80 enttec_out;
#X obj 223 260 enttec_out;
#X obj 223 200 enttec_out;
#X obj 223 320 enttec_out;
#X obj 223 140 enttec_out;
#X obj 413 80 enttec_out;
#X obj 413 260 enttec_out;
#X obj 413 200 enttec_out;
#X obj 413 320 enttec_out;
#X obj 413 140 enttec_out;
#X obj 593 80 enttec_out;
#X obj 593 260 enttec_out;
#X obj 593 200 enttec_out;
#X obj 593 320 enttec_out;
#X obj 593 140 enttec_out;
#X obj 783 80 enttec_out;
#X obj 783 260 enttec_out;
#X obj 783 200 enttec_out;
#X obj 783 320 enttec_out;
#X obj 783 140 enttec_out;
#X obj 963 80 enttec_out;
#X obj 963 260 enttec_out;
#X obj 963 200 enttec_out;
#X obj 963 320 enttec_out;
#X obj 963 140 enttec_out;
#X obj 1153 80 enttec_out;
#X obj 1153 260 enttec_out;
#X obj 1153 200 enttec_out;
#X obj 1153 320 enttec_out;
#X obj 1153 140 enttec_out;
#X obj 1333 80 enttec_out;
#X obj 1333 260 enttec_out;
#X obj 1333 200 enttec_out;
#X obj 1333 320 enttec_out;
#X obj 1333 140 enttec_out;
#X obj 1579 81 nbx 3 14 0 512 0 1 empty empty dmx_ch 0 -8 0 10 -262144
-1 -1 0 256;
#X obj 1579 261 nbx 3 14 0 512 0 1 empty empty dmx_ch 0 -8 0 10 -262144
-1 -1 0 256;
#X obj 1579 201 nbx 3 14 0 512 0 1 empty empty dmx_ch 0 -8 0 10 -262144
-1 -1 0 256;
#X obj 1579 321 nbx 3 14 0 512 0 1 empty empty dmx_ch 0 -8 0 10 -262144
-1 -1 0 256;
#X obj 1579 141 nbx 3 14 0 512 0 1 empty empty dmx_ch 0 -8 0 10 -262144
-1 -1 0 256;
#X obj 1513 80 enttec_out;
#X obj 1513 260 enttec_out;
#X obj 1513 200 enttec_out;
#X obj 1513 320 enttec_out;
#X obj 1513 140 enttec_out;
#X obj 1769 81 nbx 3 14 0 512 0 1 empty empty dmx_ch 0 -8 0 10 -262144
-1 -1 0 256;
#X obj 1769 201 nbx 3 14 0 512 0 1 empty empty dmx_ch 0 -8 0 10 -262144
-1 -1 0 256;
#X obj 1769 141 nbx 3 14 0 512 0 1 empty empty dmx_ch 0 -8 0 10 -262144
-1 -1 0 256;
#X obj 1703 80 enttec_out;
#X obj 1703 200 enttec_out;
#X obj 1703 140 enttec_out;
#X obj 1513 47 bus_master 41;
#X obj 1513 108 bus_master 42;
#X obj 1513 167 bus_master 43;
#X obj 1513 227 bus_master 44;
#X obj 1513 288 bus_master 45;
#X obj 1703 47 bus_master 46;
#X obj 1703 108 bus_master 47;
#X obj 1703 168 bus_master 48;
#X obj 222 227 bus_master 9;
#X connect 1 0 2 1;
#X connect 3 0 90 1;
#X connect 4 0 91 1;
#X connect 5 0 92 1;
#X connect 6 0 93 1;
#X connect 8 0 7 0;
#X connect 9 0 2 0;
#X connect 10 0 93 0;
#X connect 11 0 91 0;
#X connect 12 0 90 0;
#X connect 13 0 92 0;
#X connect 16 0 94 1;
#X connect 17 0 95 1;
#X connect 18 0 96 1;
#X connect 19 0 97 1;
#X connect 20 0 98 1;
#X connect 22 0 94 0;
#X connect 23 0 98 0;
#X connect 24 0 96 0;
#X connect 25 0 97 0;
#X connect 26 0 99 1;
#X connect 27 0 100 1;
#X connect 28 0 101 1;
#X connect 29 0 102 1;
#X connect 30 0 103 1;
#X connect 31 0 104 1;
#X connect 32 0 105 1;
#X connect 33 0 106 1;
#X connect 34 0 107 1;
#X connect 35 0 108 1;
#X connect 36 0 99 0;
#X connect 37 0 103 0;
#X connect 38 0 101 0;
#X connect 39 0 100 0;
#X connect 40 0 102 0;
#X connect 41 0 104 0;
#X connect 42 0 108 0;
#X connect 43 0 106 0;
#X connect 44 0 105 0;
#X connect 45 0 107 0;
#X connect 50 0 109 1;
#X connect 51 0 110 1;
#X connect 52 0 111 1;
#X connect 53 0 112 1;
#X connect 54 0 113 1;
#X connect 55 0 114 1;
#X connect 56 0 115 1;
#X connect 57 0 116 1;
#X connect 58 0 117 1;
#X connect 59 0 118 1;
#X connect 60 0 119 1;
#X connect 61 0 120 1;
#X connect 62 0 121 1;
#X connect 63 0 122 1;
#X connect 64 0 123 1;
#X connect 65 0 124 1;
#X connect 66 0 125 1;
#X connect 67 0 126 1;
#X connect 68 0 127 1;
#X connect 69 0 128 1;
#X connect 70 0 109 0;
#X connect 71 0 113 0;
#X connect 72 0 111 0;
#X connect 73 0 110 0;
#X connect 74 0 112 0;
#X connect 75 0 114 0;
#X connect 76 0 118 0;
#X connect 77 0 116 0;
#X connect 78 0 115 0;
#X connect 79 0 117 0;
#X connect 80 0 119 0;
#X connect 81 0 123 0;
#X connect 82 0 121 0;
#X connect 83 0 120 0;
#X connect 84 0 122 0;
#X connect 85 0 124 0;
#X connect 86 0 128 0;
#X connect 87 0 126 0;
#X connect 88 0 125 0;
#X connect 89 0 127 0;
#X connect 129 0 134 1;
#X connect 130 0 135 1;
#X connect 131 0 136 1;
#X connect 132 0 137 1;
#X connect 133 0 138 1;
#X connect 139 0 142 1;
#X connect 140 0 143 1;
#X connect 141 0 144 1;
#X connect 145 0 134 0;
#X connect 146 0 138 0;
#X connect 147 0 136 0;
#X connect 148 0 135 0;
#X connect 149 0 137 0;
#X connect 150 0 142 0;
#X connect 151 0 144 0;
#X connect 152 0 143 0;
#X connect 153 0 95 0;
#X restore 71 117 pd master;
#N canvas 415 180 508 200 init 0;
#X msg 62 131 dsp 1;
#X obj 62 25 loadbang;
#X obj 62 45 del 1000;
#X obj 62 155 s pd;
#X obj 182 22 declare -path abs -path abs_light;
#N canvas 488 342 257 236 midisetting 0;
#X obj 102 19 bng 15 250 50 0 empty empty empty 17 7 0 10 -262144 -1
-1;
#X obj 28 1 inlet;
#X msg 28 78 BCF2000 Port 11;
#X obj 28 144 pack s s;
#X msg 28 168 device @in \$1 @out \$2;
#X obj 97 47 t b b;
#X msg 138 78 BCF2000 Port 11;
#X obj 28 98 list2symbol;
#X obj 138 98 list2symbol;
#X obj 28 188 mediasettings/midisettings;
#X connect 0 0 5 0;
#X connect 1 0 5 0;
#X connect 2 0 7 0;
#X connect 3 0 4 0;
#X connect 4 0 9 0;
#X connect 5 0 2 0;
#X connect 5 1 6 0;
#X connect 6 0 8 0;
#X connect 7 0 3 0;
#X connect 8 0 3 1;
#X restore 123 103 pd midisetting;
#X obj 62 67 t b b b;
#X obj 182 42 declare -lib Jamoma -lib zexy -lib Cream;
#X obj 107 131 selectAudioDevice (0)PreSonus_FP10_(0121);
#X connect 0 0 3 0;
#X connect 1 0 2 0;
#X connect 2 0 6 0;
#X connect 6 0 0 0;
#X connect 6 1 8 0;
#X connect 6 2 5 0;
#X restore 71 137 pd init;
#X text 26 231 Antoine Villeret pour Contour Progressif / Mylène Benoit
;
#N canvas 463 228 465 446 README 0;
#X text 30 128 Troubleshooting :;
#X text 44 149 1- Le son ne controle pas les lumières ?;
#X text 44 169 Vérifier le branchement de la carte son (Firewire +
micro);
#X text 44 189 Vérifier que Puredata utilise bien la carte son : dans
Media -> Configuration Audio \, sélectionner Presonus FP10. Vérifier
le gain d'entrée doit être à 9h si entrée ligne \, 12h si entrée
micro);
#X text 36 24 Pour patcher les gradas lumière \, voir [pd master].
;
#X text 36 38 Brancher les micros sur les entrées (input) de la carte
son de 3 à 7;
#N canvas 359 574 466 248 bcf2000 0;
#X text 47 34 Affectation BCF2000 :;
#X text 59 81 Fader 6 : Groupe de contre;
#X text 59 101 Fader 7 : Groupe de face;
#X text 59 121 Fader 8 : Douche;
#X text 59 51 Fader 1 à 5 : Directs cycliodes Nina \, Celia \, Julien
\, Alex \, Maeva;
#X text 59 201 Encodeur 8 : master public;
#X text 59 161 Encodeurs rotatifs de 1 à 5 : master cycliodes;
#X text 59 141 Encodeurs rotatifs de 1 à 5 : master individuels cycliodes
;
#X text 59 181 Encodeur 6 : master glbal cycliode;
#X restore 32 87 pd bcf2000;
#X text 46 277 2- la BCF2000 ne controle plus correctement le patch
?;
#X text 48 296 Vérifier qu'elle est bien sur le preset 2 et que le
groupe d'encodeur 1 est sélectionné (le bouton en haut à gauche
de la partie "Encoder Group" en haut à droite de la BCF2000 doit être
allumé).;
#X restore 71 177 pd README;
#N canvas 400 400 220 176 effet 0;
#X obj 18 37 vague_1D_random;
#X obj 18 58 wave_gaus;
#N canvas 420 311 396 665 salve-generator 0;
#X obj 93 419 salve;
#X obj 93 366 line;
#X obj 74 103 random 100;
#X obj 49 230 del;
#X obj 49 209 t f f;
#X obj 60 266 f;
#X msg 59 310 0 \$1;
#X obj 59 288 * 10;
#X obj 74 53 bng 15 250 50 0 empty empty empty 17 7 0 10 -262144 -1
-1;
#X obj 74 177 t f f f;
#X floatatom 141 362 5 0 0 0 - - -, f 5;
#X floatatom 161 397 5 0 0 0 - - -, f 5;
#X obj 75 -60 notein 1;
#X obj 74 -3 spigot;
#X obj 74 28 sel 0;
#X obj 119 -34 > 0;
#X obj 74 140 + 100;
#X msg 93 277 \$2 \$1;
#X obj 93 241 pack 2 100;
#X obj 173 147 bus_master salve-level;
#X obj 211 300 / 2;
#X obj 227 226 nbx 5 14 -1e+37 1e+37 0 1 empty empty empty 0 -8 0 10
-262144 -1 -1 0 256;
#X obj 194 261 * 1;
#X connect 1 0 0 0;
#X connect 2 0 16 0;
#X connect 3 0 5 0;
#X connect 4 0 3 0;
#X connect 4 1 5 1;
#X connect 5 0 7 0;
#X connect 6 0 1 0;
#X connect 7 0 6 0;
#X connect 8 0 2 0;
#X connect 9 0 4 0;
#X connect 9 1 18 0;
#X connect 9 2 22 0;
#X connect 10 0 0 0;
#X connect 11 0 0 1;
#X connect 12 0 13 0;
#X connect 12 1 15 0;
#X connect 13 0 14 0;
#X connect 14 0 8 0;
#X connect 15 0 13 1;
#X connect 16 0 9 0;
#X connect 17 0 1 0;
#X connect 18 0 17 0;
#X connect 20 0 0 1;
#X connect 21 0 22 1;
#X connect 22 0 20 0;
#X restore 18 78 pd salve-generator;
#N canvas 531 407 498 473 random-proj 0;
#X obj 394 413 bus effet10;
#X obj 41 383 bus effet11;
#X obj 81 413 bus effet12;
#X obj 111 383 bus effet13;
#X obj 151 413 bus effet14;
#X obj 181 383 bus effet15;
#X obj 221 413 bus effet16;
#X obj 253 382 bus effet17;
#X obj 291 413 bus effet18;
#X obj 321 382 bus effet19;
#X obj 105 -19 notein 1;
#X obj 104 28 spigot;
#X obj 149 7 > 0;
#X obj 104 48 sel 1;
#X obj 105 263 pack;
#X msg 106 287 \$2 \$1;
#X obj 104 68 t b b b;
#X msg 257 115 0;
#X obj 105 116 random 1000;
#X obj 105 224 line;
#X obj 105 146 + 500;
#X obj 181 117 random 6;
#X msg 105 185 15 \, 0 \$1;
#X obj 102 311 route 0 1 2 3 4 5 6 7 8 9;
#X connect 10 0 11 0;
#X connect 10 1 12 0;
#X connect 11 0 13 0;
#X connect 12 0 11 1;
#X connect 13 0 16 0;
#X connect 14 0 15 0;
#X connect 15 0 23 0;
#X connect 16 0 18 0;
#X connect 16 1 21 0;
#X connect 16 2 17 0;
#X connect 17 0 14 0;
#X connect 18 0 20 0;
#X connect 19 0 14 0;
#X connect 20 0 22 0;
#X connect 21 0 14 1;
#X connect 22 0 19 0;
#X connect 23 0 1 0;
#X connect 23 1 2 0;
#X connect 23 2 3 0;
#X connect 23 3 4 0;
#X connect 23 4 5 0;
#X connect 23 5 6 0;
#X connect 23 6 7 0;
#X connect 23 7 8 0;
#X connect 23 8 9 0;
#X connect 23 9 0 0;
#X restore 41 123 pd random-proj;
#X obj 18 16 effet_foret_random;
#X obj 18 98 effet_foret_random2 foret;
#X restore 71 157 pd effet;
#X obj 150 116 bng 15 250 50 0 display-vague-1 empty display_vague_1
17 7 0 10 -262144 -1 -1;
#X obj 150 136 bng 15 250 50 0 display-vague-2 empty display_vague_2
17 7 0 10 -262144 -1 -1;
#X obj 150 156 bng 15 250 50 0 display-vague-3 empty display_vague_3
17 7 0 10 -262144 -1 -1;
#X obj 150 176 bng 15 250 50 0 display-vague-loin-face empty display_vague_loin-face
17 7 0 10 -262144 -1 -1;
#N canvas 234 633 1024 215 BCF2000 0;
#X obj -700 47 nrpnin;
#X floatatom -708 80 5 0 0 0 - - -, f 5;
#X floatatom -671 81 5 0 0 0 - - -, f 5;
#X obj 161 33 BCFparam 14 /Rwalk/speed;
#X obj -379 33 BCFparam 9 /vague/1/speed;
#X obj -919 153 BCFparam 0 /mic2cyliodes/level;
#X obj -199 53 BCFparam 10 /vague/2/largeur;
#X obj 321 133 BCFparam 7 /foret/level;
#X obj 321 33 BCFparam 15 /foret/speed;
#X obj 161 133 BCFparam 6 /Rwalk/level;
#X obj -379 133 BCFparam 3 /vague/1/level;
#X obj -199 133 BCFparam 4 /vague/2/level;
#X obj -19 133 BCFparam 5 /vague/3/level;
#X obj -379 53 BCFparam 8 /vague/1/largeur;
#X obj -199 33 BCFparam 11 /vague/2/speed;
#X obj -19 33 BCFparam 13 /vague/3/speed;
#X obj -19 53 BCFparam 12 /vague/3/largeur;
#X obj -739 133 BCFparam 1 /nico/master;
#X obj -19 73 BCFparam 13 /vague/4/speed;
#X obj -19 93 BCFparam 12 /vague/4/largeur;
#X obj -559 133 BCFparam 2 /foret-par/level;
#X connect 0 0 1 0;
#X connect 0 1 2 0;
#X restore 71 268 pd BCF2000;
#X text 60 115 >;
#X text 81 247 Aveuglement - 2016;
#N canvas 106 71 976 624 cues 0;
#X obj 519 191 j.cue;
#X msg 757 406 write cue-list.txt;
#X text 576 76 Read and write cue files;
#X obj 606 307 c.menu @size 172 17 @fontname "Helvetica" @fontweight
"normal" @fontslant "roman" @fontsize 11 @receive "(null)" @send "(null)"
@presetname "(null)" @hover 0 @items "test" "test2" "test3" "test brightness"
"test4" @states 0 0 0 0 0 @bgcolor 0.75 0.75 0.75 1 @bdcolor 0.5 0.5
0.5 1 @textcolor 0 0 0 1;
#N canvas 333 202 469 357 fillmenu 0;
#X msg 200 112 clear;
#X obj 144 220 list;
#X obj 69 149 list split 1;
#X obj 69 174 t b a;
#X obj 96 257 list prepend append;
#X obj 96 279 list trim;
#X obj 244 335 outlet;
#X obj 161 33 inlet;
#X obj 161 57 route names current;
#X obj 297 263 list;
#X obj 161 79 t b a b;
#X connect 0 0 6 0;
#X connect 1 0 2 0;
#X connect 2 0 3 0;
#X connect 2 1 1 1;
#X connect 3 0 1 0;
#X connect 3 1 4 0;
#X connect 4 0 5 0;
#X connect 5 0 6 0;
#X connect 7 0 8 0;
#X connect 8 0 10 0;
#X connect 8 1 9 1;
#X connect 10 0 9 0;
#X connect 10 1 2 0;
#X connect 10 2 0 0;
#X restore 606 282 pd fillmenu;
#X obj 747 359 bng 15 250 50 0 empty empty save 17 7 0 10 -262144 -1
-1;
#X obj 519 73 loadbang;
#X msg 519 95 read cue-list.txt \, dump;
#X obj 604 359 bng 15 250 50 0 empty empty new 17 7 0 10 -262144 -1
-1;
#X obj 644 359 bng 15 250 50 0 empty empty update 17 7 0 10 -262144
-1 -1;
#X msg 614 409 vis 1;
#X msg 879 406 recall \$1;
#X msg 534 409 vis 1;
#N canvas 784 22 420 212 cue-update 0;
#X obj 2 1 cnv 15 400 200 empty empty empty 400 300 0 14 -261682 -66577
0;
#N canvas 342 258 806 427 select 0;
#X obj 106 119 c.menu @size 172 17 @fontname "Helvetica" @fontweight
"normal" @fontslant "roman" @fontsize 11 @receive "(null)" @send "(null)"
@presetname "(null)" @hover 0 @items "test" "test2" "test3" "test brightness"
"test4" @states 0 0 0 0 0 @bgcolor 0.75 0.75 0.75 1 @bdcolor 0.5 0.5
0.5 1 @textcolor 0 0 0 1;
#N canvas 519 214 469 357 fillmenu 0;
#X msg 200 112 clear;
#X obj 144 220 list;
#X obj 69 149 list split 1;
#X obj 69 174 t b a;
#X obj 96 257 list prepend append;
#X obj 96 279 list trim;
#X obj 244 335 outlet;
#X obj 161 33 inlet;
#X obj 297 263 list;
#X obj 161 79 t b a b;
#X obj 368 220 r \$0-to-j.cue;
#X obj 368 242 route recall;
#X obj 161 57 route names current;
#X obj 347 291 list;
#X obj 347 145 r pd-cue-update;
#X obj 347 167 route vis;
#X obj 347 189 sel 1;
#X obj 347 311 list trim;
#X connect 0 0 6 0;
#X connect 1 0 2 0;
#X connect 2 0 3 0;
#X connect 2 1 1 1;
#X connect 3 0 1 0;
#X connect 3 1 4 0;
#X connect 4 0 5 0;
#X connect 5 0 6 0;
#X connect 7 0 12 0;
#X connect 8 0 6 0;
#X connect 9 0 8 0;
#X connect 9 1 2 0;
#X connect 9 2 0 0;
#X connect 10 0 11 0;
#X connect 11 0 13 1;
#X connect 12 0 9 0;
#X connect 12 1 8 1;
#X connect 13 0 17 0;
#X connect 14 0 15 0;
#X connect 15 0 16 0;
#X connect 16 0 13 0;
#X connect 17 0 6 0;
#X restore 106 64 pd fillmenu;
#X text 103 100 Quelle cue faut-il mettre à jour ?;
#X msg 104 263 vis 0;
#X obj 104 139 bng 15 250 50 0 empty empty cancel 17 7 0 10 -262144
-1 -1;
#X obj 194 139 bng 15 250 50 0 empty empty empty 17 7 0 10 -262144
-1 -1;
#X obj 273 237 list trim;
#X msg 246 339 update test brightness;
#X obj 194 189 t b b;
#X obj 246 384 s \$0-to-j.cue;
#X obj 273 217 list prepend set update;
#X obj 104 285 s pd-cue-update;
#X obj 106 40 r \$0-from-j.cue;
#X obj 134 158 bng 15 250 50 0 empty empty delete 17 7 0 10 -262144
-1 -1;
#X text 210 139 update state;
#X obj 423 237 list trim;
#X obj 134 189 t b b;
#X msg 423 337 delete test brightness;
#X obj 573 237 list trim;
#X obj 573 217 list prepend set update;
#X msg 573 337 delete blbal;
#N canvas 0 108 450 300 cue-move 0;
#N canvas 0 136 450 300 cue-move 0;
#X obj 106 107 c.menu @size 172 17 @fontname "Helvetica" @fontweight
"normal" @fontslant "roman" @fontsize 11 @receive "(null)" @send "(null)"
@presetname "(null)" @hover 0 @items "test" "test2" "test3" "test brightness"
"test4" @states 0 0 0 0 0 @bgcolor 0.75 0.75 0.75 1 @bdcolor 0.5 0.5
0.5 1 @textcolor 0 0 0 1;
#N canvas 519 214 469 357 fillmenu 0;
#X msg 200 112 clear;
#X obj 144 220 list;
#X obj 69 149 list split 1;
#X obj 69 174 t b a;
#X obj 96 257 list prepend append;
#X obj 96 279 list trim;
#X obj 244 335 outlet;
#X obj 161 33 inlet;
#X obj 297 263 list;
#X obj 161 79 t b a b;
#X obj 368 220 r \$0-to-j.cue;
#X obj 368 242 route recall;
#X obj 161 57 route names current;
#X obj 347 291 list;
#X obj 347 167 route vis;
#X obj 347 189 sel 1;
#X obj 347 311 list trim;
#X obj 347 145 r pd-cue-move;
#X connect 0 0 6 0;
#X connect 1 0 2 0;
#X connect 2 0 3 0;
#X connect 2 1 1 1;
#X connect 3 0 1 0;
#X connect 3 1 4 0;
#X connect 4 0 5 0;
#X connect 5 0 6 0;
#X connect 7 0 12 0;
#X connect 8 0 6 0;
#X connect 9 0 8 0;
#X connect 9 1 2 0;
#X connect 9 2 0 0;
#X connect 10 0 11 0;
#X connect 11 0 13 1;
#X connect 12 0 9 0;
#X connect 12 1 8 1;
#X connect 13 0 16 0;
#X connect 14 0 15 0;
#X connect 15 0 13 0;
#X connect 16 0 6 0;
#X connect 17 0 14 0;
#X restore 106 52 pd fillmenu;
#X obj 106 28 r \$0-from-j.cue;
#X connect 1 0 0 0;
#X connect 2 0 1 0;
#X coords 0 -1 1 1 200 60 2 100 100;
#X restore 72 86 pd cue-move;
#X restore 413 90 pd cue-move;
#X obj 387 154 bng 15 250 50 0 empty empty move 17 7 0 10 -262144 -1
-1;
#X obj 437 154 bng 15 250 50 0 empty empty move 17 7 0 10 -262144 -1
-1;
#X obj 423 217 list prepend set delete;
#X connect 0 1 10 0;
#X connect 0 1 24 0;
#X connect 1 0 0 0;
#X connect 3 0 11 0;
#X connect 4 0 3 0;
#X connect 5 0 8 0;
#X connect 6 0 7 0;
#X connect 7 0 9 0;
#X connect 8 0 3 0;
#X connect 8 1 7 0;
#X connect 10 0 6 0;
#X connect 12 0 1 0;
#X connect 13 0 16 0;
#X connect 15 0 17 0;
#X connect 16 0 3 0;
#X connect 16 1 17 0;
#X connect 17 0 9 0;
#X connect 18 0 20 0;
#X connect 19 0 18 0;
#X connect 24 0 15 0;
#X coords 0 -1 1 1 220 80 2 100 100;
#X restore 104 55 pd select;
#X restore 614 457 pd cue-update;
#X obj 614 436 s pd-cue-update;
#X obj 534 436 s pd-cue-new;
#N canvas 636 294 450 300 cue-new 0;
#N canvas 0 136 450 301 setname 0;
#X symbolatom 107 104 20 0 0 0 - - -, f 20;
#X obj 74 181 symbol;
#X obj 193 122 bng 15 250 50 0 empty empty save 17 7 0 10 -262144 -1
-1;
#X obj 123 122 bng 15 250 50 0 empty empty cancel 17 7 0 10 -262144
-1 -1;
#X obj 123 208 s pd-cue-new;
#X msg 123 181 vis 0;
#X obj 101 231 list prepend new;
#X obj 101 253 list trim;
#X obj 107 11 r pd-cue-new;
#X obj 107 33 t b;
#X obj 107 55 symbol new name;
#X obj 193 143 t b b;
#X obj 74 205 t b a;
#X msg 59 240 dump;
#X obj 75 275 s \$0-to-j.cue;
#X connect 0 0 1 1;
#X connect 1 0 12 0;
#X connect 2 0 11 0;
#X connect 3 0 5 0;
#X connect 5 0 4 0;
#X connect 6 0 7 0;
#X connect 7 0 14 0;
#X connect 8 0 9 0;
#X connect 9 0 10 0;
#X connect 10 0 0 0;
#X connect 11 0 5 0;
#X connect 11 1 1 0;
#X connect 12 0 13 0;
#X connect 12 1 6 0;
#X connect 13 0 14 0;
#X coords 0 -1 1 1 140 40 2 100 100;
#X restore 153 91 pd setname;
#X restore 534 456 pd cue-new;
#X obj 393 396 + 1;
#X obj 378 430 i;
#X obj 308 430 i;
#X obj 323 396 - 1;
#X obj 674 327 bng 15 250 50 0 empty empty next 17 7 0 10 -262144 -1
-1;
#X obj 604 327 bng 15 250 50 0 empty empty prev 17 7 0 10 -262144 -1
-1;
#X obj 536 142 r \$0-to-j.cue;
#X obj 778 449 s \$0-to-j.cue;
#X obj 587 227 s \$0-from-j.cue;
#X msg 547 167 dump;
#X msg 706 263 clear;
#X msg 346 112 Move 3 1 \, dump;
#X msg 316 132 move 2 1 \, dump;
#X obj 747 336 bng 15 250 50 0 empty empty reload 17 7 0 10 -262144
-1 -1;
#X msg 226 112 Move init 1 \, dump;
#X msg 196 132 move init 1 \, dump;
#X msg 283 60 delete foo;
#X msg 362 213 rename blbal foo;
#X obj 802 241 iemguts/savebangs;
#X obj 772 211 iemguts/savebangs 1;
#X connect 0 1 4 0;
#X connect 0 1 25 0;
#X connect 1 0 24 0;
#X connect 3 0 17 0;
#X connect 3 0 20 0;
#X connect 3 1 11 0;
#X connect 4 0 3 0;
#X connect 5 0 1 0;
#X connect 6 0 7 0;
#X connect 7 0 0 0;
#X connect 8 0 12 0;
#X connect 9 0 10 0;
#X connect 10 0 14 0;
#X connect 11 0 24 0;
#X connect 12 0 15 0;
#X connect 17 0 18 1;
#X connect 18 0 3 0;
#X connect 19 0 3 0;
#X connect 20 0 19 1;
#X connect 21 0 18 0;
#X connect 22 0 19 0;
#X connect 23 0 0 0;
#X connect 26 0 0 0;
#X connect 27 0 3 0;
#X connect 28 0 0 0;
#X connect 29 0 0 0;
#X connect 30 0 7 0;
#X connect 31 0 0 0;
#X connect 32 0 0 0;
#X connect 33 0 0 0;
#X connect 34 0 0 0;
#X connect 35 0 5 0;
#X connect 36 0 5 0;
#X coords 0 -1 1 1 200 80 2 600 300;
#X restore 69 309 pd cues;
#N canvas 313 291 450 300 audio-thru 0;
#X obj 186 47 adc~ 1 2 3 4 5 6 7 8 9;
#X obj 186 121 dac~ 1 2 3 4 5 6 7 8 9;
#X restore 81 43 pd audio-thru;
#N canvas 315 75 882 611 analysis 1;
#X obj 80 12 track.view /alex;
#N canvas 658 57 747 739 sends 1;
#X obj 3 43 cnv 15 1000 20 empty empty empty 20 12 0 14 -162280 -66577
0;
#X obj 3 63 cnv 15 1000 20 empty empty empty 20 12 0 14 -233017 -66577
0;
#X obj 3 83 cnv 15 1000 20 empty empty empty 20 12 0 14 -162280 -66577
0;
#X obj 3 23 cnv 15 1000 20 empty empty empty 20 12 0 14 -233017 -66577
0;
#X obj 3 103 cnv 15 1000 20 empty empty empty 20 12 0 14 -233017 -66577
0;
#X obj 3 123 cnv 15 1000 20 empty empty empty 20 12 0 14 -162280 -66577
0;
#X obj 3 143 cnv 15 1000 20 empty empty empty 20 12 0 14 -233017 -66577
0;
#X obj 3 163 cnv 15 1000 20 empty empty empty 20 12 0 14 -162280 -66577
0;
#X obj 3 183 cnv 15 1000 20 empty empty empty 20 12 0 14 -233017 -66577
0;
#X obj 3 203 cnv 15 1000 20 empty empty empty 20 12 0 14 -162280 -66577
0;
#X obj 3 223 cnv 15 1000 20 empty empty empty 20 12 0 14 -233017 -66577
0;
#X obj 3 243 cnv 15 1000 20 empty empty empty 20 12 0 14 -162280 -66577
0;
#X obj 3 263 cnv 15 1000 20 empty empty empty 20 12 0 14 -233017 -66577
0;
#X obj 3 283 cnv 15 1000 20 empty empty empty 20 12 0 14 -162280 -66577
0;
#X obj 3 303 cnv 15 1000 20 empty empty empty 20 12 0 14 -233017 -66577
0;
#X obj 3 323 cnv 15 1000 20 empty empty empty 20 12 0 14 -162280 -66577
0;
#X obj 3 343 cnv 15 1000 20 empty empty empty 20 12 0 14 -233017 -66577
0;
#X obj 3 363 cnv 15 1000 20 empty empty empty 20 12 0 14 -162280 -66577
0;
#X obj 3 383 cnv 15 1000 20 empty empty empty 20 12 0 14 -233017 -66577
0;
#X obj 3 403 cnv 15 1000 20 empty empty empty 20 12 0 14 -162280 -66577
0;
#X obj 3 423 cnv 15 1000 20 empty empty empty 20 12 0 14 -233017 -66577
0;
#X obj 3 443 cnv 15 1000 20 empty empty empty 20 12 0 14 -162280 -66577
0;
#X obj 3 463 cnv 15 1000 20 empty empty empty 20 12 0 14 -233017 -66577
0;
#X obj 3 483 cnv 15 1000 20 empty empty empty 20 12 0 14 -162280 -66577
0;
#X obj 3 503 cnv 15 1000 20 empty empty empty 20 12 0 14 -233017 -66577
0;
#X obj 3 523 cnv 15 1000 20 empty empty empty 20 12 0 14 -162280 -66577
0;
#X obj 3 543 cnv 15 1000 20 empty empty empty 20 12 0 14 -233017 -66577
0;
#X obj 3 563 cnv 15 1000 20 empty empty empty 20 12 0 14 -162280 -66577
0;
#X obj 3 583 cnv 15 1000 20 empty empty empty 20 12 0 14 -233017 -66577
0;
#X obj 3 603 cnv 15 1000 20 empty empty empty 20 12 0 14 -162280 -66577
0;
#X obj 3 623 cnv 15 1000 20 empty empty empty 20 12 0 14 -233017 -66577
0;
#X obj 3 643 cnv 15 1000 20 empty empty empty 20 12 0 14 -162280 -66577
0;
#X obj 3 663 cnv 15 1000 20 empty empty empty 20 12 0 14 -233017 -66577
0;
#X obj 3 683 cnv 15 1000 20 empty empty empty 20 12 0 14 -162280 -66577
0;
#X obj 3 703 cnv 15 1000 20 empty empty empty 20 12 0 14 -233017 -66577
0;
#X obj 3 723 cnv 15 1000 20 empty empty empty 20 12 0 14 -162280 -66577
0;
#X obj 3 743 cnv 15 1000 20 empty empty empty 20 12 0 14 -233017 -66577
0;
#X obj 3 763 cnv 15 1000 20 empty empty empty 20 12 0 14 -162280 -66577
0;
#X obj 3 783 cnv 15 1000 20 empty empty empty 20 12 0 14 -233017 -66577
0;
#X obj 3 803 cnv 15 1000 20 empty empty empty 20 12 0 14 -162280 -66577
0;
#X obj 3 823 cnv 15 1000 20 empty empty empty 20 12 0 14 -233017 -66577
0;
#X obj 3 843 cnv 15 1000 20 empty empty empty 20 12 0 14 -162280 -66577
0;
#X obj 3 863 cnv 15 1000 20 empty empty empty 20 12 0 14 -233017 -66577
0;
#X obj 3 883 cnv 15 1000 20 empty empty empty 20 12 0 14 -162280 -66577
0;
#X obj 3 903 cnv 15 1000 20 empty empty empty 20 12 0 14 -233017 -66577
0;
#X obj 3 923 cnv 15 1000 20 empty empty empty 20 12 0 14 -162280 -66577
0;
#X obj 3 943 cnv 15 1000 20 empty empty empty 20 12 0 14 -233017 -66577
0;
#X obj 3 963 cnv 15 1000 20 empty empty empty 20 12 0 14 -162280 -66577
0;
#X obj 3 983 cnv 15 1000 20 empty empty empty 20 12 0 14 -233017 -66577
0;
#X obj 3 1003 cnv 15 1000 20 empty empty empty 20 12 0 14 -162280 -66577
0;
#X obj 3 1023 cnv 15 1000 20 empty empty empty 20 12 0 14 -233017 -66577
0;
#X obj 3 1043 cnv 15 1000 20 empty empty empty 20 12 0 14 -162280 -66577
0;
#X text 77 24 1;
#X text 4 825 Vague.1 level;
#X text 4 845 Vague.1 largeur;
#X text 4 947 foret level;
#X text 4 967 foret speed;
#X text 4 986 Rwalk level;
#X text 4 1007 Rwalk speed;
#X text 4 865 Vague.2 level;
#X text 4 906 Vague.3 level;
#X text 4 926 Vague.3 largeur;
#X text 4 885 Vague.2 largeur;
#X text 77 44 2;
#X text 77 64 3;
#X text 77 84 4;
#X text 77 104 5;
#X text 77 124 6;
#X text 77 144 7;
#X text 77 164 8;
#X text 77 184 9;
#X text 77 204 10;
#X text 77 224 11;
#X text 77 244 12;
#X text 77 264 13;
#X text 77 284 14;
#X text 77 304 15;
#X text 77 324 16;
#X text 77 344 17;
#X text 77 364 18;
#X text 77 384 19;
#X text 77 404 20;
#X text 77 424 21;
#X text 77 444 22;
#X text 77 464 23;
#X text 77 484 24;
#X text 77 504 25;
#X text 77 524 26;
#X text 77 544 27;
#X text 77 564 28;
#X text 77 584 29;
#X text 77 604 30;
#X text 77 624 31;
#X text 77 644 32;
#X text 77 664 33;
#X text 77 684 34;
#X text 77 704 35;
#X text 77 724 36;
#X text 77 744 37;
#X text 77 764 38;
#X text 77 784 39;
#X text 77 804 40;
#X text 109 5 alex;
#X text 179 5 celia;
#X text 252 5 nina;
#X text 321 7 nico.1;
#X text 389 6 nico.2;
#X text 456 6 nico.3;
#X text 534 6 nico.4;
#X obj 104 24 send.view /alex;
#X obj 175 24 send.view /celia;
#X obj 244 24 send.view /nina;
#X obj 314 24 send.view /player.1;
#X obj 384 24 send.view /player.2;
#X obj 454 24 send.view /player.3;
#X obj 524 24 send.view /player.4;
#X obj 175 24 send.view /celia;
#X obj 175 24 send.view /celia;
#X obj 175 24 send.view /celia;
#X obj 175 24 send.view /celia;
#X obj 175 24 send.view /celia;
#X obj 175 24 send.view /celia;
#X coords 0 739 1 738 1000 1255 0;
#X restore 100 495 pd sends;
#N canvas 531 536 758 343 audiograph 0;
#X obj 53 76 track.model alex;
#N canvas 0 391 1280 480 audio-input 0;
#X obj 53 188 adc~ 1;
#X obj 183 344 outlet~;
#X obj 243 344 outlet~;
#X obj 303 344 outlet~;
#X obj 113 188 adc~ 2;
#X obj 173 188 adc~ 3;
#X obj 235 215 == 0;
#X obj 274 215 == 1;
#X obj 323 212 readsf~ 3, f 30;
#X obj 323 167 openpanel;
#X obj 235 124 vradio 15 1 0 2 empty empty empty 0 -8 0 10 -262144
-1 -1 0;
#X obj 53 288 *~ 1;
#X obj 113 288 *~ 1;
#X obj 173 288 *~ 1;
#X obj 323 288 *~ 0;
#X obj 382 287 *~ 0;
#X obj 441 287 *~ 0;
#X text 252 122 adc;
#X text 251 139 audiofile;
#X msg 323 189 open \$1 \, 1;
#X obj 323 103 sel 1, f 6;
#X obj 885 100 player.model player.1;
#X obj 886 140 dac~ 1 2;
#X obj 1019 142 dac~ 1 2;
#X obj 1154 144 dac~ 1 2;
#X obj 1287 145 dac~ 1 2;
#X obj 689 456 outlet~;
#X obj 823 460 outlet~;
#X obj 957 460 outlet~;
#X obj 1090 460 outlet~;
#X msg 323 146 symbol \$1/record;
#X obj 235 98 inlet;
#X obj 789 298 == 0;
#X obj 828 298 == 1;
#X obj 789 207 vradio 15 1 0 2 empty empty empty 0 -8 0 10 -262144
-1 -1 0;
#X obj 607 371 *~ 1;
#X obj 667 371 *~ 1;
#X obj 727 371 *~ 1;
#X obj 877 371 *~ 0;
#X obj 936 370 *~ 0;
#X obj 995 370 *~ 0;
#X text 806 205 adc;
#X text 805 222 audiofile;
#X obj 789 181 inlet;
#X obj 414 348 dac~ 1 2;
#X obj 787 371 *~ 1;
#X obj 1055 370 *~ 0;
#X obj 564 276 adc~ 5;
#X obj 624 276 adc~ 6;
#X obj 684 276 adc~ 7;
#X obj 744 276 adc~ 8;
#X obj 1018 101 player.model player.2;
#X obj 1153 103 player.model player.3;
#X obj 1286 104 player.model player.4;
#X obj 1173 354 j.remote /player.*/play;
#X msg 1173 333 0;
#X obj 323 125 ggee/getdir;
#X connect 0 0 11 0;
#X connect 4 0 12 0;
#X connect 5 0 13 0;
#X connect 6 0 11 1;
#X connect 6 0 12 1;
#X connect 6 0 13 1;
#X connect 7 0 14 1;
#X connect 7 0 15 1;
#X connect 7 0 16 1;
#X connect 7 0 20 0;
#X connect 8 0 14 0;
#X connect 8 1 15 0;
#X connect 8 2 16 0;
#X connect 9 0 19 0;
#X connect 10 0 6 0;
#X connect 10 0 7 0;
#X connect 11 0 1 0;
#X connect 12 0 2 0;
#X connect 13 0 3 0;
#X connect 14 0 1 0;
#X connect 14 0 44 0;
#X connect 14 0 44 1;
#X connect 15 0 2 0;
#X connect 15 0 44 0;
#X connect 15 0 44 1;
#X connect 16 0 3 0;
#X connect 16 0 44 0;
#X connect 16 0 44 1;
#X connect 19 0 8 0;
#X connect 20 0 56 0;
#X connect 20 1 8 0;
#X connect 21 0 22 0;
#X connect 21 1 22 1;
#X connect 21 2 38 0;
#X connect 30 0 9 0;
#X connect 31 0 10 0;
#X connect 32 0 35 1;
#X connect 32 0 36 1;
#X connect 32 0 37 1;
#X connect 32 0 45 1;
#X connect 33 0 38 1;
#X connect 33 0 39 1;
#X connect 33 0 40 1;
#X connect 33 0 46 1;
#X connect 34 0 32 0;
#X connect 34 0 33 0;
#X connect 35 0 26 0;
#X connect 36 0 27 0;
#X connect 37 0 28 0;
#X connect 38 0 26 0;
#X connect 39 0 27 0;
#X connect 40 0 28 0;
#X connect 43 0 34 0;
#X connect 45 0 29 0;
#X connect 46 0 29 0;
#X connect 47 0 35 0;
#X connect 48 0 36 0;
#X connect 49 0 37 0;
#X connect 50 0 45 0;
#X connect 51 0 23 0;
#X connect 51 1 23 1;
#X connect 51 2 39 0;
#X connect 52 0 24 0;
#X connect 52 1 24 1;
#X connect 52 2 40 0;
#X connect 53 0 25 0;
#X connect 53 1 25 1;
#X connect 53 2 46 0;
#X connect 55 0 54 0;
#X connect 56 0 30 0;
#X restore 53 43 pd audio-input;
#X obj 53 16 inlet;
#X obj 469 109 _track.model nico.3;
#X obj 553 79 _track.model nico.4;
#X obj 137 102 track.model celia;
#X obj 219 75 track.model nina;
#X obj 301 109 track.model nico.1;
#X obj 385 79 track.model nico.2;
#X connect 1 0 0 0;
#X connect 1 1 5 0;
#X connect 1 2 6 0;
#X connect 1 3 7 0;
#X connect 1 4 8 0;
#X connect 1 5 3 0;
#X connect 1 6 4 0;
#X connect 2 0 1 0;
#X restore 100 535 pd audiograph;
#X obj 222 477 bus_master /nico/master;
#X obj 222 559 s master_cycliode_nico;
#X obj 222 539 / 100;
#X floatatom 222 519 5 0 0 1 % - -, f 5;
#X text 182 518 master;
#N canvas 0 22 450 300 view 0;
#X obj 55 52 player.view player.1;
#X restore 100 515 pd view;
#X text 22 41 threshold;
#X text 52 61 gain;
#X text 34 82 release;
#X text 46 106 pitch;
#X text 16 125 brightness;
#X text 46 163 range;
#X text 46 203 width;
#X text 46 284 level;
#X text 40 243 in max;
#X text 40 223 in min;
#X text 46 316 range;
#X text 28 336 position;
#X text 28 356 freq min;
#X text 28 376 freq max;
#X text 34 396 scale 1;
#X text 34 416 scale 2;
#N canvas 163 282 453 676 Readme 0;
#X text 32 20 Réglage des entrées audio :;
#X text 57 39 Changer le seuil de sorte que seul le son utile fasse
monter le slider (quand on n'utilise pas le micro \, le son ambiant
ne doit pas faire bouger le slider.;
#X text 58 79 Monter le gain pour qu'une fine variation de volume fasse
bouger le slider.;
#X text 57 108 Le paramètre Release permet de contrôler le temps
de réponse du slider.;
#X text 28 173 Réglage des efffets :;
#X text 45 190 Brightness et pitch : déplace une tâche de lumière
plus ou moins large sur plusieurs projecteurs.;
#X text 75 220 Brightness : c'est la brillance du son qui déplace
la tâche.;
#X text 75 240 Pitch : c'est la hauteur (la note) du son qui déplace
la tâche.;
#X text 73 274 range : nombre de projecteurs sur lesquels la tâche
se déplace;
#X text 73 304 offset : numéro du projecteur de départ;
#X text 73 324 width : largeur de la tâche;
#X text 73 344 in min/max : plage de valeur d'entrée \, quand l'entrée
est à min \, la tâche est à la position de départ \, quand l'entrée
est à max \, la tâche est à la position d'arrivée.;
#X text 73 394 level : niveau de l'effet;
#X text 73 474 offset : numéro du projecteur de départ;
#X text 73 584 level : niveau de l'effet;
#X text 45 420 Spectre : chaque bande de fréquences contrôle un projecteur
;
#X text 73 494 freq min/max : frequence min et max \, cette plage de
fréquence est divisé en autant de bande qu'on a sélectionné de
projecteurs \, toutes les bandes ont la même largeur en octave;
#X text 72 552 scale 1&2 : deux multiplicateur permettant de contrôler
la réponse des projecteurs;
#X text 73 444 range : nombre de projecteurs et nombre de bande de
fréquences à utiliser (<= 26);
#X restore 100 555 pd Readme;
#X obj 21 487 vradio 15 1 0 2 empty empty empty 0 -8 0 10 -262144 -1
-1 0;
#X text 37 502 audiofile;
#X text 38 487 micros;
#X text 40 183 offset;
#X text 46 435 level;
#X text 22 264 smoothing;
#X obj 190 12 track.view /celia;
#X obj 300 12 track.view /nina;
#X obj 410 12 track.view /nico.1;
#X obj 522 12 track.view /nico.2;
#X obj 634 12 track.view /nico.3;
#X obj 746 12 track.view /nico.4;
#X connect 5 0 4 0;
#X connect 6 0 5 0;
#X connect 26 0 2 0;
#X restore 81 63 pd analysis;
#N canvas 37 553 431 324 audio-record 0;
#X obj 101 122 adc~ 1 2 3;
#X obj 101 263 writesf~ 3;
#X text 198 61 choose a filename :;
#X symbolatom 198 84 20 0 0 0 - - -, f 20;
#X msg 198 135 open -bytes 3 \$1;
#X obj 198 111 makefilename record/%s.wav;
#X obj 197 170 tgl 15 0 empty empty empty 17 7 0 10 -262144 -1 -1 0
1;
#X obj 197 191 sel 0 1;
#X msg 197 221 stop;
#X msg 236 221 start;
#X text 215 170 start/stop;
#X obj 37 300 dac~ 1 2;
#X obj 37 241 *~;
#X obj 328 54 bng 15 250 50 0 empty empty empty 17 7 0 10 -262144 -1
-1;
#X connect 0 0 1 0;
#X connect 0 0 12 0;
#X connect 0 1 1 1;
#X connect 0 1 12 0;
#X connect 0 2 1 2;
#X connect 0 2 12 0;
#X connect 3 0 5 0;
#X connect 4 0 1 0;
#X connect 5 0 4 0;
#X connect 6 0 7 0;
#X connect 6 0 12 1;
#X connect 7 0 8 0;
#X connect 7 1 9 0;
#X connect 8 0 1 0;
#X connect 9 0 1 0;
#X connect 12 0 11 0;
#X connect 12 0 11 1;
#X connect 13 0 3 0;
#X restore 81 23 pd audio-record;
#X obj 71 289 j.minuit_device;
#N canvas 446 215 754 476 simulation_light 0;
#X obj 42 42 nbx 3 14 -1e+37 1e+37 0 1 empty empty empty 0 -8 0 10
-262144 -1 -1 0 256;
#X obj 82 42 nbx 3 14 -1e+37 1e+37 0 1 empty empty empty 0 -8 0 10
-262144 -1 -1 0 256;
#X obj 122 42 nbx 3 14 -1e+37 1e+37 0 1 empty empty empty 0 -8 0 10
-262144 -1 -1 0 256;
#X obj 42 92 nbx 3 14 -1e+37 1e+37 0 1 empty empty empty 0 -8 0 10
-262144 -1 -1 0 256;
#X obj 82 92 nbx 3 14 -1e+37 1e+37 0 1 empty empty empty 0 -8 0 10
-262144 -1 -1 0 256;
#X obj 122 92 nbx 3 14 -1e+37 1e+37 0 1 empty empty empty 0 -8 0 10
-262144 -1 -1 0 256;
#X obj 42 142 nbx 3 14 -1e+37 1e+37 0 1 empty empty empty 0 -8 0 10
-262144 -1 -1 0 256;
#X obj 82 142 nbx 3 14 -1e+37 1e+37 0 1 empty empty empty 0 -8 0 10
-262144 -1 -1 0 256;
#X obj 122 142 nbx 3 14 -1e+37 1e+37 0 1 empty empty empty 0 -8 0 10
-262144 -1 -1 0 256;
#X obj 42 192 nbx 3 14 -1e+37 1e+37 0 1 empty empty empty 0 -8 0 10
-262144 -1 -1 0 256;
#X obj 82 192 nbx 3 14 -1e+37 1e+37 0 1 empty empty empty 0 -8 0 10
-262144 -1 -1 0 256;
#X obj 122 192 nbx 3 14 -1e+37 1e+37 0 1 empty empty empty 0 -8 0 10
-262144 -1 -1 0 256;
#X obj 42 242 nbx 3 14 -1e+37 1e+37 0 1 empty empty empty 0 -8 0 10
-262144 -1 -1 0 256;
#X obj 82 242 nbx 3 14 -1e+37 1e+37 0 1 empty empty empty 0 -8 0 10
-262144 -1 -1 0 256;
#X obj 122 242 nbx 3 14 -1e+37 1e+37 0 1 empty empty empty 0 -8 0 10
-262144 -1 -1 0 256;
#X obj 42 292 nbx 3 14 -1e+37 1e+37 0 1 empty empty empty 0 -8 0 10
-262144 -1 -1 0 256;
#X obj 82 292 nbx 3 14 -1e+37 1e+37 0 1 empty empty empty 0 -8 0 10
-262144 -1 -1 0 256;
#X obj 122 292 nbx 3 14 -1e+37 1e+37 0 1 empty empty empty 0 -8 0 10
-262144 -1 -1 0 256;
#X obj 42 342 nbx 3 14 -1e+37 1e+37 0 1 empty empty empty 0 -8 0 10
-262144 -1 -1 0 256;
#X obj 82 342 nbx 3 14 -1e+37 1e+37 0 1 empty empty empty 0 -8 0 10
-262144 -1 -1 0 256;
#X obj 122 342 nbx 3 14 -1e+37 1e+37 0 1 empty empty empty 0 -8 0 10
-262144 -1 -1 0 256;
#X obj 42 392 nbx 3 14 -1e+37 1e+37 0 1 empty empty empty 0 -8 0 10
-262144 -1 -1 0 256;
#X obj 82 392 nbx 3 14 -1e+37 1e+37 0 1 empty empty empty 0 -8 0 10
-262144 -1 -1 0 256;
#X obj 122 392 nbx 3 14 -1e+37 1e+37 0 1 empty empty empty 0 -8 0 10
-262144 -1 -1 0 256;
#X obj 172 42 nbx 3 14 -1e+37 1e+37 0 1 empty empty empty 0 -8 0 10
-262144 -1 -1 0 256;
#X obj 212 42 nbx 3 14 -1e+37 1e+37 0 1 empty empty empty 0 -8 0 10
-262144 -1 -1 0 256;
#X obj 252 42 nbx 3 14 -1e+37 1e+37 0 1 empty empty empty 0 -8 0 10
-262144 -1 -1 0 256;
#X obj 172 92 nbx 3 14 -1e+37 1e+37 0 1 empty empty empty 0 -8 0 10
-262144 -1 -1 0 256;
#X obj 212 92 nbx 3 14 -1e+37 1e+37 0 1 empty empty empty 0 -8 0 10
-262144 -1 -1 0 256;
#X obj 252 92 nbx 3 14 -1e+37 1e+37 0 1 empty empty empty 0 -8 0 10
-262144 -1 -1 0 256;
#X obj 172 142 nbx 3 14 -1e+37 1e+37 0 1 empty empty empty 0 -8 0 10
-262144 -1 -1 0 256;
#X obj 212 142 nbx 3 14 -1e+37 1e+37 0 1 empty empty empty 0 -8 0 10
-262144 -1 -1 0 256;
#X obj 252 142 nbx 3 14 -1e+37 1e+37 0 1 empty empty empty 0 -8 0 10
-262144 -1 -1 0 256;
#X obj 172 192 nbx 3 14 -1e+37 1e+37 0 1 empty empty empty 0 -8 0 10
-262144 -1 -1 0 256;
#X obj 212 192 nbx 3 14 -1e+37 1e+37 0 1 empty empty empty 0 -8 0 10
-262144 -1 -1 0 256;
#X obj 252 192 nbx 3 14 -1e+37 1e+37 0 1 empty empty empty 0 -8 0 10
-262144 -1 -1 0 256;
#X obj 172 242 nbx 3 14 -1e+37 1e+37 0 1 empty empty empty 0 -8 0 10
-262144 -1 -1 0 256;
#X obj 212 242 nbx 3 14 -1e+37 1e+37 0 1 empty empty empty 0 -8 0 10
-262144 -1 -1 0 256;
#X obj 252 242 nbx 3 14 -1e+37 1e+37 0 1 empty empty empty 0 -8 0 10
-262144 -1 -1 0 256;
#X obj 172 292 nbx 3 14 -1e+37 1e+37 0 1 empty empty empty 0 -8 0 10
-262144 -1 -1 0 256;
#X obj 212 292 nbx 3 14 -1e+37 1e+37 0 1 empty empty empty 0 -8 0 10
-262144 -1 -1 0 256;
#X obj 252 292 nbx 3 14 -1e+37 1e+37 0 1 empty empty empty 0 -8 0 10
-262144 -1 -1 0 256;
#X obj 172 342 nbx 3 14 -1e+37 1e+37 0 1 empty empty empty 0 -8 0 10
-262144 -1 -1 0 256;
#X obj 212 342 nbx 3 14 -1e+37 1e+37 0 1 empty empty empty 0 -8 0 10
-262144 -1 -1 0 256;
#X obj 252 342 nbx 3 14 -1e+37 1e+37 0 1 empty empty empty 0 -8 0 10
-262144 -1 -1 0 256;
#X obj 172 392 nbx 3 14 -1e+37 1e+37 0 1 empty empty empty 0 -8 0 10
-262144 -1 -1 0 256;
#X obj 212 392 nbx 3 14 -1e+37 1e+37 0 1 empty empty empty 0 -8 0 10
-262144 -1 -1 0 256;
#X obj 252 392 nbx 3 14 -1e+37 1e+37 0 1 empty empty empty 0 -8 0 10
-262144 -1 -1 0 256;
#X obj 302 42 nbx 3 14 -1e+37 1e+37 0 1 empty empty empty 0 -8 0 10
-262144 -1 -1 0 256;
#X obj 342 42 nbx 3 14 -1e+37 1e+37 0 1 empty empty empty 0 -8 0 10
-262144 -1 -1 0 256;
#X obj 382 42 nbx 3 14 -1e+37 1e+37 0 1 empty empty empty 0 -8 0 10
-262144 -1 -1 0 256;
#X obj 302 92 nbx 3 14 -1e+37 1e+37 0 1 empty empty empty 0 -8 0 10
-262144 -1 -1 0 256;
#X obj 342 92 nbx 3 14 -1e+37 1e+37 0 1 empty empty empty 0 -8 0 10
-262144 -1 -1 0 256;
#X obj 382 92 nbx 3 14 -1e+37 1e+37 0 1 empty empty empty 0 -8 0 10
-262144 -1 -1 0 256;
#X obj 302 142 nbx 3 14 -1e+37 1e+37 0 1 empty empty empty 0 -8 0 10
-262144 -1 -1 0 256;
#X obj 342 142 nbx 3 14 -1e+37 1e+37 0 1 empty empty empty 0 -8 0 10
-262144 -1 -1 0 256;
#X obj 382 142 nbx 3 14 -1e+37 1e+37 0 1 empty empty empty 0 -8 0 10
-262144 -1 -1 0 256;
#X obj 302 192 nbx 3 14 -1e+37 1e+37 0 1 empty empty empty 0 -8 0 10
-262144 -1 -1 0 256;
#X obj 342 192 nbx 3 14 -1e+37 1e+37 0 1 empty empty empty 0 -8 0 10
-262144 -1 -1 0 256;
#X obj 382 192 nbx 3 14 -1e+37 1e+37 0 1 empty empty empty 0 -8 0 10
-262144 -1 -1 0 256;
#X obj 302 242 nbx 3 14 -1e+37 1e+37 0 1 empty empty empty 0 -8 0 10
-262144 -1 -1 0 256;
#X obj 342 242 nbx 3 14 -1e+37 1e+37 0 1 empty empty empty 0 -8 0 10
-262144 -1 -1 0 256;
#X obj 382 242 nbx 3 14 -1e+37 1e+37 0 1 empty empty empty 0 -8 0 10
-262144 -1 -1 0 256;
#X obj 302 292 nbx 3 14 -1e+37 1e+37 0 1 empty empty empty 0 -8 0 10
-262144 -1 -1 0 256;
#X obj 342 292 nbx 3 14 -1e+37 1e+37 0 1 empty empty empty 0 -8 0 10
-262144 -1 -1 0 256;
#X obj 382 292 nbx 3 14 -1e+37 1e+37 0 1 empty empty empty 0 -8 0 10
-262144 -1 -1 0 256;
#X obj 302 342 nbx 3 14 -1e+37 1e+37 0 1 empty empty empty 0 -8 0 10
-262144 -1 -1 0 256;
#X obj 342 342 nbx 3 14 -1e+37 1e+37 0 1 empty empty empty 0 -8 0 10
-262144 -1 -1 0 256;
#X obj 382 342 nbx 3 14 -1e+37 1e+37 0 1 empty empty empty 0 -8 0 10
-262144 -1 -1 0 256;
#X obj 302 392 nbx 3 14 -1e+37 1e+37 0 1 empty empty empty 0 -8 0 10
-262144 -1 -1 0 256;
#X obj 342 392 nbx 3 14 -1e+37 1e+37 0 1 empty empty empty 0 -8 0 10
-262144 -1 -1 0 256;
#X obj 382 392 nbx 3 14 -1e+37 1e+37 0 1 empty empty empty 0 -8 0 10
-262144 -1 -1 0 256;
#X obj 432 42 nbx 3 14 -1e+37 1e+37 0 1 empty empty empty 0 -8 0 10
-262144 -1 -1 0 256;
#X obj 472 42 nbx 3 14 -1e+37 1e+37 0 1 empty empty empty 0 -8 0 10
-262144 -1 -1 0 256;
#X obj 512 42 nbx 3 14 -1e+37 1e+37 0 1 empty empty empty 0 -8 0 10
-262144 -1 -1 0 256;
#X obj 432 92 nbx 3 14 -1e+37 1e+37 0 1 empty empty empty 0 -8 0 10
-262144 -1 -1 0 256;
#X obj 472 92 nbx 3 14 -1e+37 1e+37 0 1 empty empty empty 0 -8 0 10
-262144 -1 -1 0 256;
#X obj 512 92 nbx 3 14 -1e+37 1e+37 0 1 empty empty empty 0 -8 0 10
-262144 -1 -1 0 256;
#X obj 432 142 nbx 3 14 -1e+37 1e+37 0 1 empty empty empty 0 -8 0 10
-262144 -1 -1 0 256;
#X obj 472 142 nbx 3 14 -1e+37 1e+37 0 1 empty empty empty 0 -8 0 10
-262144 -1 -1 0 256;
#X obj 512 142 nbx 3 14 -1e+37 1e+37 0 1 empty empty empty 0 -8 0 10
-262144 -1 -1 0 256;
#X obj 432 192 nbx 3 14 -1e+37 1e+37 0 1 empty empty empty 0 -8 0 10
-262144 -1 -1 0 256;
#X obj 472 192 nbx 3 14 -1e+37 1e+37 0 1 empty empty empty 0 -8 0 10
-262144 -1 -1 0 256;
#X obj 512 192 nbx 3 14 -1e+37 1e+37 0 1 empty empty empty 0 -8 0 10
-262144 -1 -1 0 256;
#X obj 432 242 nbx 3 14 -1e+37 1e+37 0 1 empty empty empty 0 -8 0 10
-262144 -1 -1 0 256;
#X obj 472 242 nbx 3 14 -1e+37 1e+37 0 1 empty empty empty 0 -8 0 10
-262144 -1 -1 0 256;
#X obj 512 242 nbx 3 14 -1e+37 1e+37 0 1 empty empty empty 0 -8 0 10
-262144 -1 -1 0 256;
#X obj 432 292 nbx 3 14 -1e+37 1e+37 0 1 empty empty empty 0 -8 0 10
-262144 -1 -1 0 256;
#X obj 472 292 nbx 3 14 -1e+37 1e+37 0 1 empty empty empty 0 -8 0 10
-262144 -1 -1 0 256;
#X obj 512 292 nbx 3 14 -1e+37 1e+37 0 1 empty empty empty 0 -8 0 10
-262144 -1 -1 0 256;
#X obj 432 342 nbx 3 14 -1e+37 1e+37 0 1 empty empty empty 0 -8 0 10
-262144 -1 -1 0 256;
#X obj 472 342 nbx 3 14 -1e+37 1e+37 0 1 empty empty empty 0 -8 0 10
-262144 -1 -1 0 256;
#X obj 512 342 nbx 3 14 -1e+37 1e+37 0 1 empty empty empty 0 -8 0 10
-262144 -1 -1 0 256;
#X obj 432 392 nbx 3 14 -1e+37 1e+37 0 1 empty empty empty 0 -8 0 10
-262144 -1 -1 0 256;
#X obj 472 392 nbx 3 14 -1e+37 1e+37 0 1 empty empty empty 0 -8 0 10
-262144 -1 -1 0 256;
#X obj 512 392 nbx 3 14 -1e+37 1e+37 0 1 empty empty empty 0 -8 0 10
-262144 -1 -1 0 256;
#X obj 585 46 gemwin;
#X msg 585 26 create \, 1;
#X obj 585 5 loadbang;
#X obj 577 144 gemhead;
#X obj 577 256 circle;
#X obj 577 208 translateXYZ;
#X obj 577 121 tgl 15 0 empty empty empty 17 7 0 10 -262144 -1 -1 1
1;
#X obj 577 186 color 255 255 255;
#X floatatom 642 155 5 0 0 0 - - -, f 5;
#X floatatom 679 153 5 0 0 0 - - -, f 5;
#X floatatom 614 233 5 0 0 0 - - -, f 5;
#X obj 42 69 simlight 1;
#X obj 577 78 loadbang;
#X msg 577 100 0;
#X obj 42 119 simlight 2;
#X obj 42 169 simlight 3;
#X obj 42 219 simlight 4;
#X obj 42 269 simlight 5;
#X obj 42 319 simlight 6;
#X obj 42 369 simlight 7;
#X obj 42 419 simlight 8;
#X obj 172 69 simlight 1;
#X obj 172 119 simlight 2;
#X obj 172 169 simlight 3;
#X obj 172 219 simlight 4;
#X obj 172 269 simlight 5;
#X obj 172 319 simlight 6;
#X obj 172 369 simlight 7;
#X obj 172 419 simlight 8;
#X obj 302 69 simlight 1;
#X obj 302 119 simlight 2;
#X obj 302 169 simlight 3;
#X obj 302 219 simlight 4;
#X obj 302 269 simlight 5;
#X obj 302 319 simlight 6;
#X obj 302 369 simlight 7;
#X obj 302 419 simlight 8;
#X obj 432 69 simlight 1;
#X obj 432 119 simlight 2;
#X obj 432 169 simlight 3;
#X obj 432 219 simlight 4;
#X obj 432 269 simlight 5;
#X obj 432 319 simlight 6;
#X obj 432 369 simlight 7;
#X obj 432 419 simlight 8;
#X connect 0 0 107 0;
#X connect 1 0 107 1;
#X connect 2 0 107 2;
#X connect 3 0 110 0;
#X connect 4 0 110 1;
#X connect 5 0 110 2;
#X connect 6 0 111 0;
#X connect 7 0 111 1;
#X connect 8 0 111 2;
#X connect 9 0 112 0;
#X connect 10 0 112 1;
#X connect 11 0 112 2;
#X connect 12 0 113 0;
#X connect 13 0 113 1;
#X connect 14 0 113 2;
#X connect 15 0 114 0;
#X connect 16 0 114 1;
#X connect 17 0 114 2;
#X connect 18 0 115 0;
#X connect 19 0 115 1;
#X connect 20 0 115 2;
#X connect 21 0 116 0;
#X connect 22 0 116 1;
#X connect 23 0 116 2;
#X connect 24 0 117 0;
#X connect 25 0 117 1;
#X connect 26 0 117 2;
#X connect 27 0 118 0;
#X connect 28 0 118 1;
#X connect 29 0 118 2;
#X connect 30 0 119 0;
#X connect 31 0 119 1;
#X connect 32 0 119 2;
#X connect 33 0 120 0;
#X connect 34 0 120 1;
#X connect 35 0 120 2;
#X connect 36 0 121 0;
#X connect 37 0 121 1;
#X connect 38 0 121 2;
#X connect 39 0 122 0;
#X connect 40 0 122 1;
#X connect 41 0 122 2;
#X connect 42 0 123 0;
#X connect 43 0 123 1;
#X connect 44 0 123 2;
#X connect 45 0 124 0;
#X connect 46 0 124 1;
#X connect 47 0 124 2;
#X connect 48 0 125 0;
#X connect 49 0 125 1;
#X connect 50 0 125 2;
#X connect 51 0 126 0;
#X connect 52 0 126 1;
#X connect 53 0 126 2;
#X connect 54 0 127 0;
#X connect 55 0 127 1;
#X connect 56 0 127 2;
#X connect 57 0 128 0;
#X connect 58 0 128 1;
#X connect 59 0 128 2;
#X connect 60 0 129 0;
#X connect 61 0 129 1;
#X connect 62 0 129 2;
#X connect 63 0 130 0;
#X connect 64 0 130 1;
#X connect 65 0 130 2;
#X connect 66 0 131 0;
#X connect 67 0 131 1;
#X connect 68 0 131 2;
#X connect 69 0 132 0;
#X connect 70 0 132 1;
#X connect 71 0 132 2;
#X connect 72 0 133 0;
#X connect 73 0 133 1;
#X connect 74 0 133 2;
#X connect 75 0 134 0;
#X connect 76 0 134 1;
#X connect 77 0 134 2;
#X connect 78 0 135 0;
#X connect 79 0 135 1;
#X connect 80 0 135 2;
#X connect 81 0 136 0;
#X connect 82 0 136 1;
#X connect 83 0 136 2;
#X connect 84 0 137 0;
#X connect 85 0 137 1;
#X connect 86 0 137 2;
#X connect 87 0 138 0;
#X connect 88 0 138 1;
#X connect 89 0 138 2;
#X connect 90 0 139 0;
#X connect 91 0 139 1;
#X connect 92 0 139 2;
#X connect 93 0 140 0;
#X connect 94 0 140 1;
#X connect 95 0 140 2;
#X connect 97 0 96 0;
#X connect 98 0 97 0;
#X connect 99 0 103 0;
#X connect 101 0 100 0;
#X connect 102 0 99 0;
#X connect 103 0 101 0;
#X connect 104 0 101 1;
#X connect 105 0 101 2;
#X connect 106 0 100 1;
#X connect 108 0 109 0;
#X connect 109 0 102 0;
#X restore 81 83 pd simulation_light;
