#N canvas 0 0 1456 314 10;
#X obj 20 134 barre1 ______________________;
#X obj 238 137 barre2 ______________________;
#X obj 24 11 inlet;
#X obj 104 11 inlet;
#X obj 178 9 inlet;
#X obj 246 9 inlet;
#X obj 326 9 inlet;
#X obj 400 7 inlet;
#X obj 467 11 inlet;
#X obj 547 11 inlet;
#X obj 621 9 inlet;
#X obj 692 12 inlet;
#X obj 772 12 inlet;
#X obj 846 10 inlet;
#X obj 466 137 barre3 ______________________;
#X obj 685 140 barre4 ______________________;
#X connect 2 0 0 1;
#X connect 3 0 0 4;
#X connect 4 0 0 7;
#X connect 5 0 1 1;
#X connect 6 0 1 4;
#X connect 7 0 1 7;
#X connect 8 0 14 1;
#X connect 9 0 14 4;
#X connect 10 0 14 7;
#X connect 11 0 15 1;
#X connect 12 0 15 4;
#X connect 13 0 15 7;
