#N canvas 776 63 838 302 10;
#X floatatom 691 126 5 0 0 0 - - -;
#X obj 682 30 inlet;
#X floatatom 58 119 5 0 0 0 - - -;
#X obj 50 23 inlet;
#X floatatom 132 120 5 0 0 0 - - -;
#X obj 124 24 inlet;
#X floatatom 221 122 5 0 0 0 - - -;
#X obj 213 26 inlet;
#X floatatom 298 122 5 0 0 0 - - -;
#X obj 290 26 inlet;
#X floatatom 372 123 5 0 0 0 - - -;
#X obj 364 27 inlet;
#X floatatom 462 123 5 0 0 0 - - -;
#X obj 454 27 inlet;
#X floatatom 539 123 5 0 0 0 - - -;
#X obj 531 27 inlet;
#X floatatom 613 124 5 0 0 0 - - -;
#X obj 605 28 inlet;
#X obj 50 139 bus led10;
#X obj 124 140 bus led11;
#X obj 213 142 bus led12;
#X obj 290 142 bus led13;
#X obj 364 143 bus led14;
#X obj 454 143 bus led15;
#X obj 531 143 bus led16;
#X obj 605 144 bus led17;
#X obj 682 143 bus led18;
#X connect 0 0 26 0;
#X connect 1 0 26 0;
#X connect 2 0 18 0;
#X connect 3 0 18 0;
#X connect 4 0 19 0;
#X connect 5 0 19 0;
#X connect 6 0 20 0;
#X connect 7 0 20 0;
#X connect 8 0 21 0;
#X connect 9 0 21 0;
#X connect 10 0 22 0;
#X connect 11 0 22 0;
#X connect 12 0 23 0;
#X connect 13 0 23 0;
#X connect 14 0 24 0;
#X connect 15 0 24 0;
#X connect 16 0 25 0;
#X connect 17 0 25 0;
