#N canvas 336 61 450 300 10;
#X obj 125 10 inlet;
#X obj 104 177 spigot 0;
#X obj 97 57 sel 1;
#X obj 125 34 t f f;
#X obj 95 146 delay;
#X obj 238 14 inlet;
#X obj 297 14 inlet;
#X obj 95 85 t b b b;
#X obj 139 263 outlet;
#N canvas 771 228 506 441 between 0;
#X obj 61 29 inlet;
#X obj 211 31 inlet;
#X obj 350 33 inlet;
#X obj 195 172 \$1;
#X obj 225 281 i;
#X obj 195 380 +;
#X obj 195 206 t f f;
#X obj 195 410 outlet;
#X obj 225 230 - \$2;
#X obj 225 304 t b f;
#X obj 225 328 random 0;
#X obj 61 67 t b;
#X obj 225 256 * -100;
#X obj 226 353 / 100;
#X connect 0 0 11 0;
#X connect 1 0 3 1;
#X connect 2 0 8 1;
#X connect 3 0 6 0;
#X connect 4 0 9 0;
#X connect 5 0 7 0;
#X connect 6 0 5 0;
#X connect 6 1 8 0;
#X connect 8 0 12 0;
#X connect 9 0 10 0;
#X connect 9 1 10 1;
#X connect 10 0 13 0;
#X connect 11 0 3 0;
#X connect 12 0 4 0;
#X connect 13 0 5 1;
#X restore 117 113 pd between \$1 \$2;
#X connect 0 0 3 0;
#X connect 1 0 7 0;
#X connect 2 0 7 0;
#X connect 3 0 2 0;
#X connect 3 1 1 1;
#X connect 4 0 1 0;
#X connect 5 0 9 1;
#X connect 6 0 9 2;
#X connect 7 0 4 0;
#X connect 7 1 9 0;
#X connect 7 2 8 0;
#X connect 9 0 4 1;
