#N canvas 593 198 790 286 10;
#X floatatom 680 123 5 0 0 0 - - -;
#X obj 671 27 inlet;
#X floatatom 48 116 5 0 0 0 - - -;
#X obj 40 20 inlet;
#X floatatom 122 117 5 0 0 0 - - -;
#X obj 114 21 inlet;
#X floatatom 211 119 5 0 0 0 - - -;
#X obj 203 23 inlet;
#X floatatom 288 119 5 0 0 0 - - -;
#X obj 280 23 inlet;
#X floatatom 362 120 5 0 0 0 - - -;
#X obj 354 24 inlet;
#X floatatom 452 120 5 0 0 0 - - -;
#X obj 444 24 inlet;
#X floatatom 529 120 5 0 0 0 - - -;
#X obj 521 24 inlet;
#X floatatom 603 121 5 0 0 0 - - -;
#X obj 595 25 inlet;
#X obj 40 137 bus led19;
#X obj 114 137 bus led20;
#X obj 203 139 bus led21;
#X obj 280 139 bus led22;
#X obj 354 138 bus led23;
#X obj 443 140 bus led24;
#X obj 521 140 bus led25;
#X obj 595 140 bus led26;
#X obj 671 140 bus led27;
#X connect 0 0 26 0;
#X connect 1 0 26 0;
#X connect 2 0 18 0;
#X connect 3 0 18 0;
#X connect 4 0 19 0;
#X connect 5 0 19 0;
#X connect 6 0 20 0;
#X connect 7 0 20 0;
#X connect 8 0 21 0;
#X connect 9 0 21 0;
#X connect 10 0 22 0;
#X connect 11 0 22 0;
#X connect 12 0 23 0;
#X connect 13 0 23 0;
#X connect 14 0 24 0;
#X connect 15 0 24 0;
#X connect 16 0 25 0;
#X connect 17 0 25 0;
