#N canvas 773 578 450 300 10;
#X obj 157 198 dmx_out;
#X obj 162 75 line;
#X msg 163 35 0 \, 100 1000;
#X obj 170 122 t f b;
#X msg 191 153 37;
#X connect 1 0 3 0;
#X connect 2 0 1 0;
#X connect 3 0 0 0;
#X connect 3 1 4 0;
#X connect 4 0 0 1;
