#N canvas 281 184 701 435 10;
#X obj 161 48 nrpnin;
#X obj 161 88 spigot;
#X obj 194 68 == \$1;
#X obj 180 342 nrpnout \$1;
#X obj 180 180 j.remote \$2;
#X obj 180 143 j.map @input/min 0 @input/max 255 @output/min \$3 @output/max
\$4, f 64;
#X obj 180 268 j.map @input/min \$3 @input/max \$4 @output/min 0 @output/max
255, f 64;
#X text 339 56 \$1 : NRPN number;
#X text 339 76 \$2 : jamoma parameter address;
#X text 339 96 \$3/\$4 : parameter min and max;
#X floatatom 115 140 5 0 0 0 - - -, f 5;
#X obj 180 290 clip 0 255;
#X floatatom 213 318 5 0 0 0 - - -, f 5;
#X floatatom 180 202 5 0 0 0 - - -, f 5;
#X obj 180 237 spigot;
#X obj 161 115 t b f b;
#X msg 280 193 0;
#X msg 139 197 1;
#X connect 0 0 1 0;
#X connect 0 0 10 0;
#X connect 0 1 2 0;
#X connect 1 0 15 0;
#X connect 2 0 1 1;
#X connect 4 0 13 0;
#X connect 5 0 4 0;
#X connect 6 0 11 0;
#X connect 11 0 3 0;
#X connect 11 0 12 0;
#X connect 13 0 14 0;
#X connect 14 0 6 0;
#X connect 15 0 17 0;
#X connect 15 1 5 0;
#X connect 15 2 16 0;
#X connect 16 0 14 1;
#X connect 17 0 14 1;
