#N canvas 193 23 955 911 10;
#X declare -stdpath grrrr;
#X obj 141 251 route bang;
#X text 285 431 logarithmic sliders;
#X obj 325 614 unpack 0 0 0 0 0 0 0 0 0 0 0 0 0 0 0 0 0 0 0 0 0 0 0
0, f 77;
#X obj 49 84 loadbang;
#X obj 141 223 constantq~;
#X obj 141 137 inlet~;
#X obj 779 48 j.model;
#X obj 779 18 inlet;
#X obj 779 78 outlet;
#X obj 98 53 declare -stdpath grrrr;
#X floatatom 345 11 5 0 0 0 - - -, f 5;
#X floatatom 345 51 5 0 0 0 - - -, f 5;
#X msg 300 179 logfrqs \$1 \$2 \$3 \, reset;
#X obj 299 158 pack f f f;
#X obj 302 101 t b f;
#X obj 346 129 t b f;
#X floatatom 345 101 5 0 0 0 - - -, f 5;
#X obj 389 -1 j.parameter freq/min @type decimal @dataspace time @unit
Hz @description "lower bound of frequencies range" @default 50;
#X obj 389 41 j.parameter freq/max @type decimal @dataspace time @unit
Hz @description "higher bound of frequencies range" @default 5000;
#X obj 389 91 j.parameter freq/bandnumber @type integer @dataspace
time @unit Hz @description "higher bound of frequencies range" @default
5000;
#X msg 49 106 rate 20 \, logfrqs 500 5000 24 \, reset;
#X obj 198 531 list-abs/list-pad;
#X msg 297 479 0 0 0 0 0 0 0 0 0 0 0 0 0 0 0 0 0 0 0 0 0 0 0 0;
#X obj 296 457 loadbang;
#N canvas 0 22 1117 268 output 0;
#X obj 63 141 bus effet1;
#X obj 103 171 bus effet2;
#X obj 133 141 bus effet3;
#X obj 173 171 bus effet4;
#X obj 203 141 bus effet5;
#X obj 243 171 bus effet6;
#X obj 273 141 bus effet7;
#X obj 313 171 bus effet8;
#X obj 344 142 bus effet9;
#X obj 383 171 bus effet10;
#X obj 413 142 bus effet11;
#X obj 483 142 bus effet13;
#X obj 553 142 bus effet15;
#X obj 625 143 bus effet17;
#X obj 696 143 bus effet19;
#X obj 766 143 bus effet21;
#X obj 836 143 bus effet23;
#X obj 453 171 bus effet12;
#X obj 522 171 bus effet14;
#X obj 593 171 bus effet16;
#X obj 662 171 bus effet18;
#X obj 732 171 bus effet20;
#X obj 802 171 bus effet22;
#X obj 872 171 bus effet24;
#X obj 916 143 bus effet25;
#X obj 969 162 bus effet26;
#X obj 155 101 unpack 0 0 0 0 0 0 0 0 0 0 0 0 0 0 0 0 0 0 0 0 0 0 0
0 0 0, f 137;
#X obj 153 73 inlet;
#X connect 26 0 0 0;
#X connect 26 1 1 0;
#X connect 26 2 2 0;
#X connect 26 3 3 0;
#X connect 26 4 4 0;
#X connect 26 5 5 0;
#X connect 26 6 6 0;
#X connect 26 7 7 0;
#X connect 26 8 8 0;
#X connect 26 9 9 0;
#X connect 26 10 10 0;
#X connect 26 11 17 0;
#X connect 26 12 11 0;
#X connect 26 13 18 0;
#X connect 26 14 12 0;
#X connect 26 15 19 0;
#X connect 26 16 13 0;
#X connect 26 17 20 0;
#X connect 26 18 14 0;
#X connect 26 19 21 0;
#X connect 26 20 15 0;
#X connect 26 21 22 0;
#X connect 26 22 16 0;
#X connect 26 23 23 0;
#X connect 26 24 24 0;
#X connect 26 25 25 0;
#X connect 27 0 26 0;
#X restore 198 657 pd output;
#X obj 198 561 list-abs/list-rot;
#X floatatom 314 535 5 0 0 0 - - -, f 5;
#X obj 358 525 j.parameter freq/bandnumber @type integer @dataspace
time @unit Hz @description "higher bound of frequencies range" @default
5000;
#X obj 314 562 * -1;
#X obj 314 250 route float;
#X obj 198 295 list-abs/list-map;
#X obj 335 356 rmstodb;
#X floatatom 363 311 5 0 0 0 - - -, f 5;
#X obj 242 601 tgl 15 0 empty empty empty 17 7 0 10 -262144 -1 -1 0
1;
#X floatatom 385 382 5 0 0 0 - - -, f 5;
#X obj 406 296 j.parameter freq/scale.1 @type decimal @dataspace gain
@description "scale factor before dB conversion" @default 5000;
#X obj 426 376 j.parameter freq/scale.2 @type decimal @dataspace gain
@description "scale factor before dB conversion" @default 5000;
#X obj 321 635 cnv 15 145 180 empty empty empty 20 12 0 14 -204786
-66577 0;
#X obj 462 634 cnv 15 181 180 empty empty empty 20 12 0 14 -232576
-66577 0;
#X obj 642 634 cnv 15 160 180 empty empty empty 20 12 0 14 -203904
-66577 0;
#X obj 325 656 vsl 15 128 0 100 0 0 empty empty empty 0 -9 0 10 -262144
-1 -1 0 1;
#X obj 345 656 vsl 15 128 0 100 0 0 empty empty empty 0 -9 0 10 -262144
-1 -1 0 1;
#X obj 365 656 vsl 15 128 0 100 0 0 empty empty empty 0 -9 0 10 -262144
-1 -1 0 1;
#X obj 385 656 vsl 15 128 0 100 0 0 empty empty empty 0 -9 0 10 -262144
-1 -1 0 1;
#X obj 405 656 vsl 15 128 0 100 0 0 empty empty empty 0 -9 0 10 -262144
-1 -1 0 1;
#X obj 425 656 vsl 15 128 0 100 0 0 empty empty empty 0 -9 0 10 -262144
-1 -1 0 1;
#X obj 445 656 vsl 15 128 0 100 0 0 empty empty empty 0 -9 0 10 -262144
-1 -1 0 1;
#X obj 465 656 vsl 15 128 0 100 0 0 empty empty empty 0 -9 0 10 -262144
-1 -1 0 1;
#X obj 485 656 vsl 15 128 0 100 0 0 empty empty empty 0 -9 0 10 -262144
-1 -1 0 1;
#X obj 505 656 vsl 15 128 0 100 0 0 empty empty empty 0 -9 0 10 -262144
-1 -1 0 1;
#X obj 525 656 vsl 15 128 0 100 0 0 empty empty empty 0 -9 0 10 -262144
-1 -1 0 1;
#X obj 545 656 vsl 15 128 0 100 0 0 empty empty empty 0 -9 0 10 -262144
-1 -1 0 1;
#X obj 565 656 vsl 15 128 0 100 0 0 empty empty empty 0 -9 0 10 -262144
-1 -1 0 1;
#X obj 585 656 vsl 15 128 0 100 0 0 empty empty empty 0 -9 0 10 -262144
-1 -1 0 1;
#X obj 605 656 vsl 15 128 0 100 0 0 empty empty empty 0 -9 0 10 -262144
-1 -1 0 1;
#X obj 625 656 vsl 15 128 0 100 0 0 empty empty empty 0 -9 0 10 -262144
-1 -1 0 1;
#X obj 645 656 vsl 15 128 0 100 0 0 empty empty empty 0 -9 0 10 -262144
-1 -1 0 1;
#X obj 665 656 vsl 15 128 0 100 0 0 empty empty empty 0 -9 0 10 -262144
-1 -1 0 1;
#X obj 685 656 vsl 15 128 0 100 0 0 empty empty empty 0 -9 0 10 -262144
-1 -1 0 1;
#X obj 705 656 vsl 15 128 0 100 0 0 empty empty empty 0 -9 0 10 -262144
-1 -1 0 1;
#X obj 725 656 vsl 15 128 0 100 0 0 empty empty empty 0 -9 0 10 -262144
-1 -1 0 1;
#X obj 745 656 vsl 15 128 0 100 0 0 empty empty empty 0 -9 0 10 -262144
-1 -1 0 1;
#X obj 765 656 vsl 15 128 0 100 0 0 empty empty empty 0 -9 0 10 -262144
-1 -1 0 1;
#X obj 785 656 vsl 15 128 0 100 0 0 empty empty empty 0 -9 0 10 -262144
-1 -1 0 1;
#X text 324 792 1;
#X text 465 794 8;
#X text 645 791 16;
#X obj 335 334 * 0;
#X obj 335 378 * 0;
#X obj 198 623 spigot 1;
#X connect 0 1 30 0;
#X connect 2 0 40 0;
#X connect 2 1 41 0;
#X connect 2 2 42 0;
#X connect 2 3 43 0;
#X connect 2 4 44 0;
#X connect 2 5 45 0;
#X connect 2 6 46 0;
#X connect 2 7 47 0;
#X connect 2 8 48 0;
#X connect 2 9 49 0;
#X connect 2 10 50 0;
#X connect 2 11 51 0;
#X connect 2 12 52 0;
#X connect 2 13 53 0;
#X connect 2 14 54 0;
#X connect 2 15 55 0;
#X connect 2 16 56 0;
#X connect 2 17 57 0;
#X connect 2 18 58 0;
#X connect 2 19 59 0;
#X connect 2 20 60 0;
#X connect 2 21 61 0;
#X connect 2 22 62 0;
#X connect 2 23 63 0;
#X connect 3 0 20 0;
#X connect 4 0 0 0;
#X connect 5 0 4 0;
#X connect 6 0 8 0;
#X connect 7 0 6 0;
#X connect 10 0 13 0;
#X connect 10 0 17 0;
#X connect 11 0 14 0;
#X connect 11 0 18 0;
#X connect 12 0 4 0;
#X connect 13 0 12 0;
#X connect 14 0 13 0;
#X connect 14 1 13 1;
#X connect 15 0 13 0;
#X connect 15 1 13 2;
#X connect 16 0 19 0;
#X connect 16 0 15 0;
#X connect 17 0 10 0;
#X connect 18 0 11 0;
#X connect 19 0 16 0;
#X connect 20 0 4 0;
#X connect 21 0 25 0;
#X connect 22 0 21 1;
#X connect 23 0 22 0;
#X connect 25 0 2 0;
#X connect 25 0 69 0;
#X connect 26 0 27 0;
#X connect 26 0 28 0;
#X connect 27 0 26 0;
#X connect 28 0 25 1;
#X connect 29 0 67 0;
#X connect 29 1 30 1;
#X connect 30 0 21 0;
#X connect 30 1 29 0;
#X connect 31 0 68 0;
#X connect 32 0 35 0;
#X connect 32 0 67 1;
#X connect 33 0 69 1;
#X connect 34 0 36 0;
#X connect 34 0 68 1;
#X connect 35 0 32 0;
#X connect 36 0 34 0;
#X connect 67 0 31 0;
#X connect 68 0 30 1;
#X connect 69 0 24 0;
