#N canvas 689 82 967 896 10;
#X declare -stdpath grrrr;
#X obj 146 287 route bang;
#X text 334 682 logarithmic sliders;
#X obj 330 700 unpack 0 0 0 0 0 0 0 0 0 0 0 0 0 0 0 0 0 0 0 0 0 0 0
0, f 77;
#X obj 54 120 loadbang;
#X obj 146 259 constantq~;
#X obj 146 173 inlet~;
#X obj 103 89 declare -stdpath grrrr;
#X floatatom 350 37 5 0 0 0 - - -, f 5;
#X floatatom 350 87 5 0 0 0 - - -, f 5;
#X msg 305 235 logfrqs \$1 \$2 \$3 \, reset;
#X obj 304 214 pack f f f;
#X obj 307 157 t b f;
#X obj 351 185 t b f;
#X floatatom 350 157 5 0 0 0 - - -, f 5;
#X msg 54 142 rate 20 \, logfrqs 500 5000 24 \, reset;
#X obj 203 617 list-abs/list-pad;
#X obj 301 543 loadbang;
#N canvas 0 22 1898 434 output 0;
#X obj 63 291 bus effet1;
#X obj 103 321 bus effet2;
#X obj 133 291 bus effet3;
#X obj 173 321 bus effet4;
#X obj 203 291 bus effet5;
#X obj 243 321 bus effet6;
#X obj 273 291 bus effet7;
#X obj 313 321 bus effet8;
#X obj 344 292 bus effet9;
#X obj 383 321 bus effet10;
#X obj 413 292 bus effet11;
#X obj 483 292 bus effet13;
#X obj 553 292 bus effet15;
#X obj 625 293 bus effet17;
#X obj 696 293 bus effet19;
#X obj 766 293 bus effet21;
#X obj 836 293 bus effet23;
#X obj 453 321 bus effet12;
#X obj 522 321 bus effet14;
#X obj 593 321 bus effet16;
#X obj 662 321 bus effet18;
#X obj 732 321 bus effet20;
#X obj 802 321 bus effet22;
#X obj 872 321 bus effet24;
#X obj 906 293 bus effet25;
#X obj 942 321 bus effet26;
#X obj 62 80 inlet;
#X obj 980 292 bus effet27;
#X obj 1020 322 bus effet28;
#X obj 1050 292 bus effet29;
#X obj 1090 321 bus effet30;
#X obj 1120 292 bus effet31;
#X obj 1160 322 bus effet32;
#X obj 1192 293 bus effet33;
#X obj 1230 322 bus effet34;
#X obj 1261 292 bus effet35;
#X obj 1300 322 bus effet36;
#X obj 1330 293 bus effet37;
#X obj 1369 322 bus effet38;
#X obj 1400 293 bus effet39;
#X obj 1440 322 bus effet40;
#X obj 1472 294 bus effet41;
#X obj 1509 322 bus effet42;
#X obj 1543 294 bus effet43;
#X obj 1579 322 bus effet44;
#X obj 1614 294 bus effet45;
#X obj 1649 322 bus effet46;
#X obj 1683 294 bus effet47;
#X obj 1719 322 bus effet48;
#X obj 63 107 unpack 0 0 0 0 0 0 0 0 0 0 0 0 0 0 0 0 0 0 0 0 0 0 0
0 0 0 0 0 0 0 0 0 0 0 0 0 0 0 0 0 0 0 0 0 0 0 0 0, f 277;
#X obj 63 159 mapping/speedlimiter 100;
#X obj 93 179 mapping/speedlimiter 100;
#X obj 133 199 mapping/speedlimiter 100;
#X obj 163 219 mapping/speedlimiter 100;
#X obj 183 239 mapping/speedlimiter 100;
#X obj 243 159 mapping/speedlimiter 100;
#X obj 273 179 mapping/speedlimiter 100;
#X obj 313 199 mapping/speedlimiter 100;
#X obj 343 219 mapping/speedlimiter 100;
#X obj 363 239 mapping/speedlimiter 100;
#X obj 413 159 mapping/speedlimiter 100;
#X obj 443 179 mapping/speedlimiter 100;
#X obj 483 199 mapping/speedlimiter 100;
#X obj 513 219 mapping/speedlimiter 100;
#X obj 533 239 mapping/speedlimiter 100;
#X obj 593 159 mapping/speedlimiter 100;
#X obj 623 179 mapping/speedlimiter 100;
#X obj 663 199 mapping/speedlimiter 100;
#X obj 693 219 mapping/speedlimiter 100;
#X obj 713 239 mapping/speedlimiter 100;
#X obj 763 159 mapping/speedlimiter 100;
#X obj 793 179 mapping/speedlimiter 100;
#X obj 833 199 mapping/speedlimiter 100;
#X obj 863 219 mapping/speedlimiter 100;
#X obj 883 239 mapping/speedlimiter 100;
#X obj 943 159 mapping/speedlimiter 100;
#X obj 973 179 mapping/speedlimiter 100;
#X obj 1013 199 mapping/speedlimiter 100;
#X obj 1043 219 mapping/speedlimiter 100;
#X obj 1063 239 mapping/speedlimiter 100;
#X obj 1123 159 mapping/speedlimiter 100;
#X obj 1153 179 mapping/speedlimiter 100;
#X obj 1193 199 mapping/speedlimiter 100;
#X obj 1223 219 mapping/speedlimiter 100;
#X obj 1243 239 mapping/speedlimiter 100;
#X obj 1303 159 mapping/speedlimiter 100;
#X obj 1333 179 mapping/speedlimiter 100;
#X obj 1373 199 mapping/speedlimiter 100;
#X obj 1403 219 mapping/speedlimiter 100;
#X obj 1423 239 mapping/speedlimiter 100;
#X obj 1473 159 mapping/speedlimiter 100;
#X obj 1503 179 mapping/speedlimiter 100;
#X obj 1543 199 mapping/speedlimiter 100;
#X obj 1573 219 mapping/speedlimiter 100;
#X obj 1593 239 mapping/speedlimiter 100;
#X obj 1653 159 mapping/speedlimiter 100;
#X obj 1683 179 mapping/speedlimiter 100;
#X obj 1723 199 mapping/speedlimiter 100;
#X obj 206 60 t f;
#X obj 382 62 t f;
#X obj 560 62 t f;
#X obj 731 64 t f;
#X obj 901 64 t f;
#X obj 1081 64 t f;
#X obj 1241 64 t f;
#X obj 1421 64 t f;
#X obj 1571 64 t f;
#X obj 1731 64 t f;
#X obj 1030 11 inlet;
#X connect 26 0 49 0;
#X connect 49 0 50 0;
#X connect 49 1 51 0;
#X connect 49 2 52 0;
#X connect 49 3 53 0;
#X connect 49 4 54 0;
#X connect 49 5 55 0;
#X connect 49 6 56 0;
#X connect 49 7 57 0;
#X connect 49 8 58 0;
#X connect 49 9 59 0;
#X connect 49 10 60 0;
#X connect 49 11 61 0;
#X connect 49 12 62 0;
#X connect 49 13 63 0;
#X connect 49 14 64 0;
#X connect 49 15 65 0;
#X connect 49 16 66 0;
#X connect 49 17 67 0;
#X connect 49 18 68 0;
#X connect 49 19 69 0;
#X connect 49 20 70 0;
#X connect 49 21 71 0;
#X connect 49 22 72 0;
#X connect 49 23 73 0;
#X connect 49 24 74 0;
#X connect 49 25 75 0;
#X connect 49 26 76 0;
#X connect 49 27 77 0;
#X connect 49 28 78 0;
#X connect 49 29 79 0;
#X connect 49 30 80 0;
#X connect 49 31 81 0;
#X connect 49 32 82 0;
#X connect 49 33 83 0;
#X connect 49 34 84 0;
#X connect 49 35 85 0;
#X connect 49 36 86 0;
#X connect 49 37 87 0;
#X connect 49 38 88 0;
#X connect 49 39 89 0;
#X connect 49 40 90 0;
#X connect 49 41 91 0;
#X connect 49 42 92 0;
#X connect 49 43 93 0;
#X connect 49 44 94 0;
#X connect 49 45 95 0;
#X connect 49 46 96 0;
#X connect 49 47 97 0;
#X connect 50 0 0 0;
#X connect 51 0 1 0;
#X connect 52 0 2 0;
#X connect 53 0 3 0;
#X connect 54 0 4 0;
#X connect 55 0 5 0;
#X connect 56 0 6 0;
#X connect 57 0 7 0;
#X connect 58 0 8 0;
#X connect 59 0 9 0;
#X connect 60 0 10 0;
#X connect 61 0 17 0;
#X connect 62 0 11 0;
#X connect 63 0 18 0;
#X connect 64 0 12 0;
#X connect 65 0 19 0;
#X connect 66 0 13 0;
#X connect 67 0 20 0;
#X connect 68 0 14 0;
#X connect 69 0 21 0;
#X connect 70 0 15 0;
#X connect 71 0 22 0;
#X connect 72 0 16 0;
#X connect 73 0 23 0;
#X connect 74 0 24 0;
#X connect 75 0 25 0;
#X connect 76 0 27 0;
#X connect 77 0 28 0;
#X connect 78 0 29 0;
#X connect 79 0 30 0;
#X connect 80 0 31 0;
#X connect 81 0 32 0;
#X connect 82 0 33 0;
#X connect 83 0 34 0;
#X connect 84 0 35 0;
#X connect 85 0 36 0;
#X connect 86 0 37 0;
#X connect 87 0 38 0;
#X connect 88 0 39 0;
#X connect 89 0 40 0;
#X connect 90 0 41 0;
#X connect 91 0 42 0;
#X connect 92 0 43 0;
#X connect 93 0 44 0;
#X connect 94 0 45 0;
#X connect 95 0 46 0;
#X connect 96 0 47 0;
#X connect 97 0 48 0;
#X connect 98 0 50 1;
#X connect 98 0 51 1;
#X connect 98 0 52 1;
#X connect 98 0 53 1;
#X connect 98 0 54 1;
#X connect 99 0 55 1;
#X connect 99 0 56 1;
#X connect 99 0 57 1;
#X connect 99 0 58 1;
#X connect 99 0 59 1;
#X connect 100 0 60 1;
#X connect 100 0 61 1;
#X connect 100 0 62 1;
#X connect 100 0 63 1;
#X connect 100 0 64 1;
#X connect 101 0 65 1;
#X connect 101 0 66 1;
#X connect 101 0 67 1;
#X connect 101 0 68 1;
#X connect 101 0 69 1;
#X connect 102 0 70 1;
#X connect 102 0 71 1;
#X connect 102 0 72 1;
#X connect 102 0 73 1;
#X connect 102 0 74 1;
#X connect 103 0 75 1;
#X connect 103 0 76 1;
#X connect 103 0 77 1;
#X connect 103 0 78 1;
#X connect 103 0 79 1;
#X connect 104 0 80 1;
#X connect 104 0 81 1;
#X connect 104 0 82 1;
#X connect 104 0 83 1;
#X connect 104 0 84 1;
#X connect 105 0 85 1;
#X connect 105 0 86 1;
#X connect 105 0 87 1;
#X connect 105 0 88 1;
#X connect 105 0 89 1;
#X connect 106 0 90 1;
#X connect 106 0 91 1;
#X connect 106 0 92 1;
#X connect 106 0 93 1;
#X connect 106 0 94 1;
#X connect 107 0 95 1;
#X connect 107 0 96 1;
#X connect 107 0 97 1;
#X connect 108 0 102 0;
#X connect 108 0 99 0;
#X connect 108 0 98 0;
#X connect 108 0 100 0;
#X connect 108 0 101 0;
#X connect 108 0 103 0;
#X connect 108 0 104 0;
#X connect 108 0 105 0;
#X connect 108 0 106 0;
#X connect 108 0 107 0;
#X restore 203 743 pd output;
#X obj 203 647 list-abs/list-rot;
#X floatatom 319 621 5 0 0 0 - - -, f 5;
#X obj 319 648 * -1;
#X obj 319 286 route float;
#X obj 203 331 list-abs/list-map;
#X obj 340 392 rmstodb;
#X floatatom 368 327 5 0 0 0 - - -, f 5;
#X obj 247 687 tgl 15 0 empty empty empty 17 7 0 10 -262144 -1 -1 0
1;
#X floatatom 439 376 5 0 0 0 - - -, f 5;
#X obj 326 721 cnv 15 145 180 empty empty empty 20 12 0 14 -204786
-66577 0;
#X obj 467 720 cnv 15 181 180 empty empty empty 20 12 0 14 -232576
-66577 0;
#X obj 647 720 cnv 15 160 180 empty empty empty 20 12 0 14 -203904
-66577 0;
#X obj 330 742 vsl 15 128 0 100 0 0 empty empty empty 0 -9 0 10 -262144
-1 -1 0 1;
#X obj 350 742 vsl 15 128 0 100 0 0 empty empty empty 0 -9 0 10 -262144
-1 -1 0 1;
#X obj 370 742 vsl 15 128 0 100 0 0 empty empty empty 0 -9 0 10 -262144
-1 -1 0 1;
#X obj 390 742 vsl 15 128 0 100 0 0 empty empty empty 0 -9 0 10 -262144
-1 -1 0 1;
#X obj 410 742 vsl 15 128 0 100 0 0 empty empty empty 0 -9 0 10 -262144
-1 -1 0 1;
#X obj 430 742 vsl 15 128 0 100 0 0 empty empty empty 0 -9 0 10 -262144
-1 -1 0 1;
#X obj 450 742 vsl 15 128 0 100 0 0 empty empty empty 0 -9 0 10 -262144
-1 -1 0 1;
#X obj 470 742 vsl 15 128 0 100 0 0 empty empty empty 0 -9 0 10 -262144
-1 -1 0 1;
#X obj 490 742 vsl 15 128 0 100 0 0 empty empty empty 0 -9 0 10 -262144
-1 -1 0 1;
#X obj 510 742 vsl 15 128 0 100 0 0 empty empty empty 0 -9 0 10 -262144
-1 -1 0 1;
#X obj 530 742 vsl 15 128 0 100 0 0 empty empty empty 0 -9 0 10 -262144
-1 -1 0 1;
#X obj 550 742 vsl 15 128 0 100 0 0 empty empty empty 0 -9 0 10 -262144
-1 -1 0 1;
#X obj 570 742 vsl 15 128 0 100 0 0 empty empty empty 0 -9 0 10 -262144
-1 -1 0 1;
#X obj 590 742 vsl 15 128 0 100 0 0 empty empty empty 0 -9 0 10 -262144
-1 -1 0 1;
#X obj 610 742 vsl 15 128 0 100 0 0 empty empty empty 0 -9 0 10 -262144
-1 -1 0 1;
#X obj 630 742 vsl 15 128 0 100 0 0 empty empty empty 0 -9 0 10 -262144
-1 -1 0 1;
#X obj 650 742 vsl 15 128 0 100 0 0 empty empty empty 0 -9 0 10 -262144
-1 -1 0 1;
#X obj 670 742 vsl 15 128 0 100 0 0 empty empty empty 0 -9 0 10 -262144
-1 -1 0 1;
#X obj 690 742 vsl 15 128 0 100 0 0 empty empty empty 0 -9 0 10 -262144
-1 -1 0 1;
#X obj 710 742 vsl 15 128 0 100 0 0 empty empty empty 0 -9 0 10 -262144
-1 -1 0 1;
#X obj 730 742 vsl 15 128 0 100 0 0 empty empty empty 0 -9 0 10 -262144
-1 -1 0 1;
#X obj 750 742 vsl 15 128 0 100 0 0 empty empty empty 0 -9 0 10 -262144
-1 -1 0 1;
#X obj 770 742 vsl 15 128 0 100 0 0 empty empty empty 0 -9 0 10 -262144
-1 -1 0 1;
#X obj 790 742 vsl 15 128 0 100 0 0 empty empty empty 0 -9 0 10 -262144
-1 -1 0 1;
#X text 329 878 1;
#X text 470 880 8;
#X text 650 877 16;
#X obj 340 370 * 0;
#X obj 340 424 * 0;
#X obj 203 709 spigot 1;
#X obj 394 25 j.parameter \$1/freq/min @type decimal @dataspace time
@unit Hz @description "lower bound of frequencies range" @default 50
;
#X obj 394 78 j.parameter \$1/freq/max @type decimal @dataspace time
@unit Hz @description "higher bound of frequencies range" @default
5000;
#X obj 394 147 j.parameter \$1/freq/bandnumber @type integer @dataspace
time @unit Hz @description "higher bound of frequencies range" @default
5000;
#X obj 363 613 j.parameter \$1/proj/offset @type integer @dataspace
time @unit Hz @description "higher bound of frequencies range" @default
5000;
#X obj 239 10 loadbang;
#X msg 271 31 400;
#X msg 304 32 4000;
#X obj 468 246 loadbang;
#X obj 340 486 * 1;
#X obj 207 173 inlet;
#X obj 207 195 / 100;
#X floatatom 410 461 5 0 0 0 - - -, f 5;
#X obj 340 454 * 0;
#X obj 454 453 j.parameter \$1/proj/level @type decimal @dataspace
gain @unit dB @description "level" @default 0;
#X obj 410 482 / 100;
#X obj 411 311 j.parameter \$1/scale.1 @type decimal @dataspace gain
@description "scale factor before dB conversion" @default 1;
#X obj 480 370 j.parameter \$1/scale.2 @type decimal @dataspace gain
@description "scale factor after dB conversion" @default 1;
#X obj 439 393 / 100;
#X obj 368 346 / 100;
#X msg 468 268 100;
#X msg 20 189 rate 100;
#X msg 17 216 reset;
#X msg -202 48 31 63 125 250 500 1000 2000 4000 8000 16000;
#X msg 302 565 0 0 0 0 0 0 0 0 0 0 0 0 0 0 0 0 0 0 0 0 0 0 0 0 0 0
0 0 0 0 0 0 0 0;
#X floatatom 239 228 5 0 0 0 - - -, f 5;
#X msg 239 32 1;
#X obj 505 506 j.parameter \$1/proj/speedlimiter @type decimal @description
"proj brightness speed limiter" @default 100;
#X floatatom 468 507 5 0 0 0 - - -, f 5;
#X obj 13 670 switch~;
#X msg 13 572 set 512 1 0.5;
#X obj 13 542 loadbang;
#X obj 40 612 > 0;
#X connect 0 1 22 0;
#X connect 2 0 30 0;
#X connect 2 1 31 0;
#X connect 2 2 32 0;
#X connect 2 3 33 0;
#X connect 2 4 34 0;
#X connect 2 5 35 0;
#X connect 2 6 36 0;
#X connect 2 7 37 0;
#X connect 2 8 38 0;
#X connect 2 9 39 0;
#X connect 2 10 40 0;
#X connect 2 11 41 0;
#X connect 2 12 42 0;
#X connect 2 13 43 0;
#X connect 2 14 44 0;
#X connect 2 15 45 0;
#X connect 2 16 46 0;
#X connect 2 17 47 0;
#X connect 2 18 48 0;
#X connect 2 19 49 0;
#X connect 2 20 50 0;
#X connect 2 21 51 0;
#X connect 2 22 52 0;
#X connect 2 23 53 0;
#X connect 3 0 14 0;
#X connect 4 0 0 0;
#X connect 5 0 4 0;
#X connect 7 0 10 0;
#X connect 7 0 60 0;
#X connect 8 0 11 0;
#X connect 8 0 61 0;
#X connect 9 0 4 0;
#X connect 10 0 9 0;
#X connect 11 0 10 0;
#X connect 11 1 10 1;
#X connect 12 0 10 0;
#X connect 12 1 10 2;
#X connect 13 0 12 0;
#X connect 13 0 62 0;
#X connect 14 0 4 0;
#X connect 15 0 18 0;
#X connect 16 0 83 0;
#X connect 18 0 2 0;
#X connect 18 0 59 0;
#X connect 19 0 20 0;
#X connect 19 0 63 0;
#X connect 20 0 18 1;
#X connect 21 0 57 0;
#X connect 21 1 22 1;
#X connect 22 0 15 0;
#X connect 22 1 21 0;
#X connect 23 0 58 0;
#X connect 24 0 75 0;
#X connect 24 0 78 0;
#X connect 25 0 59 1;
#X connect 26 0 76 0;
#X connect 26 0 77 0;
#X connect 57 0 23 0;
#X connect 58 0 72 0;
#X connect 59 0 17 0;
#X connect 60 0 7 0;
#X connect 61 0 8 0;
#X connect 62 0 13 0;
#X connect 63 0 19 0;
#X connect 64 0 85 0;
#X connect 64 0 65 0;
#X connect 64 0 66 0;
#X connect 65 0 7 0;
#X connect 66 0 8 0;
#X connect 67 0 79 0;
#X connect 68 0 22 1;
#X connect 69 0 70 0;
#X connect 70 0 68 1;
#X connect 70 0 84 0;
#X connect 71 0 73 0;
#X connect 71 0 74 0;
#X connect 72 0 68 0;
#X connect 73 0 71 0;
#X connect 73 0 91 0;
#X connect 74 0 72 1;
#X connect 75 0 24 0;
#X connect 76 0 26 0;
#X connect 77 0 58 1;
#X connect 78 0 57 1;
#X connect 79 0 24 0;
#X connect 79 0 26 0;
#X connect 79 0 87 0;
#X connect 80 0 4 0;
#X connect 81 0 4 0;
#X connect 82 0 4 0;
#X connect 83 0 15 1;
#X connect 85 0 13 0;
#X connect 86 0 87 0;
#X connect 86 0 17 1;
#X connect 87 0 86 0;
#X connect 89 0 88 0;
#X connect 90 0 89 0;
#X connect 91 0 88 0;
