#N canvas 169 232 768 561 10;
#X declare -path ../abs_light;
#X obj 47 41 declare -path ../abs_light;
#X obj 241 271 random 100;
#X obj 220 35 metro 250;
#X obj 220 12 tgl 15 0 empty empty empty 17 7 0 10 -262144 -1 -1 0
1;
#X obj 220 57 t b b;
#X obj 247 172 until;
#X obj 247 194 f;
#X obj 272 194 + 1;
#X obj 241 321 list append;
#X obj 241 341 list;
#X obj 220 362 list;
#X obj 247 122 f 9;
#X obj 247 102 t b f b;
#X msg 310 140 0;
#X obj 241 229 ==;
#X obj 261 57 bng 15 250 50 0 empty empty empty 17 7 0 10 -262144 -1
-1;
#X obj 241 251 sel 1;
#X obj 241 297 +;
#X floatatom 362 268 5 0 0 0 offset - -;
#X floatatom 364 242 5 0 0 0 amplitude - -;
#X obj 356 94 * 5;
#X obj 423 166 > 0;
#X obj 220 382 unpack f f f f f f f f f f;
#X obj 159 454 bus effet1;
#X obj 199 484 bus effet2;
#X obj 229 454 bus effet3;
#X obj 269 484 bus effet4;
#X obj 299 454 bus effet5;
#X obj 339 484 bus effet6;
#X obj 371 453 bus effet7;
#X obj 409 484 bus effet8;
#X obj 439 454 bus effet9;
#X obj 482 484 bus effet10;
#X obj 356 73 -;
#X msg 356 51 200 \$1;
#X obj 356 115 + 10;
#X obj 257 11 nbx 5 14 -1e+37 1e+37 0 1 empty empty empty 0 -8 0 10
-262144 -1 -1 1010 256;
#X obj 356 31 * 2;
#X obj 247 82 random 9;
#X obj 93 134 sel 0;
#X msg 93 156 0 0 0 0 0 0 0 0 0;
#X obj 496 120 bus_master /foret/level;
#X obj 356 11 bus_master /foret/speed;
#X obj 496 143 t f f;
#X connect 1 0 17 0;
#X connect 2 0 4 0;
#X connect 3 0 2 0;
#X connect 3 0 39 0;
#X connect 4 0 10 0;
#X connect 4 1 38 0;
#X connect 5 0 6 0;
#X connect 6 0 7 0;
#X connect 6 0 14 0;
#X connect 7 0 6 1;
#X connect 8 0 9 0;
#X connect 9 0 8 1;
#X connect 9 0 10 1;
#X connect 10 0 22 0;
#X connect 11 0 5 0;
#X connect 12 0 11 0;
#X connect 12 1 14 1;
#X connect 12 2 13 0;
#X connect 12 2 8 1;
#X connect 13 0 6 1;
#X connect 14 0 16 0;
#X connect 15 0 4 0;
#X connect 16 0 1 0;
#X connect 16 1 8 0;
#X connect 17 0 8 0;
#X connect 18 0 17 1;
#X connect 19 0 1 1;
#X connect 20 0 35 0;
#X connect 21 0 3 0;
#X connect 22 0 23 0;
#X connect 22 1 24 0;
#X connect 22 2 25 0;
#X connect 22 3 26 0;
#X connect 22 4 27 0;
#X connect 22 5 28 0;
#X connect 22 6 29 0;
#X connect 22 7 30 0;
#X connect 22 8 31 0;
#X connect 33 0 20 0;
#X connect 34 0 33 0;
#X connect 35 0 36 0;
#X connect 36 0 2 1;
#X connect 37 0 34 0;
#X connect 38 0 12 0;
#X connect 39 0 40 0;
#X connect 40 0 10 0;
#X connect 41 0 43 0;
#X connect 42 0 37 0;
#X connect 43 0 21 0;
#X connect 43 1 19 0;
