#N canvas 421 108 871 622 10;
#X declare -path ../abs_light;
#X obj 47 41 declare -path ../abs_light;
#X obj 220 12 tgl 15 0 empty empty empty 17 7 0 10 -262144 -1 -1 0
1;
#X obj 220 57 t b b;
#X obj 261 57 bng 15 250 50 0 empty empty empty 17 7 0 10 -262144 -1
-1;
#X floatatom 486 257 5 0 0 0 amplitude - -, f 5;
#X obj 468 171 > 0;
#X obj 257 11 nbx 5 14 -1e+37 1e+37 0 1 empty empty empty 0 -8 0 10
-262144 -1 -1 0 256;
#X obj 496 143 t f f;
#X obj 220 455 bus effet10;
#X floatatom 543 187 5 0 0 0 - - -, f 5;
#X obj 496 120 bus_master /foret-par/level;
#X obj 543 210 bus lum/foret-par/level;
#X floatatom 539 250 5 0 0 0 - - -, f 5;
#X obj 220 435 line;
#X obj 274 203 random 100;
#X obj 344 203 random 1000;
#X obj 247 282 pack f f f;
#X obj 235 485 line;
#X obj 235 505 bus effet11;
#X obj 260 535 line;
#X obj 275 585 line;
#X obj 260 555 bus effet12;
#X obj 275 605 bus effet13;
#X obj 300 435 line;
#X obj 315 485 line;
#X floatatom 287 230 5 0 0 0 - - -, f 5;
#X obj 274 254 * 1;
#X obj 485 279 / 100;
#X obj 369 343 pack 0 0 0;
#X obj 369 319 f;
#X obj 247 170 t b b b b;
#X obj 468 193 change;
#X obj 539 273 bus lum/foret-par/speed;
#X obj 300 455 bus effet114;
#X obj 315 505 bus effet15;
#X obj 401 123 taptempo;
#X obj 401 101 bng 15 250 50 0 empty empty empty 17 7 0 10 -262144
-1 -1;
#X obj 402 9 notein;
#X obj 401 79 sel 2;
#X obj 418 32 > 0;
#X obj 401 56 spigot;
#X obj 220 35 metro 1500;
#X obj 186 -19 t b f;
#X msg 178 16 1;
#X obj 356 226 + 0;
#X obj 122 -11 loadbang;
#X obj 210 205 random 6;
#X obj 220 387 route 0 1 2 3 4 5;
#X obj 276 -19 j.parameter speed @type integer @range 0 255;
#X connect 1 0 41 0;
#X connect 2 1 30 0;
#X connect 3 0 2 0;
#X connect 4 0 27 0;
#X connect 5 0 31 0;
#X connect 6 0 41 1;
#X connect 6 0 48 0;
#X connect 7 0 5 0;
#X connect 7 1 4 0;
#X connect 9 0 11 0;
#X connect 10 0 7 0;
#X connect 12 0 32 0;
#X connect 13 0 8 0;
#X connect 14 0 25 0;
#X connect 14 0 26 0;
#X connect 15 0 44 0;
#X connect 16 0 47 0;
#X connect 17 0 18 0;
#X connect 19 0 21 0;
#X connect 20 0 22 0;
#X connect 23 0 33 0;
#X connect 24 0 34 0;
#X connect 26 0 16 1;
#X connect 27 0 26 1;
#X connect 28 0 47 0;
#X connect 29 0 28 0;
#X connect 30 0 46 0;
#X connect 30 1 14 0;
#X connect 30 2 15 0;
#X connect 30 3 29 0;
#X connect 35 0 15 1;
#X connect 35 0 42 0;
#X connect 36 0 35 0;
#X connect 37 0 40 0;
#X connect 37 1 39 0;
#X connect 38 0 36 0;
#X connect 39 0 40 1;
#X connect 40 0 38 0;
#X connect 41 0 2 0;
#X connect 42 0 43 0;
#X connect 42 1 6 0;
#X connect 43 0 41 0;
#X connect 44 0 16 2;
#X connect 44 0 28 2;
#X connect 45 0 43 0;
#X connect 46 0 16 0;
#X connect 46 0 29 1;
#X connect 47 0 13 0;
#X connect 47 1 17 0;
#X connect 47 2 19 0;
#X connect 47 3 20 0;
#X connect 47 4 23 0;
#X connect 47 5 24 0;
#X connect 48 0 6 0;
