#N canvas 373 384 600 453 10;
#X obj 306 -2 j.model;
#X obj 103 163 vsl 15 128 0 100 0 0 empty empty empty 0 -9 0 10 -262144
-1 -1 0 1;
#X floatatom 104 138 5 0 0 0 - - -, f 5;
#X obj 103 309 outlet;
#X obj 34 66 inlet~;
#X obj 158 164 -;
#X obj 158 189 * 3;
#X obj 158 209 min 100;
#X obj 158 230 max 0;
#X obj 34 88 env~ 1024;
#X obj 103 71 nbx 3 14 -99 100 0 1 empty empty empty 0 -8 0 10 -262144
-1 -1 0 256;
#X obj 103 91 nbx 3 14 0 100 0 1 empty empty empty 0 -8 0 10 -262144
-1 -1 0 256;
#X obj 144 71 j.parameter threshold @type decimal @range -70 0;
#X obj 306 -22 inlet;
#X obj 306 20 outlet;
#X obj 144 91 j.parameter gain @type decimal @range 0 10 @default 3
;
#X obj 144 111 j.parameter release @type decimal @range 0 1000 @default
3;
#X obj 103 111 nbx 3 14 0 1000 0 0 empty empty empty 0 -8 0 10 -262144
-1 -1 0 256;
#X obj 158 251 mapping/env+ 20;
#X obj 158 308 j.return loudness @type decimal @dataspace gain @unit
dB @range 0 100 @description "loudness in dB";
#X connect 0 0 14 0;
#X connect 1 0 3 0;
#X connect 2 0 5 0;
#X connect 4 0 9 0;
#X connect 5 0 6 0;
#X connect 6 0 7 0;
#X connect 7 0 8 0;
#X connect 8 0 18 0;
#X connect 9 0 2 0;
#X connect 10 0 12 0;
#X connect 11 0 15 0;
#X connect 12 0 10 0;
#X connect 12 0 5 1;
#X connect 13 0 0 0;
#X connect 15 0 11 0;
#X connect 15 0 6 1;
#X connect 16 0 17 0;
#X connect 16 0 18 1;
#X connect 17 0 16 0;
#X connect 18 0 1 0;
#X connect 18 0 19 0;
#X coords 0 453 1 452 40 230 0;
