#N canvas 487 230 766 678 10;
#X obj 42 42 nbx 4 14 -1e+37 1e+37 0 1 empty empty empty 0 -8 0 10
-262144 -1 -1 -2 256;
#X obj 83 42 nbx 4 14 -1e+37 1e+37 0 1 empty empty empty 0 -8 0 10
-262144 -1 -1 -1 256;
#X obj 122 42 nbx 3 14 -1e+37 1e+37 0 1 empty empty empty 0 -8 0 10
-262144 -1 -1 3 256;
#X obj 42 92 nbx 4 14 -1e+37 1e+37 0 1 empty empty empty 0 -8 0 10
-262144 -1 -1 -3.2 256;
#X obj 82 92 nbx 4 14 -1e+37 1e+37 0 1 empty empty empty 0 -8 0 10
-262144 -1 -1 0.26 256;
#X obj 122 92 nbx 3 14 -1e+37 1e+37 0 1 empty empty empty 0 -8 0 10
-262144 -1 -1 2 256;
#X obj 42 142 nbx 4 14 -1e+37 1e+37 0 1 empty empty empty 0 -8 0 10
-262144 -1 -1 -1.8 256;
#X obj 82 142 nbx 4 14 -1e+37 1e+37 0 1 empty empty empty 0 -8 0 10
-262144 -1 -1 -1.8 256;
#X obj 122 142 nbx 3 14 -1e+37 1e+37 0 1 empty empty empty 0 -8 0 10
-262144 -1 -1 2 256;
#X obj 42 192 nbx 4 14 -1e+37 1e+37 0 1 empty empty empty 0 -8 0 10
-262144 -1 -1 -1.2 256;
#X obj 82 192 nbx 4 14 -1e+37 1e+37 0 1 empty empty empty 0 -8 0 10
-262144 -1 -1 -0.3 256;
#X obj 122 192 nbx 3 14 -1e+37 1e+37 0 1 empty empty empty 0 -8 0 10
-262144 -1 -1 2 256;
#X obj 42 242 nbx 4 14 -1e+37 1e+37 0 1 empty empty empty 0 -8 0 10
-262144 -1 -1 -0.4 256;
#X obj 82 242 nbx 4 14 -1e+37 1e+37 0 1 empty empty empty 0 -8 0 10
-262144 -1 -1 -0.8 256;
#X obj 122 242 nbx 3 14 -1e+37 1e+37 0 1 empty empty empty 0 -8 0 10
-262144 -1 -1 2 256;
#X obj 42 292 nbx 3 14 -1e+37 1e+37 0 1 empty empty empty 0 -8 0 10
-262144 -1 -1 0 256;
#X obj 82 292 nbx 3 14 -1e+37 1e+37 0 1 empty empty empty 0 -8 0 10
-262144 -1 -1 0 256;
#X obj 122 292 nbx 3 14 -1e+37 1e+37 0 1 empty empty empty 0 -8 0 10
-262144 -1 -1 0 256;
#X obj 42 342 nbx 3 14 -1e+37 1e+37 0 1 empty empty empty 0 -8 0 10
-262144 -1 -1 0 256;
#X obj 82 342 nbx 3 14 -1e+37 1e+37 0 1 empty empty empty 0 -8 0 10
-262144 -1 -1 0 256;
#X obj 122 342 nbx 3 14 -1e+37 1e+37 0 1 empty empty empty 0 -8 0 10
-262144 -1 -1 0 256;
#X obj 42 392 nbx 3 14 -1e+37 1e+37 0 1 empty empty empty 0 -8 0 10
-262144 -1 -1 0 256;
#X obj 82 392 nbx 3 14 -1e+37 1e+37 0 1 empty empty empty 0 -8 0 10
-262144 -1 -1 0 256;
#X obj 122 392 nbx 3 14 -1e+37 1e+37 0 1 empty empty empty 0 -8 0 10
-262144 -1 -1 0 256;
#X obj 172 42 nbx 4 14 -1e+37 1e+37 0 1 empty empty empty 0 -8 0 10
-262144 -1 -1 1 256;
#X obj 212 42 nbx 4 14 -1e+37 1e+37 0 1 empty empty empty 0 -8 0 10
-262144 -1 -1 1 256;
#X obj 252 42 nbx 3 14 -1e+37 1e+37 0 1 empty empty empty 0 -8 0 10
-262144 -1 -1 3 256;
#X obj 172 92 nbx 4 14 -1e+37 1e+37 0 1 empty empty empty 0 -8 0 10
-262144 -1 -1 -2.8 256;
#X obj 212 92 nbx 4 14 -1e+37 1e+37 0 1 empty empty empty 0 -8 0 10
-262144 -1 -1 0 256;
#X obj 252 92 nbx 3 14 -1e+37 1e+37 0 1 empty empty empty 0 -8 0 10
-262144 -1 -1 1 256;
#X obj 172 142 nbx 4 14 -1e+37 1e+37 0 1 empty empty empty 0 -8 0 10
-262144 -1 -1 -1.4 256;
#X obj 212 142 nbx 4 14 -1e+37 1e+37 0 1 empty empty empty 0 -8 0 10
-262144 -1 -1 -1 256;
#X obj 252 142 nbx 3 14 -1e+37 1e+37 0 1 empty empty empty 0 -8 0 10
-262144 -1 -1 2 256;
#X obj 172 192 nbx 4 14 -1e+37 1e+37 0 1 empty empty empty 0 -8 0 10
-262144 -1 -1 -0.95 256;
#X obj 212 192 nbx 4 14 -1e+37 1e+37 0 1 empty empty empty 0 -8 0 10
-262144 -1 -1 0.1 256;
#X obj 252 192 nbx 3 14 -1e+37 1e+37 0 1 empty empty empty 0 -8 0 10
-262144 -1 -1 2 256;
#X obj 172 242 nbx 4 14 -1e+37 1e+37 0 1 empty empty empty 0 -8 0 10
-262144 -1 -1 0 256;
#X obj 212 242 nbx 4 14 -1e+37 1e+37 0 1 empty empty empty 0 -8 0 10
-262144 -1 -1 -0.8 256;
#X obj 252 242 nbx 3 14 -1e+37 1e+37 0 1 empty empty empty 0 -8 0 10
-262144 -1 -1 2 256;
#X obj 172 292 nbx 3 14 -1e+37 1e+37 0 1 empty empty empty 0 -8 0 10
-262144 -1 -1 0 256;
#X obj 212 292 nbx 3 14 -1e+37 1e+37 0 1 empty empty empty 0 -8 0 10
-262144 -1 -1 0 256;
#X obj 252 292 nbx 3 14 -1e+37 1e+37 0 1 empty empty empty 0 -8 0 10
-262144 -1 -1 0 256;
#X obj 172 342 nbx 3 14 -1e+37 1e+37 0 1 empty empty empty 0 -8 0 10
-262144 -1 -1 0 256;
#X obj 212 342 nbx 3 14 -1e+37 1e+37 0 1 empty empty empty 0 -8 0 10
-262144 -1 -1 0 256;
#X obj 252 342 nbx 3 14 -1e+37 1e+37 0 1 empty empty empty 0 -8 0 10
-262144 -1 -1 0 256;
#X obj 172 392 nbx 3 14 -1e+37 1e+37 0 1 empty empty empty 0 -8 0 10
-262144 -1 -1 0 256;
#X obj 212 392 nbx 3 14 -1e+37 1e+37 0 1 empty empty empty 0 -8 0 10
-262144 -1 -1 0 256;
#X obj 252 392 nbx 3 14 -1e+37 1e+37 0 1 empty empty empty 0 -8 0 10
-262144 -1 -1 0 256;
#X obj 302 42 nbx 4 14 -1e+37 1e+37 0 1 empty empty empty 0 -8 0 10
-262144 -1 -1 -3.75 256;
#X obj 342 42 nbx 4 14 -1e+37 1e+37 0 1 empty empty empty 0 -8 0 10
-262144 -1 -1 0 256;
#X obj 382 42 nbx 3 14 -1e+37 1e+37 0 1 empty empty empty 0 -8 0 10
-262144 -1 -1 2 256;
#X obj 302 92 nbx 4 14 -1e+37 1e+37 0 1 empty empty empty 0 -8 0 10
-262144 -1 -1 -2.6 256;
#X obj 342 92 nbx 4 14 -1e+37 1e+37 0 1 empty empty empty 0 -8 0 10
-262144 -1 -1 0.5 256;
#X obj 382 92 nbx 3 14 -1e+37 1e+37 0 1 empty empty empty 0 -8 0 10
-262144 -1 -1 2 256;
#X obj 302 142 nbx 4 14 -1e+37 1e+37 0 1 empty empty empty 0 -8 0 10
-262144 -1 -1 -1.2 256;
#X obj 342 142 nbx 4 14 -1e+37 1e+37 0 1 empty empty empty 0 -8 0 10
-262144 -1 -1 -1.43 256;
#X obj 382 142 nbx 3 14 -1e+37 1e+37 0 1 empty empty empty 0 -8 0 10
-262144 -1 -1 2 256;
#X obj 302 192 nbx 4 14 -1e+37 1e+37 0 1 empty empty empty 0 -8 0 10
-262144 -1 -1 -0.6 256;
#X obj 342 192 nbx 4 14 -1e+37 1e+37 0 1 empty empty empty 0 -8 0 10
-262144 -1 -1 -0.18 256;
#X obj 382 192 nbx 3 14 -1e+37 1e+37 0 1 empty empty empty 0 -8 0 10
-262144 -1 -1 2 256;
#X obj 302 242 nbx 4 14 -1e+37 1e+37 0 1 empty empty empty 0 -8 0 10
-262144 -1 -1 0 256;
#X obj 382 242 nbx 3 14 -1e+37 1e+37 0 1 empty empty empty 0 -8 0 10
-262144 -1 -1 0 256;
#X obj 302 292 nbx 3 14 -1e+37 1e+37 0 1 empty empty empty 0 -8 0 10
-262144 -1 -1 0 256;
#X obj 342 292 nbx 3 14 -1e+37 1e+37 0 1 empty empty empty 0 -8 0 10
-262144 -1 -1 0 256;
#X obj 382 292 nbx 3 14 -1e+37 1e+37 0 1 empty empty empty 0 -8 0 10
-262144 -1 -1 0 256;
#X obj 302 342 nbx 3 14 -1e+37 1e+37 0 1 empty empty empty 0 -8 0 10
-262144 -1 -1 0 256;
#X obj 342 342 nbx 3 14 -1e+37 1e+37 0 1 empty empty empty 0 -8 0 10
-262144 -1 -1 0 256;
#X obj 382 342 nbx 3 14 -1e+37 1e+37 0 1 empty empty empty 0 -8 0 10
-262144 -1 -1 0 256;
#X obj 302 392 nbx 3 14 -1e+37 1e+37 0 1 empty empty empty 0 -8 0 10
-262144 -1 -1 0 256;
#X obj 342 392 nbx 3 14 -1e+37 1e+37 0 1 empty empty empty 0 -8 0 10
-262144 -1 -1 0 256;
#X obj 382 392 nbx 3 14 -1e+37 1e+37 0 1 empty empty empty 0 -8 0 10
-262144 -1 -1 0 256;
#X obj 432 42 nbx 4 14 -1e+37 1e+37 0 1 empty empty empty 0 -8 0 10
-262144 -1 -1 -3.5 256;
#X obj 472 42 nbx 4 14 -1e+37 1e+37 0 1 empty empty empty 0 -8 0 10
-262144 -1 -1 -0.76 256;
#X obj 512 42 nbx 3 14 -1e+37 1e+37 0 1 empty empty empty 0 -8 0 10
-262144 -1 -1 1 256;
#X obj 432 92 nbx 4 14 -1e+37 1e+37 0 1 empty empty empty 0 -8 0 10
-262144 -1 -1 -2.2 256;
#X obj 472 92 nbx 4 14 -1e+37 1e+37 0 1 empty empty empty 0 -8 0 10
-262144 -1 -1 0.22 256;
#X obj 512 92 nbx 3 14 -1e+37 1e+37 0 1 empty empty empty 0 -8 0 10
-262144 -1 -1 2 256;
#X obj 432 142 nbx 4 14 -1e+37 1e+37 0 1 empty empty empty 0 -8 0 10
-262144 -1 -1 -0.9 256;
#X obj 472 142 nbx 4 14 -1e+37 1e+37 0 1 empty empty empty 0 -8 0 10
-262144 -1 -1 -1 256;
#X obj 512 142 nbx 3 14 -1e+37 1e+37 0 1 empty empty empty 0 -8 0 10
-262144 -1 -1 2 256;
#X obj 432 192 nbx 4 14 -1e+37 1e+37 0 1 empty empty empty 0 -8 0 10
-262144 -1 -1 -0.5 256;
#X obj 472 192 nbx 4 14 -1e+37 1e+37 0 1 empty empty empty 0 -8 0 10
-262144 -1 -1 -2 256;
#X obj 512 192 nbx 3 14 -1e+37 1e+37 0 1 empty empty empty 0 -8 0 10
-262144 -1 -1 2 256;
#X obj 432 242 nbx 3 14 -1e+37 1e+37 0 1 empty empty empty 0 -8 0 10
-262144 -1 -1 0 256;
#X obj 472 242 nbx 3 14 -1e+37 1e+37 0 1 empty empty empty 0 -8 0 10
-262144 -1 -1 0 256;
#X obj 512 242 nbx 3 14 -1e+37 1e+37 0 1 empty empty empty 0 -8 0 10
-262144 -1 -1 0 256;
#X obj 432 292 nbx 3 14 -1e+37 1e+37 0 1 empty empty empty 0 -8 0 10
-262144 -1 -1 0 256;
#X obj 472 292 nbx 3 14 -1e+37 1e+37 0 1 empty empty empty 0 -8 0 10
-262144 -1 -1 0 256;
#X obj 512 292 nbx 3 14 -1e+37 1e+37 0 1 empty empty empty 0 -8 0 10
-262144 -1 -1 0 256;
#X obj 432 342 nbx 3 14 -1e+37 1e+37 0 1 empty empty empty 0 -8 0 10
-262144 -1 -1 0 256;
#X obj 472 342 nbx 3 14 -1e+37 1e+37 0 1 empty empty empty 0 -8 0 10
-262144 -1 -1 0 256;
#X obj 512 342 nbx 3 14 -1e+37 1e+37 0 1 empty empty empty 0 -8 0 10
-262144 -1 -1 0 256;
#X obj 432 392 nbx 3 14 -1e+37 1e+37 0 1 empty empty empty 0 -8 0 10
-262144 -1 -1 0 256;
#X obj 472 392 nbx 3 14 -1e+37 1e+37 0 1 empty empty empty 0 -8 0 10
-262144 -1 -1 0 256;
#X obj 512 392 nbx 3 14 -1e+37 1e+37 0 1 empty empty empty 0 -8 0 10
-262144 -1 -1 0 256;
#X obj 584 440 gemwin;
#X msg 584 420 create \, 1;
#X obj 584 301 loadbang;
#X obj 577 144 gemhead;
#X obj 577 256 circle;
#X obj 577 208 translateXYZ;
#X obj 577 121 tgl 15 0 empty empty empty 17 7 0 10 -262144 -1 -1 0
1;
#X obj 577 186 color 255 255 255;
#X floatatom 642 155 5 0 0 0 - - -, f 5;
#X floatatom 679 153 5 0 0 0 - - -, f 5;
#X floatatom 614 233 5 0 0 0 - - -, f 5;
#X obj 577 78 loadbang;
#X msg 577 100 0;
#X obj 42 69 simlight 1;
#X obj 342 242 nbx 4 14 -1e+37 1e+37 0 1 empty empty empty 0 -8 0 10
-262144 -1 -1 0 256;
#X obj 172 69 simlight 2;
#X obj 302 69 simlight 3;
#X obj 432 69 simlight 4;
#X obj 42 119 simlight 5;
#X obj 172 119 simlight 6;
#X obj 302 119 simlight 7;
#X obj 432 119 simlight 8;
#X obj 42 169 simlight 9;
#X obj 172 169 simlight 10;
#X obj 302 169 simlight 11;
#X obj 432 169 simlight 12;
#X obj 42 219 simlight 13;
#X obj 172 219 simlight 14;
#X obj 302 219 simlight 15;
#X obj 432 219 simlight 16;
#X obj 42 269 simlight 17;
#X obj 172 269 simlight 18;
#X obj 302 269 simlight 19;
#X obj 432 269 simlight 20;
#X obj 42 319 simlight 21;
#X obj 172 319 simlight 22;
#X obj 302 319 simlight 23;
#X obj 432 319 simlight 24;
#X obj 42 369 simlight 25;
#X obj 172 369 simlight 26;
#X obj 302 369 simlight 27;
#X obj 432 369 simlight 28;
#X obj 42 419 simlight 29;
#X obj 172 419 simlight 30;
#X obj 302 419 simlight 31;
#X obj 432 419 simlight 32;
#X msg 650 421 0 \, destroy;
#X obj 584 345 t b b;
#X msg 611 377 \; pd dsp 1;
#X obj 42 442 nbx 4 14 -1e+37 1e+37 0 1 empty empty empty 0 -8 0 10
-262144 -1 -1 -0.4 256;
#X obj 82 442 nbx 4 14 -1e+37 1e+37 0 1 empty empty empty 0 -8 0 10
-262144 -1 -1 -0.8 256;
#X obj 122 442 nbx 3 14 -1e+37 1e+37 0 1 empty empty empty 0 -8 0 10
-262144 -1 -1 2 256;
#X obj 42 492 nbx 3 14 -1e+37 1e+37 0 1 empty empty empty 0 -8 0 10
-262144 -1 -1 0 256;
#X obj 82 492 nbx 3 14 -1e+37 1e+37 0 1 empty empty empty 0 -8 0 10
-262144 -1 -1 0 256;
#X obj 122 492 nbx 3 14 -1e+37 1e+37 0 1 empty empty empty 0 -8 0 10
-262144 -1 -1 0 256;
#X obj 42 542 nbx 3 14 -1e+37 1e+37 0 1 empty empty empty 0 -8 0 10
-262144 -1 -1 0 256;
#X obj 82 542 nbx 3 14 -1e+37 1e+37 0 1 empty empty empty 0 -8 0 10
-262144 -1 -1 0 256;
#X obj 122 542 nbx 3 14 -1e+37 1e+37 0 1 empty empty empty 0 -8 0 10
-262144 -1 -1 0 256;
#X obj 42 592 nbx 3 14 -1e+37 1e+37 0 1 empty empty empty 0 -8 0 10
-262144 -1 -1 0 256;
#X obj 82 592 nbx 3 14 -1e+37 1e+37 0 1 empty empty empty 0 -8 0 10
-262144 -1 -1 0 256;
#X obj 122 592 nbx 3 14 -1e+37 1e+37 0 1 empty empty empty 0 -8 0 10
-262144 -1 -1 0 256;
#X obj 172 442 nbx 4 14 -1e+37 1e+37 0 1 empty empty empty 0 -8 0 10
-262144 -1 -1 0 256;
#X obj 212 442 nbx 4 14 -1e+37 1e+37 0 1 empty empty empty 0 -8 0 10
-262144 -1 -1 -0.8 256;
#X obj 252 442 nbx 3 14 -1e+37 1e+37 0 1 empty empty empty 0 -8 0 10
-262144 -1 -1 2 256;
#X obj 172 492 nbx 3 14 -1e+37 1e+37 0 1 empty empty empty 0 -8 0 10
-262144 -1 -1 0 256;
#X obj 212 492 nbx 3 14 -1e+37 1e+37 0 1 empty empty empty 0 -8 0 10
-262144 -1 -1 0 256;
#X obj 252 492 nbx 3 14 -1e+37 1e+37 0 1 empty empty empty 0 -8 0 10
-262144 -1 -1 0 256;
#X obj 172 542 nbx 3 14 -1e+37 1e+37 0 1 empty empty empty 0 -8 0 10
-262144 -1 -1 0 256;
#X obj 212 542 nbx 3 14 -1e+37 1e+37 0 1 empty empty empty 0 -8 0 10
-262144 -1 -1 0 256;
#X obj 252 542 nbx 3 14 -1e+37 1e+37 0 1 empty empty empty 0 -8 0 10
-262144 -1 -1 0 256;
#X obj 172 592 nbx 3 14 -1e+37 1e+37 0 1 empty empty empty 0 -8 0 10
-262144 -1 -1 0 256;
#X obj 212 592 nbx 3 14 -1e+37 1e+37 0 1 empty empty empty 0 -8 0 10
-262144 -1 -1 0 256;
#X obj 252 592 nbx 3 14 -1e+37 1e+37 0 1 empty empty empty 0 -8 0 10
-262144 -1 -1 0 256;
#X obj 302 442 nbx 4 14 -1e+37 1e+37 0 1 empty empty empty 0 -8 0 10
-262144 -1 -1 0 256;
#X obj 382 442 nbx 3 14 -1e+37 1e+37 0 1 empty empty empty 0 -8 0 10
-262144 -1 -1 0 256;
#X obj 302 492 nbx 3 14 -1e+37 1e+37 0 1 empty empty empty 0 -8 0 10
-262144 -1 -1 0 256;
#X obj 342 492 nbx 3 14 -1e+37 1e+37 0 1 empty empty empty 0 -8 0 10
-262144 -1 -1 0 256;
#X obj 382 492 nbx 3 14 -1e+37 1e+37 0 1 empty empty empty 0 -8 0 10
-262144 -1 -1 0 256;
#X obj 302 542 nbx 3 14 -1e+37 1e+37 0 1 empty empty empty 0 -8 0 10
-262144 -1 -1 0 256;
#X obj 342 542 nbx 3 14 -1e+37 1e+37 0 1 empty empty empty 0 -8 0 10
-262144 -1 -1 0 256;
#X obj 382 542 nbx 3 14 -1e+37 1e+37 0 1 empty empty empty 0 -8 0 10
-262144 -1 -1 0 256;
#X obj 302 592 nbx 3 14 -1e+37 1e+37 0 1 empty empty empty 0 -8 0 10
-262144 -1 -1 0 256;
#X obj 342 592 nbx 3 14 -1e+37 1e+37 0 1 empty empty empty 0 -8 0 10
-262144 -1 -1 0 256;
#X obj 382 592 nbx 3 14 -1e+37 1e+37 0 1 empty empty empty 0 -8 0 10
-262144 -1 -1 0 256;
#X obj 432 442 nbx 3 14 -1e+37 1e+37 0 1 empty empty empty 0 -8 0 10
-262144 -1 -1 0 256;
#X obj 472 442 nbx 3 14 -1e+37 1e+37 0 1 empty empty empty 0 -8 0 10
-262144 -1 -1 0 256;
#X obj 512 442 nbx 3 14 -1e+37 1e+37 0 1 empty empty empty 0 -8 0 10
-262144 -1 -1 0 256;
#X obj 432 492 nbx 3 14 -1e+37 1e+37 0 1 empty empty empty 0 -8 0 10
-262144 -1 -1 0 256;
#X obj 472 492 nbx 3 14 -1e+37 1e+37 0 1 empty empty empty 0 -8 0 10
-262144 -1 -1 0 256;
#X obj 512 492 nbx 3 14 -1e+37 1e+37 0 1 empty empty empty 0 -8 0 10
-262144 -1 -1 0 256;
#X obj 432 542 nbx 3 14 -1e+37 1e+37 0 1 empty empty empty 0 -8 0 10
-262144 -1 -1 0 256;
#X obj 472 542 nbx 3 14 -1e+37 1e+37 0 1 empty empty empty 0 -8 0 10
-262144 -1 -1 0 256;
#X obj 512 542 nbx 3 14 -1e+37 1e+37 0 1 empty empty empty 0 -8 0 10
-262144 -1 -1 0 256;
#X obj 432 592 nbx 3 14 -1e+37 1e+37 0 1 empty empty empty 0 -8 0 10
-262144 -1 -1 0 256;
#X obj 472 592 nbx 3 14 -1e+37 1e+37 0 1 empty empty empty 0 -8 0 10
-262144 -1 -1 0 256;
#X obj 512 592 nbx 3 14 -1e+37 1e+37 0 1 empty empty empty 0 -8 0 10
-262144 -1 -1 0 256;
#X obj 342 442 nbx 4 14 -1e+37 1e+37 0 1 empty empty empty 0 -8 0 10
-262144 -1 -1 0 256;
#X obj 42 469 simlight 33;
#X obj 172 469 simlight 34;
#X obj 302 469 simlight 35;
#X obj 432 469 simlight 36;
#X obj 42 519 simlight 37;
#X obj 172 519 simlight 38;
#X obj 302 519 simlight 39;
#X obj 432 519 simlight 40;
#X obj 42 569 simlight 41;
#X obj 172 569 simlight 42;
#X obj 302 569 simlight 43;
#X obj 432 569 simlight 44;
#X obj 42 619 simlight 45;
#X obj 172 619 simlight 46;
#X obj 302 619 simlight 47;
#X obj 432 619 simlight 48;
#X obj 611 481 r simulation_light_0;
#X obj 584 323 del 10000;
#X connect 0 0 108 0;
#X connect 1 0 108 1;
#X connect 2 0 108 2;
#X connect 3 0 113 0;
#X connect 4 0 113 1;
#X connect 5 0 113 2;
#X connect 6 0 117 0;
#X connect 7 0 117 1;
#X connect 8 0 117 2;
#X connect 9 0 121 0;
#X connect 10 0 121 1;
#X connect 11 0 121 2;
#X connect 12 0 125 0;
#X connect 13 0 125 1;
#X connect 14 0 125 2;
#X connect 15 0 129 0;
#X connect 16 0 129 1;
#X connect 17 0 129 2;
#X connect 18 0 133 0;
#X connect 19 0 133 1;
#X connect 20 0 133 2;
#X connect 21 0 137 0;
#X connect 22 0 137 1;
#X connect 23 0 137 2;
#X connect 24 0 110 0;
#X connect 25 0 110 1;
#X connect 26 0 110 2;
#X connect 27 0 114 0;
#X connect 28 0 114 1;
#X connect 29 0 114 2;
#X connect 30 0 118 0;
#X connect 31 0 118 1;
#X connect 32 0 118 2;
#X connect 33 0 122 0;
#X connect 34 0 122 1;
#X connect 35 0 122 2;
#X connect 36 0 126 0;
#X connect 37 0 126 1;
#X connect 38 0 126 2;
#X connect 39 0 130 0;
#X connect 40 0 130 1;
#X connect 41 0 130 2;
#X connect 42 0 134 0;
#X connect 43 0 134 1;
#X connect 44 0 134 2;
#X connect 45 0 138 0;
#X connect 46 0 138 1;
#X connect 47 0 138 2;
#X connect 48 0 111 0;
#X connect 49 0 111 1;
#X connect 50 0 111 2;
#X connect 51 0 115 0;
#X connect 52 0 115 1;
#X connect 53 0 115 2;
#X connect 54 0 119 0;
#X connect 55 0 119 1;
#X connect 56 0 119 2;
#X connect 57 0 123 0;
#X connect 58 0 123 1;
#X connect 59 0 123 2;
#X connect 60 0 127 0;
#X connect 61 0 127 2;
#X connect 62 0 131 0;
#X connect 63 0 131 1;
#X connect 64 0 131 2;
#X connect 65 0 135 0;
#X connect 66 0 135 1;
#X connect 67 0 135 2;
#X connect 68 0 139 0;
#X connect 69 0 139 1;
#X connect 70 0 139 2;
#X connect 71 0 112 0;
#X connect 72 0 112 1;
#X connect 73 0 112 2;
#X connect 74 0 116 0;
#X connect 75 0 116 1;
#X connect 76 0 116 2;
#X connect 77 0 120 0;
#X connect 78 0 120 1;
#X connect 79 0 120 2;
#X connect 80 0 124 0;
#X connect 81 0 124 1;
#X connect 82 0 124 2;
#X connect 83 0 128 0;
#X connect 84 0 128 1;
#X connect 85 0 128 2;
#X connect 86 0 132 0;
#X connect 87 0 132 1;
#X connect 88 0 132 2;
#X connect 89 0 136 0;
#X connect 90 0 136 1;
#X connect 91 0 136 2;
#X connect 92 0 140 0;
#X connect 93 0 140 1;
#X connect 94 0 140 2;
#X connect 96 0 95 0;
#X connect 97 0 209 0;
#X connect 98 0 102 0;
#X connect 100 0 99 0;
#X connect 101 0 98 0;
#X connect 102 0 100 0;
#X connect 103 0 100 1;
#X connect 104 0 100 2;
#X connect 105 0 99 1;
#X connect 106 0 107 0;
#X connect 107 0 101 0;
#X connect 109 0 127 1;
#X connect 141 0 95 0;
#X connect 142 0 96 0;
#X connect 142 1 143 0;
#X connect 144 0 192 0;
#X connect 145 0 192 1;
#X connect 146 0 192 2;
#X connect 147 0 196 0;
#X connect 148 0 196 1;
#X connect 149 0 196 2;
#X connect 150 0 200 0;
#X connect 151 0 200 1;
#X connect 152 0 200 2;
#X connect 153 0 204 0;
#X connect 154 0 204 1;
#X connect 155 0 204 2;
#X connect 156 0 193 0;
#X connect 157 0 193 1;
#X connect 158 0 193 2;
#X connect 159 0 197 0;
#X connect 160 0 197 1;
#X connect 161 0 197 2;
#X connect 162 0 201 0;
#X connect 163 0 201 1;
#X connect 164 0 201 2;
#X connect 165 0 205 0;
#X connect 166 0 205 1;
#X connect 167 0 205 2;
#X connect 168 0 194 0;
#X connect 169 0 194 2;
#X connect 170 0 198 0;
#X connect 171 0 198 1;
#X connect 172 0 198 2;
#X connect 173 0 202 0;
#X connect 174 0 202 1;
#X connect 175 0 202 2;
#X connect 176 0 206 0;
#X connect 177 0 206 1;
#X connect 178 0 206 2;
#X connect 179 0 195 0;
#X connect 180 0 195 1;
#X connect 181 0 195 2;
#X connect 182 0 199 0;
#X connect 183 0 199 1;
#X connect 184 0 199 2;
#X connect 185 0 203 0;
#X connect 186 0 203 1;
#X connect 187 0 203 2;
#X connect 188 0 207 0;
#X connect 189 0 207 1;
#X connect 190 0 207 2;
#X connect 191 0 194 1;
#X connect 209 0 142 0;
