#N canvas 419 262 450 300 10;
#X obj 302 25 inlet CC#;
#X obj 125 25 inlet value;
#X obj 287 116 t f f;
#X obj 314 148 >> 7;
#X floatatom 328 172 5 0 0 0 - - -;
#X floatatom 261 170 5 0 0 0 - - -;
#X obj 264 146 & 127;
#X obj 125 116 t f f;
#X obj 152 148 >> 7;
#X obj 102 146 & 127;
#X obj 125 45 t f b;
#X floatatom 316 55 5 0 0 0 - - -;
#X floatatom 65 39 5 0 0 0 - - -;
#X obj 287 94 f \$1;
#X obj 365 219 ctlout 99 \$2;
#X obj 265 219 ctlout 98 \$2;
#X obj 165 219 ctlout 6 \$2;
#X obj 75 219 ctlout 38 \$2;
#X connect 0 0 13 1;
#X connect 1 0 10 0;
#X connect 2 0 6 0;
#X connect 2 1 3 0;
#X connect 3 0 4 0;
#X connect 3 0 14 0;
#X connect 6 0 5 0;
#X connect 6 0 15 0;
#X connect 7 0 9 0;
#X connect 7 1 8 0;
#X connect 8 0 16 0;
#X connect 9 0 17 0;
#X connect 10 0 7 0;
#X connect 10 1 13 0;
#X connect 11 0 13 1;
#X connect 12 0 10 0;
#X connect 13 0 2 0;
