#N canvas 0 108 450 299 10;
#X obj 101 101 bng 15 250 50 0 empty empty empty 17 7 0 10 -262144
-1 -1;
#X obj 119 102 nbx 3 14 0 100 0 1 empty empty empty -7 8 0 10 -262144
-1 -1 0 256;
#X obj 119 131 == 0;
#X obj 92 172 * 100;
#X obj 92 151 f 100;
#X obj 119 69 inlet;
#X obj 153 131 outlet;
#X connect 0 0 4 0;
#X connect 1 0 2 0;
#X connect 1 0 6 0;
#X connect 2 0 4 1;
#X connect 3 0 1 0;
#X connect 4 0 3 0;
#X connect 5 0 1 0;
#X coords 0 -1 1 1 55 20 1 100 100;
