#N canvas 619 372 418 517 10;
#X declare -lib mrpeach;
#X obj 41 413 s from_i-score;
#X obj 252 38 r to_i-score;
#X obj 195 163 loadbang;
#X obj 133 152 spigot;
#X obj 152 277 tgl 15 0 empty empty empty 17 7 0 10 -262144 -1 -1 1
1;
#X obj 252 142 spigot;
#X obj 285 123 tgl 15 0 empty empty empty 17 7 0 10 -262144 -1 -1 0
1;
#X obj 252 162 print to_i-score;
#X obj 152 442 spigot;
#X obj 185 423 tgl 15 0 empty empty empty 17 7 0 10 -262144 -1 -1 0
1;
#X obj 152 482 print from_i-score;
#X obj 133 246 t f f f;
#X obj 133 107 list prepend send;
#X obj 133 129 list trim;
#X obj 133 301 sel 1;
#X msg 41 367 get;
#X obj 133 86 packOSC;
#X obj 106 388 unpackOSC;
#X obj 83 164 inlet;
#X obj 65 35 t b b b;
#X msg 103 56 [;
#X msg 53 56 ];
#X obj 197 297 sel 0 1;
#X obj 212 332 del 1000;
#X obj 133 226 udpsend;
#X obj 269 424 import mrpeach;
#X msg 83 193 disconnect;
#X obj 65 3 del 500;
#X obj 106 368 udpreceive 9997;
#X msg 195 198 connect 127.0.0.1 9996;
#X connect 1 0 5 0;
#X connect 1 0 16 0;
#X connect 3 0 24 0;
#X connect 4 0 22 0;
#X connect 5 0 7 0;
#X connect 6 0 5 1;
#X connect 8 0 10 0;
#X connect 9 0 8 1;
#X connect 11 0 14 0;
#X connect 11 1 4 0;
#X connect 11 2 3 1;
#X connect 12 0 13 0;
#X connect 13 0 3 0;
#X connect 15 0 0 0;
#X connect 16 0 12 0;
#X connect 17 0 0 0;
#X connect 17 0 8 0;
#X connect 18 0 26 0;
#X connect 19 0 21 0;
#X connect 19 1 15 0;
#X connect 19 2 20 0;
#X connect 22 0 23 0;
#X connect 23 0 29 0;
#X connect 24 0 11 0;
#X connect 26 0 24 0;
#X connect 27 0 19 0;
#X connect 28 0 17 0;
#X connect 29 0 24 0;
