#N canvas 739 257 795 400 10;
#X obj 30 238 readsf~ 2;
#X msg 30 218 open \$1;
#X obj 30 88 openpanel;
#X obj 30 69 bng 15 250 50 0 empty empty empty 17 7 0 10 -262144 -1
-1;
#X obj 534 135 j.model;
#X obj 534 115 inlet;
#X obj 534 155 outlet;
#X obj 170 352 outlet~;
#X obj 201 25 j.parameter play @type boolean @priority 2;
#X obj 31 352 outlet~;
#X obj 30 332 *~;
#X obj 81 352 outlet~;
#X obj 80 332 *~;
#X obj 397 86 t f f;
#X obj 424 107 sel 1;
#X obj 397 149 line~;
#X msg 397 128 \$1 10;
#X obj 30 128 j.parameter file @type string @priority 1;
#X obj 397 54 j.parameter gain @type decimal @dataspace gain @unit
linear @default 0;
#X obj 30 150 route none;
#X obj 87 172 symbol;
#X obj 30 25 j.parameter open @type none;
#X obj 30 47 route bang;
#X obj 201 45 change -1;
#X obj 30 196 symbol;
#X obj 201 66 sel 1;
#X connect 0 0 7 0;
#X connect 0 0 10 0;
#X connect 0 1 12 0;
#X connect 0 1 7 0;
#X connect 1 0 0 0;
#X connect 2 0 17 0;
#X connect 3 0 2 0;
#X connect 4 0 6 0;
#X connect 5 0 4 0;
#X connect 8 0 23 0;
#X connect 10 0 9 0;
#X connect 12 0 11 0;
#X connect 13 0 16 0;
#X connect 13 1 14 0;
#X connect 15 0 12 1;
#X connect 15 0 10 1;
#X connect 16 0 15 0;
#X connect 17 0 19 0;
#X connect 18 0 13 0;
#X connect 19 1 20 0;
#X connect 20 0 24 1;
#X connect 21 0 22 0;
#X connect 22 0 3 0;
#X connect 23 0 25 0;
#X connect 24 0 1 0;
#X connect 25 0 24 0;
#X connect 25 1 0 0;
