#N canvas 327 565 450 363 10;
#X obj 154 113 j.remote play;
#X obj 135 114 tgl 15 0 empty empty empty 17 7 0 10 -262144 -1 -1 0
1;
#X obj 135 175 j.remote file;
#X symbolatom 135 216 50 0 0 0 - - -, f 50;
#X obj 135 134 bng 15 250 50 0 empty empty empty 17 7 0 10 -262144
-1 -1;
#X obj 136 238 hsl 200 15 0 100 0 0 empty empty empty -2 -8 0 10 -262144
-1 -1 796 1;
#X obj 133 258 - 100;
#X obj 133 302 + 100;
#X obj 133 280 j.remote gain @unit dB;
#X obj 284 95 j.view;
#X obj 284 74 inlet;
#X obj 284 117 outlet;
#X obj 135 197 symbol;
#X obj 158 28 j.message;
#X obj 158 50 j.return;
#X obj 134 153 j.remote open;
#X connect 0 0 1 0;
#X connect 1 0 0 0;
#X connect 2 0 12 0;
#X connect 4 0 15 0;
#X connect 5 0 6 0;
#X connect 6 0 8 0;
#X connect 7 0 5 0;
#X connect 8 0 7 0;
#X connect 9 0 11 0;
#X connect 10 0 9 0;
#X connect 12 0 3 0;
#X connect 13 0 14 0;
