#N canvas 62 318 682 616 10;
#X declare -path ../abs_light;
#X obj 23 31 declare -path ../abs_light;
#X obj 251 281 random 100;
#X obj 230 45 metro 250;
#X obj 230 22 tgl 15 0 empty empty empty 17 7 0 10 -262144 -1 -1 0
1;
#X obj 230 67 t b b;
#X obj 257 182 until;
#X obj 257 204 f;
#X obj 282 204 + 1;
#X obj 251 331 list append;
#X obj 251 351 list;
#X obj 230 372 list;
#X obj 257 112 t b f b;
#X msg 320 150 0;
#X obj 251 239 ==;
#X obj 271 67 bng 15 250 50 0 empty empty empty 17 7 0 10 -262144 -1
-1;
#X obj 251 261 sel 1;
#X obj 251 307 +;
#X floatatom 372 278 5 0 0 0 offset - -, f 5;
#X floatatom 374 252 5 0 0 0 amplitude - -, f 5;
#X obj 369 216 * 5;
#X obj 455 164 > 0;
#X obj 230 392 unpack f f f f f f f f f f;
#X obj 492 494 bus effet10;
#X obj 369 195 -;
#X msg 369 173 200 \$1;
#X obj 333 21 + 10;
#X obj 267 21 nbx 5 14 -1e+37 1e+37 0 1 empty empty empty 0 -8 0 10
-262144 -1 -1 1010 256;
#X obj 507 191 max;
#X obj 506 153 t b f;
#X obj 368 153 max;
#X obj 367 55 t b f;
#X obj 386 81 * 2;
#X obj 169 464 bus effet11;
#X obj 209 494 bus effet12;
#X obj 239 464 bus effet13;
#X obj 279 494 bus effet14;
#X obj 309 464 bus effet15;
#X obj 349 494 bus effet16;
#X obj 381 463 bus effet17;
#X obj 419 494 bus effet18;
#X obj 449 463 bus effet19;
#X obj 257 92 random 10;
#X obj 257 132 f 10;
#X obj 455 93 inlet level;
#X obj 558 44 inlet speed;
#X obj 557 65 * 1;
#X obj 455 127 / 1;
#X obj 105 122 sel 0;
#X msg 105 151 0 0 0 0 0 0 0 0 0 0;
#X floatatom 506 132 5 0 0 0 - - -, f 5;
#X text 542 133 level;
#X floatatom 372 17 5 0 0 0 - - -, f 5;
#X text 408 17 speed;
#X connect 1 0 16 0;
#X connect 2 0 4 0;
#X connect 3 0 2 0;
#X connect 3 0 47 0;
#X connect 4 0 10 0;
#X connect 4 1 41 0;
#X connect 5 0 6 0;
#X connect 6 0 7 0;
#X connect 6 0 13 0;
#X connect 7 0 6 1;
#X connect 8 0 9 0;
#X connect 9 0 8 1;
#X connect 9 0 10 1;
#X connect 10 0 21 0;
#X connect 11 0 42 0;
#X connect 11 1 13 1;
#X connect 11 2 12 0;
#X connect 11 2 8 1;
#X connect 12 0 6 1;
#X connect 13 0 15 0;
#X connect 14 0 4 0;
#X connect 15 0 1 0;
#X connect 15 1 8 0;
#X connect 16 0 8 0;
#X connect 17 0 16 1;
#X connect 18 0 1 1;
#X connect 19 0 25 0;
#X connect 20 0 3 0;
#X connect 21 0 32 0;
#X connect 21 1 33 0;
#X connect 21 2 34 0;
#X connect 21 3 35 0;
#X connect 21 4 36 0;
#X connect 21 5 37 0;
#X connect 21 6 38 0;
#X connect 21 7 39 0;
#X connect 21 8 40 0;
#X connect 21 9 22 0;
#X connect 23 0 19 0;
#X connect 24 0 23 0;
#X connect 25 0 26 0;
#X connect 26 0 2 1;
#X connect 27 0 18 0;
#X connect 28 0 27 0;
#X connect 28 1 27 1;
#X connect 29 0 24 0;
#X connect 30 0 29 0;
#X connect 30 1 31 0;
#X connect 31 0 29 1;
#X connect 41 0 11 0;
#X connect 42 0 5 0;
#X connect 43 0 46 0;
#X connect 44 0 45 0;
#X connect 45 0 29 0;
#X connect 46 0 20 0;
#X connect 46 0 27 0;
#X connect 47 0 48 0;
#X connect 48 0 10 0;
#X connect 49 0 28 0;
#X connect 51 0 30 0;
