#N canvas 909 321 557 624 10;
#X obj 17 38 nbx 2 14 0 100 0 1 empty empty 1 -7 8 0 10 -262144 -1
-1 0 256;
#N canvas 158 220 920 501 bus_nico 0;
#X obj 133 99 inlet;
#X obj 184 99 inlet;
#X obj 171 302 *;
#X obj 184 220 t b f;
#X obj 171 328 bus lum1;
#X obj 244 99 inlet;
#X obj 231 302 *;
#X obj 244 220 t b f;
#X obj 304 99 inlet;
#X obj 291 302 *;
#X obj 304 220 t b f;
#X obj 364 99 inlet;
#X obj 351 302 *;
#X obj 364 220 t b f;
#X obj 424 99 inlet;
#X obj 411 302 *;
#X obj 424 220 t b f;
#X obj 484 99 inlet;
#X obj 471 302 *;
#X obj 484 220 t b f;
#X obj 544 99 inlet;
#X obj 531 302 *;
#X obj 544 220 t b f;
#X obj 604 99 inlet;
#X obj 591 302 *;
#X obj 604 220 t b f;
#X obj 664 99 inlet;
#X obj 651 302 *;
#X obj 664 220 t b f;
#X obj 131 247 * 1;
#X obj 232 328 bus lum2;
#X obj 291 328 bus lum3;
#X obj 351 328 bus lum4;
#X obj 412 328 bus lum5;
#X obj 471 328 bus lum6;
#X obj 531 328 bus lum7;
#X obj 591 328 bus lum8;
#X obj 651 328 bus lum9;
#X obj 98 398 outlet;
#X obj 184 156 / 100;
#X obj 244 156 / 100;
#X obj 304 156 / 100;
#X obj 364 156 / 100;
#X obj 424 156 / 100;
#X obj 484 156 / 100;
#X obj 544 156 / 100;
#X obj 604 156 / 100;
#X obj 664 156 / 100;
#X floatatom 78 150 5 0 0 0 - - -, f 5;
#X obj 10 124 r master_cycliode_nico;
#X connect 0 0 29 0;
#X connect 1 0 39 0;
#X connect 2 0 4 0;
#X connect 3 0 2 0;
#X connect 3 1 2 1;
#X connect 5 0 40 0;
#X connect 6 0 30 0;
#X connect 7 0 6 0;
#X connect 7 1 6 1;
#X connect 8 0 41 0;
#X connect 9 0 31 0;
#X connect 10 0 9 0;
#X connect 10 1 9 1;
#X connect 11 0 42 0;
#X connect 12 0 32 0;
#X connect 13 0 12 0;
#X connect 13 1 12 1;
#X connect 14 0 43 0;
#X connect 15 0 33 0;
#X connect 16 0 15 0;
#X connect 16 1 15 1;
#X connect 17 0 44 0;
#X connect 18 0 34 0;
#X connect 19 0 18 0;
#X connect 19 1 18 1;
#X connect 20 0 45 0;
#X connect 21 0 35 0;
#X connect 22 0 21 0;
#X connect 22 1 21 1;
#X connect 23 0 46 0;
#X connect 24 0 36 0;
#X connect 25 0 24 0;
#X connect 25 1 24 1;
#X connect 26 0 47 0;
#X connect 27 0 37 0;
#X connect 28 0 27 0;
#X connect 28 1 27 1;
#X connect 29 0 2 0;
#X connect 29 0 6 0;
#X connect 29 0 9 0;
#X connect 29 0 12 0;
#X connect 29 0 15 0;
#X connect 29 0 18 0;
#X connect 29 0 21 0;
#X connect 29 0 24 0;
#X connect 29 0 27 0;
#X connect 39 0 3 0;
#X connect 40 0 7 0;
#X connect 41 0 10 0;
#X connect 42 0 13 0;
#X connect 43 0 16 0;
#X connect 44 0 19 0;
#X connect 45 0 22 0;
#X connect 46 0 25 0;
#X connect 47 0 28 0;
#X connect 49 0 29 1;
#X connect 49 0 38 0;
#X connect 49 0 48 0;
#X restore -75 250 pd bus_nico;
#X obj 17 58 nbx 2 14 0 100 0 1 empty empty 2 -7 8 0 10 -262144 -1
-1 0 256;
#X obj 17 78 nbx 2 14 0 100 0 1 empty empty 3 -7 8 0 10 -262144 -1
-1 0 256;
#X obj 17 98 nbx 2 14 0 100 0 1 empty empty 4 -7 8 0 10 -262144 -1
-1 0 256;
#X obj 17 118 nbx 2 14 0 100 0 1 empty empty 5 -7 8 0 10 -262144 -1
-1 0 256;
#X obj 17 138 nbx 2 14 0 100 0 1 empty empty 6 -7 8 0 10 -262144 -1
-1 0 256;
#X obj 17 158 nbx 2 14 0 100 0 1 empty empty 7 -7 8 0 10 -262144 -1
-1 0 256;
#X obj 17 178 nbx 2 14 0 100 0 1 empty empty 8 -7 8 0 10 -262144 -1
-1 0 256;
#X obj 17 198 nbx 2 14 0 100 0 1 empty empty 9 -7 8 0 10 -262144 -1
-1 0 256;
#X text 3 19 busSend;
#X obj 51 57 j.parameter send/2 @type decimal @range 0 100;
#X obj 51 77 j.parameter send/3 @type decimal @range 0 100;
#X obj 51 97 j.parameter send/4 @type decimal @range 0 100;
#X obj 51 117 j.parameter send/5 @type decimal @range 0 100;
#X obj 51 137 j.parameter send/6 @type decimal @range 0 100;
#X obj 51 157 j.parameter send/7 @type decimal @range 0 100;
#X obj 51 177 j.parameter send/8 @type decimal @range 0 100;
#X obj 51 197 j.parameter send/9 @type decimal @range 0 100;
#X obj -70 58 outlet;
#X text 9 208 -------;
#X obj 17 224 nbx 2 14 0 100 0 1 empty empty 10 -12 8 0 10 -262144
-1 -1 0 256;
#N canvas 158 220 920 501 bus_nico 0;
#X obj 133 99 inlet;
#X obj 184 99 inlet;
#X obj 171 302 *;
#X obj 184 220 t b f;
#X obj 244 99 inlet;
#X obj 231 302 *;
#X obj 244 220 t b f;
#X obj 304 99 inlet;
#X obj 291 302 *;
#X obj 304 220 t b f;
#X obj 364 99 inlet;
#X obj 351 302 *;
#X obj 364 220 t b f;
#X obj 424 99 inlet;
#X obj 411 302 *;
#X obj 424 220 t b f;
#X obj 484 99 inlet;
#X obj 471 302 *;
#X obj 484 220 t b f;
#X obj 544 99 inlet;
#X obj 531 302 *;
#X obj 544 220 t b f;
#X obj 604 99 inlet;
#X obj 591 302 *;
#X obj 604 220 t b f;
#X obj 664 99 inlet;
#X obj 651 302 *;
#X obj 664 220 t b f;
#X obj 131 247 * 1;
#X obj 98 398 outlet;
#X obj 184 147 / 100;
#X obj 244 147 / 100;
#X obj 304 147 / 100;
#X obj 364 147 / 100;
#X obj 424 147 / 100;
#X obj 484 147 / 100;
#X obj 544 147 / 100;
#X obj 604 147 / 100;
#X obj 664 147 / 100;
#X obj 171 328 bus lum10;
#X obj 232 328 bus lu112;
#X obj 291 328 bus lum12;
#X obj 351 328 bus lum13;
#X obj 412 328 bus lum14;
#X obj 471 328 bus lum15;
#X obj 531 328 bus lum16;
#X obj 591 327 bus lum17;
#X obj 651 328 bus lum18;
#X obj 724 99 inlet;
#X obj 711 302 *;
#X obj 724 220 t b f;
#X obj 724 147 / 100;
#X obj 784 99 inlet;
#X obj 771 302 *;
#X obj 784 220 t b f;
#X obj 784 147 / 100;
#X obj 711 328 bus lum19;
#X obj 771 328 bus lum20;
#X obj 10 124 r master_cycliode_nico;
#X connect 0 0 28 0;
#X connect 1 0 30 0;
#X connect 2 0 39 0;
#X connect 3 0 2 0;
#X connect 3 1 2 1;
#X connect 4 0 31 0;
#X connect 5 0 40 0;
#X connect 6 0 5 0;
#X connect 6 1 5 1;
#X connect 7 0 32 0;
#X connect 8 0 41 0;
#X connect 9 0 8 0;
#X connect 9 1 8 1;
#X connect 10 0 33 0;
#X connect 11 0 42 0;
#X connect 12 0 11 0;
#X connect 12 1 11 1;
#X connect 13 0 34 0;
#X connect 14 0 43 0;
#X connect 15 0 14 0;
#X connect 15 1 14 1;
#X connect 16 0 35 0;
#X connect 17 0 44 0;
#X connect 18 0 17 0;
#X connect 18 1 17 1;
#X connect 19 0 36 0;
#X connect 20 0 45 0;
#X connect 21 0 20 0;
#X connect 21 1 20 1;
#X connect 22 0 37 0;
#X connect 23 0 46 0;
#X connect 24 0 23 0;
#X connect 24 1 23 1;
#X connect 25 0 38 0;
#X connect 26 0 47 0;
#X connect 27 0 26 0;
#X connect 27 1 26 1;
#X connect 28 0 2 0;
#X connect 28 0 5 0;
#X connect 28 0 8 0;
#X connect 28 0 11 0;
#X connect 28 0 14 0;
#X connect 28 0 17 0;
#X connect 28 0 20 0;
#X connect 28 0 23 0;
#X connect 28 0 26 0;
#X connect 28 0 49 0;
#X connect 28 0 53 0;
#X connect 30 0 3 0;
#X connect 31 0 6 0;
#X connect 32 0 9 0;
#X connect 33 0 12 0;
#X connect 34 0 15 0;
#X connect 35 0 18 0;
#X connect 36 0 21 0;
#X connect 37 0 24 0;
#X connect 38 0 27 0;
#X connect 48 0 51 0;
#X connect 49 0 56 0;
#X connect 50 0 49 0;
#X connect 50 1 49 1;
#X connect 51 0 50 0;
#X connect 52 0 55 0;
#X connect 53 0 57 0;
#X connect 54 0 53 0;
#X connect 54 1 53 1;
#X connect 55 0 54 0;
#X connect 58 0 28 1;
#X connect 58 0 29 0;
#X restore -87 482 pd bus_nico;
#X obj 17 244 nbx 2 14 0 100 0 1 empty empty 11 -12 8 0 10 -262144
-1 -1 0 256;
#X obj 17 264 nbx 2 14 0 100 0 1 empty empty 12 -12 8 0 10 -262144
-1 -1 0 256;
#X obj 17 284 nbx 2 14 0 100 0 1 empty empty 13 -12 8 0 10 -262144
-1 -1 0 256;
#X obj 17 304 nbx 2 14 0 100 0 1 empty empty 14 -12 8 0 10 -262144
-1 -1 0 256;
#X obj 17 324 nbx 2 14 0 100 0 1 empty empty 15 -12 8 0 10 -262144
-1 -1 0 256;
#X obj 17 344 nbx 2 14 0 100 0 1 empty empty 16 -12 8 0 10 -262144
-1 -1 0 256;
#X obj 17 364 nbx 2 14 0 100 0 1 empty empty 17 -12 8 0 10 -262144
-1 -1 0 256;
#X obj 17 384 nbx 2 14 0 100 0 1 empty empty 18 -12 8 0 10 -262144
-1 -1 0 256;
#X obj 51 223 j.parameter send/10 @type decimal @range 0 100;
#X obj 51 243 j.parameter send/11 @type decimal @range 0 100;
#X obj 51 263 j.parameter send/12 @type decimal @range 0 100;
#X obj 51 282 j.parameter send/13 @type decimal @range 0 100;
#X obj 51 303 j.parameter send/14 @type decimal @range 0 100;
#X obj 51 323 j.parameter send/15 @type decimal @range 0 100;
#X obj 51 344 j.parameter send/16 @type decimal @range 0 100;
#X obj 51 363 j.parameter send/17 @type decimal @range 0 100;
#X obj 51 383 j.parameter send/18 @type decimal @range 0 100;
#X obj 17 404 nbx 2 14 0 100 0 1 empty empty 19 -12 8 0 10 -262144
-1 -1 0 256;
#X obj 17 424 nbx 2 14 0 100 0 1 empty empty 20 -12 8 0 10 -262144
-1 -1 0 256;
#X obj 51 404 j.parameter send/19 @type decimal @range 0 100;
#X obj 51 423 j.parameter send/20 @type decimal @range 0 100;
#X obj -87 -11 t f;
#X obj -72 -83 inlet;
#X obj 51 37 j.parameter send/1 @type decimal @range 0 100;
#X obj 152 -15 print j.model-\$1-dumpout;
#X obj 113 -45 j.model;
#X connect 0 0 1 1;
#X connect 0 0 46 0;
#X connect 2 0 1 2;
#X connect 2 0 11 0;
#X connect 3 0 1 3;
#X connect 3 0 12 0;
#X connect 4 0 1 4;
#X connect 4 0 13 0;
#X connect 5 0 1 5;
#X connect 5 0 14 0;
#X connect 6 0 1 6;
#X connect 6 0 15 0;
#X connect 7 0 1 7;
#X connect 7 0 16 0;
#X connect 8 0 1 8;
#X connect 8 0 17 0;
#X connect 9 0 1 9;
#X connect 9 0 18 0;
#X connect 11 0 2 0;
#X connect 12 0 3 0;
#X connect 13 0 4 0;
#X connect 14 0 5 0;
#X connect 15 0 6 0;
#X connect 16 0 7 0;
#X connect 17 0 8 0;
#X connect 18 0 9 0;
#X connect 21 0 22 1;
#X connect 21 0 31 0;
#X connect 23 0 22 2;
#X connect 23 0 32 0;
#X connect 24 0 22 3;
#X connect 24 0 33 0;
#X connect 25 0 22 4;
#X connect 25 0 34 0;
#X connect 26 0 22 5;
#X connect 26 0 35 0;
#X connect 27 0 22 6;
#X connect 27 0 36 0;
#X connect 28 0 22 7;
#X connect 28 0 37 0;
#X connect 29 0 22 8;
#X connect 29 0 38 0;
#X connect 30 0 22 9;
#X connect 30 0 39 0;
#X connect 31 0 21 0;
#X connect 32 0 23 0;
#X connect 33 0 24 0;
#X connect 34 0 25 0;
#X connect 35 0 26 0;
#X connect 36 0 27 0;
#X connect 37 0 28 0;
#X connect 38 0 29 0;
#X connect 39 0 30 0;
#X connect 40 0 42 0;
#X connect 40 0 22 10;
#X connect 41 0 43 0;
#X connect 41 0 22 11;
#X connect 42 0 40 0;
#X connect 43 0 41 0;
#X connect 44 0 1 0;
#X connect 44 0 22 0;
#X connect 44 0 19 0;
#X connect 45 0 44 0;
#X connect 46 0 0 0;
#X connect 48 1 47 0;
#X coords 0 -1 1 1 50 450 2 0 0;
