#N canvas 886 363 704 717 10;
#X obj 13 24 nbx 3 14 0 100 0 1 empty empty 1 -7 8 0 10 -262144 -1
-1 0 256;
#X obj 13 44 nbx 3 14 0 100 0 1 empty empty 2 -7 8 0 10 -262144 -1
-1 0 256;
#X obj 13 64 nbx 3 14 0 100 0 1 empty empty 3 -7 8 0 10 -262144 -1
-1 0 256;
#X obj 13 84 nbx 3 14 0 100 0 1 empty empty 4 -7 8 0 10 -262144 -1
-1 0 256;
#X obj 13 104 nbx 3 14 0 100 0 1 empty empty 5 -7 8 0 10 -262144 -1
-1 0 256;
#X obj 13 124 nbx 3 14 0 100 0 1 empty empty 6 -7 8 0 10 -262144 -1
-1 0 256;
#X obj 13 144 nbx 3 14 0 100 0 1 empty empty 7 -7 8 0 10 -262144 -1
-1 0 256;
#X obj 13 164 nbx 3 14 0 100 0 1 empty empty 8 -7 8 0 10 -262144 -1
-1 0 256;
#X obj 13 184 nbx 3 14 0 100 0 1 empty empty 9 -7 8 0 10 -262144 -1
-1 0 256;
#X text 3 5 busSend;
#X obj 57 43 j.parameter send/2 @type decimal @range 0 100;
#X obj 57 63 j.parameter send/3 @type decimal @range 0 100;
#X obj 57 83 j.parameter send/4 @type decimal @range 0 100;
#X obj 57 103 j.parameter send/5 @type decimal @range 0 100;
#X obj 57 123 j.parameter send/6 @type decimal @range 0 100;
#X obj 57 143 j.parameter send/7 @type decimal @range 0 100;
#X obj 57 163 j.parameter send/8 @type decimal @range 0 100;
#X obj 57 183 j.parameter send/9 @type decimal @range 0 100;
#X obj -70 44 outlet;
#X text 2 419 -------;
#X obj 13 204 nbx 3 14 0 100 0 1 empty empty 10 -12 8 0 10 -262144
-1 -1 0 256;
#X obj 13 224 nbx 3 14 0 100 0 1 empty empty 11 -12 8 0 10 -262144
-1 -1 0 256;
#X obj 13 244 nbx 3 14 0 100 0 1 empty empty 12 -12 8 0 10 -262144
-1 -1 0 256;
#X obj 13 264 nbx 3 14 0 100 0 1 empty empty 13 -12 8 0 10 -262144
-1 -1 0 256;
#X obj 13 284 nbx 3 14 0 100 0 1 empty empty 14 -12 8 0 10 -262144
-1 -1 0 256;
#X obj 13 304 nbx 3 14 0 100 0 1 empty empty 15 -12 8 0 10 -262144
-1 -1 0 256;
#X obj 13 324 nbx 3 14 0 100 0 1 empty empty 16 -12 8 0 10 -262144
-1 -1 0 256;
#X obj 13 344 nbx 3 14 0 100 0 1 empty empty 17 -12 8 0 10 -262144
-1 -1 0 256;
#X obj 13 364 nbx 3 14 0 100 0 1 empty empty 18 -12 8 0 10 -262144
-1 -1 0 256;
#X obj 57 203 j.parameter send/10 @type decimal @range 0 100;
#X obj 57 223 j.parameter send/11 @type decimal @range 0 100;
#X obj 57 243 j.parameter send/12 @type decimal @range 0 100;
#X obj 57 262 j.parameter send/13 @type decimal @range 0 100;
#X obj 57 283 j.parameter send/14 @type decimal @range 0 100;
#X obj 57 303 j.parameter send/15 @type decimal @range 0 100;
#X obj 57 324 j.parameter send/16 @type decimal @range 0 100;
#X obj 57 343 j.parameter send/17 @type decimal @range 0 100;
#X obj 57 363 j.parameter send/18 @type decimal @range 0 100;
#X obj 13 384 nbx 3 14 0 100 0 1 empty empty 19 -12 8 0 10 -262144
-1 -1 0 256;
#X obj 13 404 nbx 3 14 0 100 0 1 empty empty 20 -12 8 0 10 -262144
-1 -1 0 256;
#X obj 57 384 j.parameter send/19 @type decimal @range 0 100;
#X obj 57 403 j.parameter send/20 @type decimal @range 0 100;
#X obj -89 17 t f;
#X obj -89 -7 inlet;
#X obj 57 23 j.parameter send/1 @type decimal @range 0 100;
#X obj 57 2 j.model @description "Multi out parameter sender";
#X obj 9 433 nbx 3 14 0 100 0 1 empty empty empty -7 8 0 10 -262144
-1 -1 0 256;
#X obj 53 432 j.parameter send/fx/vague.1/level @type decimal @range
0 100;
#X obj 9 453 nbx 3 14 0 100 0 1 empty empty empty -7 8 0 10 -262144
-1 -1 0 256;
#X obj 53 452 j.parameter send/fx/vague.1/largeur @type decimal @range
0 100, f 63;
#X obj 9 473 nbx 3 14 0 100 0 1 empty empty empty -7 8 0 10 -262144
-1 -1 0 256;
#X text 2 501 -------;
#X obj 9 493 nbx 3 14 0 100 0 1 empty empty empty -7 8 0 10 -262144
-1 -1 0 256;
#X obj 9 513 nbx 3 14 0 100 0 1 empty empty empty -7 8 0 10 -262144
-1 -1 0 256;
#X text 2 541 -------;
#X obj 9 533 nbx 3 14 0 100 0 1 empty empty empty -7 8 0 10 -262144
-1 -1 0 256;
#X obj 9 553 nbx 3 14 0 100 0 1 empty empty empty -7 8 0 10 -262144
-1 -1 0 256;
#X text 2 581 -------;
#X obj 9 573 nbx 3 14 0 100 0 1 empty empty empty -7 8 0 10 -262144
-1 -1 0 256;
#X obj 53 472 j.parameter send/fx/vague.2/level @type decimal @range
0 100;
#X obj 53 492 j.parameter send/fx/vague.2/largeur @type decimal @range
0 100, f 63;
#X obj 53 512 j.parameter send/fx/vague.3/level @type decimal @range
0 100;
#X obj 54 532 j.parameter send/fx/vague.3/largeur @type decimal @range
0 100, f 63;
#X obj 53 552 j.parameter send/fx/foret/level @type decimal @range
0 100;
#X obj 53 572 j.parameter send/fx/foret/speed @type decimal @range
0 100;
#X text 2 461 -------;
#X obj 9 593 nbx 3 14 0 100 0 1 empty empty empty -7 8 0 10 -262144
-1 -1 0 256;
#X text 2 621 -------;
#X obj 9 613 nbx 3 14 0 100 0 1 empty empty empty -7 8 0 10 -262144
-1 -1 0 256;
#X obj 53 592 j.parameter send/fx/Rwalk/level @type decimal @range
0 100;
#X obj 53 612 j.parameter send/fx/Rwalk/speed @type decimal @range
0 100;
#N canvas 0 122 969 338 bus_fx 0;
#X obj 56 25 inlet;
#X obj 96 268 *;
#X obj 96 168 t b f;
#X obj 123 191 / 100;
#X obj 96 25 inlet;
#X obj 96 289 bus lum/vague/1/level;
#X obj 56 211 * 1;
#X obj 166 268 *;
#X obj 166 168 t b f;
#X obj 193 191 / 100;
#X obj 166 25 inlet;
#X obj 236 267 *;
#X obj 236 167 t b f;
#X obj 263 190 / 100;
#X obj 236 24 inlet;
#X obj 306 267 *;
#X obj 306 167 t b f;
#X obj 333 190 / 100;
#X obj 306 24 inlet;
#X obj 376 267 *;
#X obj 376 167 t b f;
#X obj 403 190 / 100;
#X obj 376 24 inlet;
#X obj 446 267 *;
#X obj 446 167 t b f;
#X obj 473 190 / 100;
#X obj 446 24 inlet;
#X obj 516 267 *;
#X obj 516 167 t b f;
#X obj 543 190 / 100;
#X obj 516 24 inlet;
#X obj 586 267 *;
#X obj 586 167 t b f;
#X obj 613 190 / 100;
#X obj 586 24 inlet;
#X obj 656 267 *;
#X obj 656 167 t b f;
#X obj 683 190 / 100;
#X obj 656 24 inlet;
#X obj 726 267 *;
#X obj 726 167 t b f;
#X obj 753 190 / 100;
#X obj 726 24 inlet;
#X obj 236 288 bus lum/vague/2/level;
#X obj 376 288 bus lum/vague/3/level;
#X obj 516 288 bus lum/foret/level;
#X obj 166 308 bus lum/vague/1/largeur;
#X obj 306 308 bus lum/vague/2/largeur;
#X obj 446 308 bus lum/vague/3/largeur;
#X obj 586 308 bus lum/foret/speed;
#X obj 726 308 bus lum/Rwalk/speed;
#X obj 656 288 bus lum/Rwalk/level;
#X obj 4 117 loadbang;
#X msg 4 139 1;
#X connect 0 0 6 0;
#X connect 1 0 5 0;
#X connect 2 0 1 0;
#X connect 2 1 3 0;
#X connect 3 0 1 1;
#X connect 4 0 2 0;
#X connect 6 0 1 0;
#X connect 6 0 7 0;
#X connect 6 0 11 0;
#X connect 6 0 15 0;
#X connect 6 0 19 0;
#X connect 6 0 23 0;
#X connect 6 0 27 0;
#X connect 6 0 31 0;
#X connect 6 0 35 0;
#X connect 6 0 39 0;
#X connect 7 0 46 0;
#X connect 8 0 7 0;
#X connect 8 1 9 0;
#X connect 9 0 7 1;
#X connect 10 0 8 0;
#X connect 11 0 43 0;
#X connect 12 0 11 0;
#X connect 12 1 13 0;
#X connect 13 0 11 1;
#X connect 14 0 12 0;
#X connect 15 0 47 0;
#X connect 16 0 15 0;
#X connect 16 1 17 0;
#X connect 17 0 15 1;
#X connect 18 0 16 0;
#X connect 19 0 44 0;
#X connect 20 0 19 0;
#X connect 20 1 21 0;
#X connect 21 0 19 1;
#X connect 22 0 20 0;
#X connect 23 0 48 0;
#X connect 24 0 23 0;
#X connect 24 1 25 0;
#X connect 25 0 23 1;
#X connect 26 0 24 0;
#X connect 27 0 45 0;
#X connect 28 0 27 0;
#X connect 28 1 29 0;
#X connect 29 0 27 1;
#X connect 30 0 28 0;
#X connect 31 0 49 0;
#X connect 32 0 31 0;
#X connect 32 1 33 0;
#X connect 33 0 31 1;
#X connect 34 0 32 0;
#X connect 35 0 51 0;
#X connect 36 0 35 0;
#X connect 36 1 37 0;
#X connect 37 0 35 1;
#X connect 38 0 36 0;
#X connect 39 0 50 0;
#X connect 40 0 39 0;
#X connect 40 1 41 0;
#X connect 41 0 39 1;
#X connect 42 0 40 0;
#X connect 52 0 53 0;
#X connect 53 0 6 0;
#X restore -97 671 pd bus_fx;
#N canvas 556 304 920 501 bus_send1 0;
#X obj 133 99 inlet;
#X obj 184 99 inlet;
#X obj 171 302 *;
#X obj 184 220 t b f;
#X obj 171 328 bus lum1;
#X obj 244 99 inlet;
#X obj 231 302 *;
#X obj 244 220 t b f;
#X obj 304 99 inlet;
#X obj 291 302 *;
#X obj 304 220 t b f;
#X obj 364 99 inlet;
#X obj 351 302 *;
#X obj 364 220 t b f;
#X obj 424 99 inlet;
#X obj 411 302 *;
#X obj 424 220 t b f;
#X obj 484 99 inlet;
#X obj 471 302 *;
#X obj 484 220 t b f;
#X obj 544 99 inlet;
#X obj 531 302 *;
#X obj 544 220 t b f;
#X obj 604 99 inlet;
#X obj 591 302 *;
#X obj 604 220 t b f;
#X obj 664 99 inlet;
#X obj 651 302 *;
#X obj 664 220 t b f;
#X obj 131 247 * 1;
#X obj 232 328 bus lum2;
#X obj 291 328 bus lum3;
#X obj 351 328 bus lum4;
#X obj 412 328 bus lum5;
#X obj 471 328 bus lum6;
#X obj 531 328 bus lum7;
#X obj 591 328 bus lum8;
#X obj 651 328 bus lum9;
#X obj 10 398 outlet;
#X obj 184 156 / 100;
#X obj 244 156 / 100;
#X obj 304 156 / 100;
#X obj 364 156 / 100;
#X obj 424 156 / 100;
#X obj 484 156 / 100;
#X obj 544 156 / 100;
#X obj 604 156 / 100;
#X obj 664 156 / 100;
#X floatatom 78 150 5 0 0 0 - - -, f 5;
#X obj 10 124 r master_cycliode_nico;
#X connect 0 0 29 0;
#X connect 1 0 39 0;
#X connect 2 0 4 0;
#X connect 3 0 2 0;
#X connect 3 1 2 1;
#X connect 5 0 40 0;
#X connect 6 0 30 0;
#X connect 7 0 6 0;
#X connect 7 1 6 1;
#X connect 8 0 41 0;
#X connect 9 0 31 0;
#X connect 10 0 9 0;
#X connect 10 1 9 1;
#X connect 11 0 42 0;
#X connect 12 0 32 0;
#X connect 13 0 12 0;
#X connect 13 1 12 1;
#X connect 14 0 43 0;
#X connect 15 0 33 0;
#X connect 16 0 15 0;
#X connect 16 1 15 1;
#X connect 17 0 44 0;
#X connect 18 0 34 0;
#X connect 19 0 18 0;
#X connect 19 1 18 1;
#X connect 20 0 45 0;
#X connect 21 0 35 0;
#X connect 22 0 21 0;
#X connect 22 1 21 1;
#X connect 23 0 46 0;
#X connect 24 0 36 0;
#X connect 25 0 24 0;
#X connect 25 1 24 1;
#X connect 26 0 47 0;
#X connect 27 0 37 0;
#X connect 28 0 27 0;
#X connect 28 1 27 1;
#X connect 29 0 2 0;
#X connect 29 0 6 0;
#X connect 29 0 9 0;
#X connect 29 0 12 0;
#X connect 29 0 15 0;
#X connect 29 0 18 0;
#X connect 29 0 21 0;
#X connect 29 0 24 0;
#X connect 29 0 27 0;
#X connect 39 0 3 0;
#X connect 40 0 7 0;
#X connect 41 0 10 0;
#X connect 42 0 13 0;
#X connect 43 0 16 0;
#X connect 44 0 19 0;
#X connect 45 0 22 0;
#X connect 46 0 25 0;
#X connect 47 0 28 0;
#X connect 49 0 29 1;
#X connect 49 0 38 0;
#X connect 49 0 48 0;
#X restore -75 236 pd bus_send1;
#N canvas 155 234 920 501 bus_send2 0;
#X obj 133 99 inlet;
#X obj 184 99 inlet;
#X obj 171 302 *;
#X obj 184 220 t b f;
#X obj 244 99 inlet;
#X obj 231 302 *;
#X obj 244 220 t b f;
#X obj 304 99 inlet;
#X obj 291 302 *;
#X obj 304 220 t b f;
#X obj 364 99 inlet;
#X obj 351 302 *;
#X obj 364 220 t b f;
#X obj 424 99 inlet;
#X obj 411 302 *;
#X obj 424 220 t b f;
#X obj 484 99 inlet;
#X obj 471 302 *;
#X obj 484 220 t b f;
#X obj 544 99 inlet;
#X obj 531 302 *;
#X obj 544 220 t b f;
#X obj 604 99 inlet;
#X obj 591 302 *;
#X obj 604 220 t b f;
#X obj 664 99 inlet;
#X obj 651 302 *;
#X obj 664 220 t b f;
#X obj 131 247 * 1;
#X obj 98 398 outlet;
#X obj 184 147 / 100;
#X obj 244 147 / 100;
#X obj 304 147 / 100;
#X obj 364 147 / 100;
#X obj 424 147 / 100;
#X obj 484 147 / 100;
#X obj 544 147 / 100;
#X obj 604 147 / 100;
#X obj 664 147 / 100;
#X obj 171 328 bus lum10;
#X obj 291 328 bus lum12;
#X obj 351 328 bus lum13;
#X obj 412 328 bus lum14;
#X obj 471 328 bus lum15;
#X obj 531 328 bus lum16;
#X obj 591 327 bus lum17;
#X obj 651 328 bus lum18;
#X obj 724 99 inlet;
#X obj 711 302 *;
#X obj 724 220 t b f;
#X obj 724 147 / 100;
#X obj 784 99 inlet;
#X obj 771 302 *;
#X obj 784 220 t b f;
#X obj 784 147 / 100;
#X obj 711 328 bus lum19;
#X obj 771 328 bus lum20;
#X obj 10 124 r master_cycliode_nico;
#X obj 232 328 bus lum11;
#X connect 0 0 28 0;
#X connect 1 0 30 0;
#X connect 2 0 39 0;
#X connect 3 0 2 0;
#X connect 3 1 2 1;
#X connect 4 0 31 0;
#X connect 5 0 58 0;
#X connect 6 0 5 0;
#X connect 6 1 5 1;
#X connect 7 0 32 0;
#X connect 8 0 40 0;
#X connect 9 0 8 0;
#X connect 9 1 8 1;
#X connect 10 0 33 0;
#X connect 11 0 41 0;
#X connect 12 0 11 0;
#X connect 12 1 11 1;
#X connect 13 0 34 0;
#X connect 14 0 42 0;
#X connect 15 0 14 0;
#X connect 15 1 14 1;
#X connect 16 0 35 0;
#X connect 17 0 43 0;
#X connect 18 0 17 0;
#X connect 18 1 17 1;
#X connect 19 0 36 0;
#X connect 20 0 44 0;
#X connect 21 0 20 0;
#X connect 21 1 20 1;
#X connect 22 0 37 0;
#X connect 23 0 45 0;
#X connect 24 0 23 0;
#X connect 24 1 23 1;
#X connect 25 0 38 0;
#X connect 26 0 46 0;
#X connect 27 0 26 0;
#X connect 27 1 26 1;
#X connect 28 0 2 0;
#X connect 28 0 5 0;
#X connect 28 0 8 0;
#X connect 28 0 11 0;
#X connect 28 0 14 0;
#X connect 28 0 17 0;
#X connect 28 0 20 0;
#X connect 28 0 23 0;
#X connect 28 0 26 0;
#X connect 28 0 48 0;
#X connect 28 0 52 0;
#X connect 30 0 3 0;
#X connect 31 0 6 0;
#X connect 32 0 9 0;
#X connect 33 0 12 0;
#X connect 34 0 15 0;
#X connect 35 0 18 0;
#X connect 36 0 21 0;
#X connect 37 0 24 0;
#X connect 38 0 27 0;
#X connect 47 0 50 0;
#X connect 48 0 55 0;
#X connect 49 0 48 0;
#X connect 49 1 48 1;
#X connect 50 0 49 0;
#X connect 51 0 54 0;
#X connect 52 0 56 0;
#X connect 53 0 52 0;
#X connect 53 1 52 1;
#X connect 54 0 53 0;
#X connect 57 0 28 1;
#X connect 57 0 29 0;
#X restore -87 468 pd bus_send2;
#X connect 0 0 72 1;
#X connect 0 0 44 0;
#X connect 1 0 72 2;
#X connect 1 0 10 0;
#X connect 2 0 72 3;
#X connect 2 0 11 0;
#X connect 3 0 72 4;
#X connect 3 0 12 0;
#X connect 4 0 72 5;
#X connect 4 0 13 0;
#X connect 5 0 72 6;
#X connect 5 0 14 0;
#X connect 6 0 72 7;
#X connect 6 0 15 0;
#X connect 7 0 72 8;
#X connect 7 0 16 0;
#X connect 8 0 72 9;
#X connect 8 0 17 0;
#X connect 10 0 1 0;
#X connect 11 0 2 0;
#X connect 12 0 3 0;
#X connect 13 0 4 0;
#X connect 14 0 5 0;
#X connect 15 0 6 0;
#X connect 16 0 7 0;
#X connect 17 0 8 0;
#X connect 20 0 73 1;
#X connect 20 0 29 0;
#X connect 21 0 73 2;
#X connect 21 0 30 0;
#X connect 22 0 73 3;
#X connect 22 0 31 0;
#X connect 23 0 73 4;
#X connect 23 0 32 0;
#X connect 24 0 73 5;
#X connect 24 0 33 0;
#X connect 25 0 73 6;
#X connect 25 0 34 0;
#X connect 26 0 73 7;
#X connect 26 0 35 0;
#X connect 27 0 73 8;
#X connect 27 0 36 0;
#X connect 28 0 73 9;
#X connect 28 0 37 0;
#X connect 29 0 20 0;
#X connect 30 0 21 0;
#X connect 31 0 22 0;
#X connect 32 0 23 0;
#X connect 33 0 24 0;
#X connect 34 0 25 0;
#X connect 35 0 26 0;
#X connect 36 0 27 0;
#X connect 37 0 28 0;
#X connect 38 0 40 0;
#X connect 38 0 73 10;
#X connect 39 0 41 0;
#X connect 39 0 73 11;
#X connect 40 0 38 0;
#X connect 41 0 39 0;
#X connect 42 0 72 0;
#X connect 42 0 73 0;
#X connect 42 0 18 0;
#X connect 42 0 71 0;
#X connect 43 0 42 0;
#X connect 44 0 0 0;
#X connect 46 0 47 0;
#X connect 46 0 71 1;
#X connect 47 0 46 0;
#X connect 48 0 49 0;
#X connect 48 0 71 2;
#X connect 49 0 48 0;
#X connect 50 0 59 0;
#X connect 50 0 71 3;
#X connect 52 0 60 0;
#X connect 52 0 71 4;
#X connect 53 0 61 0;
#X connect 53 0 71 5;
#X connect 55 0 62 0;
#X connect 55 0 71 6;
#X connect 56 0 63 0;
#X connect 56 0 71 7;
#X connect 58 0 64 0;
#X connect 58 0 71 8;
#X connect 59 0 50 0;
#X connect 60 0 52 0;
#X connect 61 0 53 0;
#X connect 62 0 55 0;
#X connect 63 0 56 0;
#X connect 64 0 58 0;
#X connect 66 0 69 0;
#X connect 66 0 71 9;
#X connect 68 0 70 0;
#X connect 68 0 71 10;
#X connect 69 0 66 0;
#X connect 70 0 68 0;
#X coords 0 -1 1 1 50 640 2 0 0;
