#N canvas 151 224 683 641 10;
#X obj 101 101 numbox3;
#X obj 101 121 numbox3;
#X obj 101 141 numbox3;
#X obj 101 161 numbox3;
#X obj 101 181 numbox3;
#X obj 101 201 numbox3;
#X obj 101 221 numbox3;
#X obj 101 241 numbox3;
#X obj 101 261 numbox3;
#X text 91 82 busSend;
#X obj 175 120 j.remote send/2 @type decimal @range 0 100;
#X obj 175 140 j.remote send/3 @type decimal @range 0 100;
#X obj 175 160 j.remote send/4 @type decimal @range 0 100;
#X obj 175 180 j.remote send/5 @type decimal @range 0 100;
#X obj 175 200 j.remote send/6 @type decimal @range 0 100;
#X obj 175 220 j.remote send/7 @type decimal @range 0 100;
#X obj 175 240 j.remote send/8 @type decimal @range 0 100;
#X obj 175 260 j.remote send/9 @type decimal @range 0 100;
#X text 95 891 -------;
#X obj 101 281 numbox3;
#X obj 101 301 numbox3;
#X obj 101 321 numbox3;
#X obj 101 341 numbox3;
#X obj 101 361 numbox3;
#X obj 101 381 numbox3;
#X obj 101 401 numbox3;
#X obj 101 421 numbox3;
#X obj 101 441 numbox3;
#X obj 175 280 j.remote send/10 @type decimal @range 0 100;
#X obj 175 300 j.remote send/11 @type decimal @range 0 100;
#X obj 175 320 j.remote send/12 @type decimal @range 0 100;
#X obj 175 339 j.remote send/13 @type decimal @range 0 100;
#X obj 175 360 j.remote send/14 @type decimal @range 0 100;
#X obj 175 380 j.remote send/15 @type decimal @range 0 100;
#X obj 175 401 j.remote send/16 @type decimal @range 0 100;
#X obj 175 420 j.remote send/17 @type decimal @range 0 100;
#X obj 175 440 j.remote send/18 @type decimal @range 0 100;
#X obj 101 461 numbox3;
#X obj 101 481 numbox3;
#X obj 175 461 j.remote send/19 @type decimal @range 0 100;
#X obj 175 480 j.remote send/20 @type decimal @range 0 100;
#X obj 175 100 j.remote send/1 @type decimal @range 0 100;
#X obj 102 905 numbox3;
#X obj 176 904 j.remote send/fx/vague.1/level @type decimal @range
0 100;
#X obj 102 925 numbox3;
#X obj 176 924 j.remote send/fx/vague.1/largeur @type decimal @range
0 100, f 63;
#X obj 102 945 numbox3;
#X text 95 973 -------;
#X obj 102 965 numbox3;
#X obj 102 985 numbox3;
#X text 95 1013 -------;
#X obj 102 1005 numbox3;
#X obj 102 1025 numbox3;
#X text 95 1053 -------;
#X obj 102 1045 numbox3;
#X obj 176 944 j.remote send/fx/vague.2/level @type decimal @range
0 100;
#X obj 176 964 j.remote send/fx/vague.2/largeur @type decimal @range
0 100, f 63;
#X obj 176 984 j.remote send/fx/vague.3/level @type decimal @range
0 100;
#X obj 177 1004 j.remote send/fx/vague.3/largeur @type decimal @range
0 100, f 63;
#X obj 176 1024 j.remote send/fx/foret/level @type decimal @range 0
100;
#X obj 176 1044 j.remote send/fx/foret/speed @type decimal @range 0
100;
#X text 95 933 -------;
#X obj 102 1065 numbox3;
#X text 95 1093 -------;
#X obj 102 1085 numbox3;
#X obj 176 1064 j.remote send/fx/Rwalk/level @type decimal @range 0
100;
#X obj 176 1084 j.remote send/fx/Rwalk/speed @type decimal @range 0
100;
#X obj 101 501 numbox3;
#X obj 101 521 numbox3;
#X obj 101 541 numbox3;
#X obj 101 561 numbox3;
#X obj 101 581 numbox3;
#X obj 101 601 numbox3;
#X obj 101 621 numbox3;
#X obj 101 641 numbox3;
#X obj 101 661 numbox3;
#X obj 101 681 numbox3;
#X obj 101 701 numbox3;
#X obj 101 721 numbox3;
#X obj 101 741 numbox3;
#X obj 101 761 numbox3;
#X obj 101 781 numbox3;
#X obj 101 801 numbox3;
#X obj 101 821 numbox3;
#X obj 101 841 numbox3;
#X obj 101 861 numbox3;
#X obj 101 881 numbox3;
#X obj 175 500 j.remote send/21 @type decimal @range 0 100;
#X obj 175 520 j.remote send/22 @type decimal @range 0 100;
#X obj 175 539 j.remote send/23 @type decimal @range 0 100;
#X obj 175 560 j.remote send/24 @type decimal @range 0 100;
#X obj 175 580 j.remote send/25 @type decimal @range 0 100;
#X obj 175 601 j.remote send/26 @type decimal @range 0 100;
#X obj 175 620 j.remote send/27 @type decimal @range 0 100;
#X obj 175 640 j.remote send/28 @type decimal @range 0 100;
#X obj 175 661 j.remote send/29 @type decimal @range 0 100;
#X obj 175 680 j.remote send/30 @type decimal @range 0 100;
#X obj 175 700 j.remote send/31 @type decimal @range 0 100;
#X obj 175 720 j.remote send/32 @type decimal @range 0 100;
#X obj 175 739 j.remote send/33 @type decimal @range 0 100;
#X obj 175 760 j.remote send/34 @type decimal @range 0 100;
#X obj 175 780 j.remote send/35 @type decimal @range 0 100;
#X obj 175 801 j.remote send/36 @type decimal @range 0 100;
#X obj 175 820 j.remote send/37 @type decimal @range 0 100;
#X obj 175 840 j.remote send/38 @type decimal @range 0 100;
#X obj 175 860 j.remote send/39 @type decimal @range 0 100;
#X obj 175 880 j.remote send/40 @type decimal @range 0 100;
#X obj 503 65 j.view;
#X obj 502 45 inlet;
#X obj 503 87 outlet;
#X connect 0 0 41 0;
#X connect 1 0 10 0;
#X connect 2 0 11 0;
#X connect 3 0 12 0;
#X connect 4 0 13 0;
#X connect 5 0 14 0;
#X connect 6 0 15 0;
#X connect 7 0 16 0;
#X connect 8 0 17 0;
#X connect 10 0 1 0;
#X connect 11 0 2 0;
#X connect 12 0 3 0;
#X connect 13 0 4 0;
#X connect 14 0 5 0;
#X connect 15 0 6 0;
#X connect 16 0 7 0;
#X connect 17 0 8 0;
#X connect 19 0 28 0;
#X connect 20 0 29 0;
#X connect 21 0 30 0;
#X connect 22 0 31 0;
#X connect 23 0 32 0;
#X connect 24 0 33 0;
#X connect 25 0 34 0;
#X connect 26 0 35 0;
#X connect 27 0 36 0;
#X connect 28 0 19 0;
#X connect 29 0 20 0;
#X connect 30 0 21 0;
#X connect 31 0 22 0;
#X connect 32 0 23 0;
#X connect 33 0 24 0;
#X connect 34 0 25 0;
#X connect 35 0 26 0;
#X connect 36 0 27 0;
#X connect 37 0 39 0;
#X connect 38 0 40 0;
#X connect 39 0 37 0;
#X connect 40 0 38 0;
#X connect 41 0 0 0;
#X connect 42 0 43 0;
#X connect 43 0 42 0;
#X connect 44 0 45 0;
#X connect 45 0 44 0;
#X connect 46 0 55 0;
#X connect 48 0 56 0;
#X connect 49 0 57 0;
#X connect 51 0 58 0;
#X connect 52 0 59 0;
#X connect 54 0 60 0;
#X connect 55 0 46 0;
#X connect 56 0 48 0;
#X connect 57 0 49 0;
#X connect 58 0 51 0;
#X connect 59 0 52 0;
#X connect 60 0 54 0;
#X connect 62 0 65 0;
#X connect 64 0 66 0;
#X connect 65 0 62 0;
#X connect 66 0 64 0;
#X connect 67 0 87 0;
#X connect 68 0 88 0;
#X connect 69 0 89 0;
#X connect 70 0 90 0;
#X connect 71 0 91 0;
#X connect 72 0 92 0;
#X connect 73 0 93 0;
#X connect 74 0 94 0;
#X connect 75 0 95 0;
#X connect 76 0 96 0;
#X connect 77 0 97 0;
#X connect 78 0 98 0;
#X connect 79 0 99 0;
#X connect 80 0 100 0;
#X connect 81 0 101 0;
#X connect 82 0 102 0;
#X connect 83 0 103 0;
#X connect 84 0 104 0;
#X connect 85 0 105 0;
#X connect 86 0 106 0;
#X connect 87 0 67 0;
#X connect 88 0 68 0;
#X connect 89 0 69 0;
#X connect 90 0 70 0;
#X connect 91 0 71 0;
#X connect 92 0 72 0;
#X connect 93 0 73 0;
#X connect 94 0 74 0;
#X connect 95 0 75 0;
#X connect 96 0 76 0;
#X connect 97 0 77 0;
#X connect 98 0 78 0;
#X connect 99 0 79 0;
#X connect 100 0 80 0;
#X connect 101 0 81 0;
#X connect 102 0 82 0;
#X connect 103 0 83 0;
#X connect 104 0 84 0;
#X connect 105 0 85 0;
#X connect 106 0 86 0;
#X connect 107 0 109 0;
#X connect 108 0 107 0;
#X coords 0 -1 1 1 56 1005 1 100 100;
