#N canvas 411 141 450 300 10;
#X obj 137 58 r simulation_light_\$1;
#X obj 293 58 inlet;
#X obj 343 58 inlet;
#X obj 393 58 inlet;
#X obj 62 107 gemhead;
#X obj 62 129 color 0 0 0 0;
#X obj 137 79 mapping/iir 10;
#X msg 137 103 \$1 \$1 \$1 \$1;
#X obj 62 211 translateXYZ;
#X obj 62 260 circle 1;
#X connect 0 0 6 0;
#X connect 1 0 8 1;
#X connect 2 0 8 2;
#X connect 3 0 9 1;
#X connect 4 0 5 0;
#X connect 5 0 8 0;
#X connect 6 0 7 0;
#X connect 7 0 5 1;
#X connect 8 0 9 0;
