#N canvas 592 23 769 699 10;
#X obj 266 713 *;
#X obj 266 768 f;
#X obj 266 747 t b f;
#X obj 266 789 pack f f;
#N canvas 37 450 240 188 table-\$1 0;
#N canvas 296 261 627 288 (subpatch) 0;
#X array \$0-vague-\$1 1 float 1;
#A 0 1.56239e-05;
#X coords 0 1 1 0 200 140 1 0 0;
#X restore 15 19 graph;
#X restore 502 791 pd table-\$1;
#X floatatom 220 45 5 0 0 0 - - -, f 5;
#X obj 134 8 loadbang;
#X obj 134 34 tgl 15 0 empty empty empty 17 7 0 10 -262144 -1 -1 1
1;
#X obj 134 54 metro 20;
#X obj 134 303 until;
#X obj 134 385 f;
#X obj 184 385 + 1;
#X obj 134 430 t f f, f 8;
#X obj 134 680 tabread4 gauss;
#X obj 134 538 /;
#X obj 134 560 * 12;
#X obj 134 582 + 60;
#X floatatom 251 425 5 0 0 0 - - -, f 5;
#X floatatom 211 425 5 0 0 0 - - -, f 5;
#X obj 211 445 t b f;
#X obj 252 499 -;
#X floatatom 252 521 5 0 0 0 - - -, f 5;
#X obj 134 610 -;
#X obj 134 632 * 200;
#X obj 134 654 + 500;
#X obj 219 224 f 0;
#X floatatom 241 590 5 0 0 0 - - -, f 5;
#X text 2 216 number of projector;
#X text 242 226 start index;
#X text 195 406 start and end notes;
#X text 240 570 wave width;
#X floatatom 143 146 5 0 0 0 - - -, f 5;
#X obj 272 320 s vague-\$1;
#X msg 331 271 const 0;
#X obj 134 114 t b b f b;
#X obj 134 90 f;
#X obj 134 487 -;
#X floatatom 234 192 5 0 0 0 - - -, f 5;
#X obj 122 218 f 26;
#X obj 227 265 change;
#X msg 226 288 resize \$1;
#X obj 220 16 inlet;
#N canvas 0 22 1160 568 output 0;
#X obj 98 268 bus effet1;
#X obj 138 298 bus effet2;
#X obj 168 268 bus effet3;
#X obj 208 298 bus effet4;
#X obj 238 268 bus effet5;
#X obj 278 298 bus effet6;
#X obj 308 268 bus effet7;
#X obj 348 298 bus effet8;
#X obj 379 269 bus effet9;
#X obj 418 298 bus effet10;
#X obj 448 269 bus effet11;
#X obj 518 269 bus effet13;
#X obj 588 269 bus effet15;
#X obj 660 270 bus effet17;
#X obj 731 270 bus effet19;
#X obj 801 270 bus effet21;
#X obj 871 270 bus effet23;
#X obj 488 298 bus effet12;
#X obj 557 298 bus effet14;
#X obj 628 298 bus effet16;
#X obj 697 298 bus effet18;
#X obj 767 298 bus effet20;
#X obj 837 298 bus effet22;
#X obj 907 298 bus effet24;
#X obj 100 205 route 0 1 2 3 4 5 6 7 8 9 10 11 12 13 14 15 16 17 18
19 20 21 22 23, f 137;
#X obj 100 174 inlet;
#X connect 24 0 0 0;
#X connect 24 1 1 0;
#X connect 24 2 2 0;
#X connect 24 3 3 0;
#X connect 24 4 4 0;
#X connect 24 5 5 0;
#X connect 24 6 6 0;
#X connect 24 7 7 0;
#X connect 24 8 8 0;
#X connect 24 9 9 0;
#X connect 24 10 10 0;
#X connect 24 11 17 0;
#X connect 24 12 11 0;
#X connect 24 13 18 0;
#X connect 24 14 12 0;
#X connect 24 15 19 0;
#X connect 24 16 13 0;
#X connect 24 17 20 0;
#X connect 24 18 14 0;
#X connect 24 19 21 0;
#X connect 24 20 15 0;
#X connect 24 21 22 0;
#X connect 24 22 16 0;
#X connect 24 23 23 0;
#X connect 25 0 24 0;
#X restore 266 811 pd output;
#X obj 134 280 t f f, f 9;
#X floatatom 278 648 5 0 0 0 - - -, f 5;
#X text 254 46 spot position;
#X obj 134 759 tabwrite \$0-vague-\$1;
#X obj 242 83 loadbang;
#X msg 242 105 24;
#X msg 272 106 0;
#X obj 423 289 loadbang;
#X msg 340 522 200;
#X msg 357 327 45;
#X msg 445 324 70;
#X obj 177 144 j.parameter \$1/proj/range @type integer @description
"number of projectors to use";
#X obj 205 355 j.parameter \$1/input/min @type decimal @dataspace time
@unit midinote;
#X obj 444 409 j.parameter \$1/input/max @type decimal @dataspace time
@unit midinote;
#X obj 285 591 j.parameter \$1/proj/width @type decimal @description
"spread width of light blob";
#X obj 314 639 j.parameter \$1/level @type decimal @range 0 1 @description
"output level";
#X obj 268 190 j.parameter \$1/proj/position @type integer @description
"projector index to start with";
#X connect 0 0 2 0;
#X connect 1 0 3 0;
#X connect 2 0 1 0;
#X connect 2 1 3 1;
#X connect 3 0 42 0;
#X connect 5 0 35 1;
#X connect 6 0 7 0;
#X connect 7 0 8 0;
#X connect 8 0 35 0;
#X connect 9 0 10 0;
#X connect 10 0 11 0;
#X connect 10 0 12 0;
#X connect 11 0 10 1;
#X connect 12 0 36 0;
#X connect 12 1 1 1;
#X connect 12 1 46 1;
#X connect 13 0 0 0;
#X connect 13 0 46 0;
#X connect 14 0 15 0;
#X connect 15 0 16 0;
#X connect 16 0 22 0;
#X connect 17 0 20 0;
#X connect 17 0 56 0;
#X connect 18 0 19 0;
#X connect 18 0 55 0;
#X connect 19 0 20 0;
#X connect 19 1 20 1;
#X connect 19 1 16 1;
#X connect 20 0 21 0;
#X connect 20 0 15 1;
#X connect 22 0 23 0;
#X connect 23 0 24 0;
#X connect 24 0 13 0;
#X connect 25 0 10 1;
#X connect 25 0 36 1;
#X connect 26 0 23 1;
#X connect 26 0 57 0;
#X connect 31 0 38 1;
#X connect 31 0 54 0;
#X connect 33 0 32 0;
#X connect 34 0 38 0;
#X connect 34 1 25 0;
#X connect 34 2 22 1;
#X connect 34 3 33 0;
#X connect 35 0 34 0;
#X connect 36 0 14 0;
#X connect 37 0 25 1;
#X connect 37 0 59 0;
#X connect 38 0 39 0;
#X connect 38 0 43 0;
#X connect 39 0 40 0;
#X connect 40 0 32 0;
#X connect 41 0 5 0;
#X connect 43 0 9 0;
#X connect 43 1 14 1;
#X connect 44 0 58 0;
#X connect 47 0 48 0;
#X connect 47 0 49 0;
#X connect 48 0 31 0;
#X connect 49 0 37 0;
#X connect 50 0 52 0;
#X connect 50 0 53 0;
#X connect 50 0 51 0;
#X connect 51 0 57 0;
#X connect 52 0 55 0;
#X connect 53 0 56 0;
#X connect 54 0 31 0;
#X connect 55 0 18 0;
#X connect 56 0 17 0;
#X connect 57 0 26 0;
#X connect 58 0 44 0;
#X connect 58 0 0 1;
#X connect 59 0 37 0;
