#N canvas 242 107 1218 553 10;
#X floatatom 406 214 5 0 0 0 - - -, f 5;
#X obj 774 277 r \$1/pitch;
#X floatatom 774 299 5 0 0 0 - - -, f 5;
#X floatatom 406 195 5 0 0 0 - - -, f 5;
#X obj 406 131 nbx 3 14 -99 100 0 1 empty empty empty 0 -8 0 10 -262144
-1 -1 22 256;
#X obj 406 151 nbx 3 14 0 1000 0 1 empty empty empty 0 -8 0 10 -262144
-1 -1 275 256;
#X obj 406 171 nbx 3 14 0 1000 0 0 empty empty empty 0 -8 0 10 -262144
-1 -1 29 256;
#X floatatom 471 81 5 0 0 0 - - -, f 5;
#X obj 673 151 print env-follower;
#X msg 490 106 dump;
#X obj 464 106 vsl 15 128 0 100 0 0 empty empty empty 0 -9 0 10 -262144
-1 -1 607 1;
#X text 342 130 threshold;
#X text 372 150 gain;
#X text 354 171 release;
#X text 359 195 pitch;
#X text 335 214 brightness;
#X floatatom 409 289 5 0 0 0 - - -, f 5;
#X floatatom 409 309 5 0 0 0 - - -, f 5;
#X floatatom 409 269 5 100 300 0 - - -, f 5;
#X floatatom 409 349 5 0 200 0 - - -, f 5;
#X floatatom 443 289 5 0 0 0 - - -, f 5;
#X floatatom 443 309 5 0 0 0 - - -, f 5;
#X floatatom 443 269 5 100 300 0 - - -, f 5;
#X floatatom 443 349 5 0 200 0 - - -, f 5;
#X text 365 267 width;
#X text 365 348 level;
#X text 360 307 in max;
#X text 360 287 in min;
#X floatatom 443 414 5 0 0 0 - - -, f 5;
#X floatatom 443 434 5 0 0 0 - - -, f 5;
#X floatatom 443 394 5 0 0 0 - - -, f 5;
#X floatatom 443 454 5 0 0 0 - - -, f 5;
#X floatatom 443 374 5 1 48 0 - - -, f 5;
#X floatatom 443 474 5 0 0 0 - - -, f 5;
#X text 362 372 range;
#X text 345 392 position;
#X text 345 412 freq min;
#X text 345 432 freq max;
#X text 345 452 scale 1;
#X text 345 472 scale 2;
#X obj 490 131 j.remote \$1/env-follower/threshold;
#X obj 490 151 j.remote \$1/env-follower/gain;
#X obj 490 171 j.remote \$1/env-follower/release;
#X obj 490 191 j.receive \$1/pitch;
#X obj 490 212 j.receive \$1/brightness;
#X obj 489 268 j.remote \$1/pitch/proj/width;
#X obj 489 288 j.remote \$1/pitch/input/min;
#X obj 489 308 j.remote \$1/pitch/input/max;
#X obj 489 348 j.remote \$1/pitch/level;
#X obj 130 268 j.remote \$1/brightness/proj/width;
#X obj 130 288 j.remote \$1/brightness/input/min;
#X obj 130 308 j.remote \$1/brightness/input/max;
#X obj 130 348 j.remote \$1/brightness/level;
#X obj 489 373 j.remote \$1/constantq/freq/bandnumber;
#X obj 489 413 j.remote \$1/constantq/freq/min;
#X obj 489 433 j.remote \$1/constantq/freq/max;
#X obj 489 453 j.remote \$1/constantq/scale.1;
#X obj 464 59 j.receive \$1/env-follower/loudness;
#X obj 489 473 j.remote \$1/constantq/scale.2;
#X floatatom 443 494 5 0 200 0 - - -, f 5;
#X text 345 492 level;
#X floatatom 409 329 5 0 0 0 - - -, f 5;
#X floatatom 443 329 5 0 0 0 - - -, f 5;
#X text 342 327 in smooth;
#X obj 489 328 j.remote \$1/pitch/input/smoothing;
#X obj 95 328 j.remote \$1/brightness/input/smoothing;
#X obj 489 493 j.remote \$1/constantq/proj/level;
#X obj 489 393 j.remote \$1/constantq/proj/offset;
#X obj 444 106 vsl 15 128 0 100 0 0 empty empty empty 0 -9 0 10 -262144
-1 -1 2734 1;
#X obj 424 39 j.receive \$1/env-follower/loudness_pre;
#X obj 490 231 cyclone/speedlim 100;
#X obj 264 76 cyclone/speedlim 100;
#X floatatom 264 98 5 0 0 0 - - -, f 5;
#X text 402 250 bright pitch;
#X connect 1 0 2 0;
#X connect 4 0 40 0;
#X connect 5 0 41 0;
#X connect 6 0 42 0;
#X connect 9 0 40 0;
#X connect 16 0 50 0;
#X connect 17 0 51 0;
#X connect 18 0 49 0;
#X connect 19 0 52 0;
#X connect 20 0 46 0;
#X connect 21 0 47 0;
#X connect 22 0 45 0;
#X connect 23 0 48 0;
#X connect 28 0 54 0;
#X connect 29 0 55 0;
#X connect 30 0 67 0;
#X connect 31 0 56 0;
#X connect 32 0 53 0;
#X connect 33 0 58 0;
#X connect 40 0 4 0;
#X connect 40 1 8 0;
#X connect 41 0 5 0;
#X connect 42 0 6 0;
#X connect 43 0 3 0;
#X connect 44 0 70 0;
#X connect 45 0 22 0;
#X connect 46 0 20 0;
#X connect 47 0 21 0;
#X connect 48 0 23 0;
#X connect 49 0 18 0;
#X connect 50 0 16 0;
#X connect 51 0 17 0;
#X connect 52 0 19 0;
#X connect 53 0 32 0;
#X connect 54 0 28 0;
#X connect 55 0 29 0;
#X connect 56 0 31 0;
#X connect 57 0 7 0;
#X connect 57 0 10 0;
#X connect 58 0 33 0;
#X connect 59 0 66 0;
#X connect 61 0 65 0;
#X connect 62 0 64 0;
#X connect 64 0 62 0;
#X connect 65 0 61 0;
#X connect 66 0 59 0;
#X connect 67 0 30 0;
#X connect 69 0 71 0;
#X connect 70 0 0 0;
#X connect 71 0 68 0;
#X connect 71 0 72 0;
#X coords 0 -1 1 1 80 450 1 400 100;
