#N canvas 242 107 1218 553 10;
#X floatatom 406 214 5 0 0 0 - - -, f 5;
#X obj 709 277 r \$1/pitch;
#X floatatom 709 299 5 0 0 0 - - -, f 5;
#X floatatom 406 195 5 0 0 0 - - -, f 5;
#X obj 406 131 nbx 3 14 -99 100 0 1 empty empty empty 0 -8 0 10 -262144
-1 -1 0 256;
#X obj 406 151 nbx 3 14 0 1000 0 1 empty empty empty 0 -8 0 10 -262144
-1 -1 0 256;
#X obj 406 171 nbx 3 14 0 1000 0 0 empty empty empty 0 -8 0 10 -262144
-1 -1 0 256;
#X floatatom 471 81 5 0 0 0 - - -, f 5;
#X obj 673 151 print env-follower;
#X msg 490 106 dump;
#X obj 464 106 vsl 15 128 0 100 0 0 empty empty empty 0 -9 0 10 -262144
-1 -1 0 1;
#X text 342 130 threshold;
#X text 372 150 gain;
#X text 354 171 release;
#X text 359 195 pitch;
#X text 335 214 brightness;
#X floatatom 409 259 5 0 0 0 - - -, f 5;
#X floatatom 409 279 5 0 0 0 - - -, f 5;
#X floatatom 409 319 5 0 0 0 - - -, f 5;
#X floatatom 409 339 5 0 0 0 - - -, f 5;
#X floatatom 409 299 5 0 200 0 - - -, f 5;
#X floatatom 409 379 5 0 200 0 - - -, f 5;
#X floatatom 443 259 5 0 0 0 - - -, f 5;
#X floatatom 443 279 5 0 0 0 - - -, f 5;
#X floatatom 443 319 5 0 0 0 - - -, f 5;
#X floatatom 443 339 5 0 0 0 - - -, f 5;
#X floatatom 443 299 5 0 200 0 - - -, f 5;
#X floatatom 443 379 5 0 200 0 - - -, f 5;
#X text 365 257 range;
#X text 348 277 position;
#X text 365 297 width;
#X text 365 378 level;
#X text 360 337 in max;
#X text 360 317 in min;
#X floatatom 443 444 5 0 0 0 - - -, f 5;
#X floatatom 443 464 5 0 0 0 - - -, f 5;
#X floatatom 443 424 5 0 0 0 - - -, f 5;
#X floatatom 443 484 5 0 0 0 - - -, f 5;
#X floatatom 443 404 5 0 0 0 - - -, f 5;
#X floatatom 443 504 5 0 0 0 - - -, f 5;
#X text 362 402 range;
#X text 345 422 position;
#X text 345 442 freq min;
#X text 345 462 freq max;
#X text 345 482 scale 1;
#X text 345 502 scale 2;
#X obj 490 131 j.remote \$1/env-follower/threshold;
#X obj 490 151 j.remote \$1/env-follower/gain;
#X obj 490 171 j.remote \$1/env-follower/release;
#X obj 490 191 j.receive \$1/pitch;
#X obj 490 212 j.receive \$1/brightness;
#X obj 489 258 j.remote \$1/pitch/proj/range;
#X obj 489 298 j.remote \$1/pitch/proj/width;
#X obj 489 318 j.remote \$1/pitch/input/min;
#X obj 489 338 j.remote \$1/pitch/input/max;
#X obj 489 378 j.remote \$1/pitch/level;
#X obj 130 258 j.remote \$1/brightness/proj/range;
#X obj 130 298 j.remote \$1/brightness/proj/width;
#X obj 130 318 j.remote \$1/brightness/input/min;
#X obj 130 338 j.remote \$1/brightness/input/max;
#X obj 130 378 j.remote \$1/brightness/level;
#X obj 489 403 j.remote \$1/constantq/freq/bandnumber;
#X obj 489 443 j.remote \$1/constantq/freq/min;
#X obj 489 463 j.remote \$1/constantq/freq/max;
#X obj 489 483 j.remote \$1/constantq/scale.1;
#X obj 464 59 j.receive \$1/env-follower/loudness;
#X obj 489 503 j.remote \$1/constantq/scale.2;
#X floatatom 443 524 5 0 200 0 - - -, f 5;
#X text 345 522 level;
#X floatatom 409 359 5 0 0 0 - - -, f 5;
#X floatatom 443 359 5 0 0 0 - - -, f 5;
#X text 342 357 in smooth;
#X obj 489 358 j.remote \$1/pitch/input/smoothing;
#X obj 95 358 j.remote \$1/brightness/input/smoothing;
#X obj 489 523 j.remote \$1/constantq/proj/level;
#X obj 489 423 j.remote \$1/constantq/proj/offset;
#X obj 489 278 j.remote \$1/pitch/proj/offset;
#X obj 130 278 j.remote \$1/brightness/proj/offset;
#X obj 444 106 vsl 15 128 0 100 0 0 empty empty empty 0 -9 0 10 -262144
-1 -1 2288 1;
#X obj 424 39 j.receive \$1/env-follower/loudness_pre;
#X obj 490 231 cyclone/speedlim 100;
#X obj 264 76 cyclone/speedlim 100;
#X floatatom 264 98 5 0 0 0 - - -, f 5;
#X text 402 242 bright pitch;
#X connect 1 0 2 0;
#X connect 4 0 46 0;
#X connect 5 0 47 0;
#X connect 6 0 48 0;
#X connect 9 0 46 0;
#X connect 16 0 56 0;
#X connect 17 0 77 0;
#X connect 18 0 58 0;
#X connect 19 0 59 0;
#X connect 20 0 57 0;
#X connect 21 0 60 0;
#X connect 22 0 51 0;
#X connect 23 0 76 0;
#X connect 24 0 53 0;
#X connect 25 0 54 0;
#X connect 26 0 52 0;
#X connect 27 0 55 0;
#X connect 34 0 62 0;
#X connect 35 0 63 0;
#X connect 36 0 75 0;
#X connect 37 0 64 0;
#X connect 38 0 61 0;
#X connect 39 0 66 0;
#X connect 46 0 4 0;
#X connect 46 1 8 0;
#X connect 47 0 5 0;
#X connect 48 0 6 0;
#X connect 49 0 3 0;
#X connect 50 0 80 0;
#X connect 51 0 22 0;
#X connect 52 0 26 0;
#X connect 53 0 24 0;
#X connect 54 0 25 0;
#X connect 55 0 27 0;
#X connect 56 0 16 0;
#X connect 57 0 20 0;
#X connect 58 0 18 0;
#X connect 59 0 19 0;
#X connect 60 0 21 0;
#X connect 61 0 38 0;
#X connect 62 0 34 0;
#X connect 63 0 35 0;
#X connect 64 0 37 0;
#X connect 65 0 7 0;
#X connect 65 0 10 0;
#X connect 66 0 39 0;
#X connect 67 0 74 0;
#X connect 69 0 73 0;
#X connect 70 0 72 0;
#X connect 72 0 70 0;
#X connect 73 0 69 0;
#X connect 74 0 67 0;
#X connect 75 0 36 0;
#X connect 76 0 23 0;
#X connect 77 0 17 0;
#X connect 79 0 81 0;
#X connect 80 0 0 0;
#X connect 81 0 78 0;
#X connect 81 0 82 0;
#X coords 0 -1 1 1 80 450 1 400 100;
