#N canvas 253 204 694 535 10;
#X floatatom 109 214 5 0 0 0 - - -, f 5;
#X obj 409 277 r \$1/pitch;
#X floatatom 409 299 5 0 0 0 - - -, f 5;
#X floatatom 109 195 5 0 0 0 - - -, f 5;
#X obj 109 131 nbx 3 14 -99 100 0 1 empty empty empty 0 -8 0 10 -262144
-1 -1 0 256;
#X obj 109 151 nbx 3 14 0 100 0 1 empty empty empty 0 -8 0 10 -262144
-1 -1 0 256;
#X obj 109 171 nbx 3 14 0 1000 0 0 empty empty empty 0 -8 0 10 -262144
-1 -1 0 256;
#X floatatom 157 81 5 0 0 0 - - -, f 5;
#X obj 373 151 print env-follower;
#X msg 190 106 dump;
#X obj 150 59 j.receive env-follower/loudness;
#X obj 150 106 vsl 15 128 0 100 0 0 empty empty empty 0 -9 0 10 -262144
-1 -1 0 1;
#X text 42 130 threshold;
#X text 72 150 gain;
#X text 54 171 release;
#X text 59 195 pitch;
#X text 35 214 brightness;
#X floatatom 109 253 5 0 0 0 - - -, f 5;
#X floatatom 109 273 5 0 0 0 - - -, f 5;
#X floatatom 109 313 5 0 0 0 - - -, f 5;
#X floatatom 109 333 5 0 0 0 - - -, f 5;
#X floatatom 109 293 5 0 0 0 - - -, f 5;
#X floatatom 109 353 5 0 0 0 - - -, f 5;
#X floatatom 143 253 5 0 0 0 - - -, f 5;
#X floatatom 143 273 5 0 0 0 - - -, f 5;
#X floatatom 143 313 5 0 0 0 - - -, f 5;
#X floatatom 143 333 5 0 0 0 - - -, f 5;
#X floatatom 143 293 5 0 0 0 - - -, f 5;
#X floatatom 143 353 5 0 0 0 - - -, f 5;
#X text 65 251 range;
#X text 48 271 position;
#X text 65 291 width;
#X text 65 352 level;
#X text 60 331 in max;
#X text 60 311 in min;
#X floatatom 143 424 5 0 0 0 - - -, f 5;
#X floatatom 143 444 5 0 0 0 - - -, f 5;
#X floatatom 143 404 5 0 0 0 - - -, f 5;
#X floatatom 143 464 5 0 0 0 - - -, f 5;
#X floatatom 143 384 5 0 0 0 - - -, f 5;
#X floatatom 143 484 5 0 0 0 - - -, f 5;
#X text 62 382 range;
#X text 45 402 position;
#X text 45 422 freq min;
#X text 45 442 freq max;
#X text 45 462 scale 1;
#X text 45 482 scale 2;
#X obj 190 131 j.remote \$1/env-follower/threshold;
#X obj 190 151 j.remote \$1/env-follower/gain;
#X obj 190 171 j.remote \$1/env-follower/release;
#X obj 190 191 j.receive \$1/pitch;
#X obj 190 212 j.receive \$1/brightness;
#X obj 189 252 j.remote \$1/pitch/proj/range;
#X obj 189 272 j.remote \$1/pitch/proj/position;
#X obj 189 292 j.remote \$1/pitch/proj/width;
#X obj 189 312 j.remote \$1/pitch/input/min;
#X obj 189 332 j.remote \$1/pitch/input/max;
#X obj 189 352 j.remote \$1/pitch/level;
#X obj -170 252 j.remote \$1/brightness/proj/range;
#X obj -170 272 j.remote \$1/brightness/proj/position;
#X obj -170 292 j.remote \$1/brightness/proj/width;
#X obj -170 312 j.remote \$1/brightness/input/min;
#X obj -170 332 j.remote \$1/brightness/input/max;
#X obj -170 352 j.remote \$1/brightness/level;
#X obj 189 383 j.remote \$1/constantq/freq/bandnumber;
#X obj 189 403 j.remote \$1/proj/position;
#X obj 189 423 j.remote \$1/constantq/freq/min;
#X obj 189 443 j.remote \$1/constantq/freq/max;
#X obj 189 463 j.remote \$1/constantq/scale.1;
#X obj 189 483 j.remote vconstantq/scale.2;
#X connect 1 0 2 0;
#X connect 4 0 47 0;
#X connect 5 0 48 0;
#X connect 6 0 49 0;
#X connect 9 0 47 0;
#X connect 10 0 7 0;
#X connect 10 0 11 0;
#X connect 17 0 58 0;
#X connect 18 0 59 0;
#X connect 19 0 61 0;
#X connect 20 0 62 0;
#X connect 21 0 60 0;
#X connect 22 0 63 0;
#X connect 23 0 52 0;
#X connect 24 0 53 0;
#X connect 25 0 55 0;
#X connect 26 0 56 0;
#X connect 27 0 54 0;
#X connect 28 0 57 0;
#X connect 35 0 66 0;
#X connect 36 0 67 0;
#X connect 37 0 65 0;
#X connect 38 0 68 0;
#X connect 39 0 64 0;
#X connect 40 0 69 0;
#X connect 47 0 4 0;
#X connect 47 1 8 0;
#X connect 48 0 5 0;
#X connect 49 0 6 0;
#X connect 50 0 3 0;
#X connect 51 0 0 0;
#X connect 52 0 23 0;
#X connect 53 0 24 0;
#X connect 54 0 27 0;
#X connect 55 0 25 0;
#X connect 56 0 26 0;
#X connect 57 0 28 0;
#X connect 58 0 17 0;
#X connect 59 0 18 0;
#X connect 60 0 21 0;
#X connect 61 0 19 0;
#X connect 62 0 20 0;
#X connect 63 0 22 0;
#X connect 64 0 39 0;
#X connect 65 0 37 0;
#X connect 66 0 35 0;
#X connect 67 0 36 0;
#X connect 68 0 38 0;
#X connect 69 0 40 0;
#X coords 0 -1 1 1 80 400 1 100 100;
