#N canvas 184 179 1219 316 10;
#X declare -stdpath grrrr;
#X obj 263 8 inlet~;
#X obj 324 133 tID/specBrightness~;
#X floatatom 286 229 5 0 0 0 - - -, f 5;
#X obj 324 95 bang~;
#X obj 324 215 mapping/iir 5;
#X obj 324 257 * 127;
#X obj 676 108 unpack;
#X obj 721 160 mapping/iir 5;
#X obj 606 86 fiddle~ 2048 1 1 0;
#X obj 676 130 moses 30;
#X floatatom 795 118 5 0 0 0 - - -, f 5;
#X floatatom 334 175 5 0 0 0 - - -, f 5;
#X floatatom 840 178 5 0 0 0 - - -, f 5;
#X obj 829 238 s /\$1/pitch;
#X obj 100 173 env-follower.model \$1/env-follower;
#X obj 376 169 j.parameter \$1/spec/filter @type decimal @default 5
@description "iir filter coefficient";
#X obj 367 257 j.return \$1/brightness @description "Brightness after
iir";
#X obj 782 57 constantq.model \$1/constantq;
#X obj 837 112 j.parameter \$1/pitch/filter @type decimal @default
5 @description "iir filter coefficient";
#X obj 767 209 j.return \$1/pitch @description "Tracked pitch after
iir";
#X obj 324 289 spot.model \$1/brightness;
#X obj 721 257 spot.model \$1/pitch;
#X obj 100 243 send.model \$1/send;
#X connect 0 0 1 0;
#X connect 0 0 8 0;
#X connect 0 0 14 0;
#X connect 0 0 17 0;
#X connect 1 0 4 0;
#X connect 3 0 1 0;
#X connect 4 0 5 0;
#X connect 4 0 16 0;
#X connect 5 0 2 0;
#X connect 5 0 20 0;
#X connect 6 0 9 0;
#X connect 7 0 12 0;
#X connect 7 0 13 0;
#X connect 7 0 19 0;
#X connect 7 0 21 0;
#X connect 8 2 6 0;
#X connect 9 1 7 0;
#X connect 10 0 7 1;
#X connect 10 0 18 0;
#X connect 11 0 4 1;
#X connect 11 0 15 0;
#X connect 14 0 22 0;
#X connect 15 0 11 0;
#X connect 18 0 10 0;
