#N canvas 74 247 778 677 10;
#X obj 311 45 metro 20;
#X obj 314 16 tgl 15 0 empty empty empty 17 7 0 10 -262144 -1 -1 1
1;
#X obj 338 88 f;
#X obj 311 67 t b b;
#X obj 398 76 fmod 1000;
#X floatatom 314 118 5 0 0 0 - - -, f 5;
#X obj 287 201 until;
#X obj 287 223 f;
#X obj 312 223 + 1;
#X obj 287 245 t f f;
#X obj 287 142 t b b;
#X msg 330 180 0;
#X obj 287 272 * 10;
#X obj 287 294 +;
#X obj 287 317 fmod 1000;
#X obj 372 465 *;
#X obj 372 520 f;
#X obj 372 499 t b f;
#X obj 372 541 pack f f;
#X obj 247 615 bus effet1;
#X obj 287 645 bus effet2;
#X obj 317 615 bus effet3;
#X obj 357 645 bus effet4;
#X obj 387 615 bus effet5;
#X obj 427 645 bus effet6;
#X obj 457 615 bus effet7;
#X obj 497 645 bus effet8;
#X obj 528 616 bus effet9;
#X obj 419 184 + 0;
#X obj 330 143 moses 0 1000;
#X obj 368 192 + 1000;
#X obj 537 172 - 64;
#X obj 537 193 / 5;
#X obj 287 347 tabread4 gauss;
#X obj 444 142 nbx 5 14 -1e+37 1e+37 0 1 empty empty empty 0 -8 0 10
-262144 -1 -1 -12.8 256;
#X obj 335 16 loadbang;
#X obj 288 416 tabwrite vague-\$1;
#X obj 537 138 max;
#X obj 537 78 t b f;
#X obj 563 100 * 2;
#N canvas 25 333 247 180 table-\$1 0;
#N canvas 296 261 627 288 (subpatch) 0;
#X array vague-\$1 10 float 1;
#A 0 0.00154521 0.00154521 0.00154521 0.00154521 0.00154521 0.00154521
0.00154521 0.00154521 0.00154521 0.900238;
#X coords 0 1 8 0 200 140 1 0 0;
#X restore 15 19 graph;
#X restore 125 402 pd table-\$1;
#X obj 372 569 route 0 1 2 3 4 5 6 7 8;
#X msg 287 164 9;
#X floatatom 537 55 5 0 0 0 - - -, f 5;
#X text 572 55 speed;
#X floatatom 390 244 5 0 0 0 - - -, f 5;
#X text 422 242 largeur;
#X floatatom 460 368 5 0 0 0 - - -, f 5;
#X text 493 368 level;
#X connect 0 0 3 0;
#X connect 1 0 0 0;
#X connect 2 0 5 0;
#X connect 2 0 28 0;
#X connect 2 0 29 0;
#X connect 3 0 10 0;
#X connect 3 1 2 0;
#X connect 4 0 2 1;
#X connect 6 0 7 0;
#X connect 7 0 8 0;
#X connect 7 0 9 0;
#X connect 8 0 7 1;
#X connect 9 0 12 0;
#X connect 9 1 16 1;
#X connect 9 1 36 1;
#X connect 10 0 42 0;
#X connect 10 1 11 0;
#X connect 11 0 7 1;
#X connect 12 0 13 0;
#X connect 13 0 14 0;
#X connect 14 0 33 0;
#X connect 15 0 17 0;
#X connect 16 0 18 0;
#X connect 17 0 16 0;
#X connect 17 1 18 1;
#X connect 18 0 41 0;
#X connect 28 0 4 0;
#X connect 29 0 30 0;
#X connect 29 1 13 1;
#X connect 30 0 13 1;
#X connect 31 0 32 0;
#X connect 32 0 34 0;
#X connect 33 0 15 0;
#X connect 33 0 36 0;
#X connect 34 0 28 1;
#X connect 35 0 1 0;
#X connect 37 0 31 0;
#X connect 38 0 37 0;
#X connect 38 1 39 0;
#X connect 39 0 37 1;
#X connect 41 0 19 0;
#X connect 41 1 20 0;
#X connect 41 2 21 0;
#X connect 41 3 22 0;
#X connect 41 4 23 0;
#X connect 41 5 24 0;
#X connect 41 6 25 0;
#X connect 41 7 26 0;
#X connect 41 8 27 0;
#X connect 42 0 6 0;
#X connect 43 0 38 0;
#X connect 45 0 12 1;
#X connect 47 0 15 1;
