#N canvas 330 169 778 677 10;
#X obj 338 88 f;
#X floatatom 335 31 5 0 0 0 - - -, f 5;
#X obj 287 201 until;
#X obj 287 223 f;
#X obj 312 223 + 1;
#X obj 287 245 t f f;
#X msg 330 180 0;
#X obj 287 272 * 10;
#X obj 287 294 +;
#X obj 372 465 *;
#X obj 372 520 f;
#X obj 372 499 t b f;
#X obj 372 541 pack f f;
#X obj 247 615 bus effet1;
#X obj 287 645 bus effet2;
#X obj 317 615 bus effet3;
#X obj 357 645 bus effet4;
#X obj 387 615 bus effet5;
#X obj 427 645 bus effet6;
#X obj 457 615 bus effet7;
#X obj 497 645 bus effet8;
#X obj 528 616 bus effet9;
#X obj 355 140 moses 0 1000;
#X obj 368 192 + 1000;
#X obj 287 347 tabread4 gauss;
#X obj 288 416 tabwrite vague-\$1;
#N canvas 25 333 247 180 table-\$1 1;
#N canvas 296 261 627 288 (subpatch) 0;
#X array vague-\$1 24 float 1;
#A 0 0.019756 0.778034 0.383478 0.00236552 0.000587237 0.210845 0.947445
0.053283 3.7503e-05 0.0187361 0.767572 0.393552 0.00252539 0.000545942
0.203909 0.953165 0.0557625 4.08282e-05 0.0177626 0.756983 0.403745
0.00269508 0.000507376 1.56239e-05;
#X coords 0 1 23 0 200 140 1 0 0;
#X restore 15 19 graph;
#X restore 125 402 pd table-\$1;
#X obj 372 569 route 0 1 2 3 4 5 6 7 8;
#X floatatom 420 243 5 0 0 0 - - -, f 5;
#X text 460 239 largeur;
#X msg 287 164 23;
#X obj 287 317 fmod 1000;
#X obj 287 132 t b b f;
#N canvas 320 257 450 300 gauss 0;
#X obj 26 13 inlet;
#X obj 27 253 outlet;
#X obj 27 124 exp;
#X obj 26 61 t f f;
#X obj 27 83 *;
#X obj 27 103 * -1;
#X connect 0 0 3 0;
#X connect 2 0 1 0;
#X connect 3 0 4 0;
#X connect 3 1 4 1;
#X connect 4 0 5 0;
#X connect 5 0 2 0;
#X restore 51 436 pd gauss;
#X connect 0 0 22 0;
#X connect 1 0 0 0;
#X connect 2 0 3 0;
#X connect 3 0 4 0;
#X connect 3 0 5 0;
#X connect 4 0 3 1;
#X connect 5 0 7 0;
#X connect 5 1 10 1;
#X connect 5 1 25 1;
#X connect 6 0 3 1;
#X connect 7 0 8 0;
#X connect 8 0 31 0;
#X connect 9 0 11 0;
#X connect 10 0 12 0;
#X connect 11 0 10 0;
#X connect 11 1 12 1;
#X connect 12 0 27 0;
#X connect 22 0 23 0;
#X connect 22 1 8 1;
#X connect 23 0 8 1;
#X connect 24 0 9 0;
#X connect 24 0 25 0;
#X connect 27 0 13 0;
#X connect 27 1 14 0;
#X connect 27 2 15 0;
#X connect 27 3 16 0;
#X connect 27 4 17 0;
#X connect 27 5 18 0;
#X connect 27 6 19 0;
#X connect 27 7 20 0;
#X connect 27 8 21 0;
#X connect 28 0 7 1;
#X connect 30 0 2 0;
#X connect 31 0 24 0;
#X connect 32 0 30 0;
#X connect 32 1 6 0;
