#N canvas 0 22 628 396 10;
#N canvas 424 76 687 816 4vague 1;
#X obj 142 754 s;
#X obj 117 152 until;
#X obj 118 83 metro 30;
#X obj 117 59 tgl 15 0 empty empty empty 17 7 0 10 -262144 -1 -1 1
1;
#X obj 116 33 loadbang;
#X obj 154 215 + 1;
#X obj 135 184 f;
#X msg 166 157 0;
#X obj 117 102 t b b;
#X obj 84 103 bng 15 250 50 0 empty empty empty 17 7 0 10 -262144 -1
-1;
#X obj 384 504 max;
#X obj 259 575 max;
#X obj 142 679 max;
#X msg 117 124 9;
#X obj 378 121 t b b b b;
#N canvas 133 151 863 647 vague 0;
#X obj 127 129 t b f;
#X obj 123 424 random 1000;
#X obj 123 446 / 1000;
#X obj 123 470 *;
#X obj 123 494 +;
#N canvas 326 230 450 300 gauss 0;
#X obj 26 13 inlet;
#X obj 27 253 outlet;
#X obj 27 124 exp;
#X obj 26 61 t f f;
#X obj 27 83 *;
#X obj 27 103 * -1;
#X connect 0 0 3 0;
#X connect 2 0 1 0;
#X connect 3 0 4 0;
#X connect 3 1 4 1;
#X connect 4 0 5 0;
#X connect 5 0 2 0;
#X restore 298 511 pd gauss;
#X obj 125 532 *;
#X obj 300 490 / 2;
#X obj 403 188 + 3.5;
#X obj 452 226 + 3.5;
#X obj 438 398 abs;
#X obj 439 418 + 0.5;
#X obj 401 163 rnd_flow 2 80 120;
#X obj 450 199 rnd_flow 2 80 120;
#X obj 437 370 rnd_flow 1 100 150;
#X obj 167 276 + 0.5;
#X obj 168 252 rnd_flow 1 100 150;
#X obj 136 346 - 1;
#X obj 136 367 abs;
#X obj 136 305 min 1;
#X obj 136 325 max 0;
#X obj 401 130 t b;
#X obj 302 235 -;
#X obj 129 571 outlet;
#X obj 125 73 inlet;
#X obj 392 82 inlet;
#X connect 0 0 1 0;
#X connect 0 1 22 0;
#X connect 1 0 2 0;
#X connect 2 0 3 0;
#X connect 3 0 4 0;
#X connect 4 0 6 0;
#X connect 5 0 6 1;
#X connect 6 0 23 0;
#X connect 7 0 5 0;
#X connect 8 0 22 1;
#X connect 10 0 11 0;
#X connect 11 0 7 1;
#X connect 12 0 8 0;
#X connect 13 0 9 0;
#X connect 14 0 10 0;
#X connect 15 0 19 0;
#X connect 16 0 15 0;
#X connect 17 0 18 0;
#X connect 18 0 3 1;
#X connect 19 0 20 0;
#X connect 20 0 17 0;
#X connect 20 0 4 1;
#X connect 21 0 12 0;
#X connect 21 0 13 0;
#X connect 21 0 14 0;
#X connect 21 0 16 0;
#X connect 22 0 7 0;
#X connect 24 0 0 0;
#X connect 25 0 21 0;
#X restore 457 376 pd vague;
#N canvas 299 166 762 579 vague 0;
#X obj 157 368 random 1000;
#X obj 157 390 / 1000;
#X obj 157 414 *;
#X obj 157 438 +;
#X obj 334 171 -;
#N canvas 326 230 450 300 gauss 0;
#X obj 26 13 inlet;
#X obj 27 253 outlet;
#X obj 27 124 exp;
#X obj 26 61 t f f;
#X obj 27 83 *;
#X obj 27 103 * -1;
#X connect 0 0 3 0;
#X connect 2 0 1 0;
#X connect 3 0 4 0;
#X connect 3 1 4 1;
#X connect 4 0 5 0;
#X connect 5 0 2 0;
#X restore 332 455 pd gauss;
#X obj 159 476 *;
#X obj 334 434 / 2;
#X obj 437 132 + 3.5;
#X obj 486 170 + 3.5;
#X obj 472 342 abs;
#X obj 473 362 + 0.5;
#X obj 435 107 rnd_flow 2 80 120;
#X obj 484 143 rnd_flow 2 80 120;
#X obj 471 314 rnd_flow 1 100 150;
#X obj 201 220 + 0.5;
#X obj 202 196 rnd_flow 1 100 150;
#X obj 170 290 - 1;
#X obj 170 311 abs;
#X obj 170 249 min 1;
#X obj 170 269 max 0;
#X obj 435 74 t b;
#X obj 161 73 t b f f;
#X obj 161 30 inlet;
#X obj 437 37 inlet;
#X obj 153 514 outlet;
#X connect 0 0 1 0;
#X connect 1 0 2 0;
#X connect 2 0 3 0;
#X connect 3 0 6 0;
#X connect 4 0 7 0;
#X connect 5 0 6 1;
#X connect 6 0 25 0;
#X connect 7 0 5 0;
#X connect 8 0 4 1;
#X connect 10 0 11 0;
#X connect 11 0 7 1;
#X connect 12 0 8 0;
#X connect 13 0 9 0;
#X connect 14 0 10 0;
#X connect 15 0 19 0;
#X connect 16 0 15 0;
#X connect 17 0 18 0;
#X connect 18 0 2 1;
#X connect 19 0 20 0;
#X connect 20 0 17 0;
#X connect 20 0 3 1;
#X connect 21 0 12 0;
#X connect 21 0 13 0;
#X connect 21 0 14 0;
#X connect 21 0 16 0;
#X connect 22 0 0 0;
#X connect 22 1 4 0;
#X connect 23 0 22 0;
#X connect 24 0 21 0;
#X restore 337 375 pd vague;
#N canvas 267 167 716 654 vague 0;
#X obj -1033 -896 random 1000;
#X obj -1033 -874 / 1000;
#X obj -1033 -850 *;
#X obj -1033 -826 +;
#X obj -849 -1060 -;
#N canvas 326 230 450 300 gauss 0;
#X obj 26 13 inlet;
#X obj 27 253 outlet;
#X obj 27 124 exp;
#X obj 26 61 t f f;
#X obj 27 83 *;
#X obj 27 103 * -1;
#X connect 0 0 3 0;
#X connect 2 0 1 0;
#X connect 3 0 4 0;
#X connect 3 1 4 1;
#X connect 4 0 5 0;
#X connect 5 0 2 0;
#X restore -851 -852 pd gauss;
#X obj -1033 -798 *;
#X obj -849 -873 / 2;
#X obj -753 -1112 + 3.5;
#X obj -780 -1022 abs;
#X obj -780 -1001 + 0.5;
#X obj -755 -1137 rnd_flow 2 80 120;
#X obj -780 -1050 rnd_flow 1 100 150;
#X obj -989 -1044 + 0.5;
#X obj -988 -1068 rnd_flow 1 100 150;
#X obj -1020 -974 - 1;
#X obj -1020 -953 abs;
#X obj -1020 -1015 min 1;
#X obj -1020 -995 max 0;
#X obj -755 -1170 t b;
#X obj -1029 -1191 t b f f;
#X obj -1036 -1263 inlet;
#X obj -754 -1237 inlet;
#X obj -1029 -759 outlet;
#X connect 0 0 1 0;
#X connect 1 0 2 0;
#X connect 2 0 3 0;
#X connect 3 0 6 0;
#X connect 4 0 7 0;
#X connect 5 0 6 1;
#X connect 6 0 23 0;
#X connect 7 0 5 0;
#X connect 8 0 4 1;
#X connect 9 0 10 0;
#X connect 10 0 7 1;
#X connect 11 0 8 0;
#X connect 12 0 9 0;
#X connect 13 0 17 0;
#X connect 14 0 13 0;
#X connect 15 0 16 0;
#X connect 16 0 2 1;
#X connect 17 0 18 0;
#X connect 18 0 15 0;
#X connect 18 0 3 1;
#X connect 19 0 11 0;
#X connect 19 0 12 0;
#X connect 19 0 14 0;
#X connect 20 0 0 0;
#X connect 20 1 4 0;
#X connect 21 0 20 0;
#X connect 22 0 19 0;
#X restore 238 402 pd vague;
#X obj 263 225 t f f f f f;
#N canvas 187 272 753 560 vague 0;
#X obj 128 383 random 1000;
#X obj 128 405 / 1000;
#X obj 128 429 *;
#X obj 128 453 +;
#X obj 306 217 -;
#N canvas 322 248 450 300 gauss 0;
#X obj 26 13 inlet;
#X obj 27 253 outlet;
#X obj 27 124 exp;
#X obj 26 61 t f f;
#X obj 27 83 *;
#X obj 27 103 * -1;
#X connect 0 0 3 0;
#X connect 2 0 1 0;
#X connect 3 0 4 0;
#X connect 3 1 4 1;
#X connect 4 0 5 0;
#X connect 5 0 2 0;
#X restore 306 445 pd gauss;
#X obj 130 491 *;
#X obj 306 424 / 2;
#X obj 365 175 + 3.5;
#X obj 392 330 abs;
#X obj 392 350 + 0.5;
#X obj 365 154 rnd_flow 2 80 120;
#X obj 172 235 + 0.5;
#X obj 173 211 rnd_flow 1 100 150;
#X obj 141 305 - 1;
#X obj 141 326 abs;
#X obj 141 264 min 1;
#X obj 141 284 max 0;
#X obj 406 112 t b;
#X obj 392 310 rnd_flow 1.5 100 150;
#X obj 133 88 t b f f f;
#X obj 124 46 inlet;
#X obj 126 520 outlet;
#X obj 411 66 inlet;
#X connect 0 0 1 0;
#X connect 1 0 2 0;
#X connect 2 0 3 0;
#X connect 3 0 6 0;
#X connect 4 0 7 0;
#X connect 5 0 6 1;
#X connect 6 0 22 0;
#X connect 7 0 5 0;
#X connect 8 0 4 1;
#X connect 9 0 10 0;
#X connect 10 0 7 1;
#X connect 11 0 8 0;
#X connect 12 0 16 0;
#X connect 13 0 12 0;
#X connect 14 0 15 0;
#X connect 15 0 2 1;
#X connect 16 0 17 0;
#X connect 17 0 14 0;
#X connect 17 0 3 1;
#X connect 18 0 11 0;
#X connect 18 0 13 0;
#X connect 18 0 19 0;
#X connect 19 0 9 0;
#X connect 20 0 0 0;
#X connect 20 2 4 0;
#X connect 21 0 20 0;
#X connect 23 0 18 0;
#X restore 148 402 pd vague;
#X msg 474 629 symbol rnd_wave_\$1;
#X obj 142 709 * 0;
#X obj 225 123 -;
#X msg 224 100 200 \$1;
#X obj 225 174 nbx 5 14 -1e+37 1e+37 0 1 empty empty empty 0 -8 0 10
-262144 -1 -1 44.1373 256;
#X obj 224 80 * 2;
#X obj 224 60 bus_master /Rwalk/speed;
#X obj -18 602 bus_master /Rwalk/level;
#X obj -18 624 / 1;
#X obj 225 145 + 1;
#X connect 1 0 6 0;
#X connect 2 0 8 0;
#X connect 3 0 2 0;
#X connect 4 0 3 0;
#X connect 5 0 6 1;
#X connect 6 0 5 0;
#X connect 6 0 18 0;
#X connect 7 0 6 1;
#X connect 8 0 13 0;
#X connect 8 1 7 0;
#X connect 8 1 14 0;
#X connect 9 0 8 0;
#X connect 10 0 11 1;
#X connect 11 0 12 1;
#X connect 12 0 21 0;
#X connect 13 0 1 0;
#X connect 14 0 19 1;
#X connect 14 1 17 1;
#X connect 14 2 16 1;
#X connect 14 3 15 1;
#X connect 15 0 10 1;
#X connect 16 0 10 0;
#X connect 17 0 11 0;
#X connect 18 0 19 0;
#X connect 18 1 17 0;
#X connect 18 2 16 0;
#X connect 18 3 15 0;
#X connect 18 4 20 0;
#X connect 19 0 12 0;
#X connect 20 0 0 1;
#X connect 21 0 0 0;
#X connect 22 0 29 0;
#X connect 23 0 22 0;
#X connect 24 0 2 1;
#X connect 25 0 23 0;
#X connect 26 0 25 0;
#X connect 27 0 28 0;
#X connect 28 0 21 1;
#X connect 29 0 24 0;
#X restore 174 117 pd 4vague;
#X obj 34 220 r rnd_wave_0;
#X obj 114 220 r rnd_wave_1;
#X obj 194 220 r rnd_wave_2;
#X obj 275 220 r rnd_wave_3;
#X obj 354 220 r rnd_wave_4;
#X obj 44 260 r rnd_wave_5;
#X obj 124 260 r rnd_wave_6;
#X obj 204 260 r rnd_wave_7;
#X obj 284 260 r rnd_wave_8;
#X obj 364 260 r rnd_wave_9;
#X obj 34 240 bus effet1;
#X obj 114 240 bus effet2;
#X obj 194 240 bus effet3;
#X obj 274 240 bus effet4;
#X obj 354 240 bus effet5;
#X obj 44 280 bus effet6;
#X obj 124 279 bus effet7;
#X obj 204 280 bus effet8;
#X obj 284 280 bus effet9;
#X obj 364 280 bus effet10;
#X connect 1 0 11 0;
#X connect 2 0 12 0;
#X connect 3 0 13 0;
#X connect 4 0 14 0;
#X connect 5 0 15 0;
#X connect 6 0 16 0;
#X connect 7 0 17 0;
#X connect 8 0 18 0;
#X connect 9 0 19 0;
#X connect 10 0 20 0;
