#N canvas 66 23 1212 895 10;
#X obj 266 543 *;
#X obj 266 598 f;
#X obj 266 577 t b f;
#X obj 266 619 pack f f;
#X obj 174 687 bus effet1;
#X obj 214 717 bus effet2;
#X obj 244 687 bus effet3;
#X obj 284 717 bus effet4;
#X obj 314 687 bus effet5;
#X obj 354 717 bus effet6;
#X obj 384 687 bus effet7;
#X obj 424 717 bus effet8;
#X obj 455 688 bus effet9;
#N canvas 17 656 240 188 table-\$1 1;
#N canvas 296 261 627 288 (subpatch) 0;
#X array vague-\$1 22 float 1;
#A 0 1.56239e-05 1.56239e-05 1.56239e-05 1.56239e-05 1.56239e-05 1.56239e-05
1.56239e-05 1.56239e-05 1.56239e-05 1.56239e-05 1.56239e-05 1.56239e-05
1.56239e-05 1.56239e-05 1.56239e-05 1.56239e-05 1.56239e-05 1.56239e-05
1.56239e-05 1.56239e-05 1.56239e-05 1.56239e-05;
#X coords 0 1 21 0 200 140 1 0 0;
#X restore 15 19 graph;
#X restore 502 761 pd table-\$1;
#X floatatom 193 75 5 0 0 0 - - -, f 5;
#X obj 98 19 loadbang;
#X obj 98 45 tgl 15 0 empty empty empty 17 7 0 10 -262144 -1 -1 1 1
;
#X obj 98 65 metro 20;
#X obj 134 223 until;
#X obj 134 245 f;
#X obj 159 245 + 1;
#X obj 134 267 t f f;
#X obj 134 510 tabread4 gauss;
#X obj 134 589 tabwrite vague-\$1;
#X obj 134 368 /;
#X obj 134 390 * 12;
#X obj 134 412 + 60;
#X floatatom 251 285 5 0 0 0 - - -, f 5;
#X floatatom 211 285 5 0 0 0 - - -, f 5;
#X obj 211 305 t b f;
#X obj 252 359 -;
#X floatatom 252 381 5 0 0 0 - - -, f 5;
#X obj 134 440 -;
#X obj 134 462 * 200;
#X obj 134 484 + 500;
#X obj 164 185 f 0;
#X floatatom 178 466 5 0 0 0 - - -, f 5;
#X text 237 76 pitch input;
#X text 15 187 number of projector;
#X text 187 187 start index;
#X text 195 266 start and end notes;
#X text 177 446 wave width;
#X floatatom 349 110 5 0 0 0 - - -, f 5;
#X obj 272 240 s vague-\$1;
#X msg 272 218 const 0;
#X obj 134 154 t b b f b;
#X obj 107 100 f;
#X obj 134 347 -;
#X obj 383 268 j.parameter ambitus/min @type decimal @dataspace time
@unit midinote;
#X obj 494 717 bus effet10;
#X obj 524 688 bus effet11;
#X obj 594 688 bus effet13;
#X obj 664 688 bus effet15;
#X obj 736 689 bus effet17;
#X obj 807 689 bus effet19;
#X obj 877 689 bus effet21;
#X obj 947 689 bus effet23;
#X obj 564 717 bus effet12;
#X obj 633 717 bus effet14;
#X obj 704 717 bus effet16;
#X obj 773 717 bus effet18;
#X obj 843 717 bus effet20;
#X obj 913 717 bus effet22;
#X obj 983 717 bus effet24;
#X obj 383 308 j.parameter ambitus/max @type decimal @dataspace time
@unit midinote;
#X obj 383 108 j.parameter proj/range @type integer @description "number
of projectors to use";
#X floatatom 349 150 5 0 0 0 - - -, f 5;
#X obj 383 148 j.parameter proj/offset @type integer @description "projector
index to start with";
#X obj 263 418 j.parameter proj/spread @type decimal @description "spread
width of light blob";
#X obj 378 11 inlet;
#X obj 378 33 * 1;
#X obj 447 39 hsl 128 15 0 127 0 0 empty empty empty -2 -8 0 10 -262144
-1 -1 12700 1;
#X obj 444 59 / 127;
#X obj 441 10 inlet;
#X msg 36 294 24 \$1;
#X obj 36 316 -;
#X obj 134 185 f 26;
#X obj 266 647 route 24 23 22 21 20 19 18 17 16 15 14 13 12 11 10 9
8 7 6 5 4 3 2 1 0 25, f 137;
#X obj 291 137 change;
#X msg 292 183 resize \$1;
#X obj 1027 689 bus effet25;
#X obj 1063 717 bus effet26;
#X obj 983 168 j.model;
#X obj 982 140 inlet;
#X obj 977 197 outlet;
#X obj 196 2 inlet;
#X connect 0 0 2 0;
#X connect 1 0 3 0;
#X connect 2 0 1 0;
#X connect 2 1 3 1;
#X connect 3 0 77 0;
#X connect 14 0 46 1;
#X connect 15 0 16 0;
#X connect 16 0 17 0;
#X connect 17 0 46 0;
#X connect 18 0 19 0;
#X connect 19 0 20 0;
#X connect 19 0 21 0;
#X connect 20 0 19 1;
#X connect 21 0 74 0;
#X connect 21 0 47 0;
#X connect 21 1 23 1;
#X connect 21 1 1 1;
#X connect 22 0 23 0;
#X connect 22 0 0 0;
#X connect 24 0 25 0;
#X connect 25 0 26 0;
#X connect 26 0 32 0;
#X connect 27 0 30 0;
#X connect 27 0 64 0;
#X connect 28 0 29 0;
#X connect 28 0 48 0;
#X connect 29 0 30 0;
#X connect 29 1 30 1;
#X connect 29 1 26 1;
#X connect 30 0 31 0;
#X connect 30 0 25 1;
#X connect 32 0 33 0;
#X connect 33 0 34 0;
#X connect 34 0 22 0;
#X connect 35 0 19 1;
#X connect 35 0 47 1;
#X connect 36 0 33 1;
#X connect 36 0 68 0;
#X connect 42 0 65 0;
#X connect 42 0 76 1;
#X connect 44 0 43 0;
#X connect 45 0 76 0;
#X connect 45 1 35 0;
#X connect 45 2 32 1;
#X connect 45 3 44 0;
#X connect 46 0 45 0;
#X connect 47 0 24 0;
#X connect 48 0 28 0;
#X connect 64 0 27 0;
#X connect 65 0 42 0;
#X connect 66 0 35 1;
#X connect 66 0 67 0;
#X connect 67 0 66 0;
#X connect 68 0 36 0;
#X connect 69 0 70 0;
#X connect 70 0 0 1;
#X connect 71 0 72 0;
#X connect 72 0 70 1;
#X connect 73 0 71 0;
#X connect 74 0 75 0;
#X connect 76 0 18 0;
#X connect 76 0 24 1;
#X connect 76 0 78 0;
#X connect 77 0 4 0;
#X connect 77 1 5 0;
#X connect 77 2 6 0;
#X connect 77 3 7 0;
#X connect 77 4 8 0;
#X connect 77 5 9 0;
#X connect 77 6 10 0;
#X connect 77 7 11 0;
#X connect 77 8 12 0;
#X connect 77 9 49 0;
#X connect 77 10 50 0;
#X connect 77 11 57 0;
#X connect 77 12 51 0;
#X connect 77 13 58 0;
#X connect 77 14 52 0;
#X connect 77 15 59 0;
#X connect 77 16 53 0;
#X connect 77 17 60 0;
#X connect 77 18 54 0;
#X connect 77 19 61 0;
#X connect 77 20 55 0;
#X connect 77 21 62 0;
#X connect 77 22 56 0;
#X connect 77 23 63 0;
#X connect 77 24 80 0;
#X connect 77 25 81 0;
#X connect 78 0 79 0;
#X connect 79 0 43 0;
#X connect 82 0 84 0;
#X connect 83 0 82 0;
#X connect 85 0 14 0;
