#N canvas 44 311 773 556 12;
#X msg 148 390 disconnect;
#X obj 67 220 bng 25 250 50 0 empty empty empty 0 -6 0 10 -4034 -1
-1;
#X obj 126 506 print backward;
#X obj 73 501 tgl 15 0 empty empty empty 17 7 0 10 -262144 -1 -1 1
1;
#X obj 140 32 loadbang;
#X obj 140 57 t b b;
#X obj 201 138 != 1;
#X obj 141 196 metro 1000;
#X obj 140 169 tgl 15 0 empty empty empty 17 7 0 10 -262144 -1 -1 0
1;
#X msg 140 137 1;
#X obj 73 472 netsend;
#X obj 201 112 change;
#X msg 67 256 connect localhost 3000;
#X obj 311 324 list fromsymbol;
#X obj 311 349 list append 32;
#X obj 311 374 list tosymbol;
#X msg 311 399 send \$1;
#X obj 311 299 symbol;
#X msg 300 271 play;
#X msg 342 271 stop;
#X msg 382 271 next;
#X msg 422 271 prev;
#X obj 382 194 notein;
#X obj 382 219 stripnote;
#X obj 382 244 sel 0;
#X obj 304 166 ggee/shell;
#X obj 304 88 ggee/getdir;
#X msg 304 111 killall VLC \, /Applications/VLC.app/Contents/MacOS/VLC
--playlist-autostart --play-and-pause --extraint rc --rc-host localhost:3000
\$1/../playlist.m3u;
#X obj 140 83 del 1000;
#X connect 0 0 10 0;
#X connect 1 0 12 0;
#X connect 3 0 11 0;
#X connect 4 0 5 0;
#X connect 5 0 28 0;
#X connect 5 1 26 0;
#X connect 6 0 8 0;
#X connect 7 0 12 0;
#X connect 8 0 7 0;
#X connect 9 0 8 0;
#X connect 10 0 3 0;
#X connect 10 1 2 0;
#X connect 11 0 6 0;
#X connect 12 0 10 0;
#X connect 13 0 14 0;
#X connect 14 0 15 0;
#X connect 15 0 16 0;
#X connect 16 0 10 0;
#X connect 17 0 13 0;
#X connect 18 0 17 0;
#X connect 19 0 17 0;
#X connect 20 0 17 0;
#X connect 21 0 17 0;
#X connect 22 0 23 0;
#X connect 22 1 23 1;
#X connect 23 0 24 0;
#X connect 24 0 20 0;
#X connect 26 0 27 0;
#X connect 27 0 25 0;
#X connect 28 0 9 0;
