#N canvas 527 338 938 623 12;
#X msg 67 256 connect localhost 3000;
#X msg 213 354 disconnect;
#X msg 411 388 send pause pause;
#X obj 578 269 metro 100;
#X obj 579 242 tgl 15 0 empty empty empty 0 -6 0 10 -262144 -1 -1 0
1;
#X msg 448 498 send next next;
#X floatatom 647 244 5 0 0 0 - - -, f 5;
#X msg 452 553 send goto 1;
#X msg 446 472 send stop stop;
#X msg 411 410 send voldown 1;
#X msg 411 432 send volup 1;
#X msg 420 356 send quit quit;
#X msg 429 305 send rewind rewind;
#X obj 67 220 bng 25 250 50 0 empty empty empty 0 -6 0 10 -4034 -1
-1;
#X text 555 559 for playlist items...;
#X obj 212 486 print backward;
#X obj 163 454 tgl 15 0 empty empty empty 17 7 0 10 -262144 -1 -1 1
1;
#X msg 424 330 send play play;
#X obj 140 32 loadbang;
#X obj 140 57 t b b;
#X obj 201 138 != 1;
#X obj 141 196 metro 1000;
#X obj 140 169 tgl 15 0 empty empty empty 17 7 0 10 -262144 -1 -1 0
1;
#X msg 140 137 1;
#X msg 201 291 send help help;
#X msg 383 245 send shutdown shutdown;
#X obj 366 137 iemnet/tcpsend;
#X obj 366 170 tgl 15 0 empty empty empty 17 7 0 10 -262144 -1 -1 0
1;
#X obj 438 94 list fromsymbol;
#X obj 179 400 netsend;
#X msg 301 16 connect localhost 3000;
#X msg 333 43 disconnect;
#X msg 591 100 send play play;
#X obj 571 165 mrpeach/tcpsend;
#X obj 445 191 print;
#X msg 438 66 symbol play;
#X symbolatom 637 493 10 0 0 0 - - -, f 10;
#X msg 637 520 send \$1 \$1;
#X obj 759 507 print;
#X msg 450 528 send goto goto 0 0;
#X msg 558 434 send prev prev;
#X obj 587 15 notein;
#X obj 587 43 stripnote;
#X obj 587 68 sel 0;
#X connect 0 0 29 0;
#X connect 1 0 29 0;
#X connect 2 0 29 0;
#X connect 3 0 12 0;
#X connect 4 0 3 0;
#X connect 5 0 29 0;
#X connect 6 0 3 1;
#X connect 7 0 29 0;
#X connect 8 0 29 0;
#X connect 9 0 29 0;
#X connect 10 0 29 0;
#X connect 11 0 29 0;
#X connect 12 0 29 0;
#X connect 13 0 0 0;
#X connect 17 0 29 0;
#X connect 18 0 19 0;
#X connect 19 0 23 0;
#X connect 20 0 22 0;
#X connect 21 0 0 0;
#X connect 22 0 21 0;
#X connect 23 0 22 0;
#X connect 24 0 29 0;
#X connect 25 0 29 0;
#X connect 26 0 27 0;
#X connect 28 0 26 0;
#X connect 28 0 34 0;
#X connect 29 0 16 0;
#X connect 29 0 20 0;
#X connect 30 0 26 0;
#X connect 31 0 26 0;
#X connect 32 0 26 0;
#X connect 35 0 28 0;
#X connect 36 0 37 0;
#X connect 37 0 29 0;
#X connect 37 0 38 0;
#X connect 39 0 29 0;
#X connect 40 0 29 0;
#X connect 41 0 42 0;
#X connect 41 1 42 1;
#X connect 42 0 43 0;
#X connect 43 0 5 0;
