#N canvas 855 819 366 236 10;
#N canvas 36 151 450 300 affichage 0;
#X obj 65 13 aff_ligne 0;
#X restore 36 133 pd affichage;
#N canvas 637 89 1593 925 4_vagues 1;
#X obj 68 746 s;
#X obj 107 142 until;
#X obj 108 73 metro 30;
#X obj 107 49 tgl 15 0 empty empty empty 17 7 0 10 -262144 -1 -1 1
1;
#X obj 106 23 loadbang;
#X obj 144 205 + 1, f 4;
#X obj 125 174 f;
#X msg 156 147 0;
#X obj 107 92 t b b;
#X obj 67 540 random 1000;
#X obj 67 562 / 1000;
#X obj 67 586 *;
#X obj 67 610 +;
#X obj 245 374 -;
#N canvas 322 248 450 300 gauss 0;
#X obj 26 13 inlet;
#X obj 27 253 outlet;
#X obj 27 124 exp;
#X obj 26 61 t f f;
#X obj 27 83 *;
#X obj 27 103 * -1;
#X connect 0 0 3 0;
#X connect 2 0 1 0;
#X connect 3 0 4 0;
#X connect 3 1 4 1;
#X connect 4 0 5 0;
#X connect 5 0 2 0;
#X restore 245 602 pd gauss;
#X obj 69 648 *;
#X obj 74 93 bng 15 250 50 0 empty empty empty 17 7 0 10 -262144 -1
-1;
#X obj 245 581 / 2;
#X obj 304 332 + 3.5;
#X obj 381 506 abs;
#X obj 381 526 + 0.5;
#X obj 304 311 rnd_flow 2 80 120;
#X obj 111 392 + 0.5;
#X obj 112 368 rnd_flow 1 100 150;
#X obj 80 462 - 1;
#X obj 80 483 abs;
#X obj 80 421 min 1;
#X obj 80 441 max 0;
#X obj 345 269 t b;
#X obj 527 540 random 1000;
#X obj 527 562 / 1000;
#X obj 527 586 *;
#X obj 527 610 +;
#X obj 711 376 -;
#N canvas 326 230 450 300 gauss 0;
#X obj 26 13 inlet;
#X obj 27 253 outlet;
#X obj 27 124 exp;
#X obj 26 61 t f f;
#X obj 27 83 *;
#X obj 27 103 * -1;
#X connect 0 0 3 0;
#X connect 2 0 1 0;
#X connect 3 0 4 0;
#X connect 3 1 4 1;
#X connect 4 0 5 0;
#X connect 5 0 2 0;
#X restore 709 584 pd gauss;
#X obj 527 638 *;
#X obj 711 563 / 2;
#X obj 807 324 + 3.5;
#X obj 780 414 abs;
#X obj 780 435 + 0.5;
#X obj 805 299 rnd_flow 2 80 120;
#X obj 780 386 rnd_flow 1 100 150;
#X obj 571 392 + 0.5;
#X obj 572 368 rnd_flow 1 100 150;
#X obj 540 462 - 1;
#X obj 540 483 abs;
#X obj 540 421 min 1;
#X obj 540 441 max 0;
#X obj 805 266 t b;
#X obj 967 540 random 1000;
#X obj 967 562 / 1000;
#X obj 967 586 *;
#X obj 967 610 +;
#X obj 1144 343 -;
#N canvas 326 230 450 300 gauss 0;
#X obj 26 13 inlet;
#X obj 27 253 outlet;
#X obj 27 124 exp;
#X obj 26 61 t f f;
#X obj 27 83 *;
#X obj 27 103 * -1;
#X connect 0 0 3 0;
#X connect 2 0 1 0;
#X connect 3 0 4 0;
#X connect 3 1 4 1;
#X connect 4 0 5 0;
#X connect 5 0 2 0;
#X restore 1142 627 pd gauss;
#X obj 969 648 *;
#X obj 1144 606 / 2;
#X obj 1247 304 + 3.5;
#X obj 1296 342 + 3.5;
#X obj 1282 514 abs;
#X obj 1283 534 + 0.5;
#X obj 1245 279 rnd_flow 2 80 120;
#X obj 1294 315 rnd_flow 2 80 120;
#X obj 1281 486 rnd_flow 1 100 150;
#X obj 1011 392 + 0.5;
#X obj 1012 368 rnd_flow 1 100 150;
#X obj 980 462 - 1;
#X obj 980 483 abs;
#X obj 980 421 min 1;
#X obj 980 441 max 0;
#X obj 1245 246 t b;
#X obj 1431 245 t b f;
#X obj 1427 540 random 1000;
#X obj 1427 562 / 1000;
#X obj 1427 586 *;
#X obj 1427 610 +;
#N canvas 326 230 450 300 gauss 0;
#X obj 26 13 inlet;
#X obj 27 253 outlet;
#X obj 27 124 exp;
#X obj 26 61 t f f;
#X obj 27 83 *;
#X obj 27 103 * -1;
#X connect 0 0 3 0;
#X connect 2 0 1 0;
#X connect 3 0 4 0;
#X connect 3 1 4 1;
#X connect 4 0 5 0;
#X connect 5 0 2 0;
#X restore 1602 627 pd gauss;
#X obj 1429 648 *;
#X obj 1604 606 / 2;
#X obj 1707 304 + 3.5;
#X obj 1756 342 + 3.5;
#X obj 1742 514 abs;
#X obj 1743 534 + 0.5;
#X obj 1705 279 rnd_flow 2 80 120;
#X obj 1754 315 rnd_flow 2 80 120;
#X obj 1741 486 rnd_flow 1 100 150;
#X obj 1471 392 + 0.5;
#X obj 1472 368 rnd_flow 1 100 150;
#X obj 1440 462 - 1;
#X obj 1440 483 abs;
#X obj 1440 421 min 1;
#X obj 1440 441 max 0;
#X obj 1705 246 t b;
#X obj 531 245 t b f f;
#X obj 971 245 t b f f;
#X obj 967 684 max;
#X obj 526 674 max;
#X obj 70 711 max;
#X obj 381 486 rnd_flow 1.5 100 150;
#X msg 107 114 9;
#X msg 128 677 symbol color_\$1_0;
#X obj 1606 351 -;
#X obj 72 245 t b f f f;
#X connect 1 0 6 0;
#X connect 2 0 8 0;
#X connect 3 0 2 0;
#X connect 4 0 3 0;
#X connect 5 0 6 1;
#X connect 6 0 5 0;
#X connect 6 0 102 0;
#X connect 7 0 6 1;
#X connect 8 0 99 0;
#X connect 8 1 7 0;
#X connect 8 1 28 0;
#X connect 9 0 10 0;
#X connect 10 0 11 0;
#X connect 11 0 12 0;
#X connect 12 0 15 0;
#X connect 13 0 17 0;
#X connect 14 0 15 1;
#X connect 15 0 97 0;
#X connect 16 0 8 0;
#X connect 17 0 14 0;
#X connect 18 0 13 1;
#X connect 19 0 20 0;
#X connect 20 0 17 1;
#X connect 21 0 18 0;
#X connect 22 0 26 0;
#X connect 23 0 22 0;
#X connect 24 0 25 0;
#X connect 25 0 11 1;
#X connect 26 0 27 0;
#X connect 27 0 24 0;
#X connect 27 0 12 1;
#X connect 28 0 21 0;
#X connect 28 0 23 0;
#X connect 28 0 48 0;
#X connect 28 0 98 0;
#X connect 29 0 30 0;
#X connect 30 0 31 0;
#X connect 31 0 32 0;
#X connect 32 0 35 0;
#X connect 33 0 36 0;
#X connect 34 0 35 1;
#X connect 35 0 96 0;
#X connect 36 0 34 0;
#X connect 37 0 33 1;
#X connect 38 0 39 0;
#X connect 39 0 36 1;
#X connect 40 0 37 0;
#X connect 41 0 38 0;
#X connect 42 0 46 0;
#X connect 43 0 42 0;
#X connect 44 0 45 0;
#X connect 45 0 31 1;
#X connect 46 0 47 0;
#X connect 47 0 44 0;
#X connect 47 0 32 1;
#X connect 48 0 40 0;
#X connect 48 0 41 0;
#X connect 48 0 43 0;
#X connect 48 0 70 0;
#X connect 49 0 50 0;
#X connect 50 0 51 0;
#X connect 51 0 52 0;
#X connect 52 0 55 0;
#X connect 53 0 56 0;
#X connect 54 0 55 1;
#X connect 55 0 95 0;
#X connect 56 0 54 0;
#X connect 57 0 53 1;
#X connect 59 0 60 0;
#X connect 60 0 56 1;
#X connect 61 0 57 0;
#X connect 62 0 58 0;
#X connect 63 0 59 0;
#X connect 64 0 68 0;
#X connect 65 0 64 0;
#X connect 66 0 67 0;
#X connect 67 0 51 1;
#X connect 68 0 69 0;
#X connect 69 0 66 0;
#X connect 69 0 52 1;
#X connect 70 0 61 0;
#X connect 70 0 62 0;
#X connect 70 0 63 0;
#X connect 70 0 65 0;
#X connect 70 0 92 0;
#X connect 71 0 72 0;
#X connect 71 1 101 0;
#X connect 72 0 73 0;
#X connect 73 0 74 0;
#X connect 74 0 75 0;
#X connect 75 0 77 0;
#X connect 76 0 77 1;
#X connect 77 0 95 1;
#X connect 78 0 76 0;
#X connect 79 0 101 1;
#X connect 81 0 82 0;
#X connect 82 0 78 1;
#X connect 83 0 79 0;
#X connect 84 0 80 0;
#X connect 85 0 81 0;
#X connect 86 0 90 0;
#X connect 87 0 86 0;
#X connect 88 0 89 0;
#X connect 89 0 74 1;
#X connect 90 0 91 0;
#X connect 91 0 88 0;
#X connect 91 0 75 1;
#X connect 92 0 83 0;
#X connect 92 0 84 0;
#X connect 92 0 85 0;
#X connect 92 0 87 0;
#X connect 93 0 29 0;
#X connect 93 1 33 0;
#X connect 93 2 94 0;
#X connect 94 0 49 0;
#X connect 94 1 53 0;
#X connect 94 2 71 0;
#X connect 95 0 96 1;
#X connect 96 0 97 1;
#X connect 97 0 0 0;
#X connect 98 0 19 0;
#X connect 99 0 1 0;
#X connect 100 0 0 1;
#X connect 101 0 78 0;
#X connect 102 0 9 0;
#X connect 102 2 93 0;
#X connect 102 2 13 0;
#X connect 102 3 100 0;
#X restore 36 161 pd 4_vagues;
#X obj 42 88 gemwin;
#X msg 61 28 reset \, create \, 1;
#X msg 77 54 0 \, destroy;
#N canvas 347 350 1562 705 out 0;
#X obj 21 61 bus_led 1;
#X obj 151 61 bus_led 25;
#X obj 891 240 bus_led 154;
#X obj 601 61 bus_led 97;
#X obj 151 181 bus_led 31;
#X obj 311 61 bus_led 49;
#X obj 21 221 bus_led 9;
#X obj 21 80 bus_led 2;
#X obj 21 101 bus_led 3;
#X obj 21 120 bus_led 4;
#X obj 21 141 bus_led 5;
#X obj 21 160 bus_led 6;
#X obj 21 181 bus_led 7;
#X obj 21 200 bus_led 8;
#X obj 21 240 bus_led 10;
#X obj 21 261 bus_led 11;
#X obj 21 280 bus_led 12;
#X obj 21 301 bus_led 13;
#X obj 21 320 bus_led 14;
#X obj 21 341 bus_led 15;
#X obj 21 360 bus_led 16;
#X obj 21 381 bus_led 17;
#X obj 21 400 bus_led 18;
#X obj 21 421 bus_led 19;
#X obj 21 440 bus_led 20;
#X obj 21 461 bus_led 21;
#X obj 21 480 bus_led 22;
#X obj 21 501 bus_led 23;
#X obj 21 520 bus_led 24;
#X obj 151 80 bus_led 26;
#X obj 151 101 bus_led 27;
#X obj 151 120 bus_led 28;
#X obj 151 141 bus_led 29;
#X obj 151 160 bus_led 30;
#X obj 151 200 bus_led 32;
#X obj 151 221 bus_led 33;
#X obj 151 240 bus_led 34;
#X obj 151 261 bus_led 35;
#X obj 151 280 bus_led 36;
#X obj 151 301 bus_led 37;
#X obj 151 320 bus_led 38;
#X obj 151 341 bus_led 39;
#X obj 151 360 bus_led 40;
#X obj 151 381 bus_led 41;
#X obj 151 400 bus_led 42;
#X obj 151 421 bus_led 43;
#X obj 151 440 bus_led 44;
#X obj 151 461 bus_led 45;
#X obj 151 480 bus_led 46;
#X obj 151 501 bus_led 47;
#X obj 151 520 bus_led 48;
#X obj 311 80 bus_led 50;
#X obj 311 101 bus_led 51;
#X obj 311 120 bus_led 52;
#X obj 311 141 bus_led 53;
#X obj 311 160 bus_led 54;
#X obj 311 181 bus_led 55;
#X obj 311 200 bus_led 56;
#X obj 311 221 bus_led 57;
#X obj 311 240 bus_led 58;
#X obj 311 261 bus_led 59;
#X obj 311 280 bus_led 60;
#X obj 311 301 bus_led 61;
#X obj 311 320 bus_led 62;
#X obj 311 341 bus_led 63;
#X obj 311 360 bus_led 64;
#X obj 311 381 bus_led 65;
#X obj 311 400 bus_led 66;
#X obj 311 421 bus_led 67;
#X obj 311 440 bus_led 68;
#X obj 311 461 bus_led 69;
#X obj 311 480 bus_led 70;
#X obj 311 501 bus_led 71;
#X obj 311 520 bus_led 72;
#X obj 441 61 bus_led 73;
#X obj 441 80 bus_led 74;
#X obj 441 101 bus_led 75;
#X obj 441 120 bus_led 76;
#X obj 441 141 bus_led 77;
#X obj 441 160 bus_led 78;
#X obj 441 181 bus_led 79;
#X obj 441 200 bus_led 80;
#X obj 441 221 bus_led 81;
#X obj 441 240 bus_led 82;
#X obj 441 261 bus_led 83;
#X obj 441 280 bus_led 84;
#X obj 441 301 bus_led 85;
#X obj 441 320 bus_led 86;
#X obj 441 341 bus_led 87;
#X obj 441 360 bus_led 88;
#X obj 441 381 bus_led 89;
#X obj 441 400 bus_led 90;
#X obj 441 421 bus_led 91;
#X obj 441 440 bus_led 92;
#X obj 441 461 bus_led 93;
#X obj 441 480 bus_led 94;
#X obj 441 501 bus_led 95;
#X obj 441 520 bus_led 96;
#X obj 601 80 bus_led 98;
#X obj 601 101 bus_led 99;
#X obj 600 120 bus_led 100;
#X obj 601 141 bus_led 101;
#X obj 601 160 bus_led 102;
#X obj 601 181 bus_led 103;
#X obj 601 200 bus_led 104;
#X obj 601 221 bus_led 105;
#X obj 601 240 bus_led 106;
#X obj 601 261 bus_led 107;
#X obj 600 280 bus_led 108;
#X obj 601 301 bus_led 109;
#X obj 601 320 bus_led 110;
#X obj 601 341 bus_led 111;
#X obj 601 360 bus_led 112;
#X obj 601 381 bus_led 113;
#X obj 601 400 bus_led 114;
#X obj 601 421 bus_led 115;
#X obj 601 440 bus_led 116;
#X obj 601 461 bus_led 117;
#X obj 601 480 bus_led 118;
#X obj 601 501 bus_led 119;
#X obj 601 520 bus_led 120;
#X obj 731 61 bus_led 121;
#X obj 731 80 bus_led 122;
#X obj 731 101 bus_led 123;
#X obj 731 120 bus_led 124;
#X obj 731 141 bus_led 125;
#X obj 731 160 bus_led 126;
#X obj 731 181 bus_led 127;
#X obj 731 200 bus_led 128;
#X obj 731 221 bus_led 129;
#X obj 731 240 bus_led 130;
#X obj 731 261 bus_led 131;
#X obj 731 280 bus_led 132;
#X obj 731 301 bus_led 133;
#X obj 731 320 bus_led 134;
#X obj 731 341 bus_led 135;
#X obj 731 360 bus_led 136;
#X obj 731 381 bus_led 137;
#X obj 731 400 bus_led 138;
#X obj 731 421 bus_led 139;
#X obj 731 440 bus_led 140;
#X obj 731 461 bus_led 141;
#X obj 729 480 bus_led 142;
#X obj 731 501 bus_led 143;
#X obj 731 520 bus_led 144;
#X obj 891 61 bus_led 145;
#X obj 891 80 bus_led 146;
#X obj 891 101 bus_led 147;
#X obj 891 120 bus_led 148;
#X obj 891 141 bus_led 149;
#X obj 891 160 bus_led 150;
#X obj 891 181 bus_led 151;
#X obj 891 200 bus_led 152;
#X obj 891 221 bus_led 153;
#X obj 891 261 bus_led 155;
#X obj 891 280 bus_led 156;
#X obj 891 301 bus_led 157;
#X obj 891 320 bus_led 158;
#X obj 891 341 bus_led 159;
#X obj 891 360 bus_led 160;
#X obj 890 381 bus_led 161;
#X obj 891 400 bus_led 162;
#X obj 891 421 bus_led 163;
#X obj 891 440 bus_led 164;
#X obj 891 461 bus_led 165;
#X obj 891 480 bus_led 166;
#X obj 891 501 bus_led 167;
#X obj 891 520 bus_led 168;
#X obj 1021 61 bus_led 169;
#X obj 1021 80 bus_led 170;
#X obj 1021 101 bus_led 171;
#X obj 1021 120 bus_led 172;
#X obj 1021 141 bus_led 173;
#X obj 1021 160 bus_led 174;
#X obj 1021 181 bus_led 175;
#X obj 1021 200 bus_led 176;
#X obj 1021 221 bus_led 177;
#X obj 1021 240 bus_led 178;
#X obj 1021 261 bus_led 179;
#X obj 1021 280 bus_led 180;
#X obj 1021 301 bus_led 181;
#X obj 1021 320 bus_led 182;
#X obj 1021 341 bus_led 183;
#X obj 1021 360 bus_led 184;
#X obj 1021 381 bus_led 185;
#X obj 1021 400 bus_led 186;
#X obj 1021 421 bus_led 187;
#X obj 1021 440 bus_led 188;
#X obj 1021 461 bus_led 189;
#X obj 1021 480 bus_led 190;
#X obj 1021 501 bus_led 191;
#X obj 1021 520 bus_led 192;
#X restore 41 189 pd out;
#X obj 203 67 nbx 3 14 0 100 0 1 empty empty empty 0 -8 0 10 -262144
-1 -1 72 256;
#X obj 243 67 nbx 3 14 0 100 0 1 empty empty empty 0 -8 0 10 -262144
-1 -1 100 256;
#X obj 283 67 nbx 3 14 0 100 0 1 empty empty empty 0 -8 0 10 -262144
-1 -1 43 256;
#X obj 203 111 pack 0 0 0;
#X obj 203 133 s scale;
#X obj 243 86 t b f;
#X obj 283 86 t b f;
#X connect 3 0 2 0;
#X connect 4 0 2 0;
#X connect 6 0 9 0;
#X connect 7 0 11 0;
#X connect 8 0 12 0;
#X connect 9 0 10 0;
#X connect 11 0 9 0;
#X connect 11 1 9 1;
#X connect 12 0 9 0;
#X connect 12 1 9 2;
