#N canvas 176 68 556 222 10;
#X obj 396 117 << 7;
#X obj 381 137 +;
#X obj 381 158 outlet;
#X obj 396 97 spigot;
#X obj 264 97 spigot;
#X obj 136 117 << 7;
#X obj 121 137 +;
#X obj 121 158 outlet;
#X obj 4 47 ctlin 38;
#X obj 136 47 ctlin 6;
#X obj 136 97 spigot;
#X obj 216 -35 loadbang;
#X obj 4 97 spigot;
#X obj 396 47 ctlin 99;
#X obj 264 47 ctlin 98;
#X obj 441 68 == 1;
#X obj 310 68 == 1;
#X obj 175 68 == 1;
#X obj 49 68 == 1;
#X obj 216 -11 \$1;
#X obj 216 11 sel 0;
#X connect 0 0 1 1;
#X connect 1 0 2 0;
#X connect 3 0 0 0;
#X connect 4 0 1 0;
#X connect 5 0 6 1;
#X connect 6 0 7 0;
#X connect 8 0 12 0;
#X connect 8 1 18 0;
#X connect 9 0 10 0;
#X connect 9 1 17 0;
#X connect 10 0 5 0;
#X connect 11 0 19 0;
#X connect 12 0 6 0;
#X connect 13 0 3 0;
#X connect 13 1 15 0;
#X connect 14 0 4 0;
#X connect 14 1 16 0;
#X connect 15 0 3 1;
#X connect 16 0 4 1;
#X connect 17 0 10 1;
#X connect 18 0 12 1;
#X connect 19 0 20 0;
#X connect 20 1 17 1;
#X connect 20 1 18 1;
#X connect 20 1 16 1;
#X connect 20 1 15 1;
