#N canvas 54 492 591 333 10;
#X declare -lib mrpeach;
#X obj 91 14 inlet;
#X obj 91 94 s to_i-score;
#X obj 90 135 r from_i-score;
#X obj 90 269 outlet;
#X obj 91 54 list prepend \$1;
#X obj 91 74 list trim;
#X floatatom 128 17 5 0 0 0 - - -;
#X symbolatom 163 17 10 0 0 0 - - -;
#X obj 147 236 spigot;
#X obj 180 217 tgl 15 0 empty empty empty 17 7 0 10 -262144 -1 -1 0
1;
#X obj 147 276 print from_i-score;
#X obj 90 157 route get;
#X obj 147 177 routeOSC \$1;
#X obj 45 228 del;
#X obj 45 208 + 500;
#X obj 294 56 loadbang;
#X obj 294 99 symbol \$1;
#X obj 294 214 t b f;
#X obj 307 193 list;
#X obj 294 172 list split 1;
#X obj 326 264 f;
#X obj 326 243 +;
#X msg 326 286 seed \$1;
#X obj 294 78 t b b;
#X msg 341 215 0;
#X obj 383 31 import mrpeach;
#X obj 294 151 packOSC;
#X obj 294 122 list trim;
#X obj 45 188 random 10000;
#X connect 0 0 4 0;
#X connect 2 0 11 0;
#X connect 4 0 5 0;
#X connect 5 0 1 0;
#X connect 6 0 4 0;
#X connect 7 0 4 0;
#X connect 8 0 10 0;
#X connect 9 0 8 1;
#X connect 11 0 28 0;
#X connect 11 1 12 0;
#X connect 12 0 8 0;
#X connect 12 0 3 0;
#X connect 13 0 3 0;
#X connect 14 0 13 0;
#X connect 15 0 23 0;
#X connect 16 0 27 0;
#X connect 17 0 18 0;
#X connect 17 1 21 0;
#X connect 18 0 19 0;
#X connect 19 0 17 0;
#X connect 19 1 18 1;
#X connect 20 0 21 1;
#X connect 20 0 22 0;
#X connect 21 0 20 0;
#X connect 22 0 28 0;
#X connect 23 0 16 0;
#X connect 23 1 24 0;
#X connect 24 0 21 1;
#X connect 26 0 19 0;
#X connect 27 0 26 0;
#X connect 28 0 14 0;
