#N canvas 387 140 683 641 10;
#X obj 101 101 nbx 5 14 0 1e+37 0 0 empty empty empty 0 -8 0 10 -262144
-1 -1 0 256;
#X obj 101 121 nbx 5 14 0 1e+37 0 0 empty empty empty 0 -8 0 10 -262144
-1 -1 0 256;
#X obj 101 141 nbx 5 14 0 1e+37 0 0 empty empty empty 0 -8 0 10 -262144
-1 -1 0 256;
#X obj 101 161 nbx 5 14 0 1e+37 0 0 empty empty empty 0 -8 0 10 -262144
-1 -1 0 256;
#X obj 101 181 nbx 5 14 0 1e+37 0 0 empty empty empty 0 -8 0 10 -262144
-1 -1 0 256;
#X obj 101 201 nbx 5 14 0 1e+37 0 0 empty empty empty 0 -8 0 10 -262144
-1 -1 0 256;
#X obj 101 221 nbx 5 14 0 1e+37 0 0 empty empty empty 0 -8 0 10 -262144
-1 -1 0 256;
#X obj 101 241 nbx 5 14 0 1e+37 0 0 empty empty empty 0 -8 0 10 -262144
-1 -1 0 256;
#X obj 101 261 nbx 5 14 0 1e+37 0 0 empty empty empty 0 -8 0 10 -262144
-1 -1 0 256;
#X text 91 82 busSend;
#X obj 175 120 j.remote \$1/send-2 @type decimal @range 0 100;
#X obj 175 140 j.remote \$1/send-3 @type decimal @range 0 100;
#X obj 175 160 j.remote \$1/send-4 @type decimal @range 0 100;
#X obj 175 180 j.remote \$1/send-5 @type decimal @range 0 100;
#X obj 175 200 j.remote \$1/send-6 @type decimal @range 0 100;
#X obj 175 220 j.remote \$1/send-7 @type decimal @range 0 100;
#X obj 175 240 j.remote \$1/send-8 @type decimal @range 0 100;
#X obj 175 260 j.remote \$1/send-9 @type decimal @range 0 100;
#X obj 101 281 nbx 5 14 0 1e+37 0 0 empty empty empty 0 -8 0 10 -262144
-1 -1 0 256;
#X obj 101 301 nbx 5 14 0 1e+37 0 0 empty empty empty 0 -8 0 10 -262144
-1 -1 0 256;
#X obj 101 321 nbx 5 14 0 1e+37 0 0 empty empty empty 0 -8 0 10 -262144
-1 -1 0 256;
#X obj 101 341 nbx 5 14 0 1e+37 0 0 empty empty empty 0 -8 0 10 -262144
-1 -1 0 256;
#X obj 101 361 nbx 5 14 0 1e+37 0 0 empty empty empty 0 -8 0 10 -262144
-1 -1 0 256;
#X obj 101 381 nbx 5 14 0 1e+37 0 0 empty empty empty 0 -8 0 10 -262144
-1 -1 0 256;
#X obj 101 401 nbx 5 14 0 1e+37 0 0 empty empty empty 0 -8 0 10 -262144
-1 -1 0 256;
#X obj 101 421 nbx 5 14 0 1e+37 0 0 empty empty empty 0 -8 0 10 -262144
-1 -1 0 256;
#X obj 101 441 nbx 5 14 0 1e+37 0 0 empty empty empty 0 -8 0 10 -262144
-1 -1 30 256;
#X obj 175 280 j.remote \$1/send-10 @type decimal @range 0 100;
#X obj 175 300 j.remote \$1/send-11 @type decimal @range 0 100;
#X obj 175 320 j.remote \$1/send-12 @type decimal @range 0 100;
#X obj 175 339 j.remote \$1/send-13 @type decimal @range 0 100;
#X obj 175 360 j.remote \$1/send-14 @type decimal @range 0 100;
#X obj 175 380 j.remote \$1/send-15 @type decimal @range 0 100;
#X obj 175 401 j.remote \$1/send-16 @type decimal @range 0 100;
#X obj 175 420 j.remote \$1/send-17 @type decimal @range 0 100;
#X obj 175 440 j.remote \$1/send-18 @type decimal @range 0 100;
#X obj 101 461 nbx 5 14 0 1e+37 0 0 empty empty empty 0 -8 0 10 -262144
-1 -1 0 256;
#X obj 101 481 nbx 5 14 0 1e+37 0 0 empty empty empty 0 -8 0 10 -262144
-1 -1 0 256;
#X obj 175 461 j.remote \$1/send-19 @type decimal @range 0 100;
#X obj 175 480 j.remote \$1/send-20 @type decimal @range 0 100;
#X obj 101 501 nbx 5 14 0 1e+37 0 0 empty empty empty 0 -8 0 10 -262144
-1 -1 0 256;
#X obj 101 521 nbx 5 14 0 1e+37 0 0 empty empty empty 0 -8 0 10 -262144
-1 -1 0 256;
#X obj 101 541 nbx 5 14 0 1e+37 0 0 empty empty empty 0 -8 0 10 -262144
-1 -1 0 256;
#X obj 101 561 nbx 5 14 0 1e+37 0 0 empty empty empty 0 -8 0 10 -262144
-1 -1 0 256;
#X obj 101 581 nbx 5 14 0 1e+37 0 0 empty empty empty 0 -8 0 10 -262144
-1 -1 0 256;
#X obj 101 601 nbx 5 14 0 1e+37 0 0 empty empty empty 0 -8 0 10 -262144
-1 -1 0 256;
#X obj 101 621 nbx 5 14 0 1e+37 0 0 empty empty empty 0 -8 0 10 -262144
-1 -1 0 256;
#X obj 101 641 nbx 5 14 0 1e+37 0 0 empty empty empty 0 -8 0 10 -262144
-1 -1 0 256;
#X obj 101 661 nbx 5 14 0 1e+37 0 0 empty empty empty 0 -8 0 10 -262144
-1 -1 0 256;
#X obj 101 681 nbx 5 14 0 1e+37 0 0 empty empty empty 0 -8 0 10 -262144
-1 -1 0 256;
#X obj 101 701 nbx 5 14 0 1e+37 0 0 empty empty empty 0 -8 0 10 -262144
-1 -1 0 256;
#X obj 101 721 nbx 5 14 0 1e+37 0 0 empty empty empty 0 -8 0 10 -262144
-1 -1 0 256;
#X obj 101 741 nbx 5 14 0 1e+37 0 0 empty empty empty 0 -8 0 10 -262144
-1 -1 0 256;
#X obj 101 761 nbx 5 14 0 1e+37 0 0 empty empty empty 0 -8 0 10 -262144
-1 -1 0 256;
#X obj 101 781 nbx 5 14 0 1e+37 0 0 empty empty empty 0 -8 0 10 -262144
-1 -1 0 256;
#X obj 101 801 nbx 5 14 0 1e+37 0 0 empty empty empty 0 -8 0 10 -262144
-1 -1 0 256;
#X obj 101 821 nbx 5 14 0 1e+37 0 0 empty empty empty 0 -8 0 10 -262144
-1 -1 0 256;
#X obj 101 841 nbx 5 14 0 1e+37 0 0 empty empty empty 0 -8 0 10 -262144
-1 -1 0 256;
#X obj 101 861 nbx 5 14 0 1e+37 0 0 empty empty empty 0 -8 0 10 -262144
-1 -1 0 256;
#X obj 101 881 nbx 5 14 0 1e+37 0 0 empty empty empty 0 -8 0 10 -262144
-1 -1 0 256;
#X obj 175 500 j.remote \$1/send-21 @type decimal @range 0 100;
#X obj 175 520 j.remote \$1/send-22 @type decimal @range 0 100;
#X obj 175 539 j.remote \$1/send-23 @type decimal @range 0 100;
#X obj 175 560 j.remote \$1/send-24 @type decimal @range 0 100;
#X obj 175 580 j.remote \$1/send-25 @type decimal @range 0 100;
#X obj 175 601 j.remote \$1/send-26 @type decimal @range 0 100;
#X obj 175 620 j.remote \$1/send-27 @type decimal @range 0 100;
#X obj 175 640 j.remote \$1/send-28 @type decimal @range 0 100;
#X obj 175 661 j.remote \$1/send-29 @type decimal @range 0 100;
#X obj 175 680 j.remote \$1/send-30 @type decimal @range 0 100;
#X obj 175 700 j.remote \$1/send-31 @type decimal @range 0 100;
#X obj 175 720 j.remote \$1/send-32 @type decimal @range 0 100;
#X obj 175 739 j.remote \$1/send-33 @type decimal @range 0 100;
#X obj 175 760 j.remote \$1/send-34 @type decimal @range 0 100;
#X obj 175 780 j.remote \$1/send-35 @type decimal @range 0 100;
#X obj 175 801 j.remote \$1/send-36 @type decimal @range 0 100;
#X obj 175 820 j.remote \$1/send-37 @type decimal @range 0 100;
#X obj 175 840 j.remote \$1/send-38 @type decimal @range 0 100;
#X obj 175 860 j.remote \$1/send-39 @type decimal @range 0 100;
#X obj 175 880 j.remote \$1/send-40 @type decimal @range 0 100;
#X msg 224 76 dump;
#X obj 449 119 print remote_dump;
#X obj 175 100 j.remote \$1/send-1 @type decimal @range 0 100;
#X connect 0 0 82 0;
#X connect 1 0 10 0;
#X connect 2 0 11 0;
#X connect 3 0 12 0;
#X connect 4 0 13 0;
#X connect 5 0 14 0;
#X connect 6 0 15 0;
#X connect 7 0 16 0;
#X connect 8 0 17 0;
#X connect 10 0 1 0;
#X connect 11 0 2 0;
#X connect 12 0 3 0;
#X connect 13 0 4 0;
#X connect 14 0 5 0;
#X connect 15 0 6 0;
#X connect 16 0 7 0;
#X connect 17 0 8 0;
#X connect 18 0 27 0;
#X connect 19 0 28 0;
#X connect 20 0 29 0;
#X connect 21 0 30 0;
#X connect 22 0 31 0;
#X connect 23 0 32 0;
#X connect 24 0 33 0;
#X connect 25 0 34 0;
#X connect 26 0 35 0;
#X connect 27 0 18 0;
#X connect 28 0 19 0;
#X connect 29 0 20 0;
#X connect 30 0 21 0;
#X connect 31 0 22 0;
#X connect 32 0 23 0;
#X connect 33 0 24 0;
#X connect 34 0 25 0;
#X connect 35 0 26 0;
#X connect 36 0 38 0;
#X connect 37 0 39 0;
#X connect 38 0 36 0;
#X connect 39 0 37 0;
#X connect 40 0 60 0;
#X connect 41 0 61 0;
#X connect 42 0 62 0;
#X connect 43 0 63 0;
#X connect 44 0 64 0;
#X connect 45 0 65 0;
#X connect 46 0 66 0;
#X connect 47 0 67 0;
#X connect 48 0 68 0;
#X connect 49 0 69 0;
#X connect 50 0 70 0;
#X connect 51 0 71 0;
#X connect 52 0 72 0;
#X connect 53 0 73 0;
#X connect 54 0 74 0;
#X connect 55 0 75 0;
#X connect 56 0 76 0;
#X connect 57 0 77 0;
#X connect 58 0 78 0;
#X connect 59 0 79 0;
#X connect 60 0 40 0;
#X connect 61 0 41 0;
#X connect 62 0 42 0;
#X connect 63 0 43 0;
#X connect 64 0 44 0;
#X connect 65 0 45 0;
#X connect 66 0 46 0;
#X connect 67 0 47 0;
#X connect 68 0 48 0;
#X connect 69 0 49 0;
#X connect 70 0 50 0;
#X connect 71 0 51 0;
#X connect 72 0 52 0;
#X connect 73 0 53 0;
#X connect 74 0 54 0;
#X connect 75 0 55 0;
#X connect 76 0 56 0;
#X connect 77 0 57 0;
#X connect 78 0 58 0;
#X connect 79 0 59 0;
#X connect 80 0 82 0;
#X connect 82 0 0 0;
#X connect 82 1 81 0;
#X coords 0 -1 1 1 56 805 2 100 100;
