#N canvas 505 336 450 300 10;
#X obj 73 81 inlet;
#X obj 73 103 t f f;
#X obj 115 81 inlet;
#X obj 100 133 >;
#X obj 100 155 change -1;
#X obj 100 177 b;
#X msg 100 199 1;
#X msg 142 199 0;
#X obj 115 103 t f b;
#X obj 73 243 spigot;
#X obj 73 265 outlet;
#X connect 0 0 1 0;
#X connect 1 0 9 0;
#X connect 1 1 3 0;
#X connect 2 0 8 0;
#X connect 3 0 4 0;
#X connect 4 0 5 0;
#X connect 5 0 6 0;
#X connect 6 0 9 1;
#X connect 7 0 9 1;
#X connect 8 0 3 1;
#X connect 8 1 7 0;
#X connect 9 0 10 0;
