#N canvas 281 213 701 567 10;
#X obj 161 48 nrpnin;
#X obj 161 88 spigot;
#X obj 194 68 == \$1;
#X obj 184 452 nrpnout \$1;
#X obj 184 260 ossia.remote \$2;
#X text 339 56 \$1 : NRPN number;
#X text 339 76 \$2 : jamoma parameter address;
#X text 339 96 \$3/\$4 : parameter min and max;
#X floatatom 115 140 5 0 0 0 - - -, f 5;
#X obj 184 400 clip 0 255;
#X floatatom 217 428 5 0 0 0 - - -, f 5;
#X floatatom 184 282 5 0 0 0 - - -, f 5;
#X obj 184 317 spigot;
#X obj 161 115 t b f b;
#X msg 324 263 0;
#X msg 143 277 1;
#N canvas 0 122 450 300 map 0;
#X obj 184 151 / 255;
#X obj 184 176 *;
#X obj 262 42 loadbang;
#X obj 262 92 \$4;
#X obj 297 94 \$3;
#X obj 262 64 t b b;
#X obj 262 148 -;
#X obj 184 198 + \$3;
#X obj 184 124 inlet;
#X obj 184 220 outlet;
#X connect 0 0 1 0;
#X connect 1 0 7 0;
#X connect 2 0 5 0;
#X connect 3 0 6 0;
#X connect 4 0 6 1;
#X connect 5 0 3 0;
#X connect 5 1 4 0;
#X connect 6 0 1 1;
#X connect 7 0 9 0;
#X connect 8 0 0 0;
#X restore 184 181 pd map;
#N canvas 0 151 450 300 map 0;
#X obj 262 42 loadbang;
#X obj 262 92 \$4;
#X obj 297 94 \$3;
#X obj 262 64 t b b;
#X obj 262 148 -;
#X obj 184 124 inlet;
#X obj 184 220 outlet;
#X obj 184 151 - \$3;
#X obj 184 198 * 255;
#X obj 184 176 /;
#X connect 0 0 3 0;
#X connect 1 0 4 0;
#X connect 2 0 4 1;
#X connect 3 0 1 0;
#X connect 3 1 2 0;
#X connect 4 0 9 1;
#X connect 5 0 7 0;
#X connect 7 0 9 0;
#X connect 8 0 6 0;
#X connect 9 0 8 0;
#X restore 184 355 pd map;
#X connect 0 0 1 0;
#X connect 0 0 8 0;
#X connect 0 1 2 0;
#X connect 1 0 13 0;
#X connect 2 0 1 1;
#X connect 4 0 11 0;
#X connect 9 0 3 0;
#X connect 9 0 10 0;
#X connect 11 0 12 0;
#X connect 12 0 17 0;
#X connect 13 0 15 0;
#X connect 13 1 16 0;
#X connect 13 2 14 0;
#X connect 14 0 12 1;
#X connect 15 0 12 1;
#X connect 16 0 4 0;
#X connect 17 0 9 0;
