#N canvas 237 443 457 388 10;
#X obj 79 61 nrpnin;
#X obj 79 101 spigot;
#X obj 79 121 / 2.55;
#X obj 112 81 == \$1;
#X obj 180 355 nrpnout \$1;
#X obj 89 271 route bang;
#X floatatom 129 158 5 0 0 0 - - -, f 5;
#X obj 141 120 bng 15 250 50 0 empty empty empty 17 7 0 10 -262144
-1 -1;
#X obj 239 284 metro 1000;
#X obj 239 92 loadbang;
#X obj 180 324 f;
#X obj 239 265 tgl 15 0 empty empty empty 17 7 0 10 -262144 -1 -1 0
1;
#X obj 180 255 * 2.55;
#X obj 180 194 ossia.param bcf2000\$2;
#X obj 79 304 bus lum\$2;
#X floatatom 197 225 5 0 0 0 - - -, f 5;
#X connect 0 0 1 0;
#X connect 0 1 3 0;
#X connect 1 0 2 0;
#X connect 1 0 10 1;
#X connect 2 0 6 0;
#X connect 2 0 14 0;
#X connect 3 0 1 1;
#X connect 5 1 14 0;
#X connect 6 0 13 0;
#X connect 7 0 6 0;
#X connect 8 0 10 0;
#X connect 10 0 4 0;
#X connect 11 0 8 0;
#X connect 12 0 10 0;
#X connect 13 0 5 0;
#X connect 13 0 12 0;
#X connect 13 0 15 0;
