#N canvas 783 513 600 453 10;
#X obj 103 163 vsl 15 128 0 100 0 0 empty empty empty 0 -9 0 10 -262144
-1 -1 12700 1;
#X floatatom 104 138 5 0 0 0 - - -, f 5;
#X obj 103 309 outlet;
#X obj 34 66 inlet~;
#X obj 158 164 -;
#X obj 158 189 * 3;
#X obj 158 230 max 0;
#X obj 34 88 env~ 1024;
#X obj 171 29 nbx 3 14 -99 100 0 1 empty empty empty 0 -8 0 10 -262144
-1 -1 22 256;
#X obj 197 85 nbx 3 14 0 100 0 1 empty empty empty 0 -8 0 10 -262144
-1 -1 100 256;
#X obj 241 130 nbx 3 14 0 1000 0 0 empty empty empty 0 -8 0 10 -262144
-1 -1 0 256;
#X obj 158 251 mapping/env+ 20;
#X obj 161 9 ossia.param \$1/threshold @type float @range 0 100;
#X obj 222 105 ossia.param \$1/release @type float @range 0 1000 @default
3;
#X obj 182 164 / 100;
#X obj 182 64 ossia.param \$1/gain @type float @range 0 10 @default
300;
#X obj 34 377 ossia.param \$1/loudness_pre @type float @unit gain.dB
@range 0 100 @description "loudness in dB before processing" @access_mode
get;
#X obj 158 308 ossia.param \$1/loudness @type float @unit gain.dB @range
0 100 @description "loudness in dB" @access_mode get;
#X connect 0 0 2 0;
#X connect 1 0 4 0;
#X connect 3 0 7 0;
#X connect 4 0 5 0;
#X connect 5 0 6 0;
#X connect 6 0 11 0;
#X connect 7 0 1 0;
#X connect 7 0 16 0;
#X connect 11 0 0 0;
#X connect 11 0 17 0;
#X connect 12 0 8 0;
#X connect 12 0 4 1;
#X connect 13 0 10 0;
#X connect 13 0 11 1;
#X connect 14 0 5 1;
#X connect 15 0 9 0;
#X connect 15 0 14 0;
#X coords 0 453 1 452 40 230 0;
