#N canvas 2 601 666 465 10;
#X obj 103 175 vsl 15 128 0 100 0 0 empty empty empty 0 -9 0 10 -262144
-1 -1 0 1;
#X floatatom 104 150 5 0 0 0 - - -, f 5;
#X obj 103 321 outlet;
#X obj 34 78 inlet~;
#X obj 158 176 -;
#X obj 158 201 * 3;
#X obj 158 242 max 0;
#X obj 34 100 env~ 1024;
#X obj 170 58 nbx 3 14 -99 100 0 1 empty empty empty 0 -8 0 10 -262144
-1 -1 50 256;
#X obj 197 97 nbx 3 14 0 100 0 1 empty empty empty 0 -8 0 10 -262144
-1 -1 100 256;
#X obj 241 142 nbx 3 14 0 1000 0 0 empty empty empty 0 -8 0 10 -262144
-1 -1 3 256;
#X obj 158 263 mapping/env+ 20;
#X obj 222 117 ossia.param \$1/release @type float @range 0 1000 @default
3;
#X obj 182 176 / 100;
#X obj 34 389 ossia.param \$1/loudness_pre @type float @unit gain.dB
@range 0 100 @description "loudness in dB before processing" @mode
get;
#X obj 158 320 ossia.param \$1/loudness @type gain @range 0 100 @description
"loudness in dB" @mode get;
#X obj 182 76 ossia.param \$1/gain @type float @range 0 300 @default
100;
#X floatatom 108 8 5 0 0 0 - - -, f 5;
#X obj 161 21 ossia.param \$1/threshold @type float @range 0 100 @default
50;
#X connect 0 0 2 0;
#X connect 1 0 4 0;
#X connect 3 0 7 0;
#X connect 4 0 5 0;
#X connect 5 0 6 0;
#X connect 6 0 11 0;
#X connect 7 0 1 0;
#X connect 7 0 14 0;
#X connect 11 0 0 0;
#X connect 11 0 15 0;
#X connect 12 0 10 0;
#X connect 12 0 11 1;
#X connect 13 0 5 1;
#X connect 16 0 9 0;
#X connect 16 0 13 0;
#X connect 17 0 18 0;
#X connect 18 0 8 0;
#X connect 18 0 4 1;
#X coords 0 465 1 464 40 230 0;
