#N canvas 0 22 562 296 10;
#X obj 103 71 nbx 3 14 -99 100 0 1 empty empty empty 0 -8 0 10 -262144
-1 -1 0 256;
#X obj 103 91 nbx 3 14 0 100 0 1 empty empty empty 0 -8 0 10 -262144
-1 -1 0 256;
#X obj 103 111 nbx 3 14 0 1000 0 0 empty empty empty 0 -8 0 10 -262144
-1 -1 0 256;
#X obj 144 71 ossia.remote threshold;
#X obj 144 91 ossia.remote gain;
#X obj 144 111 ossia.remote release;
#X obj 145 135 j.receive loudness;
#X floatatom 145 157 5 0 0 0 - - -, f 5;
#X obj 272 106 print env-follower;
#X msg 148 33 dump;
#X connect 0 0 3 0;
#X connect 1 0 4 0;
#X connect 2 0 5 0;
#X connect 3 0 0 0;
#X connect 3 1 8 0;
#X connect 4 0 1 0;
#X connect 5 0 2 0;
#X connect 6 0 7 0;
#X connect 9 0 3 0;
