#N canvas 358 510 666 465 10;
#X obj 103 175 vsl 15 128 0 100 0 0 empty empty empty 0 -9 0 10 -262144
-1 -1 0 1;
#X floatatom 104 150 5 0 0 0 - - -, f 5;
#X obj 103 321 outlet;
#X obj 34 78 inlet~;
#X obj 158 176 -;
#X obj 158 201 * 3;
#X obj 158 242 max 0;
#X obj 34 100 env~ 1024;
#X obj 182 68 nbx 3 14 -99 100 0 1 empty empty empty 0 -8 0 10 -262144
-1 -1 50 256;
#X obj 207 121 nbx 3 14 0 1e+08 0 1 empty empty empty 0 -8 0 10 -262144
-1 -1 100 256;
#X obj 220 236 nbx 3 14 0 1000 0 0 empty empty empty 0 -8 0 10 -262144
-1 -1 3 256;
#X obj 158 263 mapping/env+ 20;
#X obj 202 176 / 100;
#X floatatom 173 10 5 0 0 0 - - -, f 5;
#X obj 173 31 ossia.param threshold @type float @range 0 100 @default
50;
#X obj 201 211 ossia.param release @type float @range 0 1000 @default
3;
#X obj 34 389 ossia.param loudness_pre @type float @unit gain.dB @range
0 100 @description "loudness in dB before processing" @mode get;
#X obj 202 86 ossia.param gain @type float @range 0 300 @default 100
@clip free;
#X obj 158 301 cyclone/speedlim 100;
#X obj 292 302 s loudness;
#X obj 158 320 ossia.param loudness @type gain @range 0 100 @description
"loudness in dB";
#X connect 0 0 2 0;
#X connect 1 0 4 0;
#X connect 3 0 7 0;
#X connect 4 0 5 0;
#X connect 5 0 6 0;
#X connect 6 0 11 0;
#X connect 7 0 1 0;
#X connect 7 0 16 0;
#X connect 11 0 0 0;
#X connect 11 0 18 0;
#X connect 11 0 19 0;
#X connect 12 0 5 1;
#X connect 13 0 14 0;
#X connect 14 0 8 0;
#X connect 14 0 4 1;
#X connect 15 0 10 0;
#X connect 15 0 11 1;
#X connect 17 0 9 0;
#X connect 17 0 12 0;
#X connect 18 0 20 0;
#X coords 0 465 1 464 40 230 0;
