#N canvas 1 98 450 300 10;
#X obj 167 137 i;
#X obj 131 160 -;
#X obj 131 103 t f f f;
#X obj 131 194 +;
#X obj 127 64 inlet;
#X obj 131 215 outlet;
#X obj 208 65 inlet;
#X obj 201 138 % \$1;
#X connect 0 0 1 1;
#X connect 1 0 3 0;
#X connect 2 0 1 0;
#X connect 2 1 0 0;
#X connect 2 2 7 0;
#X connect 3 0 5 0;
#X connect 4 0 2 0;
#X connect 6 0 7 1;
#X connect 7 0 3 1;
