#N canvas 321 316 450 363 10;
#X obj 114 43 ossia.remote play;
#X obj 95 44 tgl 15 0 empty empty empty 17 7 0 10 -262144 -1 -1 0 1
;
#X obj 95 105 ossia.remote file;
#X symbolatom 95 146 50 0 0 0 - - -, f 50;
#X obj 95 64 bng 15 250 50 0 empty empty empty 17 7 0 10 -262144 -1
-1;
#X obj 96 168 hsl 200 15 0 100 0 0 empty empty empty -2 -8 0 10 -262144
-1 -1 0 1;
#X obj 93 188 - 100;
#X obj 93 232 + 100;
#X obj 95 127 symbol;
#X obj 94 83 ossia.remote open;
#X obj 93 210 ossia.remote gain @unit gain.dB;
#X connect 0 0 1 0;
#X connect 1 0 0 0;
#X connect 2 0 8 0;
#X connect 4 0 9 0;
#X connect 5 0 6 0;
#X connect 6 0 10 0;
#X connect 7 0 5 0;
#X connect 8 0 3 0;
#X connect 10 0 7 0;
