#N canvas 392 195 855 407 10;
#X obj 87 238 readsf~ 2;
#X msg 87 218 open \$1;
#X obj 87 88 openpanel;
#X obj 87 69 bng 15 250 50 0 empty empty empty 17 7 0 10 -262144 -1
-1;
#X obj 227 352 outlet~;
#X obj 308 25 ossia.param play @type boolean @priority 2;
#X obj 88 352 outlet~;
#X obj 87 332 *~;
#X obj 138 352 outlet~;
#X obj 137 332 *~;
#X obj 454 86 t f f;
#X obj 481 107 sel 1;
#X obj 454 149 line~;
#X msg 454 128 \$1 10;
#X obj 87 128 ossia.param file @type string @priority 1;
#X obj 454 54 ossia.param gain @type float @dataspace gain @unit linear
@default 0;
#X obj 87 150 route none;
#X obj 144 172 symbol;
#X obj 87 25 ossia.param open @type none;
#X obj 87 47 route bang;
#X obj 308 45 change -1;
#X obj 87 196 symbol;
#X obj 308 66 sel 1;
#X connect 0 0 4 0;
#X connect 0 0 7 0;
#X connect 0 1 9 0;
#X connect 0 1 4 0;
#X connect 1 0 0 0;
#X connect 2 0 14 0;
#X connect 3 0 2 0;
#X connect 5 0 20 0;
#X connect 7 0 6 0;
#X connect 9 0 8 0;
#X connect 10 0 13 0;
#X connect 10 1 11 0;
#X connect 12 0 9 1;
#X connect 12 0 7 1;
#X connect 13 0 12 0;
#X connect 14 0 16 0;
#X connect 15 0 10 0;
#X connect 16 1 17 0;
#X connect 17 0 21 1;
#X connect 18 0 19 0;
#X connect 19 0 3 0;
#X connect 20 0 22 0;
#X connect 21 0 1 0;
#X connect 22 0 21 0;
#X connect 22 1 0 0;
