#N canvas 0 93 689 293 10;
#X obj 149 140 ossia.remote \$1;
#X obj 318 51 ossia.parameter record/\$1 @type float;
#X obj 149 162 spigot 0;
#X obj 318 73 t b a b;
#X msg 363 97 0;
#X msg 318 95 1;
#X connect 0 0 2 0;
#X connect 1 0 3 0;
#X connect 2 0 1 0;
#X connect 3 0 5 0;
#X connect 3 1 0 0;
#X connect 3 2 4 0;
#X connect 4 0 2 1;
#X connect 5 0 2 1;
