#N canvas 147 55 841 710 10;
#X text 260 104 audiosettings - query and manipulate audio-settings
;
#X msg 48 172 listdevices;
#X text 129 171 get available devices for current driver;
#X obj 141 306 route device;
#X obj 141 328 route out;
#X obj 141 350 route devices;
#X obj 320 373 unpack f s;
#X obj 320 524 spigot;
#X obj 377 401 symbol2list;
#X obj 377 421 list2symbol _;
#X msg 377 483 1;
#X msg 417 493 0;
#X obj 417 473 t b;
#X obj 284 568 f;
#X obj 48 193 t b a b;
#X msg 280 271 -1;
#X obj 284 590 change -1;
#X obj 169 129 metro 5000;
#X obj 169 109 tgl 15 0 empty empty empty 17 7 0 10 -262144 -1 -1 0
1;
#X obj 176 661 != -1;
#X obj 48 30 loadbang;
#X obj 48 52 del 5000;
#X msg 169 55 1;
#X msg 176 683 \; pd dsp \$1;
#X obj 284 612 t f f;
#X obj 80 94 inlet;
#X obj 326 465 outlet;
#X obj 48 261 mediasettings/audiosettings;
#X obj 377 441 sel \$1;
#X obj 420 524 spigot;
#X msg 477 483 1;
#X msg 517 493 0;
#X obj 517 473 t b;
#X obj 477 441 sel \$2;
#X text 413 188 \$1 : input device;
#X text 413 208 \$2 : output device;
#X obj 444 568 f;
#X obj 444 590 change -1;
#X obj 444 612 t f f;
#X msg 471 637 driver ALSA \, params @output \$1 2;
#X msg 310 669 driver ALSA \, params @input \$1 1;
#X obj 371 529 t b b;
#X connect 1 0 14 0;
#X connect 3 0 4 0;
#X connect 4 0 5 0;
#X connect 5 1 6 0;
#X connect 6 0 7 0;
#X connect 6 0 29 0;
#X connect 6 1 8 0;
#X connect 7 0 13 1;
#X connect 8 0 9 0;
#X connect 9 0 26 0;
#X connect 9 0 28 0;
#X connect 9 0 33 0;
#X connect 10 0 7 1;
#X connect 11 0 7 1;
#X connect 12 0 11 0;
#X connect 13 0 16 0;
#X connect 14 0 41 0;
#X connect 14 1 27 0;
#X connect 14 2 15 0;
#X connect 15 0 13 1;
#X connect 15 0 36 1;
#X connect 16 0 24 0;
#X connect 17 0 1 0;
#X connect 18 0 17 0;
#X connect 19 0 23 0;
#X connect 20 0 21 0;
#X connect 21 0 1 0;
#X connect 22 0 18 0;
#X connect 24 0 19 0;
#X connect 24 1 40 0;
#X connect 25 0 1 0;
#X connect 27 0 3 0;
#X connect 28 0 10 0;
#X connect 28 1 12 0;
#X connect 29 0 36 1;
#X connect 30 0 29 1;
#X connect 31 0 29 1;
#X connect 32 0 31 0;
#X connect 33 0 30 0;
#X connect 33 1 32 0;
#X connect 36 0 37 0;
#X connect 37 0 38 0;
#X connect 38 1 39 0;
#X connect 39 0 27 0;
#X connect 40 0 27 0;
#X connect 41 0 13 0;
#X connect 41 1 36 0;
