#N canvas 963 169 683 641 10;
#X obj 101 101 numbox3;
#X obj 101 121 numbox3;
#X obj 101 141 numbox3;
#X obj 101 161 numbox3;
#X obj 101 181 numbox3;
#X obj 101 201 numbox3;
#X obj 101 221 numbox3;
#X obj 101 241 numbox3;
#X obj 101 261 numbox3;
#X text 91 82 busSend;
#X obj 175 120 ossia.remote \$1/send-2 @type float @range 0 100;
#X obj 175 140 ossia.remote \$1/send-3 @type float @range 0 100;
#X obj 175 160 ossia.remote \$1/send-4 @type float @range 0 100;
#X obj 175 180 ossia.remote \$1/send-5 @type float @range 0 100;
#X obj 175 200 ossia.remote \$1/send-6 @type float @range 0 100;
#X obj 175 220 ossia.remote \$1/send-7 @type float @range 0 100;
#X obj 175 240 ossia.remote \$1/send-8 @type float @range 0 100;
#X obj 175 260 ossia.remote \$1/send-9 @type float @range 0 100;
#X text 95 891 -------;
#X obj 101 281 numbox3;
#X obj 101 301 numbox3;
#X obj 101 321 numbox3;
#X obj 101 341 numbox3;
#X obj 101 361 numbox3;
#X obj 101 381 numbox3;
#X obj 101 401 numbox3;
#X obj 101 421 numbox3;
#X obj 101 441 numbox3;
#X obj 175 280 ossia.remote \$1/send-10 @type float @range 0 100;
#X obj 175 300 ossia.remote \$1/send-11 @type float @range 0 100;
#X obj 175 320 ossia.remote \$1/send-12 @type float @range 0 100;
#X obj 175 339 ossia.remote \$1/send-13 @type float @range 0 100;
#X obj 175 360 ossia.remote \$1/send-14 @type float @range 0 100;
#X obj 175 380 ossia.remote \$1/send-15 @type float @range 0 100;
#X obj 175 401 ossia.remote \$1/send-16 @type float @range 0 100;
#X obj 175 420 ossia.remote \$1/send-17 @type float @range 0 100;
#X obj 175 440 ossia.remote \$1/send-18 @type float @range 0 100;
#X obj 101 461 numbox3;
#X obj 101 481 numbox3;
#X obj 175 461 ossia.remote \$1/send-19 @type float @range 0 100;
#X obj 175 480 ossia.remote \$1/send-20 @type float @range 0 100;
#X obj 100 903 numbox3;
#X obj 174 902 ossia.remote \$1/send-fx/vague.1/level @type float @range
0 100;
#X obj 100 923 numbox3;
#X obj 174 922 ossia.remote \$1/send-fx/vague.1/largeur @type float @range
0 100, f 63;
#X obj 100 943 numbox3;
#X text 93 971 -------;
#X obj 100 963 numbox3;
#X obj 100 983 numbox3;
#X text 93 1011 -------;
#X obj 100 1003 numbox3;
#X obj 100 1023 numbox3;
#X text 93 1051 -------;
#X obj 100 1043 numbox3;
#X obj 174 942 ossia.remote \$1/send-fx/vague.2/level @type float @range
0 100;
#X obj 174 962 ossia.remote \$1/send-fx/vague.2/largeur @type float @range
0 100, f 63;
#X obj 174 982 ossia.remote \$1/send-fx/vague.3/level @type float @range
0 100;
#X obj 175 1002 ossia.remote \$1/send-fx/vague.3/largeur @type float
@range 0 100, f 63;
#X obj 174 1022 ossia.remote \$1/send-fx/foret/level @type float @range
0 100;
#X obj 174 1042 ossia.remote \$1/send-fx/foret/speed @type float @range
0 100;
#X text 93 931 -------;
#X obj 100 1063 numbox3;
#X text 93 1091 -------;
#X obj 100 1083 numbox3;
#X obj 174 1062 ossia.remote \$1/send-fx/Rwalk/level @type float @range
0 100;
#X obj 174 1082 ossia.remote \$1/send-fx/Rwalk/speed @type float @range
0 100;
#X obj 101 501 numbox3;
#X obj 101 521 numbox3;
#X obj 101 541 numbox3;
#X obj 101 561 numbox3;
#X obj 101 581 numbox3;
#X obj 101 601 numbox3;
#X obj 101 621 numbox3;
#X obj 101 641 numbox3;
#X obj 101 661 numbox3;
#X obj 101 681 numbox3;
#X obj 101 701 numbox3;
#X obj 101 721 numbox3;
#X obj 101 741 numbox3;
#X obj 101 761 numbox3;
#X obj 101 781 numbox3;
#X obj 101 801 numbox3;
#X obj 101 821 numbox3;
#X obj 101 841 numbox3;
#X obj 101 861 numbox3;
#X obj 101 881 numbox3;
#X obj 175 500 ossia.remote \$1/send-21 @type float @range 0 100;
#X obj 175 520 ossia.remote \$1/send-22 @type float @range 0 100;
#X obj 175 539 ossia.remote \$1/send-23 @type float @range 0 100;
#X obj 175 560 ossia.remote \$1/send-24 @type float @range 0 100;
#X obj 175 580 ossia.remote \$1/send-25 @type float @range 0 100;
#X obj 175 601 ossia.remote \$1/send-26 @type float @range 0 100;
#X obj 175 620 ossia.remote \$1/send-27 @type float @range 0 100;
#X obj 175 640 ossia.remote \$1/send-28 @type float @range 0 100;
#X obj 175 661 ossia.remote \$1/send-29 @type float @range 0 100;
#X obj 175 680 ossia.remote \$1/send-30 @type float @range 0 100;
#X obj 175 700 ossia.remote \$1/send-31 @type float @range 0 100;
#X obj 175 720 ossia.remote \$1/send-32 @type float @range 0 100;
#X obj 175 739 ossia.remote \$1/send-33 @type float @range 0 100;
#X obj 175 760 ossia.remote \$1/send-34 @type float @range 0 100;
#X obj 175 780 ossia.remote \$1/send-35 @type float @range 0 100;
#X obj 175 801 ossia.remote \$1/send-36 @type float @range 0 100;
#X obj 175 820 ossia.remote \$1/send-37 @type float @range 0 100;
#X obj 175 840 ossia.remote \$1/send-38 @type float @range 0 100;
#X obj 175 860 ossia.remote \$1/send-39 @type float @range 0 100;
#X obj 175 880 ossia.remote \$1/send-40 @type float @range 0 100;
#X msg 224 76 dump;
#X obj 449 119 print remote_dump;
#X obj 175 100 ossia.remote \$1/send-1 @type float @range 0 100;
#X connect 0 0 108 0;
#X connect 1 0 10 0;
#X connect 2 0 11 0;
#X connect 3 0 12 0;
#X connect 4 0 13 0;
#X connect 5 0 14 0;
#X connect 6 0 15 0;
#X connect 7 0 16 0;
#X connect 8 0 17 0;
#X connect 10 0 1 0;
#X connect 11 0 2 0;
#X connect 12 0 3 0;
#X connect 13 0 4 0;
#X connect 14 0 5 0;
#X connect 15 0 6 0;
#X connect 16 0 7 0;
#X connect 17 0 8 0;
#X connect 19 0 28 0;
#X connect 20 0 29 0;
#X connect 21 0 30 0;
#X connect 22 0 31 0;
#X connect 23 0 32 0;
#X connect 24 0 33 0;
#X connect 25 0 34 0;
#X connect 26 0 35 0;
#X connect 27 0 36 0;
#X connect 28 0 19 0;
#X connect 29 0 20 0;
#X connect 30 0 21 0;
#X connect 31 0 22 0;
#X connect 32 0 23 0;
#X connect 33 0 24 0;
#X connect 34 0 25 0;
#X connect 35 0 26 0;
#X connect 36 0 27 0;
#X connect 37 0 39 0;
#X connect 38 0 40 0;
#X connect 39 0 37 0;
#X connect 40 0 38 0;
#X connect 41 0 42 0;
#X connect 42 0 41 0;
#X connect 43 0 44 0;
#X connect 44 0 43 0;
#X connect 45 0 54 0;
#X connect 47 0 55 0;
#X connect 48 0 56 0;
#X connect 50 0 57 0;
#X connect 51 0 58 0;
#X connect 53 0 59 0;
#X connect 54 0 45 0;
#X connect 55 0 47 0;
#X connect 56 0 48 0;
#X connect 57 0 50 0;
#X connect 58 0 51 0;
#X connect 59 0 53 0;
#X connect 61 0 64 0;
#X connect 63 0 65 0;
#X connect 64 0 61 0;
#X connect 65 0 63 0;
#X connect 66 0 86 0;
#X connect 67 0 87 0;
#X connect 68 0 88 0;
#X connect 69 0 89 0;
#X connect 70 0 90 0;
#X connect 71 0 91 0;
#X connect 72 0 92 0;
#X connect 73 0 93 0;
#X connect 74 0 94 0;
#X connect 75 0 95 0;
#X connect 76 0 96 0;
#X connect 77 0 97 0;
#X connect 78 0 98 0;
#X connect 79 0 99 0;
#X connect 80 0 100 0;
#X connect 81 0 101 0;
#X connect 82 0 102 0;
#X connect 83 0 103 0;
#X connect 84 0 104 0;
#X connect 85 0 105 0;
#X connect 86 0 66 0;
#X connect 87 0 67 0;
#X connect 88 0 68 0;
#X connect 89 0 69 0;
#X connect 90 0 70 0;
#X connect 91 0 71 0;
#X connect 92 0 72 0;
#X connect 93 0 73 0;
#X connect 94 0 74 0;
#X connect 95 0 75 0;
#X connect 96 0 76 0;
#X connect 97 0 77 0;
#X connect 98 0 78 0;
#X connect 99 0 79 0;
#X connect 100 0 80 0;
#X connect 101 0 81 0;
#X connect 102 0 82 0;
#X connect 103 0 83 0;
#X connect 104 0 84 0;
#X connect 105 0 85 0;
#X connect 106 0 108 0;
#X connect 108 0 0 0;
#X connect 108 1 107 0;
#X coords 0 -1 1 1 56 1005 2 100 100;
