#N canvas 541 22 1050 699 10;
#X obj 0 -160 numbox3;
#X obj 0 -140 numbox3;
#X obj 0 -120 numbox3;
#X obj 0 -100 numbox3;
#X obj 0 -80 numbox3;
#X obj 0 -60 numbox3;
#X obj 0 -40 numbox3;
#X obj 0 -20 numbox3;
#X obj 0 0 numbox3;
#X text -10 -179 busSend;
#X obj 74 -141 j.parameter send/2 @type decimal @range 0 100;
#X obj 74 -121 j.parameter send/3 @type decimal @range 0 100;
#X obj 74 -101 j.parameter send/4 @type decimal @range 0 100;
#X obj 74 -81 j.parameter send/5 @type decimal @range 0 100;
#X obj 74 -61 j.parameter send/6 @type decimal @range 0 100;
#X obj 74 -41 j.parameter send/7 @type decimal @range 0 100;
#X obj 74 -21 j.parameter send/8 @type decimal @range 0 100;
#X obj 74 -1 j.parameter send/9 @type decimal @range 0 100;
#X obj -83 -140 outlet;
#X text -6 630 -------;
#X obj 0 20 numbox3;
#X obj 0 40 numbox3;
#X obj 0 60 numbox3;
#X obj 0 80 numbox3;
#X obj 0 100 numbox3;
#X obj 0 120 numbox3;
#X obj 0 140 numbox3;
#X obj 0 160 numbox3;
#X obj 0 180 numbox3;
#X obj 74 19 j.parameter send/10 @type decimal @range 0 100;
#X obj 74 39 j.parameter send/11 @type decimal @range 0 100;
#X obj 74 59 j.parameter send/12 @type decimal @range 0 100;
#X obj 74 78 j.parameter send/13 @type decimal @range 0 100;
#X obj 74 99 j.parameter send/14 @type decimal @range 0 100;
#X obj 74 119 j.parameter send/15 @type decimal @range 0 100;
#X obj 74 140 j.parameter send/16 @type decimal @range 0 100;
#X obj 74 159 j.parameter send/17 @type decimal @range 0 100;
#X obj 74 179 j.parameter send/18 @type decimal @range 0 100;
#X obj 0 200 numbox3;
#X obj 0 220 numbox3;
#X obj 74 200 j.parameter send/19 @type decimal @range 0 100;
#X obj 74 219 j.parameter send/20 @type decimal @range 0 100;
#X obj -102 -167 t f;
#X obj -102 -191 inlet;
#X obj 74 -161 j.parameter send/1 @type decimal @range 0 100;
#X obj 1 644 numbox3;
#X obj 75 643 j.parameter send/fx/vague.1/level @type decimal @range
0 100;
#X obj 1 664 numbox3;
#X obj 75 663 j.parameter send/fx/vague.1/largeur @type decimal @range
0 100, f 63;
#X obj 1 684 numbox3;
#X text -6 712 -------;
#X obj 1 704 numbox3;
#X obj 1 724 numbox3;
#X text -6 752 -------;
#X obj 1 744 numbox3;
#X obj 1 764 numbox3;
#X text -6 792 -------;
#X obj 1 784 numbox3;
#X obj 75 683 j.parameter send/fx/vague.2/level @type decimal @range
0 100;
#X obj 75 703 j.parameter send/fx/vague.2/largeur @type decimal @range
0 100, f 63;
#X obj 75 723 j.parameter send/fx/vague.3/level @type decimal @range
0 100;
#X obj 76 743 j.parameter send/fx/vague.3/largeur @type decimal @range
0 100, f 63;
#X obj 75 763 j.parameter send/fx/foret/level @type decimal @range
0 100;
#X obj 75 783 j.parameter send/fx/foret/speed @type decimal @range
0 100;
#X text -6 672 -------;
#X obj 1 804 numbox3;
#X text -6 832 -------;
#X obj 1 824 numbox3;
#X obj 75 803 j.parameter send/fx/Rwalk/level @type decimal @range
0 100;
#X obj 75 823 j.parameter send/fx/Rwalk/speed @type decimal @range
0 100;
#N canvas 0 122 969 338 bus_fx 0;
#X obj 56 25 inlet;
#X obj 96 268 *;
#X obj 96 168 t b f;
#X obj 123 191 / 100;
#X obj 96 25 inlet;
#X obj 96 289 bus lum/vague/1/level;
#X obj 56 211 * 1;
#X obj 166 268 *;
#X obj 166 168 t b f;
#X obj 193 191 / 100;
#X obj 166 25 inlet;
#X obj 236 267 *;
#X obj 236 167 t b f;
#X obj 263 190 / 100;
#X obj 236 24 inlet;
#X obj 306 267 *;
#X obj 306 167 t b f;
#X obj 333 190 / 100;
#X obj 306 24 inlet;
#X obj 376 267 *;
#X obj 376 167 t b f;
#X obj 403 190 / 100;
#X obj 376 24 inlet;
#X obj 446 267 *;
#X obj 446 167 t b f;
#X obj 473 190 / 100;
#X obj 446 24 inlet;
#X obj 516 267 *;
#X obj 516 167 t b f;
#X obj 543 190 / 100;
#X obj 516 24 inlet;
#X obj 586 267 *;
#X obj 586 167 t b f;
#X obj 613 190 / 100;
#X obj 586 24 inlet;
#X obj 656 267 *;
#X obj 656 167 t b f;
#X obj 683 190 / 100;
#X obj 656 24 inlet;
#X obj 726 267 *;
#X obj 726 167 t b f;
#X obj 753 190 / 100;
#X obj 726 24 inlet;
#X obj 236 288 bus lum/vague/2/level;
#X obj 376 288 bus lum/vague/3/level;
#X obj 516 288 bus lum/foret/level;
#X obj 166 308 bus lum/vague/1/largeur;
#X obj 306 308 bus lum/vague/2/largeur;
#X obj 446 308 bus lum/vague/3/largeur;
#X obj 586 308 bus lum/foret/speed;
#X obj 726 308 bus lum/Rwalk/speed;
#X obj 656 288 bus lum/Rwalk/level;
#X obj 4 117 loadbang;
#X msg 4 139 1, f 34;
#X connect 0 0 6 0;
#X connect 1 0 5 0;
#X connect 2 0 1 0;
#X connect 2 1 3 0;
#X connect 3 0 1 1;
#X connect 4 0 2 0;
#X connect 6 0 1 0;
#X connect 6 0 7 0;
#X connect 6 0 11 0;
#X connect 6 0 15 0;
#X connect 6 0 19 0;
#X connect 6 0 23 0;
#X connect 6 0 27 0;
#X connect 6 0 31 0;
#X connect 6 0 35 0;
#X connect 6 0 39 0;
#X connect 7 0 46 0;
#X connect 8 0 7 0;
#X connect 8 1 9 0;
#X connect 9 0 7 1;
#X connect 10 0 8 0;
#X connect 11 0 43 0;
#X connect 12 0 11 0;
#X connect 12 1 13 0;
#X connect 13 0 11 1;
#X connect 14 0 12 0;
#X connect 15 0 47 0;
#X connect 16 0 15 0;
#X connect 16 1 17 0;
#X connect 17 0 15 1;
#X connect 18 0 16 0;
#X connect 19 0 44 0;
#X connect 20 0 19 0;
#X connect 20 1 21 0;
#X connect 21 0 19 1;
#X connect 22 0 20 0;
#X connect 23 0 48 0;
#X connect 24 0 23 0;
#X connect 24 1 25 0;
#X connect 25 0 23 1;
#X connect 26 0 24 0;
#X connect 27 0 45 0;
#X connect 28 0 27 0;
#X connect 28 1 29 0;
#X connect 29 0 27 1;
#X connect 30 0 28 0;
#X connect 31 0 49 0;
#X connect 32 0 31 0;
#X connect 32 1 33 0;
#X connect 33 0 31 1;
#X connect 34 0 32 0;
#X connect 35 0 51 0;
#X connect 36 0 35 0;
#X connect 36 1 37 0;
#X connect 37 0 35 1;
#X connect 38 0 36 0;
#X connect 39 0 50 0;
#X connect 40 0 39 0;
#X connect 40 1 41 0;
#X connect 41 0 39 1;
#X connect 42 0 40 0;
#X connect 52 0 53 0;
#X connect 53 0 6 0;
#X restore -188 856 pd bus_fx;
#X obj 0 240 numbox3;
#X obj 0 260 numbox3;
#X obj 0 280 numbox3;
#X obj 0 300 numbox3;
#X obj 0 320 numbox3;
#X obj 0 340 numbox3;
#X obj 0 360 numbox3;
#X obj 0 380 numbox3;
#X obj 0 400 numbox3;
#X obj 0 420 numbox3;
#X obj 0 440 numbox3;
#X obj 0 460 numbox3;
#X obj 0 480 numbox3;
#X obj 0 500 numbox3;
#X obj 0 520 numbox3;
#X obj 0 540 numbox3;
#X obj 0 560 numbox3;
#X obj 0 580 numbox3;
#X obj 0 600 numbox3;
#X obj 0 620 numbox3;
#N canvas 529 430 920 501 bus_send1-10 0;
#X obj 133 99 inlet;
#X obj 184 99 inlet;
#X obj 171 302 *;
#X obj 184 220 t b f;
#X obj 171 328 bus lum1;
#X obj 244 99 inlet;
#X obj 231 302 *;
#X obj 244 220 t b f;
#X obj 304 99 inlet;
#X obj 291 302 *;
#X obj 304 220 t b f;
#X obj 364 99 inlet;
#X obj 351 302 *;
#X obj 364 220 t b f;
#X obj 424 99 inlet;
#X obj 411 302 *;
#X obj 424 220 t b f;
#X obj 484 99 inlet;
#X obj 471 302 *;
#X obj 484 220 t b f;
#X obj 544 99 inlet;
#X obj 531 302 *;
#X obj 544 220 t b f;
#X obj 604 99 inlet;
#X obj 591 302 *;
#X obj 604 220 t b f;
#X obj 664 99 inlet;
#X obj 651 302 *;
#X obj 664 220 t b f;
#X obj 131 247 * 1;
#X obj 232 328 bus lum2;
#X obj 291 328 bus lum3;
#X obj 351 328 bus lum4;
#X obj 412 328 bus lum5;
#X obj 471 328 bus lum6;
#X obj 531 328 bus lum7;
#X obj 591 328 bus lum8;
#X obj 651 328 bus lum9;
#X obj 10 398 outlet;
#X obj 184 156 / 100;
#X obj 244 156 / 100;
#X obj 304 156 / 100;
#X obj 364 156 / 100;
#X obj 424 156 / 100;
#X obj 484 156 / 100;
#X obj 544 156 / 100;
#X obj 604 156 / 100;
#X obj 664 156 / 100;
#X floatatom 78 150 5 0 0 0 - - -, f 5;
#X obj 10 124 r master_cycliode_nico;
#X obj 724 99 inlet;
#X obj 711 302 *;
#X obj 724 220 t b f;
#X obj 724 156 / 100;
#X obj 711 328 bus lum10, f 20;
#X connect 0 0 29 0;
#X connect 0 0 38 0;
#X connect 1 0 39 0;
#X connect 2 0 4 0;
#X connect 3 0 2 0;
#X connect 3 1 2 1;
#X connect 5 0 40 0;
#X connect 6 0 30 0;
#X connect 7 0 6 0;
#X connect 7 1 6 1;
#X connect 8 0 41 0;
#X connect 9 0 31 0;
#X connect 10 0 9 0;
#X connect 10 1 9 1;
#X connect 11 0 42 0;
#X connect 12 0 32 0;
#X connect 13 0 12 0;
#X connect 13 1 12 1;
#X connect 14 0 43 0;
#X connect 15 0 33 0;
#X connect 16 0 15 0;
#X connect 16 1 15 1;
#X connect 17 0 44 0;
#X connect 18 0 34 0;
#X connect 19 0 18 0;
#X connect 19 1 18 1;
#X connect 20 0 45 0;
#X connect 21 0 35 0;
#X connect 22 0 21 0;
#X connect 22 1 21 1;
#X connect 23 0 46 0;
#X connect 24 0 36 0;
#X connect 25 0 24 0;
#X connect 25 1 24 1;
#X connect 26 0 47 0;
#X connect 27 0 37 0;
#X connect 28 0 27 0;
#X connect 28 1 27 1;
#X connect 29 0 2 0;
#X connect 29 0 6 0;
#X connect 29 0 9 0;
#X connect 29 0 12 0;
#X connect 29 0 15 0;
#X connect 29 0 18 0;
#X connect 29 0 21 0;
#X connect 29 0 24 0;
#X connect 29 0 27 0;
#X connect 29 0 51 0;
#X connect 39 0 3 0;
#X connect 40 0 7 0;
#X connect 41 0 10 0;
#X connect 42 0 13 0;
#X connect 43 0 16 0;
#X connect 44 0 19 0;
#X connect 45 0 22 0;
#X connect 46 0 25 0;
#X connect 47 0 28 0;
#X connect 49 0 29 1;
#X connect 49 0 48 0;
#X connect 50 0 53 0;
#X connect 51 0 54 0;
#X connect 52 0 51 0;
#X connect 52 1 51 1;
#X connect 53 0 52 0;
#X restore -153 48 pd bus_send1-10;
#N canvas 134 332 920 501 bus_send11-20 0;
#X obj 133 99 inlet;
#X obj 244 99 inlet;
#X obj 231 302 *;
#X obj 244 220 t b f;
#X obj 304 99 inlet;
#X obj 291 302 *;
#X obj 304 220 t b f;
#X obj 364 99 inlet;
#X obj 351 302 *;
#X obj 364 220 t b f;
#X obj 424 99 inlet;
#X obj 411 302 *;
#X obj 424 220 t b f;
#X obj 484 99 inlet;
#X obj 471 302 *;
#X obj 484 220 t b f;
#X obj 544 99 inlet;
#X obj 531 302 *;
#X obj 544 220 t b f;
#X obj 604 99 inlet;
#X obj 591 302 *;
#X obj 604 220 t b f;
#X obj 664 99 inlet;
#X obj 651 302 *;
#X obj 664 220 t b f;
#X obj 131 247 * 1;
#X obj 98 398 outlet;
#X obj 244 147 / 100;
#X obj 304 147 / 100;
#X obj 364 147 / 100;
#X obj 424 147 / 100;
#X obj 484 147 / 100;
#X obj 544 147 / 100;
#X obj 604 147 / 100;
#X obj 664 147 / 100;
#X obj 291 328 bus lum12;
#X obj 351 328 bus lum13;
#X obj 412 328 bus lum14;
#X obj 471 328 bus lum15;
#X obj 531 328 bus lum16;
#X obj 591 327 bus lum17;
#X obj 651 328 bus lum18;
#X obj 724 99 inlet;
#X obj 711 302 *;
#X obj 724 220 t b f;
#X obj 724 147 / 100;
#X obj 784 99 inlet;
#X obj 771 302 *;
#X obj 784 220 t b f;
#X obj 784 147 / 100;
#X obj 711 328 bus lum19;
#X obj 771 328 bus lum20;
#X obj 10 124 r master_cycliode_nico;
#X obj 232 328 bus lum11, f 20;
#X connect 0 0 25 0;
#X connect 0 0 26 0;
#X connect 1 0 27 0;
#X connect 2 0 53 0;
#X connect 3 0 2 0;
#X connect 3 1 2 1;
#X connect 4 0 28 0;
#X connect 5 0 35 0;
#X connect 6 0 5 0;
#X connect 6 1 5 1;
#X connect 7 0 29 0;
#X connect 8 0 36 0;
#X connect 9 0 8 0;
#X connect 9 1 8 1;
#X connect 10 0 30 0;
#X connect 11 0 37 0;
#X connect 12 0 11 0;
#X connect 12 1 11 1;
#X connect 13 0 31 0;
#X connect 14 0 38 0;
#X connect 15 0 14 0;
#X connect 15 1 14 1;
#X connect 16 0 32 0;
#X connect 17 0 39 0;
#X connect 18 0 17 0;
#X connect 18 1 17 1;
#X connect 19 0 33 0;
#X connect 20 0 40 0;
#X connect 21 0 20 0;
#X connect 21 1 20 1;
#X connect 22 0 34 0;
#X connect 23 0 41 0;
#X connect 24 0 23 0;
#X connect 24 1 23 1;
#X connect 25 0 2 0;
#X connect 25 0 5 0;
#X connect 25 0 8 0;
#X connect 25 0 11 0;
#X connect 25 0 14 0;
#X connect 25 0 17 0;
#X connect 25 0 20 0;
#X connect 25 0 23 0;
#X connect 25 0 43 0;
#X connect 25 0 47 0;
#X connect 27 0 3 0;
#X connect 28 0 6 0;
#X connect 29 0 9 0;
#X connect 30 0 12 0;
#X connect 31 0 15 0;
#X connect 32 0 18 0;
#X connect 33 0 21 0;
#X connect 34 0 24 0;
#X connect 42 0 45 0;
#X connect 43 0 50 0;
#X connect 44 0 43 0;
#X connect 44 1 43 1;
#X connect 45 0 44 0;
#X connect 46 0 49 0;
#X connect 47 0 51 0;
#X connect 48 0 47 0;
#X connect 48 1 47 1;
#X connect 49 0 48 0;
#X connect 52 0 25 1;
#X restore -163 284 pd bus_send11-20;
#N canvas 140 304 920 501 bus_send21-30 0;
#X obj 133 99 inlet;
#X obj 244 99 inlet;
#X obj 231 302 *;
#X obj 244 220 t b f;
#X obj 304 99 inlet;
#X obj 291 302 *;
#X obj 304 220 t b f;
#X obj 364 99 inlet;
#X obj 351 302 *;
#X obj 364 220 t b f;
#X obj 424 99 inlet;
#X obj 411 302 *;
#X obj 424 220 t b f;
#X obj 484 99 inlet;
#X obj 471 302 *;
#X obj 484 220 t b f;
#X obj 544 99 inlet;
#X obj 531 302 *;
#X obj 544 220 t b f;
#X obj 604 99 inlet;
#X obj 591 302 *;
#X obj 604 220 t b f;
#X obj 664 99 inlet;
#X obj 651 302 *;
#X obj 664 220 t b f;
#X obj 131 247 * 1;
#X obj 98 398 outlet;
#X obj 244 147 / 100;
#X obj 304 147 / 100;
#X obj 364 147 / 100;
#X obj 424 147 / 100;
#X obj 484 147 / 100;
#X obj 544 147 / 100;
#X obj 604 147 / 100;
#X obj 664 147 / 100;
#X obj 724 99 inlet;
#X obj 711 302 *;
#X obj 724 220 t b f;
#X obj 724 147 / 100;
#X obj 784 99 inlet;
#X obj 771 302 *;
#X obj 784 220 t b f;
#X obj 784 147 / 100;
#X obj 10 124 r master_cycliode_nico;
#X obj 232 328 bus lum21;
#X obj 291 328 bus lum22;
#X obj 351 328 bus lum23;
#X obj 412 328 bus lum24;
#X obj 471 328 bus lum25;
#X obj 531 328 bus lum26;
#X obj 591 327 bus lum27;
#X obj 651 328 bus lum28;
#X obj 711 328 bus lum29;
#X obj 771 328 bus lum30, f 28;
#X connect 0 0 25 0;
#X connect 0 0 26 0;
#X connect 1 0 27 0;
#X connect 2 0 44 0;
#X connect 3 0 2 0;
#X connect 3 1 2 1;
#X connect 4 0 28 0;
#X connect 5 0 45 0;
#X connect 6 0 5 0;
#X connect 6 1 5 1;
#X connect 7 0 29 0;
#X connect 8 0 46 0;
#X connect 9 0 8 0;
#X connect 9 1 8 1;
#X connect 10 0 30 0;
#X connect 11 0 47 0;
#X connect 12 0 11 0;
#X connect 12 1 11 1;
#X connect 13 0 31 0;
#X connect 14 0 48 0;
#X connect 15 0 14 0;
#X connect 15 1 14 1;
#X connect 16 0 32 0;
#X connect 17 0 49 0;
#X connect 18 0 17 0;
#X connect 18 1 17 1;
#X connect 19 0 33 0;
#X connect 20 0 50 0;
#X connect 21 0 20 0;
#X connect 21 1 20 1;
#X connect 22 0 34 0;
#X connect 23 0 51 0;
#X connect 24 0 23 0;
#X connect 24 1 23 1;
#X connect 25 0 2 0;
#X connect 25 0 5 0;
#X connect 25 0 8 0;
#X connect 25 0 11 0;
#X connect 25 0 14 0;
#X connect 25 0 17 0;
#X connect 25 0 20 0;
#X connect 25 0 23 0;
#X connect 25 0 36 0;
#X connect 25 0 40 0;
#X connect 27 0 3 0;
#X connect 28 0 6 0;
#X connect 29 0 9 0;
#X connect 30 0 12 0;
#X connect 31 0 15 0;
#X connect 32 0 18 0;
#X connect 33 0 21 0;
#X connect 34 0 24 0;
#X connect 35 0 38 0;
#X connect 36 0 52 0;
#X connect 37 0 36 0;
#X connect 37 1 36 1;
#X connect 38 0 37 0;
#X connect 39 0 42 0;
#X connect 40 0 53 0;
#X connect 41 0 40 0;
#X connect 41 1 40 1;
#X connect 42 0 41 0;
#X connect 43 0 25 1;
#X restore -188 500 pd bus_send21-30;
#N canvas 143 290 1045 501 bus_send31-40 0;
#X obj 133 99 inlet;
#X obj 244 99 inlet;
#X obj 231 302 *;
#X obj 244 220 t b f;
#X obj 304 99 inlet;
#X obj 291 302 *;
#X obj 304 220 t b f;
#X obj 364 99 inlet;
#X obj 351 302 *;
#X obj 364 220 t b f;
#X obj 424 99 inlet;
#X obj 411 302 *;
#X obj 424 220 t b f;
#X obj 484 99 inlet;
#X obj 471 302 *;
#X obj 484 220 t b f;
#X obj 544 99 inlet;
#X obj 531 302 *;
#X obj 544 220 t b f;
#X obj 604 99 inlet;
#X obj 591 302 *;
#X obj 604 220 t b f;
#X obj 664 99 inlet;
#X obj 651 302 *;
#X obj 664 220 t b f;
#X obj 131 247 * 1;
#X obj 98 398 outlet;
#X obj 244 147 / 100;
#X obj 304 147 / 100;
#X obj 364 147 / 100;
#X obj 424 147 / 100;
#X obj 484 147 / 100;
#X obj 544 147 / 100;
#X obj 604 147 / 100;
#X obj 664 147 / 100;
#X obj 724 99 inlet;
#X obj 711 302 *;
#X obj 724 220 t b f;
#X obj 724 147 / 100;
#X obj 784 99 inlet;
#X obj 771 302 *;
#X obj 784 220 t b f;
#X obj 784 147 / 100;
#X obj 10 124 r master_cycliode_nico;
#X obj 232 328 bus lum31;
#X obj 291 328 bus lum32;
#X obj 351 328 bus lum33;
#X obj 412 328 bus lum34;
#X obj 471 328 bus lum35;
#X obj 531 328 bus lum36;
#X obj 591 327 bus lum37;
#X obj 651 328 bus lum38;
#X obj 711 328 bus lum39;
#X obj 771 328 bus lum40, f 23;
#X connect 0 0 25 0;
#X connect 0 0 26 0;
#X connect 1 0 27 0;
#X connect 2 0 44 0;
#X connect 3 0 2 0;
#X connect 3 1 2 1;
#X connect 4 0 28 0;
#X connect 5 0 45 0;
#X connect 6 0 5 0;
#X connect 6 1 5 1;
#X connect 7 0 29 0;
#X connect 8 0 46 0;
#X connect 9 0 8 0;
#X connect 9 1 8 1;
#X connect 10 0 30 0;
#X connect 11 0 47 0;
#X connect 12 0 11 0;
#X connect 12 1 11 1;
#X connect 13 0 31 0;
#X connect 14 0 48 0;
#X connect 15 0 14 0;
#X connect 15 1 14 1;
#X connect 16 0 32 0;
#X connect 17 0 49 0;
#X connect 18 0 17 0;
#X connect 18 1 17 1;
#X connect 19 0 33 0;
#X connect 20 0 50 0;
#X connect 21 0 20 0;
#X connect 21 1 20 1;
#X connect 22 0 34 0;
#X connect 23 0 51 0;
#X connect 24 0 23 0;
#X connect 24 1 23 1;
#X connect 25 0 2 0;
#X connect 25 0 5 0;
#X connect 25 0 8 0;
#X connect 25 0 11 0;
#X connect 25 0 14 0;
#X connect 25 0 17 0;
#X connect 25 0 20 0;
#X connect 25 0 23 0;
#X connect 25 0 36 0;
#X connect 25 0 40 0;
#X connect 27 0 3 0;
#X connect 28 0 6 0;
#X connect 29 0 9 0;
#X connect 30 0 12 0;
#X connect 31 0 15 0;
#X connect 32 0 18 0;
#X connect 33 0 21 0;
#X connect 34 0 24 0;
#X connect 35 0 38 0;
#X connect 36 0 52 0;
#X connect 37 0 36 0;
#X connect 37 1 36 1;
#X connect 38 0 37 0;
#X connect 39 0 42 0;
#X connect 40 0 53 0;
#X connect 41 0 40 0;
#X connect 41 1 40 1;
#X connect 42 0 41 0;
#X connect 43 0 25 1;
#X restore -188 700 pd bus_send31-40;
#X obj 74 239 j.parameter send/21 @type decimal @range 0 100;
#X obj 74 259 j.parameter send/22 @type decimal @range 0 100;
#X obj 74 278 j.parameter send/23 @type decimal @range 0 100;
#X obj 74 299 j.parameter send/24 @type decimal @range 0 100;
#X obj 74 319 j.parameter send/25 @type decimal @range 0 100;
#X obj 74 340 j.parameter send/26 @type decimal @range 0 100;
#X obj 74 359 j.parameter send/27 @type decimal @range 0 100;
#X obj 74 379 j.parameter send/28 @type decimal @range 0 100;
#X obj 74 400 j.parameter send/29 @type decimal @range 0 100;
#X obj 74 419 j.parameter send/30 @type decimal @range 0 100;
#X obj 74 439 j.parameter send/31 @type decimal @range 0 100;
#X obj 74 459 j.parameter send/32 @type decimal @range 0 100;
#X obj 74 478 j.parameter send/33 @type decimal @range 0 100;
#X obj 74 499 j.parameter send/34 @type decimal @range 0 100;
#X obj 74 519 j.parameter send/35 @type decimal @range 0 100;
#X obj 74 540 j.parameter send/36 @type decimal @range 0 100;
#X obj 74 559 j.parameter send/37 @type decimal @range 0 100;
#X obj 74 579 j.parameter send/38 @type decimal @range 0 100;
#X obj 74 599 j.parameter send/39 @type decimal @range 0 100;
#X obj 74 619 j.parameter send/40 @type decimal @range 0 100;
#X connect 0 0 91 1;
#X connect 0 0 44 0;
#X connect 1 0 91 2;
#X connect 1 0 10 0;
#X connect 2 0 91 3;
#X connect 2 0 11 0;
#X connect 3 0 91 4;
#X connect 3 0 12 0;
#X connect 4 0 91 5;
#X connect 4 0 13 0;
#X connect 5 0 91 6;
#X connect 5 0 14 0;
#X connect 6 0 91 7;
#X connect 6 0 15 0;
#X connect 7 0 91 8;
#X connect 7 0 16 0;
#X connect 8 0 91 9;
#X connect 8 0 17 0;
#X connect 10 0 1 0;
#X connect 11 0 2 0;
#X connect 12 0 3 0;
#X connect 13 0 4 0;
#X connect 14 0 5 0;
#X connect 15 0 6 0;
#X connect 16 0 7 0;
#X connect 17 0 8 0;
#X connect 20 0 29 0;
#X connect 20 0 91 10;
#X connect 21 0 92 1;
#X connect 21 0 30 0;
#X connect 22 0 92 2;
#X connect 22 0 31 0;
#X connect 23 0 92 3;
#X connect 23 0 32 0;
#X connect 24 0 92 4;
#X connect 24 0 33 0;
#X connect 25 0 92 5;
#X connect 25 0 34 0;
#X connect 26 0 92 6;
#X connect 26 0 35 0;
#X connect 27 0 92 7;
#X connect 27 0 36 0;
#X connect 28 0 92 8;
#X connect 28 0 37 0;
#X connect 29 0 20 0;
#X connect 30 0 21 0;
#X connect 31 0 22 0;
#X connect 32 0 23 0;
#X connect 33 0 24 0;
#X connect 34 0 25 0;
#X connect 35 0 26 0;
#X connect 36 0 27 0;
#X connect 37 0 28 0;
#X connect 38 0 40 0;
#X connect 38 0 92 9;
#X connect 39 0 41 0;
#X connect 39 0 92 10;
#X connect 40 0 38 0;
#X connect 41 0 39 0;
#X connect 42 0 91 0;
#X connect 42 0 18 0;
#X connect 43 0 42 0;
#X connect 44 0 0 0;
#X connect 45 0 46 0;
#X connect 45 0 70 1;
#X connect 46 0 45 0;
#X connect 47 0 48 0;
#X connect 47 0 70 2;
#X connect 48 0 47 0;
#X connect 49 0 58 0;
#X connect 49 0 70 3;
#X connect 51 0 59 0;
#X connect 51 0 70 4;
#X connect 52 0 60 0;
#X connect 52 0 70 5;
#X connect 54 0 61 0;
#X connect 54 0 70 6;
#X connect 55 0 62 0;
#X connect 55 0 70 7;
#X connect 57 0 63 0;
#X connect 57 0 70 8;
#X connect 58 0 49 0;
#X connect 59 0 51 0;
#X connect 60 0 52 0;
#X connect 61 0 54 0;
#X connect 62 0 55 0;
#X connect 63 0 57 0;
#X connect 65 0 68 0;
#X connect 65 0 70 9;
#X connect 67 0 69 0;
#X connect 67 0 70 10;
#X connect 68 0 65 0;
#X connect 69 0 67 0;
#X connect 71 0 93 1;
#X connect 71 0 95 0;
#X connect 72 0 93 2;
#X connect 72 0 96 0;
#X connect 73 0 93 3;
#X connect 73 0 97 0;
#X connect 74 0 93 4;
#X connect 74 0 98 0;
#X connect 75 0 93 5;
#X connect 75 0 99 0;
#X connect 76 0 93 6;
#X connect 76 0 100 0;
#X connect 77 0 93 7;
#X connect 77 0 101 0;
#X connect 78 0 93 8;
#X connect 78 0 102 0;
#X connect 79 0 93 9;
#X connect 79 0 103 0;
#X connect 80 0 93 10;
#X connect 80 0 104 0;
#X connect 81 0 94 1;
#X connect 81 0 105 0;
#X connect 82 0 94 2;
#X connect 82 0 106 0;
#X connect 83 0 94 3;
#X connect 83 0 107 0;
#X connect 84 0 94 4;
#X connect 84 0 108 0;
#X connect 85 0 94 5;
#X connect 85 0 109 0;
#X connect 86 0 94 6;
#X connect 86 0 110 0;
#X connect 87 0 94 7;
#X connect 87 0 111 0;
#X connect 88 0 94 8;
#X connect 88 0 112 0;
#X connect 89 0 94 9;
#X connect 89 0 113 0;
#X connect 90 0 94 10;
#X connect 90 0 114 0;
#X connect 91 0 92 0;
#X connect 92 0 93 0;
#X connect 93 0 94 0;
#X connect 94 0 70 0;
#X connect 95 0 71 0;
#X connect 96 0 72 0;
#X connect 97 0 73 0;
#X connect 98 0 74 0;
#X connect 99 0 75 0;
#X connect 100 0 76 0;
#X connect 101 0 77 0;
#X connect 102 0 78 0;
#X connect 103 0 79 0;
#X connect 104 0 80 0;
#X connect 105 0 81 0;
#X connect 106 0 82 0;
#X connect 107 0 83 0;
#X connect 108 0 84 0;
#X connect 109 0 85 0;
#X connect 110 0 86 0;
#X connect 111 0 87 0;
#X connect 112 0 88 0;
#X connect 113 0 89 0;
#X connect 114 0 90 0;
#X coords 0 699 1 698 56 1005 0;
