#N canvas 370 224 718 708 10;
#X obj 74 -72 ossia.param send.5 @type float @range 0 100;
#X obj 74 -52 ossia.param send.6 @type float @range 0 100;
#X obj 74 -32 ossia.param send.7 @type float @range 0 100;
#X obj 74 -12 ossia.param send.8 @type float @range 0 100;
#X obj 74 8 ossia.param send.9 @type float @range 0 100;
#X obj -134 -91 outlet;
#X text -6 639 -------;
#X obj 74 28 ossia.param send.10 @type float @range 0 100;
#X obj 74 48 ossia.param send.11 @type float @range 0 100;
#X obj 74 68 ossia.param send.12 @type float @range 0 100;
#X obj 74 87 ossia.param send.13 @type float @range 0 100;
#X obj 74 108 ossia.param send.14 @type float @range 0 100;
#X obj 74 128 ossia.param send.15 @type float @range 0 100;
#X obj 74 149 ossia.param send.16 @type float @range 0 100;
#X obj 74 168 ossia.param send.17 @type float @range 0 100;
#X obj 74 188 ossia.param send.18 @type float @range 0 100;
#X obj 74 209 ossia.param send.19 @type float @range 0 100;
#X obj 74 228 ossia.param send.20 @type float @range 0 100;
#X obj -153 -182 inlet;
#X obj 1 653 numbox3;
#X obj 75 652 ossia.param send.fx/vague.1/level @type float @range 0
100;
#X obj 1 673 numbox3;
#X obj 75 672 ossia.param send.fx/vague.1/largeur @type float @range
0 100, f 63;
#X obj 1 693 numbox3;
#X text -6 721 -------;
#X obj 1 713 numbox3;
#X obj 1 733 numbox3;
#X text -6 761 -------;
#X obj 1 753 numbox3;
#X obj 1 773 numbox3;
#X text -6 801 -------;
#X obj 1 793 numbox3;
#X obj 75 692 ossia.param send.fx/vague.2/level @type float @range 0
100;
#X obj 75 712 ossia.param send.fx/vague.2/largeur @type float @range
0 100, f 63;
#X obj 75 732 ossia.param send.fx/vague.3/level @type float @range 0
100;
#X obj 76 752 ossia.param send.fx/vague.3/largeur @type float @range
0 100, f 63;
#X obj 75 772 ossia.param send.fx/foret/level @type float @range 0 100
;
#X obj 75 792 ossia.param send.fx/foret/speed @type float @range 0 100
;
#X text -6 681 -------;
#X obj 1 813 numbox3;
#X text -6 841 -------;
#X obj 1 833 numbox3;
#X obj 75 812 ossia.param send.fx/Rwalk/level @type float @range 0 100
;
#X obj 75 832 ossia.param send.fx/Rwalk/speed @type float @range 0 100
;
#N canvas 399 330 969 338 bus_fx 0;
#X obj 56 25 inlet;
#X obj 96 268 *;
#X obj 96 168 t b f;
#X obj 123 191 / 100;
#X obj 96 25 inlet;
#X obj 96 289 bus lum/vague/1/level;
#X obj 166 268 *;
#X obj 166 168 t b f;
#X obj 193 191 / 100;
#X obj 166 25 inlet;
#X obj 236 267 *;
#X obj 236 167 t b f;
#X obj 263 190 / 100;
#X obj 236 24 inlet;
#X obj 306 267 *;
#X obj 306 167 t b f;
#X obj 333 190 / 100;
#X obj 306 24 inlet;
#X obj 376 267 *;
#X obj 376 167 t b f;
#X obj 403 190 / 100;
#X obj 376 24 inlet;
#X obj 446 267 *;
#X obj 446 167 t b f;
#X obj 473 190 / 100;
#X obj 446 24 inlet;
#X obj 516 267 *;
#X obj 516 167 t b f;
#X obj 543 190 / 100;
#X obj 516 24 inlet;
#X obj 586 267 *;
#X obj 586 167 t b f;
#X obj 613 190 / 100;
#X obj 586 24 inlet;
#X obj 656 267 *;
#X obj 656 167 t b f;
#X obj 683 190 / 100;
#X obj 656 24 inlet;
#X obj 726 267 *;
#X obj 726 167 t b f;
#X obj 753 190 / 100;
#X obj 726 24 inlet;
#X obj 236 288 bus lum/vague/2/level;
#X obj 376 288 bus lum/vague/3/level;
#X obj 516 288 bus lum/foret/level;
#X obj 166 308 bus lum/vague/1/largeur;
#X obj 306 308 bus lum/vague/2/largeur;
#X obj 446 308 bus lum/vague/3/largeur;
#X obj 586 308 bus lum/foret/speed;
#X obj 726 308 bus lum/Rwalk/speed;
#X obj 656 288 bus lum/Rwalk/level;
#X obj 56 211 t f;
#X connect 0 0 51 0;
#X connect 1 0 5 0;
#X connect 2 0 1 0;
#X connect 2 1 3 0;
#X connect 3 0 1 1;
#X connect 4 0 2 0;
#X connect 6 0 45 0;
#X connect 7 0 6 0;
#X connect 7 1 8 0;
#X connect 8 0 6 1;
#X connect 9 0 7 0;
#X connect 10 0 42 0;
#X connect 11 0 10 0;
#X connect 11 1 12 0;
#X connect 12 0 10 1;
#X connect 13 0 11 0;
#X connect 14 0 46 0;
#X connect 15 0 14 0;
#X connect 15 1 16 0;
#X connect 16 0 14 1;
#X connect 17 0 15 0;
#X connect 18 0 43 0;
#X connect 19 0 18 0;
#X connect 19 1 20 0;
#X connect 20 0 18 1;
#X connect 21 0 19 0;
#X connect 22 0 47 0;
#X connect 23 0 22 0;
#X connect 23 1 24 0;
#X connect 24 0 22 1;
#X connect 25 0 23 0;
#X connect 26 0 44 0;
#X connect 27 0 26 0;
#X connect 27 1 28 0;
#X connect 28 0 26 1;
#X connect 29 0 27 0;
#X connect 30 0 48 0;
#X connect 31 0 30 0;
#X connect 31 1 32 0;
#X connect 32 0 30 1;
#X connect 33 0 31 0;
#X connect 34 0 50 0;
#X connect 35 0 34 0;
#X connect 35 1 36 0;
#X connect 36 0 34 1;
#X connect 37 0 35 0;
#X connect 38 0 49 0;
#X connect 39 0 38 0;
#X connect 39 1 40 0;
#X connect 40 0 38 1;
#X connect 41 0 39 0;
#X connect 51 0 1 0;
#X connect 51 0 6 0;
#X connect 51 0 10 0;
#X connect 51 0 14 0;
#X connect 51 0 18 0;
#X connect 51 0 22 0;
#X connect 51 0 26 0;
#X connect 51 0 30 0;
#X connect 51 0 34 0;
#X connect 51 0 38 0;
#X restore -188 865 pd bus_fx;
#X obj 0 529 numbox3;
#X obj 0 549 numbox3;
#X obj 0 569 numbox3;
#X obj 0 589 numbox3;
#X obj 0 609 numbox3;
#X obj 0 629 numbox3;
#N canvas 529 430 920 501 bus_send1-10 0;
#X obj 133 99 inlet;
#X obj 184 99 inlet;
#X obj 171 302 *;
#X obj 184 220 t b f;
#X obj 171 328 bus lum1;
#X obj 244 99 inlet;
#X obj 231 302 *;
#X obj 244 220 t b f;
#X obj 304 99 inlet;
#X obj 291 302 *;
#X obj 304 220 t b f;
#X obj 364 99 inlet;
#X obj 351 302 *;
#X obj 364 220 t b f;
#X obj 424 99 inlet;
#X obj 411 302 *;
#X obj 424 220 t b f;
#X obj 484 99 inlet;
#X obj 471 302 *;
#X obj 484 220 t b f;
#X obj 544 99 inlet;
#X obj 531 302 *;
#X obj 544 220 t b f;
#X obj 604 99 inlet;
#X obj 591 302 *;
#X obj 604 220 t b f;
#X obj 664 99 inlet;
#X obj 651 302 *;
#X obj 664 220 t b f;
#X obj 232 328 bus lum2;
#X obj 291 328 bus lum3;
#X obj 351 328 bus lum4;
#X obj 412 328 bus lum5;
#X obj 471 328 bus lum6;
#X obj 531 328 bus lum7;
#X obj 591 328 bus lum8;
#X obj 651 328 bus lum9;
#X obj 131 387 outlet;
#X obj 184 156 / 100;
#X obj 244 156 / 100;
#X obj 304 156 / 100;
#X obj 364 156 / 100;
#X obj 424 156 / 100;
#X obj 484 156 / 100;
#X obj 544 156 / 100;
#X obj 604 156 / 100;
#X obj 664 156 / 100;
#X obj 724 99 inlet;
#X obj 711 302 *;
#X obj 724 220 t b f;
#X obj 724 156 / 100;
#X obj 711 328 bus lum10, f 20;
#X obj 131 247 t f;
#X connect 0 0 52 0;
#X connect 1 0 38 0;
#X connect 2 0 4 0;
#X connect 3 0 2 0;
#X connect 3 1 2 1;
#X connect 5 0 39 0;
#X connect 6 0 29 0;
#X connect 7 0 6 0;
#X connect 7 1 6 1;
#X connect 8 0 40 0;
#X connect 9 0 30 0;
#X connect 10 0 9 0;
#X connect 10 1 9 1;
#X connect 11 0 41 0;
#X connect 12 0 31 0;
#X connect 13 0 12 0;
#X connect 13 1 12 1;
#X connect 14 0 42 0;
#X connect 15 0 32 0;
#X connect 16 0 15 0;
#X connect 16 1 15 1;
#X connect 17 0 43 0;
#X connect 18 0 33 0;
#X connect 19 0 18 0;
#X connect 19 1 18 1;
#X connect 20 0 44 0;
#X connect 21 0 34 0;
#X connect 22 0 21 0;
#X connect 22 1 21 1;
#X connect 23 0 45 0;
#X connect 24 0 35 0;
#X connect 25 0 24 0;
#X connect 25 1 24 1;
#X connect 26 0 46 0;
#X connect 27 0 36 0;
#X connect 28 0 27 0;
#X connect 28 1 27 1;
#X connect 38 0 3 0;
#X connect 39 0 7 0;
#X connect 40 0 10 0;
#X connect 41 0 13 0;
#X connect 42 0 16 0;
#X connect 43 0 19 0;
#X connect 44 0 22 0;
#X connect 45 0 25 0;
#X connect 46 0 28 0;
#X connect 47 0 50 0;
#X connect 48 0 51 0;
#X connect 49 0 48 0;
#X connect 49 1 48 1;
#X connect 50 0 49 0;
#X connect 52 0 2 0;
#X connect 52 0 6 0;
#X connect 52 0 9 0;
#X connect 52 0 12 0;
#X connect 52 0 15 0;
#X connect 52 0 18 0;
#X connect 52 0 21 0;
#X connect 52 0 24 0;
#X connect 52 0 27 0;
#X connect 52 0 48 0;
#X connect 52 0 37 0;
#X restore -153 57 pd bus_send1-10;
#N canvas 134 332 920 501 bus_send11-20 0;
#X obj 131 149 inlet;
#X obj 244 99 inlet;
#X obj 231 302 *;
#X obj 244 220 t b f;
#X obj 304 99 inlet;
#X obj 291 302 *;
#X obj 304 220 t b f;
#X obj 364 99 inlet;
#X obj 351 302 *;
#X obj 364 220 t b f;
#X obj 424 99 inlet;
#X obj 411 302 *;
#X obj 424 220 t b f;
#X obj 484 99 inlet;
#X obj 471 302 *;
#X obj 484 220 t b f;
#X obj 544 99 inlet;
#X obj 531 302 *;
#X obj 544 220 t b f;
#X obj 604 99 inlet;
#X obj 591 302 *;
#X obj 604 220 t b f;
#X obj 664 99 inlet;
#X obj 651 302 *;
#X obj 664 220 t b f;
#X obj 131 364 outlet;
#X obj 244 147 / 100;
#X obj 304 147 / 100;
#X obj 364 147 / 100;
#X obj 424 147 / 100;
#X obj 484 147 / 100;
#X obj 544 147 / 100;
#X obj 604 147 / 100;
#X obj 664 147 / 100;
#X obj 291 328 bus lum12;
#X obj 351 328 bus lum13;
#X obj 412 328 bus lum14;
#X obj 471 328 bus lum15;
#X obj 531 328 bus lum16;
#X obj 591 327 bus lum17;
#X obj 651 328 bus lum18;
#X obj 724 99 inlet;
#X obj 711 302 *;
#X obj 724 220 t b f;
#X obj 724 147 / 100;
#X obj 784 99 inlet;
#X obj 771 302 *;
#X obj 784 220 t b f;
#X obj 784 147 / 100;
#X obj 711 328 bus lum19;
#X obj 771 328 bus lum20;
#X obj 232 328 bus lum11, f 20;
#X obj 131 247 t f;
#X connect 0 0 52 0;
#X connect 1 0 26 0;
#X connect 2 0 51 0;
#X connect 3 0 2 0;
#X connect 3 1 2 1;
#X connect 4 0 27 0;
#X connect 5 0 34 0;
#X connect 6 0 5 0;
#X connect 6 1 5 1;
#X connect 7 0 28 0;
#X connect 8 0 35 0;
#X connect 9 0 8 0;
#X connect 9 1 8 1;
#X connect 10 0 29 0;
#X connect 11 0 36 0;
#X connect 12 0 11 0;
#X connect 12 1 11 1;
#X connect 13 0 30 0;
#X connect 14 0 37 0;
#X connect 15 0 14 0;
#X connect 15 1 14 1;
#X connect 16 0 31 0;
#X connect 17 0 38 0;
#X connect 18 0 17 0;
#X connect 18 1 17 1;
#X connect 19 0 32 0;
#X connect 20 0 39 0;
#X connect 21 0 20 0;
#X connect 21 1 20 1;
#X connect 22 0 33 0;
#X connect 23 0 40 0;
#X connect 24 0 23 0;
#X connect 24 1 23 1;
#X connect 26 0 3 0;
#X connect 27 0 6 0;
#X connect 28 0 9 0;
#X connect 29 0 12 0;
#X connect 30 0 15 0;
#X connect 31 0 18 0;
#X connect 32 0 21 0;
#X connect 33 0 24 0;
#X connect 41 0 44 0;
#X connect 42 0 49 0;
#X connect 43 0 42 0;
#X connect 43 1 42 1;
#X connect 44 0 43 0;
#X connect 45 0 48 0;
#X connect 46 0 50 0;
#X connect 47 0 46 0;
#X connect 47 1 46 1;
#X connect 48 0 47 0;
#X connect 52 0 2 0;
#X connect 52 0 5 0;
#X connect 52 0 8 0;
#X connect 52 0 11 0;
#X connect 52 0 14 0;
#X connect 52 0 17 0;
#X connect 52 0 20 0;
#X connect 52 0 23 0;
#X connect 52 0 42 0;
#X connect 52 0 46 0;
#X connect 52 0 25 0;
#X restore -163 293 pd bus_send11-20;
#N canvas 140 304 920 501 bus_send21-30 0;
#X obj 133 99 inlet;
#X obj 244 99 inlet;
#X obj 231 302 *;
#X obj 244 220 t b f;
#X obj 304 99 inlet;
#X obj 291 302 *;
#X obj 304 220 t b f;
#X obj 364 99 inlet;
#X obj 351 302 *;
#X obj 364 220 t b f;
#X obj 424 99 inlet;
#X obj 411 302 *;
#X obj 424 220 t b f;
#X obj 484 99 inlet;
#X obj 471 302 *;
#X obj 484 220 t b f;
#X obj 544 99 inlet;
#X obj 531 302 *;
#X obj 544 220 t b f;
#X obj 604 99 inlet;
#X obj 591 302 *;
#X obj 604 220 t b f;
#X obj 664 99 inlet;
#X obj 651 302 *;
#X obj 664 220 t b f;
#X obj 131 247 * 1;
#X obj 98 398 outlet;
#X obj 244 147 / 100;
#X obj 304 147 / 100;
#X obj 364 147 / 100;
#X obj 424 147 / 100;
#X obj 484 147 / 100;
#X obj 544 147 / 100;
#X obj 604 147 / 100;
#X obj 664 147 / 100;
#X obj 724 99 inlet;
#X obj 711 302 *;
#X obj 724 220 t b f;
#X obj 724 147 / 100;
#X obj 784 99 inlet;
#X obj 771 302 *;
#X obj 784 220 t b f;
#X obj 784 147 / 100;
#X obj 10 124 r master_cycliode_nico;
#X obj 232 328 bus lum21;
#X obj 291 328 bus lum22;
#X obj 351 328 bus lum23;
#X obj 412 328 bus lum24;
#X obj 471 328 bus lum25;
#X obj 531 328 bus lum26;
#X obj 591 327 bus lum27;
#X obj 651 328 bus lum28;
#X obj 711 328 bus lum29;
#X obj 771 328 bus lum30, f 28;
#X connect 0 0 25 0;
#X connect 0 0 26 0;
#X connect 1 0 27 0;
#X connect 2 0 44 0;
#X connect 3 0 2 0;
#X connect 3 1 2 1;
#X connect 4 0 28 0;
#X connect 5 0 45 0;
#X connect 6 0 5 0;
#X connect 6 1 5 1;
#X connect 7 0 29 0;
#X connect 8 0 46 0;
#X connect 9 0 8 0;
#X connect 9 1 8 1;
#X connect 10 0 30 0;
#X connect 11 0 47 0;
#X connect 12 0 11 0;
#X connect 12 1 11 1;
#X connect 13 0 31 0;
#X connect 14 0 48 0;
#X connect 15 0 14 0;
#X connect 15 1 14 1;
#X connect 16 0 32 0;
#X connect 17 0 49 0;
#X connect 18 0 17 0;
#X connect 18 1 17 1;
#X connect 19 0 33 0;
#X connect 20 0 50 0;
#X connect 21 0 20 0;
#X connect 21 1 20 1;
#X connect 22 0 34 0;
#X connect 23 0 51 0;
#X connect 24 0 23 0;
#X connect 24 1 23 1;
#X connect 25 0 2 0;
#X connect 25 0 5 0;
#X connect 25 0 8 0;
#X connect 25 0 11 0;
#X connect 25 0 14 0;
#X connect 25 0 17 0;
#X connect 25 0 20 0;
#X connect 25 0 23 0;
#X connect 25 0 36 0;
#X connect 25 0 40 0;
#X connect 27 0 3 0;
#X connect 28 0 6 0;
#X connect 29 0 9 0;
#X connect 30 0 12 0;
#X connect 31 0 15 0;
#X connect 32 0 18 0;
#X connect 33 0 21 0;
#X connect 34 0 24 0;
#X connect 35 0 38 0;
#X connect 36 0 52 0;
#X connect 37 0 36 0;
#X connect 37 1 36 1;
#X connect 38 0 37 0;
#X connect 39 0 42 0;
#X connect 40 0 53 0;
#X connect 41 0 40 0;
#X connect 41 1 40 1;
#X connect 42 0 41 0;
#X connect 43 0 25 1;
#X restore -188 509 pd bus_send21-30;
#N canvas 143 290 1045 501 bus_send31-40 0;
#X obj 133 99 inlet;
#X obj 244 99 inlet;
#X obj 231 302 *;
#X obj 244 220 t b f;
#X obj 304 99 inlet;
#X obj 291 302 *;
#X obj 304 220 t b f;
#X obj 364 99 inlet;
#X obj 351 302 *;
#X obj 364 220 t b f;
#X obj 424 99 inlet;
#X obj 411 302 *;
#X obj 424 220 t b f;
#X obj 484 99 inlet;
#X obj 471 302 *;
#X obj 484 220 t b f;
#X obj 544 99 inlet;
#X obj 531 302 *;
#X obj 544 220 t b f;
#X obj 604 99 inlet;
#X obj 591 302 *;
#X obj 604 220 t b f;
#X obj 664 99 inlet;
#X obj 651 302 *;
#X obj 664 220 t b f;
#X obj 131 385 outlet;
#X obj 244 147 / 100;
#X obj 304 147 / 100;
#X obj 364 147 / 100;
#X obj 424 147 / 100;
#X obj 484 147 / 100;
#X obj 544 147 / 100;
#X obj 604 147 / 100;
#X obj 664 147 / 100;
#X obj 724 99 inlet;
#X obj 711 302 *;
#X obj 724 220 t b f;
#X obj 724 147 / 100;
#X obj 784 99 inlet;
#X obj 771 302 *;
#X obj 784 220 t b f;
#X obj 784 147 / 100;
#X obj 232 328 bus lum31;
#X obj 291 328 bus lum32;
#X obj 351 328 bus lum33;
#X obj 412 328 bus lum34;
#X obj 471 328 bus lum35;
#X obj 531 328 bus lum36;
#X obj 591 327 bus lum37;
#X obj 651 328 bus lum38;
#X obj 711 328 bus lum39;
#X obj 771 328 bus lum40, f 23;
#X obj 131 247 t f;
#X connect 0 0 52 0;
#X connect 1 0 26 0;
#X connect 2 0 42 0;
#X connect 3 0 2 0;
#X connect 3 1 2 1;
#X connect 4 0 27 0;
#X connect 5 0 43 0;
#X connect 6 0 5 0;
#X connect 6 1 5 1;
#X connect 7 0 28 0;
#X connect 8 0 44 0;
#X connect 9 0 8 0;
#X connect 9 1 8 1;
#X connect 10 0 29 0;
#X connect 11 0 45 0;
#X connect 12 0 11 0;
#X connect 12 1 11 1;
#X connect 13 0 30 0;
#X connect 14 0 46 0;
#X connect 15 0 14 0;
#X connect 15 1 14 1;
#X connect 16 0 31 0;
#X connect 17 0 47 0;
#X connect 18 0 17 0;
#X connect 18 1 17 1;
#X connect 19 0 32 0;
#X connect 20 0 48 0;
#X connect 21 0 20 0;
#X connect 21 1 20 1;
#X connect 22 0 33 0;
#X connect 23 0 49 0;
#X connect 24 0 23 0;
#X connect 24 1 23 1;
#X connect 26 0 3 0;
#X connect 27 0 6 0;
#X connect 28 0 9 0;
#X connect 29 0 12 0;
#X connect 30 0 15 0;
#X connect 31 0 18 0;
#X connect 32 0 21 0;
#X connect 33 0 24 0;
#X connect 34 0 37 0;
#X connect 35 0 50 0;
#X connect 36 0 35 0;
#X connect 36 1 35 1;
#X connect 37 0 36 0;
#X connect 38 0 41 0;
#X connect 39 0 51 0;
#X connect 40 0 39 0;
#X connect 40 1 39 1;
#X connect 41 0 40 0;
#X connect 52 0 2 0;
#X connect 52 0 5 0;
#X connect 52 0 8 0;
#X connect 52 0 11 0;
#X connect 52 0 14 0;
#X connect 52 0 17 0;
#X connect 52 0 20 0;
#X connect 52 0 23 0;
#X connect 52 0 35 0;
#X connect 52 0 39 0;
#X connect 52 0 25 0;
#X restore -188 709 pd bus_send31-40;
#X obj 74 248 ossia.param send.21 @type float @range 0 100;
#X obj 74 268 ossia.param send.22 @type float @range 0 100;
#X obj 74 287 ossia.param send.23 @type float @range 0 100;
#X obj 74 308 ossia.param send.24 @type float @range 0 100;
#X obj 74 328 ossia.param send.25 @type float @range 0 100;
#X obj 74 349 ossia.param send.26 @type float @range 0 100;
#X obj 74 368 ossia.param send.27 @type float @range 0 100;
#X obj 74 388 ossia.param send.28 @type float @range 0 100;
#X obj 74 409 ossia.param send.29 @type float @range 0 100;
#X obj 74 428 ossia.param send.30 @type float @range 0 100;
#X obj 74 448 ossia.param send.31 @type float @range 0 100;
#X obj 74 468 ossia.param send.32 @type float @range 0 100;
#X obj 74 487 ossia.param send.33 @type float @range 0 100;
#X obj 74 508 ossia.param send.34 @type float @range 0 100;
#X obj 74 528 ossia.param send.35 @type float @range 0 100;
#X obj 74 549 ossia.param send.36 @type float @range 0 100;
#X obj 74 568 ossia.param send.37 @type float @range 0 100;
#X obj 74 588 ossia.param send.38 @type float @range 0 100;
#X obj 74 608 ossia.param send.39 @type float @range 0 100;
#X obj 74 628 ossia.param send.40 @type float @range 0 100;
#X obj 70 -153 ossia.param send.1 @type float @range 0 100;
#X obj 74 -132 ossia.param send.2 @type float @range 0 100;
#X obj 74 -112 ossia.param send.3 @type float @range 0 100;
#X obj 74 -91 ossia.param send.4 @type float @range 0 100;
#X obj 0 -131 numbox3;
#X obj 0 -111 numbox3;
#X obj 0 -91 numbox3;
#X obj 0 -71 numbox3;
#X obj 0 -51 numbox3;
#X obj 0 -31 numbox3;
#X obj 0 -11 numbox3;
#X obj 0 9 numbox3;
#X obj 0 29 numbox3;
#X obj 0 49 numbox3;
#X obj 0 69 numbox3;
#X obj 0 89 numbox3;
#X obj 0 109 numbox3;
#X obj 0 129 numbox3;
#X obj 0 149 numbox3;
#X obj 0 169 numbox3;
#X obj 0 189 numbox3;
#X obj 0 209 numbox3;
#X obj 0 229 numbox3;
#X obj 0 249 numbox3;
#X obj 0 269 numbox3;
#X obj 0 289 numbox3;
#X obj 0 309 numbox3;
#X obj 0 329 numbox3;
#X obj 0 349 numbox3;
#X obj 0 369 numbox3;
#X obj 0 389 numbox3;
#X obj 0 409 numbox3;
#X obj 0 429 numbox3;
#X obj 0 449 numbox3;
#X obj 0 469 numbox3;
#X obj 0 489 numbox3;
#X obj 0 509 numbox3;
#X msg 285 -196 dump;
#X obj -113 -182 inlet;
#X obj -113 -162 t b f;
#X obj -153 -118 * 1;
#X obj 0 -155 numbox3;
#X obj 384 -159 ø.model \$1;
#X connect 0 0 82 0;
#X connect 1 0 83 0;
#X connect 2 0 84 0;
#X connect 3 0 85 0;
#X connect 4 0 86 0;
#X connect 7 0 87 0;
#X connect 8 0 88 0;
#X connect 9 0 89 0;
#X connect 10 0 90 0;
#X connect 11 0 91 0;
#X connect 12 0 92 0;
#X connect 13 0 93 0;
#X connect 14 0 94 0;
#X connect 15 0 95 0;
#X connect 16 0 96 0;
#X connect 17 0 97 0;
#X connect 18 0 115 0;
#X connect 19 0 44 1;
#X connect 20 0 19 0;
#X connect 21 0 44 2;
#X connect 22 0 21 0;
#X connect 23 0 44 3;
#X connect 25 0 44 4;
#X connect 26 0 44 5;
#X connect 28 0 44 6;
#X connect 29 0 44 7;
#X connect 31 0 44 8;
#X connect 32 0 23 0;
#X connect 33 0 25 0;
#X connect 34 0 26 0;
#X connect 35 0 28 0;
#X connect 36 0 29 0;
#X connect 37 0 31 0;
#X connect 39 0 44 9;
#X connect 41 0 44 10;
#X connect 42 0 39 0;
#X connect 43 0 41 0;
#X connect 45 0 54 5;
#X connect 46 0 54 6;
#X connect 47 0 54 7;
#X connect 48 0 54 8;
#X connect 49 0 54 9;
#X connect 50 0 54 10;
#X connect 51 0 52 0;
#X connect 52 0 53 0;
#X connect 53 0 54 0;
#X connect 54 0 44 0;
#X connect 55 0 98 0;
#X connect 56 0 99 0;
#X connect 57 0 100 0;
#X connect 58 0 101 0;
#X connect 59 0 102 0;
#X connect 60 0 103 0;
#X connect 61 0 104 0;
#X connect 62 0 105 0;
#X connect 63 0 106 0;
#X connect 64 0 107 0;
#X connect 65 0 108 0;
#X connect 66 0 109 0;
#X connect 67 0 110 0;
#X connect 68 0 111 0;
#X connect 69 0 45 0;
#X connect 70 0 46 0;
#X connect 71 0 47 0;
#X connect 72 0 48 0;
#X connect 73 0 49 0;
#X connect 74 0 50 0;
#X connect 75 0 116 0;
#X connect 76 0 79 0;
#X connect 77 0 80 0;
#X connect 78 0 81 0;
#X connect 79 0 51 2;
#X connect 80 0 51 3;
#X connect 81 0 51 4;
#X connect 82 0 51 5;
#X connect 83 0 51 6;
#X connect 84 0 51 7;
#X connect 85 0 51 8;
#X connect 86 0 51 9;
#X connect 87 0 51 10;
#X connect 88 0 52 1;
#X connect 89 0 52 2;
#X connect 90 0 52 3;
#X connect 91 0 52 4;
#X connect 92 0 52 5;
#X connect 93 0 52 6;
#X connect 94 0 52 7;
#X connect 95 0 52 8;
#X connect 96 0 52 9;
#X connect 97 0 52 10;
#X connect 98 0 53 1;
#X connect 99 0 53 2;
#X connect 100 0 53 3;
#X connect 101 0 53 4;
#X connect 102 0 53 5;
#X connect 103 0 53 6;
#X connect 104 0 53 7;
#X connect 105 0 53 8;
#X connect 106 0 53 9;
#X connect 107 0 53 10;
#X connect 108 0 54 1;
#X connect 109 0 54 2;
#X connect 110 0 54 3;
#X connect 111 0 54 4;
#X connect 112 0 76 0;
#X connect 113 0 114 0;
#X connect 114 0 115 0;
#X connect 114 1 115 1;
#X connect 115 0 51 0;
#X connect 115 0 5 0;
#X connect 116 0 51 1;
#X coords 0 708 1 707 56 1005 0;
