#N canvas 601 158 450 300 10;
#X obj 137 8 r simulation_light_\$1;
#X obj 293 8 inlet;
#X obj 343 8 inlet;
#X obj 393 8 inlet;
#X obj 62 137 gemhead;
#X obj 137 29 mapping/iir 10;
#X msg 137 143 \$1 \$1 \$1 \$1;
#X obj 62 251 translateXYZ;
#X floatatom 166 119 5 0 0 0 - - -, f 5;
#X obj 62 199 color;
#X obj 62 300 circle;
#X obj 62 159 alpha;
#X obj 231 220 / 10;
#X obj 316 54 * 5;
#X obj 137 119 max;
#X floatatom 115 170 5 0 0 0 - - -, f 5;
#X obj 137 51 / 100;
#X obj 137 82 sqrt;
#X connect 0 0 5 0;
#X connect 1 0 7 1;
#X connect 2 0 7 2;
#X connect 3 0 12 0;
#X connect 3 0 13 0;
#X connect 4 0 11 0;
#X connect 5 0 16 0;
#X connect 6 0 9 1;
#X connect 7 0 10 0;
#X connect 8 0 14 1;
#X connect 9 0 7 0;
#X connect 11 0 9 0;
#X connect 12 0 10 1;
#X connect 13 0 5 1;
#X connect 14 0 6 0;
#X connect 14 0 15 0;
#X connect 16 0 17 0;
#X connect 17 0 14 0;
