#N canvas 545 46 780 950 10;
#X obj 266 713 *;
#X obj 266 808 f;
#X obj 266 787 t b f;
#X obj 266 829 pack f f;
#N canvas 37 450 240 188 table-\$1 1;
#N canvas 296 261 627 288 (subpatch) 0;
#X array \$0-vague-\$1 48 float 1;
#A 0 1.56239e-05 1.56239e-05 1.56239e-05 1.56239e-05 1.56239e-05 1.56239e-05
1.56239e-05 1.56239e-05 1.56239e-05 1.56239e-05 1.56239e-05 1.56239e-05
1.80182e-05 0.0254225 0.757191 0.476074 0.0063186 1.56239e-05 1.56239e-05
1.56239e-05 1.56239e-05 1.56239e-05 1.56239e-05 1.56239e-05 1.56239e-05
1.56239e-05 1.56239e-05 1.56239e-05 1.56239e-05 1.56239e-05 1.56239e-05
1.56239e-05 1.56239e-05 1.56239e-05 1.56239e-05 1.56239e-05 1.56239e-05
1.56239e-05 1.56239e-05 1.56239e-05 1.56239e-05 1.56239e-05 1.56239e-05
1.56239e-05 1.56239e-05 1.56239e-05 1.56239e-05 1.56239e-05;
#X coords 0 1 47 -1 200 140 1 0 0;
#X restore 15 19 graph;
#X restore 420 828 pd table-\$1;
#X floatatom 220 50 5 0 0 0 - - -, f 5;
#X obj 134 8 loadbang;
#X obj 134 34 tgl 15 0 empty empty empty 17 7 0 10 -262144 -1 -1 1
1;
#X obj 134 54 metro 20;
#X obj 134 303 until;
#X obj 134 385 f;
#X obj 184 385 + 1;
#X obj 134 430 t f f, f 8;
#X obj 134 680 tabread4 gauss;
#X obj 134 538 /;
#X obj 134 560 * 12;
#X obj 134 582 + 60;
#X floatatom 251 425 5 0 0 0 - - -, f 5;
#X floatatom 211 425 5 0 0 0 - - -, f 5;
#X obj 211 445 t b f;
#X obj 252 499 -;
#X floatatom 252 521 5 0 0 0 - - -, f 5;
#X obj 134 610 -;
#X obj 134 632 * 200;
#X obj 134 654 + 500;
#X floatatom 241 590 5 0 0 0 - - -, f 5;
#X text -24 216 number of projector;
#X text 230 218 start index;
#X text 195 406 start and end notes;
#X text 240 570 wave width;
#X msg 331 271 const 0;
#X obj 134 90 f;
#X obj 134 487 -;
#X obj 227 265 change;
#X msg 226 288 resize \$1;
#X obj 220 16 inlet;
#X obj 134 280 t f f, f 9;
#X floatatom 278 648 5 0 0 0 - - -, f 5;
#X text 254 46 spot position;
#X obj 134 759 tabwrite \$0-vague-\$1;
#X obj 423 289 loadbang;
#X msg 357 327 45;
#X msg 445 324 70;
#X obj 212 356 j.parameter \$1/input/min @type decimal @dataspace time
@unit midinote;
#X obj 444 409 j.parameter \$1/input/max @type decimal @dataspace time
@unit midinote;
#X obj 285 591 j.parameter \$1/proj/width @type decimal @description
"spread width of light blob";
#X obj 314 639 j.parameter \$1/level @type decimal @range 0 1 @description
"output level";
#X obj 266 755 *;
#X obj 304 717 inlet;
#X obj 314 676 / 100;
#N canvas 0 22 1920 301 output 0;
#X obj 63 141 bus effet1;
#X obj 103 171 bus effet2;
#X obj 133 141 bus effet3;
#X obj 173 171 bus effet4;
#X obj 203 141 bus effet5;
#X obj 243 171 bus effet6;
#X obj 273 141 bus effet7;
#X obj 313 171 bus effet8;
#X obj 344 142 bus effet9;
#X obj 383 171 bus effet10;
#X obj 413 142 bus effet11;
#X obj 483 142 bus effet13;
#X obj 553 142 bus effet15;
#X obj 625 143 bus effet17;
#X obj 696 143 bus effet19;
#X obj 766 143 bus effet21;
#X obj 836 143 bus effet23;
#X obj 453 171 bus effet12;
#X obj 522 171 bus effet14;
#X obj 593 171 bus effet16;
#X obj 662 171 bus effet18;
#X obj 732 171 bus effet20;
#X obj 802 171 bus effet22;
#X obj 872 171 bus effet24;
#X obj 906 143 bus effet25;
#X obj 942 171 bus effet26;
#X obj 62 80 inlet;
#X obj 980 142 bus effet27;
#X obj 1020 172 bus effet28;
#X obj 1050 142 bus effet29;
#X obj 1090 171 bus effet30;
#X obj 1120 142 bus effet31;
#X obj 1160 172 bus effet32;
#X obj 1192 143 bus effet33;
#X obj 1230 172 bus effet34;
#X obj 1261 142 bus effet35;
#X obj 1300 172 bus effet36;
#X obj 1330 143 bus effet37;
#X obj 1369 172 bus effet38;
#X obj 1400 143 bus effet39;
#X obj 1440 172 bus effet40;
#X obj 1472 144 bus effet41;
#X obj 1509 172 bus effet42;
#X obj 1543 144 bus effet43;
#X obj 1579 172 bus effet44;
#X obj 1614 144 bus effet45;
#X obj 1649 172 bus effet46;
#X obj 1683 144 bus effet47;
#X obj 1719 172 bus effet48;
#X obj 63 107 route 0 1 2 3 4 5 6 7 8 9 10 11 12 13 14 15 16 17 18
19 20 21 22 23 24 25 26 27 28 29 30 31 32 33 34 35 36 37 38 39 40 41
42 43 44 45 46 47, f 277;
#X connect 26 0 49 0;
#X connect 49 0 0 0;
#X connect 49 1 1 0;
#X connect 49 2 2 0;
#X connect 49 3 3 0;
#X connect 49 4 4 0;
#X connect 49 5 5 0;
#X connect 49 6 6 0;
#X connect 49 7 7 0;
#X connect 49 8 8 0;
#X connect 49 9 9 0;
#X connect 49 10 10 0;
#X connect 49 11 17 0;
#X connect 49 12 11 0;
#X connect 49 13 18 0;
#X connect 49 14 12 0;
#X connect 49 15 19 0;
#X connect 49 16 13 0;
#X connect 49 17 20 0;
#X connect 49 18 14 0;
#X connect 49 19 21 0;
#X connect 49 20 15 0;
#X connect 49 21 22 0;
#X connect 49 22 16 0;
#X connect 49 23 23 0;
#X connect 49 24 24 0;
#X connect 49 25 25 0;
#X connect 49 26 27 0;
#X connect 49 27 28 0;
#X connect 49 28 29 0;
#X connect 49 29 30 0;
#X connect 49 30 31 0;
#X connect 49 31 32 0;
#X connect 49 32 33 0;
#X connect 49 33 34 0;
#X connect 49 34 35 0;
#X connect 49 35 36 0;
#X connect 49 36 37 0;
#X connect 49 37 38 0;
#X connect 49 38 39 0;
#X connect 49 39 40 0;
#X connect 49 40 41 0;
#X connect 49 41 42 0;
#X connect 49 42 43 0;
#X connect 49 43 44 0;
#X connect 49 44 45 0;
#X connect 49 45 46 0;
#X connect 49 46 47 0;
#X connect 49 47 48 0;
#X restore 266 850 pd output;
#X obj 213 617 * -1;
#X floatatom 213 661 5 0 0 0 - - -, f 5;
#X obj 213 639 + 300;
#X obj 134 114 t b b f b b;
#X obj 438 739 until;
#X msg 438 716 48;
#X obj 438 760 f;
#X obj 465 760 + 1;
#X obj 438 694 t b b;
#X msg 465 716 0;
#X obj 437 675 bng 15 250 50 0 empty empty empty 17 7 0 10 -262144
-1 -1;
#X msg 438 783 \$1 0;
#X floatatom 174 34 5 0 0 0 - - -, f 5;
#X msg 340 522 200;
#X obj 206 219 f 0;
#X obj 95 218 value proj-num;
#X obj 272 320 s \$0-vague-\$1;
#X connect 0 0 47 0;
#X connect 1 0 3 0;
#X connect 2 0 1 0;
#X connect 2 1 3 1;
#X connect 3 0 50 0;
#X connect 5 0 31 1;
#X connect 6 0 7 0;
#X connect 7 0 8 0;
#X connect 8 0 31 0;
#X connect 9 0 10 0;
#X connect 10 0 11 0;
#X connect 10 0 12 0;
#X connect 11 0 10 1;
#X connect 12 0 32 0;
#X connect 12 1 1 1;
#X connect 12 1 39 1;
#X connect 13 0 0 0;
#X connect 13 0 39 0;
#X connect 14 0 15 0;
#X connect 15 0 16 0;
#X connect 16 0 22 0;
#X connect 17 0 20 0;
#X connect 17 0 44 0;
#X connect 18 0 19 0;
#X connect 18 0 43 0;
#X connect 19 0 20 0;
#X connect 19 1 20 1;
#X connect 19 1 16 1;
#X connect 20 0 21 0;
#X connect 20 0 15 1;
#X connect 22 0 23 0;
#X connect 23 0 24 0;
#X connect 24 0 13 0;
#X connect 25 0 45 0;
#X connect 25 0 51 0;
#X connect 30 0 67 0;
#X connect 31 0 54 0;
#X connect 32 0 14 0;
#X connect 33 0 34 0;
#X connect 34 0 67 0;
#X connect 35 0 5 0;
#X connect 36 0 9 0;
#X connect 36 1 14 1;
#X connect 36 1 33 0;
#X connect 37 0 46 0;
#X connect 40 0 41 0;
#X connect 40 0 42 0;
#X connect 40 0 64 0;
#X connect 41 0 43 0;
#X connect 42 0 44 0;
#X connect 43 0 18 0;
#X connect 44 0 17 0;
#X connect 45 0 25 0;
#X connect 46 0 37 0;
#X connect 46 0 49 0;
#X connect 47 0 2 0;
#X connect 48 0 47 1;
#X connect 49 0 0 1;
#X connect 51 0 53 0;
#X connect 53 0 23 1;
#X connect 53 0 52 0;
#X connect 54 0 66 0;
#X connect 54 1 65 0;
#X connect 54 2 22 1;
#X connect 54 3 30 0;
#X connect 54 4 59 0;
#X connect 55 0 57 0;
#X connect 56 0 55 0;
#X connect 57 0 58 0;
#X connect 57 0 62 0;
#X connect 58 0 57 1;
#X connect 59 0 56 0;
#X connect 59 1 60 0;
#X connect 60 0 57 1;
#X connect 61 0 59 0;
#X connect 62 0 50 0;
#X connect 63 0 8 1;
#X connect 64 0 45 0;
#X connect 65 0 10 1;
#X connect 65 0 32 1;
#X connect 66 0 36 0;
