#N canvas 0 93 932 785 10;
#X floatatom 406 214 5 0 0 0 - - -, f 5;
#X obj 794 297 r \$1/pitch;
#X floatatom 794 319 5 0 0 0 - - -, f 5;
#X floatatom 406 195 5 0 0 0 - - -, f 5;
#X obj 406 131 nbx 3 14 -99 100 0 1 empty empty empty 0 -8 0 10 -262144
-1 -1 0 256;
#X obj 406 151 nbx 3 14 0 1000 0 1 empty empty empty 0 -8 0 10 -262144
-1 -1 12 256;
#X obj 406 171 nbx 3 14 0 1000 0 0 empty empty empty 0 -8 0 10 -262144
-1 -1 3 256;
#X floatatom 491 81 5 0 0 0 - - -, f 5;
#X msg 510 106 dump;
#X obj 464 106 vsl 15 128 0 100 0 0 empty empty empty 0 -9 0 10 -262144
-1 -1 772 1;
#X text 342 130 threshold;
#X text 372 150 gain;
#X text 354 171 release;
#X text 359 195 pitch;
#X text 335 214 brightness;
#X floatatom 409 309 5 0 0 0 - - -, f 5;
#X floatatom 409 329 5 0 0 0 - - -, f 5;
#X floatatom 409 289 5 100 300 0 - - -, f 5;
#X floatatom 409 369 5 0 200 0 - - -, f 5;
#X floatatom 443 309 5 0 0 0 - - -, f 5;
#X floatatom 443 329 5 0 0 0 - - -, f 5;
#X floatatom 443 289 5 100 300 0 - - -, f 5;
#X floatatom 443 369 5 0 200 0 - - -, f 5;
#X text 365 287 width;
#X text 365 368 level;
#X text 360 327 in max;
#X text 360 307 in min;
#X floatatom 443 464 5 0 0 0 - - -, f 5;
#X floatatom 443 484 5 0 0 0 - - -, f 5;
#X floatatom 443 444 5 0 0 0 - - -, f 5;
#X floatatom 443 504 5 0 0 0 - - -, f 5;
#X floatatom 443 424 5 1 48 0 - - -, f 5;
#X floatatom 443 524 5 0 0 0 - - -, f 5;
#X text 362 422 range;
#X text 345 442 position;
#X text 345 462 freq min;
#X text 345 482 freq max;
#X text 345 502 scale 1;
#X text 345 522 scale 2;
#X obj 510 131 ossia.remote \$1/env-follower/threshold;
#X obj 510 151 ossia.remote \$1/env-follower/gain;
#X obj 510 171 ossia.remote \$1/env-follower/release;
#X obj 509 288 ossia.remote \$1/pitch/proj/width;
#X obj 509 308 ossia.remote \$1/pitch/input/min;
#X obj 509 328 ossia.remote \$1/pitch/input/max;
#X obj 509 368 ossia.remote \$1/pitch/level;
#X obj 61 287 ossia.remote \$1/brightness/proj/width;
#X obj 60 308 ossia.remote \$1/brightness/input/min;
#X obj 60 328 ossia.remote \$1/brightness/input/max;
#X obj 60 368 ossia.remote \$1/brightness/level;
#X obj 509 423 ossia.remote \$1/constantq/freq/bandnumber;
#X obj 509 463 ossia.remote \$1/constantq/freq/min;
#X obj 509 483 ossia.remote \$1/constantq/freq/max;
#X obj 509 503 ossia.remote \$1/constantq/scale.1;
#X obj 509 524 ossia.remote \$1/constantq/scale.2;
#X floatatom 443 564 5 0 200 0 - - -, f 5;
#X text 345 562 level;
#X floatatom 409 349 5 0 0 0 - - -, f 5;
#X floatatom 443 349 5 0 0 0 - - -, f 5;
#X text 342 347 in smooth;
#X obj 509 348 ossia.remote \$1/pitch/input/smoothing;
#X obj 25 348 ossia.remote \$1/brightness/input/smoothing;
#X obj 509 563 ossia.remote \$1/constantq/proj/level;
#X obj 509 443 ossia.remote \$1/constantq/proj/offset;
#X obj 444 106 vsl 15 128 0 100 0 0 empty empty empty 0 -9 0 10 -262144
-1 -1 3793 1;
#X obj 510 231 cyclone/speedlim 100;
#X obj 264 76 cyclone/speedlim 100;
#X floatatom 264 98 5 0 0 0 - - -, f 5;
#X text 402 270 bright pitch;
#X floatatom 443 544 5 0 200 0 - - -, f 5;
#X obj 509 543 ossia.remote \$1/constantq/proj/speedlimiter;
#X text 278 543 taux de croissance;
#X text 412 239 entrée | ctl;
#X text 418 251 micro | grada;
#X text 440 404 freq;
#X obj 446 588 tgl 15 0 empty empty empty 17 7 0 10 -262144 -1 -1 0
1;
#X text 340 586 reverse;
#X obj 513 588 ossia.remote \$1/constantq/reverse;
#X obj 510 191 ossia.remote \$1/pitch;
#X obj 510 212 ossia.remote \$1/brightness;
#X obj 464 59 ossia.remote \$1/env-follower/loudness;
#X obj 424 39 ossia.remote \$1/env-follower/loudness_pre;
#X connect 1 0 2 0;
#X connect 4 0 39 0;
#X connect 5 0 40 0;
#X connect 6 0 41 0;
#X connect 8 0 39 0;
#X connect 15 0 47 0;
#X connect 16 0 48 0;
#X connect 17 0 46 0;
#X connect 18 0 49 0;
#X connect 19 0 43 0;
#X connect 20 0 44 0;
#X connect 21 0 42 0;
#X connect 22 0 45 0;
#X connect 27 0 51 0;
#X connect 28 0 52 0;
#X connect 29 0 63 0;
#X connect 30 0 53 0;
#X connect 31 0 50 0;
#X connect 32 0 54 0;
#X connect 39 0 4 0;
#X connect 40 0 5 0;
#X connect 41 0 6 0;
#X connect 42 0 21 0;
#X connect 43 0 19 0;
#X connect 44 0 20 0;
#X connect 45 0 22 0;
#X connect 46 0 17 0;
#X connect 47 0 15 0;
#X connect 48 0 16 0;
#X connect 49 0 18 0;
#X connect 50 0 31 0;
#X connect 51 0 27 0;
#X connect 52 0 28 0;
#X connect 53 0 30 0;
#X connect 54 0 32 0;
#X connect 55 0 62 0;
#X connect 57 0 61 0;
#X connect 58 0 60 0;
#X connect 60 0 58 0;
#X connect 61 0 57 0;
#X connect 62 0 55 0;
#X connect 63 0 29 0;
#X connect 65 0 0 0;
#X connect 66 0 64 0;
#X connect 66 0 67 0;
#X connect 69 0 70 0;
#X connect 70 0 69 0;
#X connect 75 0 77 0;
#X connect 77 0 75 0;
#X connect 78 0 3 0;
#X connect 79 0 65 0;
#X connect 80 0 7 0;
#X connect 80 0 9 0;
#X connect 81 0 66 0;
#X coords 0 -1 1 1 100 510 1 400 100;
