#N canvas 719 170 876 252 10;
#X obj 263 8 inlet~;
#N canvas 722 596 693 254 master 0;
#X obj 252 117 t b f;
#X obj 232 153 *;
#X obj 232 175 outlet;
#X obj 289 76 ossia.remote /master/spec;
#X floatatom 282 173 5 0 0 0 - - -, f 5;
#X floatatom 355 119 5 0 0 0 - - -, f 5;
#X floatatom 179 101 5 0 0 0 - - -, f 5;
#X obj 104 52 ossia.remote env-follower/loudness;
#X connect 0 0 1 0;
#X connect 0 1 1 1;
#X connect 1 0 2 0;
#X connect 1 0 4 0;
#X connect 3 1 0 0;
#X connect 3 1 5 0;
#X connect 7 1 1 0;
#X connect 7 1 6 0;
#X restore 752 122 pd master;
#X floatatom 772 162 5 0 0 0 - - -, f 5;
#X obj 559 160 constantq.model freq;
#N canvas 36 273 796 423 brightness 1;
#X obj 113 61 bang~;
#X obj 113 181 mapping/iir 5;
#X floatatom 295 92 5 0 0 0 - - -, f 5;
#X obj 113 203 * 100;
#X floatatom 66 250 5 0 0 0 - - -, f 5;
#X obj 59 40 inlet~;
#X floatatom 120 283 5 0 0 0 - - -, f 5;
#X obj 113 99 specBrightness~ 512;
#X obj 113 315 spot.model brightness;
#X obj 295 53 ossia.param brightness.smoothing @type float @default
5 @description "iir filter coefficient" @range 1 100;
#X floatatom 259 322 10 0 0 0 - - -, f 10;
#X obj 124 227 cyclone/speedlim 100;
#X obj 244 280 r loudness;
#X obj 124 248 ossia.param bright @description "Brightness after iir"
@range 0 100;
#X connect 0 0 7 0;
#X connect 1 0 3 0;
#X connect 2 0 1 1;
#X connect 3 0 8 0;
#X connect 3 0 11 0;
#X connect 4 0 8 0;
#X connect 5 0 7 0;
#X connect 7 0 1 0;
#X connect 9 0 2 0;
#X connect 11 0 13 0;
#X connect 12 0 10 0;
#X connect 12 0 8 1;
#X connect 13 0 6 0;
#X restore 315 160 pd brightness;
#N canvas 26 112 946 385 pitch 1;
#X obj 143 87 unpack;
#X obj 188 189 mapping/iir 5;
#X obj 143 109 moses 30;
#X floatatom 520 109 5 0 0 0 - - -, f 5;
#X obj 73 65 fiddle~ 1024 1 1 0;
#X obj 73 30 inlet~;
#X obj 188 134 mapping/resample 50;
#X floatatom 198 156 5 0 0 0 - - -, f 5;
#X obj 155 10 loadbang;
#X msg 155 32 amp-range 20 80 \, vibrato 50 0.5 \, reattack 100 10
;
#X floatatom 250 284 5 0 0 0 - - -, f 5;
#X floatatom 306 344 0 0 0 0 - - -;
#X obj 520 72 ossia.param pitch.smoothing @type float @default 5 @description
"iir filter coefficient" @range 1 20;
#X obj 188 353 spot.model pitch;
#X obj 250 224 cyclone/speedlim 100;
#X obj 281 311 r loudness;
#X obj 250 246 ossia.param pitchness @description "Tracked pitch after
iir" @range 0 127;
#X connect 0 0 2 0;
#X connect 1 0 13 0;
#X connect 1 0 14 0;
#X connect 2 1 6 0;
#X connect 3 0 1 1;
#X connect 4 2 0 0;
#X connect 5 0 4 0;
#X connect 6 0 7 0;
#X connect 6 0 1 0;
#X connect 8 0 9 0;
#X connect 9 0 4 0;
#X connect 12 0 3 0;
#X connect 14 0 16 0;
#X connect 15 0 13 1;
#X connect 15 0 11 0;
#X connect 16 0 10 0;
#X restore 438 160 pd pitch;
#X obj 30 173 env-follower.model;
#X connect 0 0 3 0;
#X connect 0 0 4 0;
#X connect 0 0 5 0;
#X connect 0 0 6 0;
#X connect 1 0 2 0;
#X connect 1 0 3 1;
