#N canvas 196 513 858 290 10;
#X obj 263 8 inlet~;
#X obj 30 173 env-follower.model \$1/env-follower;
#X obj 30 243 send.model \$1/send;
#X obj 559 160 constantq.model \$1/constantq;
#N canvas 702 564 693 254 master 0;
#X obj 252 117 t b f;
#X obj 232 153 *;
#X obj 232 175 outlet;
#X obj 289 76 ossia.remote /master/spec;
#X obj 104 52 ossia.remote \$1/env-follower/loudness;
#X connect 0 0 1 0;
#X connect 0 1 1 1;
#X connect 1 0 2 0;
#X connect 3 1 0 0;
#X connect 4 1 1 0;
#X restore 752 122 pd master;
#X floatatom 772 162 5 0 0 0 - - -, f 5;
#X obj 67 213 ossia.remote /master/send;
#N canvas 280 133 796 423 brightness 0;
#X obj 113 61 bang~;
#X obj 113 181 mapping/iir 5;
#X floatatom 295 92 5 0 0 0 - - -, f 5;
#X obj 113 315 spot.model \$1/brightness;
#X obj 113 223 * 100;
#X floatatom 66 250 5 0 0 0 - - -, f 5;
#X obj 295 53 ossia.param \$1/brightness/input/smoothing @type float
@default 5 @description "iir filter coefficient";
#X obj 113 99 tID/specBrightness~ 512;
#N canvas 702 564 693 254 master 0;
#X obj 303 54 ossia.remote /master/brightness;
#X obj 252 117 t b f;
#X obj 232 153 *;
#X obj 232 175 outlet;
#X floatatom 285 146 5 0 0 0 - - -, f 5;
#X obj 32 55 ossia.remote \$1/env-follower/loudness;
#X connect 0 1 1 0;
#X connect 1 0 2 0;
#X connect 1 1 2 1;
#X connect 1 1 4 0;
#X connect 2 0 3 0;
#X connect 5 1 2 0;
#X restore 254 285 pd master;
#X obj 391 340 > 0;
#X obj 391 392 switch~;
#X obj 59 40 inlet~;
#X obj 391 365 tgl 15 0 empty empty empty 17 7 0 10 -262144 -1 -1 0
1;
#X obj 391 293 ossia.remote /\$1/brightness/level;
#X obj 124 248 ossia.param \$1/brightness @description "Brightness
after iir" @accessèmode get;
#X connect 0 0 7 0;
#X connect 1 0 4 0;
#X connect 2 0 1 1;
#X connect 4 0 3 0;
#X connect 4 0 14 0;
#X connect 5 0 3 0;
#X connect 6 0 2 0;
#X connect 7 0 1 0;
#X connect 8 0 3 1;
#X connect 9 0 12 0;
#X connect 11 0 7 0;
#X connect 12 0 10 0;
#X connect 13 1 9 0;
#X restore 315 160 pd brightness;
#N canvas 0 320 1001 411 pitch 0;
#X obj 143 87 unpack;
#X obj 188 189 mapping/iir 5;
#X obj 143 109 moses 30;
#X floatatom 520 109 5 0 0 0 - - -, f 5;
#X obj 520 72 ossia.param \$1/pitch/input/smoothing @type float @default
5 @description "iir filter coefficient";
#X obj 73 65 fiddle~ 1024 1 1 0;
#N canvas 702 564 693 254 master 0;
#X obj 252 117 t b f;
#X obj 232 153 *;
#X obj 232 175 outlet;
#X obj 331 56 ossia.remote /master/pitch;
#X obj 41 56 ossia.remote \$1/env-follower/loudness;
#X connect 0 0 1 0;
#X connect 0 1 1 1;
#X connect 1 0 2 0;
#X connect 3 1 0 0;
#X connect 4 1 1 0;
#X restore 299 284 pd master;
#X floatatom 321 312 5 0 0 0 - - -, f 5;
#X obj 188 306 spot.model \$1/pitch;
#X obj 73 30 inlet~;
#X obj 415 360 switch~ 512 1 0.25;
#X obj 415 318 > 0;
#X obj 415 340 tgl 15 0 empty empty empty 17 7 0 10 -262144 -1 -1 0
1;
#X obj 188 134 mapping/resample 50;
#X floatatom 198 156 5 0 0 0 - - -, f 5;
#X obj 155 10 loadbang;
#X msg 155 32 amp-range 20 80 \, vibrato 50 0.5 \, reattack 100 10
;
#X obj 196 218 ossia.param \$1/pitch @description "Tracked pitch after
iir" @access_mode get;
#X obj 415 274 ossia.remote /\$1/pitch/level;
#X connect 0 0 2 0;
#X connect 1 0 8 0;
#X connect 1 0 17 0;
#X connect 2 1 13 0;
#X connect 3 0 1 1;
#X connect 4 0 3 0;
#X connect 5 2 0 0;
#X connect 6 0 7 0;
#X connect 6 0 8 1;
#X connect 9 0 5 0;
#X connect 11 0 12 0;
#X connect 12 0 10 0;
#X connect 13 0 14 0;
#X connect 13 0 1 0;
#X connect 15 0 16 0;
#X connect 16 0 5 0;
#X connect 18 1 11 0;
#X restore 438 160 pd pitch;
#X connect 0 0 1 0;
#X connect 0 0 3 0;
#X connect 0 0 7 0;
#X connect 0 0 8 0;
#X connect 1 0 2 0;
#X connect 4 0 3 1;
#X connect 4 0 5 0;
#X connect 6 1 2 1;
