#N canvas 337 105 520 552 10;
#N canvas 320 257 450 300 gauss 0;
#X obj 26 13 inlet;
#X obj 27 253 outlet;
#X obj 27 124 exp;
#X obj 26 61 t f f;
#X obj 27 83 *;
#X obj 27 103 * -1;
#X connect 0 0 3 0;
#X connect 2 0 1 0;
#X connect 3 0 4 0;
#X connect 3 1 4 1;
#X connect 4 0 5 0;
#X connect 5 0 2 0;
#X restore 51 436 pd gauss;
#X floatatom 51 457 5 0 0 0 - - -, f 5;
#X obj 51 478 tabwrite gauss;
#X obj 51 231 until;
#X obj 51 253 f;
#X obj 76 253 + 1;
#X obj 53 161 t b b;
#X msg 102 231 0;
#X obj 53 137 bng 15 250 50 0 empty empty empty 17 7 0 10 -262144 -1
-1;
#X obj 51 275 t f f;
#X obj 51 339 - 500;
#X obj 51 361 abs;
#X obj 51 207 t f f;
#X obj 56 499 table gauss 1001;
#X obj 49 184 f 1001;
#X obj 131 293 - 1;
#X obj 131 315 / 2;
#X obj 51 415 / 150;
#X obj 53 112 loadbang;
#X obj 165 219 r display-vague-3;
#X obj 165 99 r display-vague-1;
#X obj 165 159 r display-vague-2;
#X msg 165 121 \; pd-table-1 vis 1;
#X msg 165 181 \; pd-table-2 vis 1;
#X msg 165 241 \; pd-table-3 vis 1;
#N canvas 358 293 772 670 lointain-face 1;
#X obj 301 35 metro 20;
#X obj 304 6 tgl 15 0 empty empty empty 17 7 0 10 -262144 -1 -1 1 1
;
#X obj 326 81 f;
#X obj 301 57 t b b;
#X floatatom 304 108 6 0 0 0 - - -, f 6;
#X obj 277 191 until;
#X obj 277 213 f;
#X obj 302 213 + 1;
#X obj 277 235 t f f;
#X obj 277 132 t b b;
#X msg 320 170 0;
#X obj 277 262 * 10;
#X obj 277 284 +;
#X obj 277 367 fmod 1000;
#X obj 362 515 *;
#X obj 362 570 f;
#X obj 362 549 t b f;
#X obj 362 591 pack f f;
#X obj 409 174 + 0;
#X obj 528 186 / 5;
#X obj 277 397 tabread4 gauss;
#X obj 432 129 nbx 5 14 -1e+37 1e+37 0 1 empty empty empty 0 -8 0 10
-262144 -1 -1 -10 256;
#X obj 325 9 loadbang;
#X obj 277 466 tabwrite lointain-face;
#X obj 345 622 route 1;
#X obj 115 687 bus effet1;
#X obj 183 688 bus effet5;
#X obj 249 687 bus effet8;
#X obj 307 665 bus effet2;
#X obj 347 695 bus effet3;
#X obj 381 665 bus effet6;
#X obj 560 695 bus effet9;
#X obj 487 695 bus effet7;
#X obj 501 664 bus effet4;
#N canvas 802 43 252 179 table-loin-face 0;
#N canvas 0 22 450 278 (subpatch) 0;
#X array lointain-face 10 float 3;
#A 0 0.852144 0.852144 0.852144 0.104851 0.352063 0.745665 0.996196
0.839504 0.446249 0.149627;
#X coords 0 1 10 -1 200 140 1 0 0;
#X restore 15 19 graph;
#X restore 135 472 pd table-loin-face;
#X msg 277 154 3;
#X obj 410 14 fmod 1000;
#X obj 364 170 - 500;
#X obj 365 213 abs;
#X obj 221 620 route 2;
#X obj 467 610 route 0;
#X floatatom 569 208 5 0 0 0 - - -, f 5;
#X obj 527 162 - 50;
#X floatatom 553 110 5 0 0 0 - - -, f 5;
#X text 590 111 speed;
#X floatatom 380 267 5 0 0 0 - - -, f 5;
#X text 415 267 largeur;
#X floatatom 436 452 5 0 0 0 - - -, f 5;
#X text 472 451 level;
#X connect 0 0 3 0;
#X connect 1 0 0 0;
#X connect 2 0 4 0;
#X connect 2 0 18 0;
#X connect 2 0 37 0;
#X connect 3 0 9 0;
#X connect 3 1 2 0;
#X connect 5 0 6 0;
#X connect 6 0 7 0;
#X connect 6 0 8 0;
#X connect 7 0 6 1;
#X connect 8 0 11 0;
#X connect 8 1 15 1;
#X connect 8 1 23 1;
#X connect 9 0 35 0;
#X connect 9 1 10 0;
#X connect 10 0 6 1;
#X connect 11 0 12 0;
#X connect 12 0 13 0;
#X connect 13 0 20 0;
#X connect 14 0 16 0;
#X connect 15 0 17 0;
#X connect 16 0 15 0;
#X connect 16 1 17 1;
#X connect 17 0 24 0;
#X connect 17 0 39 0;
#X connect 17 0 40 0;
#X connect 18 0 36 0;
#X connect 19 0 21 0;
#X connect 20 0 14 0;
#X connect 20 0 23 0;
#X connect 21 0 18 1;
#X connect 22 0 1 0;
#X connect 24 0 28 0;
#X connect 24 0 29 0;
#X connect 24 0 30 0;
#X connect 35 0 5 0;
#X connect 36 0 2 1;
#X connect 37 0 38 0;
#X connect 38 0 12 1;
#X connect 39 0 25 0;
#X connect 39 0 26 0;
#X connect 39 0 27 0;
#X connect 40 0 31 0;
#X connect 40 0 32 0;
#X connect 40 0 33 0;
#X connect 42 0 19 0;
#X connect 43 0 42 0;
#X connect 45 0 11 1;
#X connect 47 0 14 1;
#X restore 131 5 pd lointain-face;
#X msg 169 303 \; pd-table-loin-face vis 1;
#X obj 169 281 r display-vague-loin-face;
#X obj 23 25 vague 1 9 8 3;
#X obj 23 65 vague 3 13 12 5;
#X obj 23 45 vague 2 10 11 4;
#X connect 0 0 1 0;
#X connect 1 0 2 0;
#X connect 3 0 4 0;
#X connect 4 0 5 0;
#X connect 4 0 9 0;
#X connect 5 0 4 1;
#X connect 6 0 14 0;
#X connect 6 1 7 0;
#X connect 7 0 4 1;
#X connect 8 0 6 0;
#X connect 9 0 10 0;
#X connect 9 1 2 1;
#X connect 10 0 11 0;
#X connect 11 0 17 0;
#X connect 12 0 3 0;
#X connect 12 1 15 0;
#X connect 14 0 12 0;
#X connect 15 0 16 0;
#X connect 16 0 10 1;
#X connect 17 0 0 0;
#X connect 18 0 8 0;
#X connect 19 0 24 0;
#X connect 20 0 22 0;
#X connect 21 0 23 0;
#X connect 27 0 26 0;
