#N canvas 722 342 476 423 10;
#X declare -path abs -path abs_light;
#X declare -lib Jamoma -lib zexy -lib Cream;
#N canvas 1442 50 476 1011 master 0;
#N canvas 962 50 476 1011 metro 0;
#X obj 77 3 loadbang;
#X obj 116 118 s metro_dmx;
#X obj 96 141 s metro_dmx_int;
#X obj 77 75 t b b b;
#X obj 76 167 s send-dmx;
#X obj 77 35 tgl 15 0 empty empty empty 17 7 0 10 -262144 -1 -1 1 1
;
#X obj 77 53 metro 20;
#X obj 154 53 bng 15 250 50 0 empty empty empty 17 7 0 10 -262144 -1
-1;
#X connect 0 0 5 0;
#X connect 3 0 4 0;
#X connect 3 1 2 0;
#X connect 3 2 1 0;
#X connect 5 0 6 0;
#X connect 6 0 3 0;
#X connect 7 0 3 0;
#X restore 33 8 pd metro;
#X obj 109 81 nbx 3 14 0 512 0 1 empty empty dmx_ch 0 -8 0 10 -262144
-1 -1 1 256;
#X obj 109 261 nbx 3 14 0 512 0 1 empty empty dmx_ch 0 -8 0 10 -262144
-1 -1 4 256;
#X obj 109 201 nbx 3 14 0 512 0 1 empty empty dmx_ch 0 -8 0 10 -262144
-1 -1 3 256;
#X obj 109 321 nbx 3 14 0 512 0 1 empty empty dmx_ch 0 -8 0 10 -262144
-1 -1 5 256;
#X obj 109 141 nbx 3 14 0 512 0 1 empty empty dmx_ch 0 -8 0 10 -262144
-1 -1 2 256;
#N canvas 654 94 450 300 panic 0;
#X obj 73 14 inlet;
#X obj 75 40 s dmx-reset;
#X connect 0 0 1 0;
#X restore 116 27 pd panic;
#X obj 115 9 bng 15 250 50 0 empty empty empty 17 7 0 10 -262144 -1
-1;
#X obj 33 48 bus_master 1;
#X text 3 361 Pour chaque circuit entrer le;
#X text 12 375 numéro de grada dans la case dmx_ch;
#X obj 289 81 nbx 3 14 0 512 0 1 empty empty dmx_ch 0 -8 0 10 -262144
-1 -1 6 256;
#X obj 289 261 nbx 3 14 0 512 0 1 empty empty dmx_ch 0 -8 0 10 -262144
-1 -1 9 256;
#X obj 289 201 nbx 3 14 0 512 0 1 empty empty dmx_ch 0 -8 0 10 -262144
-1 -1 8 256;
#X obj 289 321 nbx 3 14 0 512 0 1 empty empty dmx_ch 0 -8 0 10 -262144
-1 -1 10 256;
#X obj 289 141 nbx 3 14 0 512 0 1 empty empty dmx_ch 0 -8 0 10 -262144
-1 -1 7 256;
#N canvas 42 692 559 378 send_DMX 0;
#N canvas 2 579 636 480 list-creation 0;
#X msg 236 81 231;
#X obj 137 85 until;
#X msg 137 119 0;
#X msg 38 82 126 6 1 2;
#X obj 138 266 outlet;
#X obj 118 -69 loadbang;
#X obj 183 -41 bng 15 250 50 0 empty empty empty 17 7 0 10 -262144
-1 -1;
#X obj 122 235 l;
#X obj 92 -44 t b b;
#X obj 219 226 l;
#X obj 137 198 list append;
#X obj 118 -15 t b b b b;
#X obj 196 267 list length;
#X floatatom 196 289 5 0 0 0 - - -, f 5;
#X obj 222 -64 r dmx-reset;
#X msg 137 53 64;
#X connect 0 0 10 0;
#X connect 1 0 2 0;
#X connect 2 0 10 0;
#X connect 3 0 10 0;
#X connect 5 0 8 0;
#X connect 6 0 8 0;
#X connect 7 0 4 0;
#X connect 7 0 12 0;
#X connect 8 0 7 0;
#X connect 8 1 11 0;
#X connect 9 0 10 1;
#X connect 10 0 7 1;
#X connect 10 0 9 0;
#X connect 11 0 3 0;
#X connect 11 1 15 0;
#X connect 11 2 0 0;
#X connect 11 3 10 1;
#X connect 12 0 13 0;
#X connect 14 0 8 0;
#X connect 15 0 1 0;
#X restore 267 46 pd list-creation;
#X obj 295 103 l;
#X obj 144 12 r value;
#X obj 178 39 r index;
#X obj 396 54 loadbang;
#X obj 123 119 list;
#X obj 69 75 r send-dmx;
#X obj 123 180 route bang;
#X obj 144 76 list-abs/list-replace;
#X obj 396 129 s dmx-reset;
#X obj 169 117 list length;
#X floatatom 169 139 5 0 0 0 - - -, f 5;
#X obj 404 107 bng 15 250 50 0 empty empty empty 17 7 0 10 -262144
-1 -1;
#X obj 232 304 iemnet/udpsend;
#X msg 423 177 connect 127.0.0.1 9010;
#X obj 396 76 t b b;
#X obj 180 269 osc/packOSC;
#X obj 180 220 list prepend sendtyped /0 b;
#X obj 180 245 list trim;
#X connect 0 0 8 2;
#X connect 0 0 5 1;
#X connect 1 0 8 2;
#X connect 2 0 8 0;
#X connect 3 0 8 1;
#X connect 4 0 15 0;
#X connect 5 0 7 0;
#X connect 5 0 10 0;
#X connect 6 0 5 0;
#X connect 7 1 17 0;
#X connect 8 0 1 0;
#X connect 8 0 5 1;
#X connect 10 0 11 0;
#X connect 12 0 9 0;
#X connect 14 0 13 0;
#X connect 15 0 9 0;
#X connect 15 1 14 0;
#X connect 16 0 13 0;
#X connect 17 0 18 0;
#X connect 18 0 16 0;
#X restore 33 28 pd send_DMX;
#X obj 479 81 nbx 3 14 0 512 0 1 empty empty dmx_ch 0 -8 0 10 -262144
-1 -1 11 256;
#X obj 479 261 nbx 3 14 0 512 0 1 empty empty dmx_ch 0 -8 0 10 -262144
-1 -1 14 256;
#X obj 479 201 nbx 3 14 0 512 0 1 empty empty dmx_ch 0 -8 0 10 -262144
-1 -1 13 256;
#X obj 479 321 nbx 3 14 0 512 0 1 empty empty dmx_ch 0 -8 0 10 -262144
-1 -1 15 256;
#X obj 479 141 nbx 3 14 0 512 0 1 empty empty dmx_ch 0 -8 0 10 -262144
-1 -1 12 256;
#X obj 659 81 nbx 3 14 0 512 0 1 empty empty dmx_ch 0 -8 0 10 -262144
-1 -1 16 256;
#X obj 659 261 nbx 3 14 0 512 0 1 empty empty dmx_ch 0 -8 0 10 -262144
-1 -1 19 256;
#X obj 659 201 nbx 3 14 0 512 0 1 empty empty dmx_ch 0 -8 0 10 -262144
-1 -1 18 256;
#X obj 659 321 nbx 3 14 0 512 0 1 empty empty dmx_ch 0 -8 0 10 -262144
-1 -1 20 256;
#X obj 659 141 nbx 3 14 0 512 0 1 empty empty dmx_ch 0 -8 0 10 -262144
-1 -1 17 256;
#X text 316 359 1 - 9 : cyliodes;
#X text 316 392 13 - 15 : PAR COUR;
#X text 316 379 10 - 12 : PAR JARDIN;
#X text 316 404 16 - 18 : PC;
#X obj 849 81 nbx 3 14 0 512 0 1 empty empty dmx_ch 0 -8 0 10 -262144
-1 -1 21 256;
#X obj 849 261 nbx 3 14 0 512 0 1 empty empty dmx_ch 0 -8 0 10 -262144
-1 -1 24 256;
#X obj 849 201 nbx 3 14 0 512 0 1 empty empty dmx_ch 0 -8 0 10 -262144
-1 -1 23 256;
#X obj 849 321 nbx 3 14 0 512 0 1 empty empty dmx_ch 0 -8 0 10 -262144
-1 -1 0 256;
#X obj 849 141 nbx 3 14 0 512 0 1 empty empty dmx_ch 0 -8 0 10 -262144
-1 -1 22 256;
#X obj 1029 81 nbx 3 14 0 512 0 1 empty empty dmx_ch 0 -8 0 10 -262144
-1 -1 0 256;
#X obj 1029 261 nbx 3 14 0 512 0 1 empty empty dmx_ch 0 -8 0 10 -262144
-1 -1 0 256;
#X obj 1029 201 nbx 3 14 0 512 0 1 empty empty dmx_ch 0 -8 0 10 -262144
-1 -1 0 256;
#X obj 1029 321 nbx 3 14 0 512 0 1 empty empty dmx_ch 0 -8 0 10 -262144
-1 -1 0 256;
#X obj 1029 141 nbx 3 14 0 512 0 1 empty empty dmx_ch 0 -8 0 10 -262144
-1 -1 0 256;
#X obj 1219 81 nbx 3 14 0 512 0 1 empty empty dmx_ch 0 -8 0 10 -262144
-1 -1 70 256;
#X obj 1219 261 nbx 3 14 0 512 0 1 empty empty dmx_ch 0 -8 0 10 -262144
-1 -1 0 256;
#X obj 1219 201 nbx 3 14 0 512 0 1 empty empty dmx_ch 0 -8 0 10 -262144
-1 -1 71 256;
#X obj 1219 321 nbx 3 14 0 512 0 1 empty empty dmx_ch 0 -8 0 10 -262144
-1 -1 0 256;
#X obj 1219 141 nbx 3 14 0 512 0 1 empty empty dmx_ch 0 -8 0 10 -262144
-1 -1 72 256;
#X obj 33 108 bus_master 2;
#X obj 33 168 bus_master 3;
#X obj 33 228 bus_master 4;
#X obj 33 288 bus_master 5;
#X obj 213 47 bus_master 6;
#X obj 213 108 bus_master 7;
#X obj 213 168 bus_master 8;
#X obj 213 288 bus_master 10;
#X obj 403 48 bus_master 11;
#X obj 403 108 bus_master 12;
#X obj 403 168 bus_master 13;
#X obj 403 227 bus_master 14;
#X obj 403 288 bus_master 15;
#X obj 583 47 bus_master 16;
#X obj 583 108 bus_master 17;
#X obj 583 168 bus_master 18;
#X obj 583 227 bus_master 19;
#X obj 583 288 bus_master 20;
#X obj 773 48 bus_master 21;
#X obj 773 108 bus_master 22;
#X obj 773 168 bus_master 23;
#X obj 773 228 bus_master 24;
#X obj 773 288 bus_master 25;
#X obj 953 47 bus_master 26;
#X obj 953 109 bus_master 27;
#X obj 953 168 bus_master 28;
#X obj 953 228 bus_master 29;
#X obj 953 288 bus_master 30;
#X obj 1143 48 bus_master 31;
#X obj 1143 108 bus_master 32;
#X obj 1143 168 bus_master 33;
#X obj 1143 227 bus_master 34;
#X obj 1143 288 bus_master 35;
#X obj 213 227 bus_master 9;
#X obj 665 422 s proj-num;
#X obj 665 401 nbx 3 14 0 100 0 1 empty empty empty 0 -8 0 10 -262144
-1 -1 20 256;
#X obj 33 320 enttec_out;
#X obj 33 80 enttec_out;
#X obj 33 260 enttec_out;
#X obj 33 200 enttec_out;
#X obj 33 140 enttec_out;
#X obj 213 80 enttec_out;
#X obj 213 260 enttec_out;
#X obj 213 200 enttec_out;
#X obj 213 320 enttec_out;
#X obj 213 140 enttec_out;
#X obj 403 80 enttec_out;
#X obj 403 260 enttec_out;
#X obj 403 200 enttec_out;
#X obj 403 320 enttec_out;
#X obj 403 140 enttec_out;
#X obj 583 80 enttec_out;
#X obj 583 260 enttec_out;
#X obj 583 200 enttec_out;
#X obj 583 320 enttec_out;
#X obj 583 140 enttec_out;
#X obj 773 80 enttec_out;
#X obj 773 260 enttec_out;
#X obj 773 200 enttec_out;
#X obj 773 320 enttec_out;
#X obj 773 140 enttec_out;
#X obj 953 80 enttec_out;
#X obj 953 260 enttec_out;
#X obj 953 200 enttec_out;
#X obj 953 320 enttec_out;
#X obj 953 140 enttec_out;
#X obj 1143 80 enttec_out;
#X obj 1143 260 enttec_out;
#X obj 1143 200 enttec_out;
#X obj 1143 320 enttec_out;
#X obj 1143 140 enttec_out;
#X obj 665 359 loadbang;
#X obj 665 381 del 1000;
#N canvas 195 325 668 341 check 0;
#X obj 181 262 pack f f;
#N canvas 0 93 1905 301 output 0;
#X obj 63 141 bus effet1;
#X obj 103 171 bus effet2;
#X obj 133 141 bus effet3;
#X obj 173 171 bus effet4;
#X obj 203 141 bus effet5;
#X obj 243 171 bus effet6;
#X obj 273 141 bus effet7;
#X obj 313 171 bus effet8;
#X obj 344 142 bus effet9;
#X obj 383 171 bus effet10;
#X obj 413 142 bus effet11;
#X obj 483 142 bus effet13;
#X obj 553 142 bus effet15;
#X obj 625 143 bus effet17;
#X obj 696 143 bus effet19;
#X obj 766 143 bus effet21;
#X obj 836 143 bus effet23;
#X obj 453 171 bus effet12;
#X obj 522 171 bus effet14;
#X obj 593 171 bus effet16;
#X obj 662 171 bus effet18;
#X obj 732 171 bus effet20;
#X obj 802 171 bus effet22;
#X obj 872 171 bus effet24;
#X obj 906 143 bus effet25;
#X obj 942 171 bus effet26;
#X obj 62 80 inlet;
#X obj 980 142 bus effet27;
#X obj 1020 172 bus effet28;
#X obj 1050 142 bus effet29;
#X obj 1090 171 bus effet30;
#X obj 1120 142 bus effet31;
#X obj 1160 172 bus effet32;
#X obj 1192 143 bus effet33;
#X obj 1230 172 bus effet34;
#X obj 1261 142 bus effet35;
#X obj 1300 172 bus effet36;
#X obj 1330 143 bus effet37;
#X obj 1369 172 bus effet38;
#X obj 1400 143 bus effet39;
#X obj 1440 172 bus effet40;
#X obj 1472 144 bus effet41;
#X obj 1509 172 bus effet42;
#X obj 1543 144 bus effet43;
#X obj 1579 172 bus effet44;
#X obj 1614 144 bus effet45;
#X obj 1649 172 bus effet46;
#X obj 1683 144 bus effet47;
#X obj 1719 172 bus effet48;
#X obj 63 107 route 1 2 3 4 5 6 7 8 9 10 11 12 13 14 15 16 17 18 19
20 21 22 23 24 25 26 27 28 29 30 31 32 33 34 35 36 37 38 39 40 41 42
43 44 45 46 47 48, f 277;
#X connect 26 0 49 0;
#X connect 49 0 0 0;
#X connect 49 1 1 0;
#X connect 49 2 2 0;
#X connect 49 3 3 0;
#X connect 49 4 4 0;
#X connect 49 5 5 0;
#X connect 49 6 6 0;
#X connect 49 7 7 0;
#X connect 49 8 8 0;
#X connect 49 9 9 0;
#X connect 49 10 10 0;
#X connect 49 11 17 0;
#X connect 49 12 11 0;
#X connect 49 13 18 0;
#X connect 49 14 12 0;
#X connect 49 15 19 0;
#X connect 49 16 13 0;
#X connect 49 17 20 0;
#X connect 49 18 14 0;
#X connect 49 19 21 0;
#X connect 49 20 15 0;
#X connect 49 21 22 0;
#X connect 49 22 16 0;
#X connect 49 23 23 0;
#X connect 49 24 24 0;
#X connect 49 25 25 0;
#X connect 49 26 27 0;
#X connect 49 27 28 0;
#X connect 49 28 29 0;
#X connect 49 29 30 0;
#X connect 49 30 31 0;
#X connect 49 31 32 0;
#X connect 49 32 33 0;
#X connect 49 33 34 0;
#X connect 49 34 35 0;
#X connect 49 35 36 0;
#X connect 49 36 37 0;
#X connect 49 37 38 0;
#X connect 49 38 39 0;
#X connect 49 39 40 0;
#X connect 49 40 41 0;
#X connect 49 41 42 0;
#X connect 49 42 43 0;
#X connect 49 43 44 0;
#X connect 49 44 45 0;
#X connect 49 45 46 0;
#X connect 49 46 47 0;
#X connect 49 47 48 0;
#X restore 181 283 pd output;
#X obj 181 170 t f b b b;
#X floatatom 217 206 5 0 0 0 - - -, f 5;
#X msg 259 236 0;
#X obj 181 121 f;
#X obj 181 75 bng 15 250 50 0 empty empty empty 17 7 0 10 -262144 -1
-1;
#X obj 181 8 key;
#X obj 181 30 sel 32;
#X floatatom 196 99 5 0 0 0 - - -, f 5;
#X obj 256 116 + 1;
#X obj 139 178 bng 15 250 50 0 empty empty empty 17 7 0 10 -262144
-1 -1;
#X floatatom 181 145 5 0 0 0 - - -, f 5;
#X obj 181 52 spigot;
#X obj 227 53 tgl 15 0 empty empty empty 17 7 0 10 -262144 -1 -1 0
1;
#X text 253 204 niveau de test (10);
#X obj 286 153 loadbang;
#X msg 286 175 10;
#X obj 285 48 nbx 3 28 -1e+37 1e+37 0 0 empty empty empty 0 -8 0 24
-262144 -1 -1 63 256;
#X obj 285 79 ossia.remote /master/limit;
#X text 279 27 Ne pas oublié de monter le limiteur;
#X obj 447 256 pack f f;
#N canvas 0 50 1920 301 output 0;
#X obj 63 141 bus effet1;
#X obj 103 171 bus effet2;
#X obj 133 141 bus effet3;
#X obj 173 171 bus effet4;
#X obj 203 141 bus effet5;
#X obj 243 171 bus effet6;
#X obj 273 141 bus effet7;
#X obj 313 171 bus effet8;
#X obj 344 142 bus effet9;
#X obj 383 171 bus effet10;
#X obj 413 142 bus effet11;
#X obj 483 142 bus effet13;
#X obj 553 142 bus effet15;
#X obj 625 143 bus effet17;
#X obj 696 143 bus effet19;
#X obj 766 143 bus effet21;
#X obj 836 143 bus effet23;
#X obj 453 171 bus effet12;
#X obj 522 171 bus effet14;
#X obj 593 171 bus effet16;
#X obj 662 171 bus effet18;
#X obj 732 171 bus effet20;
#X obj 802 171 bus effet22;
#X obj 872 171 bus effet24;
#X obj 906 143 bus effet25;
#X obj 942 171 bus effet26;
#X obj 62 80 inlet;
#X obj 980 142 bus effet27;
#X obj 1020 172 bus effet28;
#X obj 1050 142 bus effet29;
#X obj 1090 171 bus effet30;
#X obj 1120 142 bus effet31;
#X obj 1160 172 bus effet32;
#X obj 1192 143 bus effet33;
#X obj 1230 172 bus effet34;
#X obj 1261 142 bus effet35;
#X obj 1300 172 bus effet36;
#X obj 1330 143 bus effet37;
#X obj 1369 172 bus effet38;
#X obj 1400 143 bus effet39;
#X obj 1440 172 bus effet40;
#X obj 1472 144 bus effet41;
#X obj 1509 172 bus effet42;
#X obj 1543 144 bus effet43;
#X obj 1579 172 bus effet44;
#X obj 1614 144 bus effet45;
#X obj 1649 172 bus effet46;
#X obj 1683 144 bus effet47;
#X obj 1719 172 bus effet48;
#X obj 63 107 route 1 2 3 4 5 6 7 8 9 10 11 12 13 14 15 16 17 18 19
20 21 22 23 24 25 26 27 28 29 30 31 32 33 34 35 36 37 38 39 40 41 42
43 44 45 46 47 48, f 277;
#X connect 26 0 49 0;
#X connect 49 0 0 0;
#X connect 49 1 1 0;
#X connect 49 2 2 0;
#X connect 49 3 3 0;
#X connect 49 4 4 0;
#X connect 49 5 5 0;
#X connect 49 6 6 0;
#X connect 49 7 7 0;
#X connect 49 8 8 0;
#X connect 49 9 9 0;
#X connect 49 10 10 0;
#X connect 49 11 17 0;
#X connect 49 12 11 0;
#X connect 49 13 18 0;
#X connect 49 14 12 0;
#X connect 49 15 19 0;
#X connect 49 16 13 0;
#X connect 49 17 20 0;
#X connect 49 18 14 0;
#X connect 49 19 21 0;
#X connect 49 20 15 0;
#X connect 49 21 22 0;
#X connect 49 22 16 0;
#X connect 49 23 23 0;
#X connect 49 24 24 0;
#X connect 49 25 25 0;
#X connect 49 26 27 0;
#X connect 49 27 28 0;
#X connect 49 28 29 0;
#X connect 49 29 30 0;
#X connect 49 30 31 0;
#X connect 49 31 32 0;
#X connect 49 32 33 0;
#X connect 49 33 34 0;
#X connect 49 34 35 0;
#X connect 49 35 36 0;
#X connect 49 36 37 0;
#X connect 49 37 38 0;
#X connect 49 38 39 0;
#X connect 49 39 40 0;
#X connect 49 40 41 0;
#X connect 49 41 42 0;
#X connect 49 42 43 0;
#X connect 49 43 44 0;
#X connect 49 44 45 0;
#X connect 49 45 46 0;
#X connect 49 46 47 0;
#X connect 49 47 48 0;
#X restore 447 277 pd output;
#X floatatom 463 124 5 0 0 0 - - -, f 5;
#X obj 447 199 until;
#X obj 447 221 f;
#X obj 473 221 + 1;
#X obj 456 152 t b f b;
#X msg 495 179 1;
#X msg 447 177 24;
#X connect 0 0 1 0;
#X connect 2 0 0 0;
#X connect 2 1 3 0;
#X connect 2 2 0 0;
#X connect 2 3 4 0;
#X connect 3 0 0 1;
#X connect 4 0 0 1;
#X connect 5 0 10 0;
#X connect 5 0 12 0;
#X connect 6 0 5 0;
#X connect 7 0 8 0;
#X connect 8 0 13 0;
#X connect 9 0 5 1;
#X connect 10 0 9 0;
#X connect 11 0 0 0;
#X connect 12 0 2 0;
#X connect 13 0 6 0;
#X connect 14 0 13 1;
#X connect 16 0 17 0;
#X connect 17 0 3 0;
#X connect 18 0 19 0;
#X connect 19 0 18 0;
#X connect 21 0 22 0;
#X connect 23 0 27 0;
#X connect 24 0 25 0;
#X connect 25 0 26 0;
#X connect 25 0 21 0;
#X connect 26 0 25 1;
#X connect 27 0 29 0;
#X connect 27 1 21 1;
#X connect 27 2 28 0;
#X connect 28 0 25 1;
#X connect 29 0 24 0;
#X restore 215 14 pd check;
#X text 148 78 5kW;
#X text 701 197 2kW;
#X text 891 321 5kW;
#X text 1066 259 2kW;
#X obj 647 444 value proj-num;
#X text 464 401 nombre de projecteurs utilisés :;
#X connect 1 0 83 1;
#X connect 2 0 84 1;
#X connect 3 0 85 1;
#X connect 4 0 82 1;
#X connect 5 0 86 1;
#X connect 7 0 6 0;
#X connect 8 0 83 0;
#X connect 11 0 87 1;
#X connect 12 0 88 1;
#X connect 13 0 89 1;
#X connect 14 0 90 1;
#X connect 15 0 91 1;
#X connect 17 0 92 1;
#X connect 18 0 93 1;
#X connect 19 0 94 1;
#X connect 20 0 95 1;
#X connect 21 0 96 1;
#X connect 22 0 97 1;
#X connect 23 0 98 1;
#X connect 24 0 99 1;
#X connect 25 0 100 1;
#X connect 26 0 101 1;
#X connect 31 0 102 1;
#X connect 32 0 103 1;
#X connect 33 0 104 1;
#X connect 34 0 105 1;
#X connect 35 0 106 1;
#X connect 36 0 107 1;
#X connect 37 0 108 1;
#X connect 38 0 109 1;
#X connect 39 0 110 1;
#X connect 40 0 111 1;
#X connect 41 0 112 1;
#X connect 42 0 113 1;
#X connect 43 0 114 1;
#X connect 44 0 115 1;
#X connect 45 0 116 1;
#X connect 46 0 86 0;
#X connect 47 0 85 0;
#X connect 48 0 84 0;
#X connect 49 0 82 0;
#X connect 50 0 87 0;
#X connect 51 0 91 0;
#X connect 52 0 89 0;
#X connect 53 0 90 0;
#X connect 54 0 92 0;
#X connect 55 0 96 0;
#X connect 56 0 94 0;
#X connect 57 0 93 0;
#X connect 58 0 95 0;
#X connect 59 0 97 0;
#X connect 60 0 101 0;
#X connect 61 0 99 0;
#X connect 62 0 98 0;
#X connect 63 0 100 0;
#X connect 64 0 102 0;
#X connect 65 0 106 0;
#X connect 66 0 104 0;
#X connect 67 0 103 0;
#X connect 68 0 105 0;
#X connect 69 0 107 0;
#X connect 70 0 111 0;
#X connect 71 0 109 0;
#X connect 72 0 108 0;
#X connect 73 0 110 0;
#X connect 74 0 112 0;
#X connect 75 0 116 0;
#X connect 76 0 114 0;
#X connect 77 0 113 0;
#X connect 78 0 115 0;
#X connect 79 0 88 0;
#X connect 81 0 80 0;
#X connect 81 0 124 0;
#X connect 117 0 118 0;
#X connect 118 0 81 0;
#X restore 70 109 pd master;
#N canvas 745 498 508 200 init 0;
#X msg 62 131 dsp 1;
#X obj 62 25 loadbang;
#X obj 62 45 del 1000;
#X obj 62 155 s pd;
#X obj 182 22 declare -path abs -path abs_light;
#N canvas 606 487 570 244 midisetting 0;
#X obj 102 19 bng 15 250 50 0 empty empty empty 17 7 0 10 -262144 -1
-1;
#X obj 253 10 inlet;
#X obj 28 144 pack s s;
#X msg 28 168 device @in \$1 @out \$2;
#X obj 97 47 t b b;
#X obj 28 98 list2symbol;
#X obj 138 98 list2symbol;
#X obj 28 188 mediasettings/midisettings;
#X msg 28 77 BCF2000 Port 1;
#X msg 138 78 BCF2000 Port 1;
#X msg 253 108 2 0 0 0 0 0 0 0 0 2 0 0 0 0 0 0 0 0 4 5;
#X obj 254 130 list prepend midi-dialog;
#X obj 254 152 list trim;
#X obj 254 174 s pd;
#X obj 253 50 t b;
#X obj 263 30 bng 15 250 50 0 empty empty empty 17 7 0 10 -262144 -1
-1;
#X connect 0 0 4 0;
#X connect 1 0 14 0;
#X connect 2 0 3 0;
#X connect 3 0 7 0;
#X connect 4 0 8 0;
#X connect 4 1 9 0;
#X connect 5 0 2 0;
#X connect 6 0 2 1;
#X connect 8 0 5 0;
#X connect 9 0 6 0;
#X connect 10 0 11 0;
#X connect 11 0 12 0;
#X connect 12 0 13 0;
#X connect 14 0 10 0;
#X connect 15 0 14 0;
#X restore 123 103 pd midisetting;
#X obj 62 67 t b b b;
#X obj 182 42 declare -lib Jamoma -lib zexy -lib Cream;
#X obj 107 153 print;
#X obj 107 131 selectAudioDevice UMC404HD_192k_(hardware);
#X connect 0 0 3 0;
#X connect 1 0 2 0;
#X connect 2 0 6 0;
#X connect 6 0 0 0;
#X connect 6 1 9 0;
#X connect 9 0 8 0;
#X restore 70 129 pd init;
#X text 25 223 Antoine Villeret pour Contour Progressif / Mylène Benoit
;
#X text 59 107 >;
#N canvas 826 50 270 1011 simulation_light 0;
#X obj 158 179 pd~ -ninsig 0 -noutsig 0, f 25;
#X obj 158 14 loadbang;
#X obj 158 66 del 10000;
#X obj 23 90 r light_simulator;
#X msg 180 119 pd~ start ./abs/light_simulator.pd;
#X msg 194 150 pd~ stop;
#X msg 158 91 pd~ start -nogui -lib Gem ./abs/light_simulator.pd;
#X connect 2 0 6 0;
#X connect 3 0 0 0;
#X connect 4 0 0 0;
#X connect 5 0 0 0;
#X connect 6 0 0 0;
#X restore 80 75 pd simulation_light;
#N canvas 623 247 675 612 effet 0;
#N canvas 22 157 265 126 audiograph 0;
#N canvas 2 431 1916 303 master 0;
#X obj 87 201 s dmxlimit;
#X obj 87 56 ossia.param master/brightness @type float @default 1;
#X obj 87 77 ossia.param master/pitch @type float @default 1;
#X obj 87 98 ossia.param master/spec @type float @default 1;
#X obj 87 118 ossia.param master/send @type float @default 0;
#X obj 87 168 ossia.param master/limit @type float @default 255 @range
0 255;
#X connect 5 0 0 0;
#X restore 150 20 pd master;
#X obj 52 97 track.model ch1;
#X obj 53 63 adc~ 1;
#X connect 2 0 1 0;
#X restore 326 420 pd audiograph;
#X obj 283 532 / 100;
#X floatatom 283 514 5 0 200 1 % - -, f 5;
#X text 235 512 master;
#X text 72 61 threshold;
#X text 102 81 gain;
#X text 84 102 release;
#X text 96 126 pitch;
#X text 66 145 brightness;
#X text 96 221 width;
#X text 96 302 level;
#X text 90 261 in max;
#X text 90 241 in min;
#X text 96 354 range;
#X text 78 374 position;
#X text 78 394 freq min;
#X text 78 414 freq max;
#N canvas 1442 50 476 1011 Readme 0;
#X text 32 20 Réglage des entrées audio :;
#X text 57 39 Changer le seuil de sorte que seul le son utile fasse
monter le slider (quand on n'utilise pas le micro \, le son ambiant
ne doit pas faire bouger le slider.;
#X text 58 79 Monter le gain pour qu'une fine variation de volume fasse
bouger le slider.;
#X text 57 108 Le paramètre Release permet de contrôler le temps
de réponse du slider.;
#X text 28 173 Réglage des efffets :;
#X text 75 250 Brightness : c'est la brillance du son qui déplace
la tâche.;
#X text 75 270 Pitch : c'est la hauteur (la note) du son qui déplace
la tâche.;
#X text 73 304 range : nombre de projecteurs sur lesquels la tâche
se déplace;
#X text 73 334 offset : numéro du projecteur de départ;
#X text 73 354 width : largeur de la tâche;
#X text 73 374 in min/max : plage de valeur d'entrée \, quand l'entrée
est à min \, la tâche est à la position de départ \, quand l'entrée
est à max \, la tâche est à la position d'arrivée.;
#X text 73 424 level : niveau de l'effet;
#X text 73 504 offset : numéro du projecteur de départ;
#X text 73 614 level : niveau de l'effet;
#X text 45 450 Spectre : chaque bande de fréquences contrôle un projecteur
;
#X text 73 524 freq min/max : frequence min et max \, cette plage de
fréquence est divisé en autant de bande qu'on a sélectionné de
projecteurs \, toutes les bandes ont la même largeur en octave;
#X text 72 582 scale 1&2 : deux multiplicateur permettant de contrôler
la réponse des projecteurs;
#X text 73 474 range : nombre de projecteurs et nombre de bande de
fréquences à utiliser (<= 26);
#X text 45 190 Brightness et pitch : déplace une tâche de lumière
plus ou moins large sur plusieurs projecteurs. L'amplitude contrôle
l'intensité de la tâche.;
#X restore 324 444 pd Readme;
#X obj 247 372 vradio 15 1 0 2 empty empty empty 0 -8 0 10 -262144
-1 -1 0;
#X text 263 387 audiofile;
#X text 264 372 micros;
#X text 96 493 level;
#X text 72 282 smoothing;
#X obj 283 471 * 100;
#X obj 344 491 ossia.remote /master/send;
#X obj 289 37 ossia.remote /master/brightness;
#X obj 289 133 vsl 15 128 0 1 0 0 empty empty empty 0 -9 0 10 -262144
-1 -1 0 1;
#X obj 309 133 vsl 15 128 0 1 0 0 empty empty empty 0 -9 0 10 -262144
-1 -1 0 1;
#X obj 329 133 vsl 15 128 0 1 0 0 empty empty empty 0 -9 0 10 -262144
-1 -1 0 1;
#X obj 349 133 vsl 15 128 0 1 0 0 empty empty empty 0 -9 0 10 -262144
-1 -1 0 1;
#X text 242 124 master;
#X text 261 267 bright;
#X text 290 282 pitch;
#X text 349 267 send;
#X text 332 292 freq;
#X obj 309 57 ossia.remote /master/pitch;
#X obj 329 77 ossia.remote /master/spec;
#X obj 349 97 ossia.remote /master/send;
#X text 84 434 salaire;
#X text 84 454 profit;
#X text 9 476 limiteur de vitesse;
#X obj 424 376 nbx 3 28 -1e+37 1e+37 0 1 empty empty empty 0 -8 0 24
-262144 -1 -1 63 256;
#X obj 424 407 ossia.remote /master/limit;
#X floatatom 248 411 5 0 0 0 - - -, f 5;
#X text 224 426 << audio >>;
#N canvas 0 93 450 300 (subpatch) 0;
#X floatatom 102 102 5 0 0 0 - - -, f 5;
#X obj 85 46 * 100;
#X obj 84 69 i;
#X obj 83 10 inlet;
#X connect 1 0 2 0;
#X connect 2 0 0 0;
#X connect 3 0 1 0;
#X coords 0 -1 1 1 40 20 2 100 100;
#X restore 329 317 pd;
#X text 150 16 ch1;
#X text 81 519 reverse;
#X msg 283 493 set \$1;
#X obj 130 32 track.view ch1;
#N canvas 2 668 1916 101 sends_remote 0;
#X obj 3 -845 cnv 15 1000 20 empty empty empty 20 12 0 14 -233017 -66577
0;
#X obj 3 -825 cnv 15 1000 20 empty empty empty 20 12 0 14 -162280 -66577
0;
#X obj 3 -885 cnv 15 1000 20 empty empty empty 20 12 0 14 -233017 -66577
0;
#X obj 3 -805 cnv 15 1000 20 empty empty empty 20 12 0 14 -233017 -66577
0;
#X obj 3 -785 cnv 15 1000 20 empty empty empty 20 12 0 14 -162280 -66577
0;
#X obj 3 -765 cnv 15 1000 20 empty empty empty 20 12 0 14 -233017 -66577
0;
#X obj 3 -745 cnv 15 1000 20 empty empty empty 20 12 0 14 -162280 -66577
0;
#X obj 3 -725 cnv 15 1000 20 empty empty empty 20 12 0 14 -233017 -66577
0;
#X obj 3 -705 cnv 15 1000 20 empty empty empty 20 12 0 14 -162280 -66577
0;
#X obj 3 -685 cnv 15 1000 20 empty empty empty 20 12 0 14 -233017 -66577
0;
#X obj 3 -665 cnv 15 1000 20 empty empty empty 20 12 0 14 -162280 -66577
0;
#X obj 3 -645 cnv 15 1000 20 empty empty empty 20 12 0 14 -233017 -66577
0;
#X obj 3 -625 cnv 15 1000 20 empty empty empty 20 12 0 14 -162280 -66577
0;
#X obj 3 -605 cnv 15 1000 20 empty empty empty 20 12 0 14 -233017 -66577
0;
#X obj 3 -585 cnv 15 1000 20 empty empty empty 20 12 0 14 -162280 -66577
0;
#X obj 3 -565 cnv 15 1000 20 empty empty empty 20 12 0 14 -233017 -66577
0;
#X obj 3 -545 cnv 15 1000 20 empty empty empty 20 12 0 14 -162280 -66577
0;
#X obj 3 -525 cnv 15 1000 20 empty empty empty 20 12 0 14 -233017 -66577
0;
#X obj 3 -505 cnv 15 1000 20 empty empty empty 20 12 0 14 -162280 -66577
0;
#X obj 3 -485 cnv 15 1000 20 empty empty empty 20 12 0 14 -233017 -66577
0;
#X obj 3 -465 cnv 15 1000 20 empty empty empty 20 12 0 14 -162280 -66577
0;
#X obj 3 -445 cnv 15 1000 20 empty empty empty 20 12 0 14 -233017 -66577
0;
#X obj 3 -425 cnv 15 1000 20 empty empty empty 20 12 0 14 -162280 -66577
0;
#X obj 3 -405 cnv 15 1000 20 empty empty empty 20 12 0 14 -233017 -66577
0;
#X obj 3 -385 cnv 15 1000 20 empty empty empty 20 12 0 14 -162280 -66577
0;
#X obj 3 -365 cnv 15 1000 20 empty empty empty 20 12 0 14 -233017 -66577
0;
#X obj 3 -345 cnv 15 1000 20 empty empty empty 20 12 0 14 -162280 -66577
0;
#X obj 3 -325 cnv 15 1000 20 empty empty empty 20 12 0 14 -233017 -66577
0;
#X obj 3 -305 cnv 15 1000 20 empty empty empty 20 12 0 14 -162280 -66577
0;
#X obj 3 -285 cnv 15 1000 20 empty empty empty 20 12 0 14 -233017 -66577
0;
#X obj 3 -265 cnv 15 1000 20 empty empty empty 20 12 0 14 -162280 -66577
0;
#X obj 3 -245 cnv 15 1000 20 empty empty empty 20 12 0 14 -233017 -66577
0;
#X obj 3 -225 cnv 15 1000 20 empty empty empty 20 12 0 14 -162280 -66577
0;
#X obj 3 -205 cnv 15 1000 20 empty empty empty 20 12 0 14 -233017 -66577
0;
#X obj 3 -185 cnv 15 1000 20 empty empty empty 20 12 0 14 -162280 -66577
0;
#X obj 3 -165 cnv 15 1000 20 empty empty empty 20 12 0 14 -233017 -66577
0;
#X obj 3 -145 cnv 15 1000 20 empty empty empty 20 12 0 14 -162280 -66577
0;
#X obj 3 -125 cnv 15 1000 20 empty empty empty 20 12 0 14 -233017 -66577
0;
#X obj 3 -105 cnv 15 1000 20 empty empty empty 20 12 0 14 -162280 -66577
0;
#X obj 3 -85 cnv 15 1000 20 empty empty empty 20 12 0 14 -233017 -66577
0;
#X obj 3 -65 cnv 15 1000 20 empty empty empty 20 12 0 14 -162280 -66577
0;
#X obj 3 -45 cnv 15 1000 20 empty empty empty 20 12 0 14 -233017 -66577
0;
#X obj 3 -25 cnv 15 1000 20 empty empty empty 20 12 0 14 -162280 -66577
0;
#X obj 3 -5 cnv 15 1000 20 empty empty empty 20 12 0 14 -233017 -66577
0;
#X obj 3 15 cnv 15 1000 20 empty empty empty 20 12 0 14 -162280 -66577
0;
#X obj 3 35 cnv 15 1000 20 empty empty empty 20 12 0 14 -233017 -66577
0;
#X obj 3 55 cnv 15 1000 20 empty empty empty 20 12 0 14 -162280 -66577
0;
#X obj 3 75 cnv 15 1000 20 empty empty empty 20 12 0 14 -233017 -66577
0;
#X obj 3 95 cnv 15 1000 20 empty empty empty 20 12 0 14 -162280 -66577
0;
#X obj 3 115 cnv 15 1000 20 empty empty empty 20 12 0 14 -233017 -66577
0;
#X obj 3 135 cnv 15 1000 20 empty empty empty 20 12 0 14 -162280 -66577
0;
#X text 77 -884 1;
#X text 77 -844 3;
#X text 77 -824 4;
#X text 77 -804 5;
#X text 77 -784 6;
#X text 77 -764 7;
#X text 77 -744 8;
#X text 77 -724 9;
#X text 77 -704 10;
#X text 77 -684 11;
#X text 77 -664 12;
#X text 77 -644 13;
#X text 77 -624 14;
#X text 77 -604 15;
#X text 77 -584 16;
#X text 77 -564 17;
#X text 77 -544 18;
#X text 77 -524 19;
#X text 77 -504 20;
#X text 77 -484 21;
#X text 77 -464 22;
#X text 77 -444 23;
#X text 77 -424 24;
#X text 77 -404 25;
#X text 77 -384 26;
#X text 77 -364 27;
#X text 77 -344 28;
#X text 77 -324 29;
#X text 77 -304 30;
#X text 77 -284 31;
#X text 77 -264 32;
#X text 77 -244 33;
#X text 77 -224 34;
#X text 77 -204 35;
#X text 77 -184 36;
#X text 77 -164 37;
#X text 77 -144 38;
#X text 77 -124 39;
#X text 77 -104 40;
#X text 109 -903 ch1;
#X obj 3 -865 cnv 15 1000 20 empty empty empty 20 12 0 14 -162280 -66577
0;
#X obj 106 -884 send.view /ch1;
#X text 77 -864 2;
#X coords 0 101 1 100 1000 1255 0;
#X restore 326 380 pd sends_remote;
#X connect 1 0 24 0;
#X connect 2 0 1 0;
#X connect 23 0 48 0;
#X connect 24 1 23 0;
#X connect 25 0 26 0;
#X connect 26 0 25 0;
#X connect 27 0 35 0;
#X connect 28 0 36 0;
#X connect 28 0 45 0;
#X connect 29 0 37 0;
#X connect 35 0 27 0;
#X connect 36 0 28 0;
#X connect 37 0 29 0;
#X connect 41 0 42 0;
#X connect 42 0 41 0;
#X connect 48 0 2 0;
#X restore 80 55 pd effet;
#N canvas 962 76 316 983 table 0;
#N canvas 320 257 450 300 gauss 0;
#X obj 26 13 inlet;
#X obj 27 253 outlet;
#X obj 27 124 exp;
#X obj 26 61 t f f;
#X obj 27 83 *;
#X obj 27 103 * -1;
#X connect 0 0 3 0;
#X connect 2 0 1 0;
#X connect 3 0 4 0;
#X connect 3 1 4 1;
#X connect 4 0 5 0;
#X connect 5 0 2 0;
#X restore 51 436 pd gauss;
#X floatatom 51 457 5 0 0 0 - - -, f 5;
#X obj 51 478 tabwrite gauss;
#X obj 51 231 until;
#X obj 51 253 f;
#X obj 76 253 + 1;
#X obj 53 161 t b b;
#X msg 102 231 0;
#X obj 53 137 bng 15 250 50 0 empty empty empty 17 7 0 10 -262144 -1
-1;
#X obj 51 275 t f f;
#X obj 51 339 - 500;
#X obj 51 361 abs;
#X obj 51 207 t f f;
#X obj 56 499 table gauss 1001;
#X obj 49 184 f 1001;
#X obj 131 293 - 1;
#X obj 131 315 / 2;
#X obj 51 415 / 150;
#X obj 53 112 loadbang;
#X connect 0 0 1 0;
#X connect 1 0 2 0;
#X connect 3 0 4 0;
#X connect 4 0 5 0;
#X connect 4 0 9 0;
#X connect 5 0 4 1;
#X connect 6 0 14 0;
#X connect 6 1 7 0;
#X connect 7 0 4 1;
#X connect 8 0 6 0;
#X connect 9 0 10 0;
#X connect 9 1 2 1;
#X connect 10 0 11 0;
#X connect 11 0 17 0;
#X connect 12 0 3 0;
#X connect 12 1 15 0;
#X connect 14 0 12 0;
#X connect 15 0 16 0;
#X connect 16 0 10 1;
#X connect 17 0 0 0;
#X connect 18 0 8 0;
#X restore 70 149 pd table;
#N canvas 1155 76 380 983 check-projos 0;
#X obj 218 223 pack f f;
#N canvas 0 50 1920 301 output 0;
#X obj 63 141 bus effet1;
#X obj 103 171 bus effet2;
#X obj 133 141 bus effet3;
#X obj 173 171 bus effet4;
#X obj 203 141 bus effet5;
#X obj 243 171 bus effet6;
#X obj 273 141 bus effet7;
#X obj 313 171 bus effet8;
#X obj 344 142 bus effet9;
#X obj 383 171 bus effet10;
#X obj 413 142 bus effet11;
#X obj 483 142 bus effet13;
#X obj 553 142 bus effet15;
#X obj 625 143 bus effet17;
#X obj 696 143 bus effet19;
#X obj 766 143 bus effet21;
#X obj 836 143 bus effet23;
#X obj 453 171 bus effet12;
#X obj 522 171 bus effet14;
#X obj 593 171 bus effet16;
#X obj 662 171 bus effet18;
#X obj 732 171 bus effet20;
#X obj 802 171 bus effet22;
#X obj 872 171 bus effet24;
#X obj 906 143 bus effet25;
#X obj 942 171 bus effet26;
#X obj 62 80 inlet;
#X obj 980 142 bus effet27;
#X obj 1020 172 bus effet28;
#X obj 1050 142 bus effet29;
#X obj 1090 171 bus effet30;
#X obj 1120 142 bus effet31;
#X obj 1160 172 bus effet32;
#X obj 1192 143 bus effet33;
#X obj 1230 172 bus effet34;
#X obj 1261 142 bus effet35;
#X obj 1300 172 bus effet36;
#X obj 1330 143 bus effet37;
#X obj 1369 172 bus effet38;
#X obj 1400 143 bus effet39;
#X obj 1440 172 bus effet40;
#X obj 1472 144 bus effet41;
#X obj 1509 172 bus effet42;
#X obj 1543 144 bus effet43;
#X obj 1579 172 bus effet44;
#X obj 1614 144 bus effet45;
#X obj 1649 172 bus effet46;
#X obj 1683 144 bus effet47;
#X obj 1719 172 bus effet48;
#X obj 63 107 route 1 2 3 4 5 6 7 8 9 10 11 12 13 14 15 16 17 18 19
20 21 22 23 24 25 26 27 28 29 30 31 32 33 34 35 36 37 38 39 40 41 42
43 44 45 46 47 48, f 277;
#X connect 26 0 49 0;
#X connect 49 0 0 0;
#X connect 49 1 1 0;
#X connect 49 2 2 0;
#X connect 49 3 3 0;
#X connect 49 4 4 0;
#X connect 49 5 5 0;
#X connect 49 6 6 0;
#X connect 49 7 7 0;
#X connect 49 8 8 0;
#X connect 49 9 9 0;
#X connect 49 10 10 0;
#X connect 49 11 17 0;
#X connect 49 12 11 0;
#X connect 49 13 18 0;
#X connect 49 14 12 0;
#X connect 49 15 19 0;
#X connect 49 16 13 0;
#X connect 49 17 20 0;
#X connect 49 18 14 0;
#X connect 49 19 21 0;
#X connect 49 20 15 0;
#X connect 49 21 22 0;
#X connect 49 22 16 0;
#X connect 49 23 23 0;
#X connect 49 24 24 0;
#X connect 49 25 25 0;
#X connect 49 26 27 0;
#X connect 49 27 28 0;
#X connect 49 28 29 0;
#X connect 49 29 30 0;
#X connect 49 30 31 0;
#X connect 49 31 32 0;
#X connect 49 32 33 0;
#X connect 49 33 34 0;
#X connect 49 34 35 0;
#X connect 49 35 36 0;
#X connect 49 36 37 0;
#X connect 49 37 38 0;
#X connect 49 38 39 0;
#X connect 49 39 40 0;
#X connect 49 40 41 0;
#X connect 49 41 42 0;
#X connect 49 42 43 0;
#X connect 49 43 44 0;
#X connect 49 44 45 0;
#X connect 49 45 46 0;
#X connect 49 46 47 0;
#X connect 49 47 48 0;
#X restore 218 244 pd output;
#X obj 218 166 until;
#X obj 218 188 f;
#X obj 244 188 + 1;
#X obj 227 119 t b f b;
#X msg 266 146 1;
#X msg 218 144 24;
#X msg 222 33 30;
#X floatatom 222 94 5 0 0 1 % - -, f 5;
#X msg 241 68 0;
#X text 257 34 tout à 30%;
#X text 275 68 tout éteint;
#X connect 0 0 1 0;
#X connect 2 0 3 0;
#X connect 3 0 4 0;
#X connect 3 0 0 0;
#X connect 4 0 3 1;
#X connect 5 0 7 0;
#X connect 5 1 0 1;
#X connect 5 2 6 0;
#X connect 6 0 3 1;
#X connect 7 0 2 0;
#X connect 8 0 9 0;
#X connect 9 0 5 0;
#X connect 10 0 9 0;
#X restore 91 306 pd check-projos;
#X text 204 304 <-- controle des projecteurs;
#X text 80 239 Aveuglement - 2018;
#X obj 271 154 ossia;
#X msg 266 117 namespace;
#X obj 271 176 print;
#X msg 236 87 expose oscquery;
#X obj 236 63 loadbang;
#X msg 315 53 get protocols;
#X msg 359 90 stop 0;
#X connect 10 0 12 0;
#X connect 11 0 10 0;
#X connect 13 0 10 0;
#X connect 14 0 13 0;
#X connect 15 0 10 0;
#X connect 16 0 10 0;
