#N canvas 2 755 956 304 10;
#X declare -path abs -path abs_light;
#X declare -lib ossia -lib zexy -lib timbreID/timbreIDLib;
#N canvas 1154 47 380 1012 master 0;
#N canvas 962 50 476 1011 metro 0;
#X obj 77 3 loadbang;
#X obj 116 118 s metro_dmx;
#X obj 96 141 s metro_dmx_int;
#X obj 77 75 t b b b;
#X obj 76 167 s send-dmx;
#X obj 77 35 tgl 15 0 empty empty empty 17 7 0 10 -262144 -1 -1 1 1
;
#X obj 77 53 metro 20;
#X obj 154 53 bng 15 250 50 0 empty empty empty 17 7 0 10 -262144 -1
-1;
#X connect 0 0 5 0;
#X connect 3 0 4 0;
#X connect 3 1 2 0;
#X connect 3 2 1 0;
#X connect 5 0 6 0;
#X connect 6 0 3 0;
#X connect 7 0 3 0;
#X restore 33 8 pd metro;
#X obj 109 81 nbx 3 14 0 512 0 1 empty empty dmx_ch 0 -8 0 10 -262144
-1 -1 1 256;
#X obj 109 261 nbx 3 14 0 512 0 1 empty empty dmx_ch 0 -8 0 10 -262144
-1 -1 4 256;
#X obj 109 201 nbx 3 14 0 512 0 1 empty empty dmx_ch 0 -8 0 10 -262144
-1 -1 3 256;
#X obj 109 321 nbx 3 14 0 512 0 1 empty empty dmx_ch 0 -8 0 10 -262144
-1 -1 5 256;
#X obj 109 141 nbx 3 14 0 512 0 1 empty empty dmx_ch 0 -8 0 10 -262144
-1 -1 2 256;
#N canvas 654 94 450 300 panic 0;
#X obj 73 14 inlet;
#X obj 75 40 s dmx-reset;
#X connect 0 0 1 0;
#X restore 116 27 pd panic;
#X obj 115 9 bng 15 250 50 0 empty empty empty 17 7 0 10 -262144 -1
-1;
#X obj 33 48 bus_master 1;
#X text 3 361 Pour chaque circuit entrer le;
#X text 12 375 numéro de grada dans la case dmx_ch;
#X obj 289 81 nbx 3 14 0 512 0 1 empty empty dmx_ch 0 -8 0 10 -262144
-1 -1 6 256;
#X obj 289 261 nbx 3 14 0 512 0 1 empty empty dmx_ch 0 -8 0 10 -262144
-1 -1 9 256;
#X obj 289 201 nbx 3 14 0 512 0 1 empty empty dmx_ch 0 -8 0 10 -262144
-1 -1 8 256;
#X obj 289 321 nbx 3 14 0 512 0 1 empty empty dmx_ch 0 -8 0 10 -262144
-1 -1 10 256;
#X obj 289 141 nbx 3 14 0 512 0 1 empty empty dmx_ch 0 -8 0 10 -262144
-1 -1 7 256;
#N canvas 258 676 610 363 send_DMX 0;
#N canvas 1602 47 316 1012 list-creation 0;
#X obj 137 185 until;
#X msg 137 219 0;
#X msg 38 182 126 6 1 2;
#X obj 138 366 outlet;
#X obj 118 31 loadbang;
#X obj 183 59 bng 15 250 50 0 empty empty empty 17 7 0 10 -262144 -1
-1;
#X obj 122 335 l;
#X obj 92 56 t b b;
#X obj 219 326 l;
#X obj 137 298 list append;
#X obj 118 85 t b b b b;
#X obj 196 367 list length;
#X floatatom 196 389 5 0 0 0 - - -, f 5;
#X obj 222 36 r dmx-reset;
#X msg 137 153 64;
#X connect 0 0 1 0;
#X connect 1 0 9 0;
#X connect 4 0 7 0;
#X connect 5 0 7 0;
#X connect 6 0 3 0;
#X connect 6 0 11 0;
#X connect 7 0 6 0;
#X connect 7 1 10 0;
#X connect 8 0 9 1;
#X connect 9 0 6 1;
#X connect 9 0 8 0;
#X connect 10 0 2 0;
#X connect 10 1 14 0;
#X connect 10 3 9 1;
#X connect 11 0 12 0;
#X connect 13 0 7 0;
#X connect 14 0 0 0;
#X restore 267 46 pd list-creation;
#X obj 295 103 l;
#X obj 144 12 r value;
#X obj 178 39 r index;
#X obj 396 54 loadbang;
#X obj 123 119 list;
#X obj 69 75 r send-dmx;
#X obj 123 180 route bang;
#X obj 144 76 list-abs/list-replace;
#X obj 396 129 s dmx-reset;
#X obj 169 117 list length;
#X floatatom 169 139 5 0 0 0 - - -, f 5;
#X obj 404 107 bng 15 250 50 0 empty empty empty 17 7 0 10 -262144
-1 -1;
#X obj 232 304 iemnet/udpsend;
#X obj 396 76 t b b;
#X obj 180 269 osc/packOSC;
#X obj 180 245 list trim;
#X msg 367 259 disconnect;
#X msg 423 177 connect 127.0.0.1 7770;
#X obj 180 220 list prepend sendtyped /dmx/universe/1 b;
#X connect 0 0 8 2;
#X connect 0 0 5 1;
#X connect 1 0 8 2;
#X connect 2 0 8 0;
#X connect 3 0 8 1;
#X connect 4 0 14 0;
#X connect 5 0 7 0;
#X connect 5 0 10 0;
#X connect 6 0 5 0;
#X connect 7 1 19 0;
#X connect 8 0 1 0;
#X connect 8 0 5 1;
#X connect 10 0 11 0;
#X connect 12 0 9 0;
#X connect 14 0 9 0;
#X connect 14 1 18 0;
#X connect 15 0 13 0;
#X connect 16 0 15 0;
#X connect 17 0 13 0;
#X connect 18 0 13 0;
#X connect 19 0 16 0;
#X restore 33 28 pd send_DMX;
#X obj 479 81 nbx 3 14 0 512 0 1 empty empty dmx_ch 0 -8 0 10 -262144
-1 -1 11 256;
#X obj 479 261 nbx 3 14 0 512 0 1 empty empty dmx_ch 0 -8 0 10 -262144
-1 -1 14 256;
#X obj 479 201 nbx 3 14 0 512 0 1 empty empty dmx_ch 0 -8 0 10 -262144
-1 -1 13 256;
#X obj 479 321 nbx 3 14 0 512 0 1 empty empty dmx_ch 0 -8 0 10 -262144
-1 -1 15 256;
#X obj 479 141 nbx 3 14 0 512 0 1 empty empty dmx_ch 0 -8 0 10 -262144
-1 -1 12 256;
#X obj 659 81 nbx 3 14 0 512 0 1 empty empty dmx_ch 0 -8 0 10 -262144
-1 -1 16 256;
#X obj 659 261 nbx 3 14 0 512 0 1 empty empty dmx_ch 0 -8 0 10 -262144
-1 -1 19 256;
#X obj 659 201 nbx 3 14 0 512 0 1 empty empty dmx_ch 0 -8 0 10 -262144
-1 -1 18 256;
#X obj 659 321 nbx 3 14 0 512 0 1 empty empty dmx_ch 0 -8 0 10 -262144
-1 -1 20 256;
#X obj 659 141 nbx 3 14 0 512 0 1 empty empty dmx_ch 0 -8 0 10 -262144
-1 -1 17 256;
#X text 316 359 1 - 9 : cyliodes;
#X text 316 392 13 - 15 : PAR COUR;
#X text 316 379 10 - 12 : PAR JARDIN;
#X text 316 404 16 - 18 : PC;
#X obj 849 81 nbx 3 14 0 512 0 1 empty empty dmx_ch 0 -8 0 10 -262144
-1 -1 21 256;
#X obj 849 261 nbx 3 14 0 512 0 1 empty empty dmx_ch 0 -8 0 10 -262144
-1 -1 24 256;
#X obj 849 201 nbx 3 14 0 512 0 1 empty empty dmx_ch 0 -8 0 10 -262144
-1 -1 23 256;
#X obj 849 321 nbx 3 14 0 512 0 1 empty empty dmx_ch 0 -8 0 10 -262144
-1 -1 25 256;
#X obj 849 141 nbx 3 14 0 512 0 1 empty empty dmx_ch 0 -8 0 10 -262144
-1 -1 22 256;
#X obj 1029 81 nbx 3 14 0 512 0 1 empty empty dmx_ch 0 -8 0 10 -262144
-1 -1 26 256;
#X obj 1029 261 nbx 3 14 0 512 0 1 empty empty dmx_ch 0 -8 0 10 -262144
-1 -1 29 256;
#X obj 1029 201 nbx 3 14 0 512 0 1 empty empty dmx_ch 0 -8 0 10 -262144
-1 -1 28 256;
#X obj 1029 321 nbx 3 14 0 512 0 1 empty empty dmx_ch 0 -8 0 10 -262144
-1 -1 30 256;
#X obj 1029 141 nbx 3 14 0 512 0 1 empty empty dmx_ch 0 -8 0 10 -262144
-1 -1 27 256;
#X obj 33 108 bus_master 2;
#X obj 33 168 bus_master 3;
#X obj 33 228 bus_master 4;
#X obj 33 288 bus_master 5;
#X obj 213 47 bus_master 6;
#X obj 213 108 bus_master 7;
#X obj 213 168 bus_master 8;
#X obj 213 288 bus_master 10;
#X obj 403 48 bus_master 11;
#X obj 403 108 bus_master 12;
#X obj 403 168 bus_master 13;
#X obj 403 227 bus_master 14;
#X obj 403 288 bus_master 15;
#X obj 583 47 bus_master 16;
#X obj 583 108 bus_master 17;
#X obj 583 168 bus_master 18;
#X obj 583 227 bus_master 19;
#X obj 583 288 bus_master 20;
#X obj 773 48 bus_master 21;
#X obj 773 108 bus_master 22;
#X obj 773 168 bus_master 23;
#X obj 773 228 bus_master 24;
#X obj 773 288 bus_master 25;
#X obj 953 47 bus_master 26;
#X obj 953 109 bus_master 27;
#X obj 953 168 bus_master 28;
#X obj 953 228 bus_master 29;
#X obj 953 288 bus_master 30;
#X obj 213 227 bus_master 9;
#X obj 665 422 s proj-num;
#X obj 665 401 nbx 3 14 0 100 0 1 empty empty empty 0 -8 0 10 -262144
-1 -1 30 256;
#X obj 33 80 enttec_out;
#X obj 665 359 loadbang;
#X obj 665 381 del 1000;
#N canvas 195 325 668 341 check 0;
#X obj 181 262 pack f f;
#N canvas 0 93 1905 301 output 0;
#X obj 63 141 bus effet1;
#X obj 103 171 bus effet2;
#X obj 133 141 bus effet3;
#X obj 173 171 bus effet4;
#X obj 203 141 bus effet5;
#X obj 243 171 bus effet6;
#X obj 273 141 bus effet7;
#X obj 313 171 bus effet8;
#X obj 344 142 bus effet9;
#X obj 383 171 bus effet10;
#X obj 413 142 bus effet11;
#X obj 483 142 bus effet13;
#X obj 553 142 bus effet15;
#X obj 625 143 bus effet17;
#X obj 696 143 bus effet19;
#X obj 766 143 bus effet21;
#X obj 836 143 bus effet23;
#X obj 453 171 bus effet12;
#X obj 522 171 bus effet14;
#X obj 593 171 bus effet16;
#X obj 662 171 bus effet18;
#X obj 732 171 bus effet20;
#X obj 802 171 bus effet22;
#X obj 872 171 bus effet24;
#X obj 906 143 bus effet25;
#X obj 942 171 bus effet26;
#X obj 62 80 inlet;
#X obj 980 142 bus effet27;
#X obj 1020 172 bus effet28;
#X obj 1050 142 bus effet29;
#X obj 1090 171 bus effet30;
#X obj 1120 142 bus effet31;
#X obj 1160 172 bus effet32;
#X obj 1192 143 bus effet33;
#X obj 1230 172 bus effet34;
#X obj 1261 142 bus effet35;
#X obj 1300 172 bus effet36;
#X obj 1330 143 bus effet37;
#X obj 1369 172 bus effet38;
#X obj 1400 143 bus effet39;
#X obj 1440 172 bus effet40;
#X obj 1472 144 bus effet41;
#X obj 1509 172 bus effet42;
#X obj 1543 144 bus effet43;
#X obj 1579 172 bus effet44;
#X obj 1614 144 bus effet45;
#X obj 1649 172 bus effet46;
#X obj 1683 144 bus effet47;
#X obj 1719 172 bus effet48;
#X obj 63 107 route 1 2 3 4 5 6 7 8 9 10 11 12 13 14 15 16 17 18 19
20 21 22 23 24 25 26 27 28 29 30 31 32 33 34 35 36 37 38 39 40 41 42
43 44 45 46 47 48, f 277;
#X connect 26 0 49 0;
#X connect 49 0 0 0;
#X connect 49 1 1 0;
#X connect 49 2 2 0;
#X connect 49 3 3 0;
#X connect 49 4 4 0;
#X connect 49 5 5 0;
#X connect 49 6 6 0;
#X connect 49 7 7 0;
#X connect 49 8 8 0;
#X connect 49 9 9 0;
#X connect 49 10 10 0;
#X connect 49 11 17 0;
#X connect 49 12 11 0;
#X connect 49 13 18 0;
#X connect 49 14 12 0;
#X connect 49 15 19 0;
#X connect 49 16 13 0;
#X connect 49 17 20 0;
#X connect 49 18 14 0;
#X connect 49 19 21 0;
#X connect 49 20 15 0;
#X connect 49 21 22 0;
#X connect 49 22 16 0;
#X connect 49 23 23 0;
#X connect 49 24 24 0;
#X connect 49 25 25 0;
#X connect 49 26 27 0;
#X connect 49 27 28 0;
#X connect 49 28 29 0;
#X connect 49 29 30 0;
#X connect 49 30 31 0;
#X connect 49 31 32 0;
#X connect 49 32 33 0;
#X connect 49 33 34 0;
#X connect 49 34 35 0;
#X connect 49 35 36 0;
#X connect 49 36 37 0;
#X connect 49 37 38 0;
#X connect 49 38 39 0;
#X connect 49 39 40 0;
#X connect 49 40 41 0;
#X connect 49 41 42 0;
#X connect 49 42 43 0;
#X connect 49 43 44 0;
#X connect 49 44 45 0;
#X connect 49 45 46 0;
#X connect 49 46 47 0;
#X connect 49 47 48 0;
#X restore 181 283 pd output;
#X obj 181 170 t f b b b;
#X floatatom 217 206 5 0 0 0 - - -, f 5;
#X msg 259 236 0;
#X obj 181 121 f;
#X obj 181 75 bng 15 250 50 0 empty empty empty 17 7 0 10 -262144 -1
-1;
#X obj 181 8 key;
#X obj 181 30 sel 32;
#X floatatom 196 99 5 0 0 0 - - -, f 5;
#X obj 256 116 + 1;
#X obj 139 178 bng 15 250 50 0 empty empty empty 17 7 0 10 -262144
-1 -1;
#X floatatom 181 145 5 0 0 0 - - -, f 5;
#X obj 181 52 spigot;
#X obj 227 53 tgl 15 0 empty empty empty 17 7 0 10 -262144 -1 -1 0
1;
#X text 253 204 niveau de test (10);
#X obj 286 153 loadbang;
#X msg 286 175 10;
#X obj 285 48 nbx 3 28 -1e+37 1e+37 0 0 empty empty empty 0 -8 0 24
-262144 -1 -1 192.1 256;
#X obj 285 79 ossia.remote /master/limit;
#X text 279 27 Ne pas oublié de monter le limiteur;
#X obj 447 256 pack f f;
#N canvas 0 50 1920 301 output 0;
#X obj 63 141 bus effet1;
#X obj 103 171 bus effet2;
#X obj 133 141 bus effet3;
#X obj 173 171 bus effet4;
#X obj 203 141 bus effet5;
#X obj 243 171 bus effet6;
#X obj 273 141 bus effet7;
#X obj 313 171 bus effet8;
#X obj 344 142 bus effet9;
#X obj 383 171 bus effet10;
#X obj 413 142 bus effet11;
#X obj 483 142 bus effet13;
#X obj 553 142 bus effet15;
#X obj 625 143 bus effet17;
#X obj 696 143 bus effet19;
#X obj 766 143 bus effet21;
#X obj 836 143 bus effet23;
#X obj 453 171 bus effet12;
#X obj 522 171 bus effet14;
#X obj 593 171 bus effet16;
#X obj 662 171 bus effet18;
#X obj 732 171 bus effet20;
#X obj 802 171 bus effet22;
#X obj 872 171 bus effet24;
#X obj 906 143 bus effet25;
#X obj 942 171 bus effet26;
#X obj 62 80 inlet;
#X obj 980 142 bus effet27;
#X obj 1020 172 bus effet28;
#X obj 1050 142 bus effet29;
#X obj 1090 171 bus effet30;
#X obj 1120 142 bus effet31;
#X obj 1160 172 bus effet32;
#X obj 1192 143 bus effet33;
#X obj 1230 172 bus effet34;
#X obj 1261 142 bus effet35;
#X obj 1300 172 bus effet36;
#X obj 1330 143 bus effet37;
#X obj 1369 172 bus effet38;
#X obj 1400 143 bus effet39;
#X obj 1440 172 bus effet40;
#X obj 1472 144 bus effet41;
#X obj 1509 172 bus effet42;
#X obj 1543 144 bus effet43;
#X obj 1579 172 bus effet44;
#X obj 1614 144 bus effet45;
#X obj 1649 172 bus effet46;
#X obj 1683 144 bus effet47;
#X obj 1719 172 bus effet48;
#X obj 63 107 route 1 2 3 4 5 6 7 8 9 10 11 12 13 14 15 16 17 18 19
20 21 22 23 24 25 26 27 28 29 30 31 32 33 34 35 36 37 38 39 40 41 42
43 44 45 46 47 48, f 277;
#X connect 26 0 49 0;
#X connect 49 0 0 0;
#X connect 49 1 1 0;
#X connect 49 2 2 0;
#X connect 49 3 3 0;
#X connect 49 4 4 0;
#X connect 49 5 5 0;
#X connect 49 6 6 0;
#X connect 49 7 7 0;
#X connect 49 8 8 0;
#X connect 49 9 9 0;
#X connect 49 10 10 0;
#X connect 49 11 17 0;
#X connect 49 12 11 0;
#X connect 49 13 18 0;
#X connect 49 14 12 0;
#X connect 49 15 19 0;
#X connect 49 16 13 0;
#X connect 49 17 20 0;
#X connect 49 18 14 0;
#X connect 49 19 21 0;
#X connect 49 20 15 0;
#X connect 49 21 22 0;
#X connect 49 22 16 0;
#X connect 49 23 23 0;
#X connect 49 24 24 0;
#X connect 49 25 25 0;
#X connect 49 26 27 0;
#X connect 49 27 28 0;
#X connect 49 28 29 0;
#X connect 49 29 30 0;
#X connect 49 30 31 0;
#X connect 49 31 32 0;
#X connect 49 32 33 0;
#X connect 49 33 34 0;
#X connect 49 34 35 0;
#X connect 49 35 36 0;
#X connect 49 36 37 0;
#X connect 49 37 38 0;
#X connect 49 38 39 0;
#X connect 49 39 40 0;
#X connect 49 40 41 0;
#X connect 49 41 42 0;
#X connect 49 42 43 0;
#X connect 49 43 44 0;
#X connect 49 44 45 0;
#X connect 49 45 46 0;
#X connect 49 46 47 0;
#X connect 49 47 48 0;
#X restore 447 277 pd output;
#X floatatom 463 124 5 0 0 0 - - -, f 5;
#X obj 447 199 until;
#X obj 447 221 f;
#X obj 473 221 + 1;
#X obj 456 152 t b f b;
#X msg 495 179 1;
#X msg 447 177 24;
#X connect 0 0 1 0;
#X connect 2 0 0 0;
#X connect 2 1 3 0;
#X connect 2 2 0 0;
#X connect 2 3 4 0;
#X connect 3 0 0 1;
#X connect 4 0 0 1;
#X connect 5 0 10 0;
#X connect 5 0 12 0;
#X connect 6 0 5 0;
#X connect 7 0 8 0;
#X connect 8 0 13 0;
#X connect 9 0 5 1;
#X connect 10 0 9 0;
#X connect 11 0 0 0;
#X connect 12 0 2 0;
#X connect 13 0 6 0;
#X connect 14 0 13 1;
#X connect 16 0 17 0;
#X connect 17 0 3 0;
#X connect 18 0 19 0;
#X connect 19 0 18 0;
#X connect 21 0 22 0;
#X connect 23 0 27 0;
#X connect 24 0 25 0;
#X connect 25 0 26 0;
#X connect 25 0 21 0;
#X connect 26 0 25 1;
#X connect 27 0 29 0;
#X connect 27 1 21 1;
#X connect 27 2 28 0;
#X connect 28 0 25 1;
#X connect 29 0 24 0;
#X restore 215 14 pd check;
#X text 148 78 5kW;
#X text 701 197 2kW;
#X text 891 321 5kW;
#X text 1066 259 2kW;
#X obj 647 444 value proj-num;
#X text 464 401 nombre de projecteurs utilisés :;
#X obj 33 320 enttec_out;
#X obj 33 260 enttec_out;
#X obj 33 200 enttec_out;
#X obj 33 140 enttec_out;
#X obj 213 80 enttec_out;
#X obj 213 260 enttec_out;
#X obj 213 200 enttec_out;
#X obj 213 320 enttec_out;
#X obj 213 140 enttec_out;
#X obj 403 80 enttec_out;
#X obj 403 260 enttec_out;
#X obj 403 200 enttec_out;
#X obj 403 320 enttec_out;
#X obj 403 140 enttec_out;
#X obj 583 80 enttec_out;
#X obj 583 260 enttec_out;
#X obj 583 200 enttec_out;
#X obj 583 320 enttec_out;
#X obj 583 140 enttec_out;
#X obj 773 80 enttec_out;
#X obj 773 260 enttec_out;
#X obj 773 200 enttec_out;
#X obj 773 320 enttec_out;
#X obj 773 140 enttec_out;
#X obj 953 80 enttec_out;
#X obj 953 260 enttec_out;
#X obj 953 200 enttec_out;
#X obj 953 320 enttec_out;
#X obj 953 140 enttec_out;
#X connect 1 0 72 1;
#X connect 2 0 83 1;
#X connect 3 0 84 1;
#X connect 4 0 82 1;
#X connect 5 0 85 1;
#X connect 7 0 6 0;
#X connect 8 0 72 0;
#X connect 11 0 86 1;
#X connect 12 0 87 1;
#X connect 13 0 88 1;
#X connect 14 0 89 1;
#X connect 15 0 90 1;
#X connect 17 0 91 1;
#X connect 18 0 92 1;
#X connect 19 0 93 1;
#X connect 20 0 94 1;
#X connect 21 0 95 1;
#X connect 22 0 96 1;
#X connect 23 0 97 1;
#X connect 24 0 98 1;
#X connect 25 0 99 1;
#X connect 26 0 100 1;
#X connect 31 0 101 1;
#X connect 32 0 102 1;
#X connect 33 0 103 1;
#X connect 34 0 104 1;
#X connect 35 0 105 1;
#X connect 36 0 106 1;
#X connect 37 0 107 1;
#X connect 38 0 108 1;
#X connect 39 0 109 1;
#X connect 40 0 110 1;
#X connect 41 0 85 0;
#X connect 42 0 84 0;
#X connect 43 0 83 0;
#X connect 44 0 82 0;
#X connect 45 0 86 0;
#X connect 46 0 90 0;
#X connect 47 0 88 0;
#X connect 48 0 89 0;
#X connect 49 0 91 0;
#X connect 50 0 95 0;
#X connect 51 0 93 0;
#X connect 52 0 92 0;
#X connect 53 0 94 0;
#X connect 54 0 96 0;
#X connect 55 0 100 0;
#X connect 56 0 98 0;
#X connect 57 0 97 0;
#X connect 58 0 99 0;
#X connect 59 0 101 0;
#X connect 60 0 105 0;
#X connect 61 0 103 0;
#X connect 62 0 102 0;
#X connect 63 0 104 0;
#X connect 64 0 106 0;
#X connect 65 0 110 0;
#X connect 66 0 108 0;
#X connect 67 0 107 0;
#X connect 68 0 109 0;
#X connect 69 0 87 0;
#X connect 71 0 70 0;
#X connect 71 0 80 0;
#X connect 73 0 74 0;
#X connect 74 0 71 0;
#X restore 70 109 pd master;
#N canvas 534 79 380 282 init 0;
#X msg 62 131 dsp 1;
#X obj 62 25 loadbang;
#X obj 62 45 del 1000;
#X obj 62 155 s pd;
#X obj 37 202 declare -path abs -path abs_light;
#N canvas 606 487 570 244 midisetting 0;
#X obj 102 19 bng 15 250 50 0 empty empty empty 17 7 0 10 -262144 -1
-1;
#X obj 253 10 inlet;
#X obj 28 144 pack s s;
#X msg 28 168 device @in \$1 @out \$2;
#X obj 97 47 t b b;
#X obj 28 98 list2symbol;
#X obj 138 98 list2symbol;
#X obj 28 188 mediasettings/midisettings;
#X msg 28 77 BCF2000 Port 1;
#X msg 138 78 BCF2000 Port 1;
#X msg 253 108 2 0 0 0 0 0 0 0 0 2 0 0 0 0 0 0 0 0 4 5;
#X obj 254 130 list prepend midi-dialog;
#X obj 254 152 list trim;
#X obj 254 174 s pd;
#X obj 253 50 t b;
#X obj 263 30 bng 15 250 50 0 empty empty empty 17 7 0 10 -262144 -1
-1;
#X connect 0 0 4 0;
#X connect 1 0 14 0;
#X connect 2 0 3 0;
#X connect 3 0 7 0;
#X connect 4 0 8 0;
#X connect 4 1 9 0;
#X connect 5 0 2 0;
#X connect 6 0 2 1;
#X connect 8 0 5 0;
#X connect 9 0 6 0;
#X connect 10 0 11 0;
#X connect 11 0 12 0;
#X connect 12 0 13 0;
#X connect 14 0 10 0;
#X connect 15 0 14 0;
#X restore 123 103 pd midisetting;
#X obj 62 67 t b b b;
#X obj 37 222 declare -lib ossia -lib zexy -lib timbreID/timbreIDLib
;
#X obj 107 131 selectAudioDevice USB_PnP_Sound_Device_(hardware) USB_Audio_Device_(hardware)
;
#X obj 31 45 bng 15 250 50 0 empty empty empty 17 7 0 10 -262144 -1
-1;
#X connect 0 0 3 0;
#X connect 1 0 2 0;
#X connect 2 0 6 0;
#X connect 6 0 0 0;
#X connect 6 1 8 0;
#X connect 9 0 6 0;
#X restore 70 129 pd init;
#X text 25 223 Antoine Villeret pour Contour Progressif / Mylène Benoit
;
#X text 59 107 >;
#N canvas 962 578 956 216 simulation_light 0;
#X obj 158 179 pd~ -ninsig 0 -noutsig 0, f 25;
#X obj 158 14 loadbang;
#X obj 158 66 del 10000;
#X obj 23 90 r light_simulator;
#X msg 180 119 pd~ start ./abs/light_simulator.pd;
#X msg 194 150 pd~ stop;
#X msg 158 91 pd~ start -nogui -lib Gem ./abs/light_simulator.pd;
#X connect 2 0 6 0;
#X connect 3 0 0 0;
#X connect 4 0 0 0;
#X connect 5 0 0 0;
#X connect 6 0 0 0;
#X restore 80 75 pd simulation_light;
#N canvas 655 247 610 612 effet 0;
#N canvas 1154 47 620 212 audiograph 0;
#N canvas 515 124 551 260 master 0;
#X obj 87 201 s dmxlimit;
#X obj 87 168 ossia.param master/limit @type float @default 255 @range
0 255;
#X connect 1 0 0 0;
#X restore 150 20 pd master;
#X obj 52 97 track.model ch1;
#X obj 53 63 adc~ 1;
#X obj 185 175 dac~ 1 2;
#X obj 185 152 *~;
#X msg 235 85 \$1 10;
#X obj 235 106 line~;
#X obj 235 65 + 100;
#X obj 235 127 dbtorms~;
#X obj 235 34 ø.param volume @type gain @unit dB @range -100 0 @default
-100 @recall_safe 1;
#X connect 2 0 1 0;
#X connect 2 0 4 0;
#X connect 4 0 3 0;
#X connect 4 0 3 1;
#X connect 5 0 6 0;
#X connect 6 0 8 0;
#X connect 7 0 5 0;
#X connect 8 0 4 1;
#X connect 9 0 7 0;
#X restore 326 420 pd audiograph;
#X obj 283 532 / 100;
#X floatatom 283 514 5 0 200 1 % - -, f 5;
#X text 235 512 master;
#X text 72 61 threshold;
#X text 102 81 gain;
#X text 84 102 release;
#X text 96 126 pitch;
#X text 66 145 brightness;
#X text 96 221 width;
#X text 96 302 level;
#X text 90 261 in max;
#X text 90 241 in min;
#X text 96 354 range;
#X text 78 374 position;
#X text 78 394 freq min;
#X text 78 414 freq max;
#N canvas 1442 50 476 1011 Readme 0;
#X text 32 20 Réglage des entrées audio :;
#X text 57 39 Changer le seuil de sorte que seul le son utile fasse
monter le slider (quand on n'utilise pas le micro \, le son ambiant
ne doit pas faire bouger le slider.;
#X text 58 79 Monter le gain pour qu'une fine variation de volume fasse
bouger le slider.;
#X text 57 108 Le paramètre Release permet de contrôler le temps
de réponse du slider.;
#X text 28 173 Réglage des efffets :;
#X text 75 250 Brightness : c'est la brillance du son qui déplace
la tâche.;
#X text 75 270 Pitch : c'est la hauteur (la note) du son qui déplace
la tâche.;
#X text 73 304 range : nombre de projecteurs sur lesquels la tâche
se déplace;
#X text 73 334 offset : numéro du projecteur de départ;
#X text 73 354 width : largeur de la tâche;
#X text 73 374 in min/max : plage de valeur d'entrée \, quand l'entrée
est à min \, la tâche est à la position de départ \, quand l'entrée
est à max \, la tâche est à la position d'arrivée.;
#X text 73 424 level : niveau de l'effet;
#X text 73 504 offset : numéro du projecteur de départ;
#X text 73 614 level : niveau de l'effet;
#X text 45 450 Spectre : chaque bande de fréquences contrôle un projecteur
;
#X text 73 524 freq min/max : frequence min et max \, cette plage de
fréquence est divisé en autant de bande qu'on a sélectionné de
projecteurs \, toutes les bandes ont la même largeur en octave;
#X text 72 582 scale 1&2 : deux multiplicateur permettant de contrôler
la réponse des projecteurs;
#X text 73 474 range : nombre de projecteurs et nombre de bande de
fréquences à utiliser (<= 26);
#X text 45 190 Brightness et pitch : déplace une tâche de lumière
plus ou moins large sur plusieurs projecteurs. L'amplitude contrôle
l'intensité de la tâche.;
#X restore 324 444 pd Readme;
#X obj 247 372 vradio 15 1 0 2 empty empty empty 0 -8 0 10 -262144
-1 -1 0;
#X text 263 387 audiofile;
#X text 264 372 micros;
#X text 96 493 level;
#X text 72 282 smoothing;
#X obj 283 471 * 100;
#X obj 344 491 ossia.remote /master/send;
#X text 84 434 salaire;
#X text 84 454 profit;
#X text 9 476 limiteur de vitesse;
#X obj 424 376 nbx 3 28 -1e+37 1e+37 0 0 empty empty empty 0 -8 0 24
-262144 -1 -1 192.1 256;
#X obj 424 407 ossia.remote /master/limit;
#X floatatom 248 411 5 0 0 0 - - -, f 5;
#X text 224 426 << audio >>;
#X text 150 16 ch1;
#X text 81 519 reverse;
#X msg 283 493 set \$1;
#X obj 130 32 track.view ch1;
#X obj 425 314 loadbang;
#X msg 425 335 255;
#X connect 1 0 24 0;
#X connect 2 0 1 0;
#X connect 23 0 34 0;
#X connect 24 1 23 0;
#X connect 28 0 29 0;
#X connect 29 0 28 0;
#X connect 34 0 2 0;
#X connect 36 0 37 0;
#X connect 37 0 28 0;
#X restore 80 55 pd effet;
#N canvas 826 74 270 985 table 0;
#N canvas 320 257 450 300 gauss 0;
#X obj 26 13 inlet;
#X obj 27 253 outlet;
#X obj 27 124 exp;
#X obj 26 61 t f f;
#X obj 27 83 *;
#X obj 27 103 * -1;
#X connect 0 0 3 0;
#X connect 2 0 1 0;
#X connect 3 0 4 0;
#X connect 3 1 4 1;
#X connect 4 0 5 0;
#X connect 5 0 2 0;
#X restore 51 436 pd gauss;
#X floatatom 51 457 5 0 0 0 - - -, f 5;
#X obj 51 478 tabwrite gauss;
#X obj 51 231 until;
#X obj 51 253 f;
#X obj 76 253 + 1;
#X obj 53 161 t b b;
#X msg 102 231 0;
#X obj 53 137 bng 15 250 50 0 empty empty empty 17 7 0 10 -262144 -1
-1;
#X obj 51 275 t f f;
#X obj 51 339 - 500;
#X obj 51 361 abs;
#X obj 51 207 t f f;
#X obj 56 499 table gauss 1001;
#X obj 49 184 f 1001;
#X obj 131 293 - 1;
#X obj 131 315 / 2;
#X obj 51 415 / 150;
#X obj 53 112 loadbang;
#X connect 0 0 1 0;
#X connect 1 0 2 0;
#X connect 3 0 4 0;
#X connect 4 0 5 0;
#X connect 4 0 9 0;
#X connect 5 0 4 1;
#X connect 6 0 14 0;
#X connect 6 1 7 0;
#X connect 7 0 4 1;
#X connect 8 0 6 0;
#X connect 9 0 10 0;
#X connect 9 1 2 1;
#X connect 10 0 11 0;
#X connect 11 0 17 0;
#X connect 12 0 3 0;
#X connect 12 1 15 0;
#X connect 14 0 12 0;
#X connect 15 0 16 0;
#X connect 16 0 10 1;
#X connect 17 0 0 0;
#X connect 18 0 8 0;
#X restore 70 149 pd table;
#N canvas 1154 47 380 1012 check-projos 0;
#X obj 154 381 pack f f;
#N canvas 1282 47 316 1012 output 0;
#X obj 63 141 bus effet1;
#X obj 103 171 bus effet2;
#X obj 133 141 bus effet3;
#X obj 173 171 bus effet4;
#X obj 203 141 bus effet5;
#X obj 243 171 bus effet6;
#X obj 273 141 bus effet7;
#X obj 313 171 bus effet8;
#X obj 344 142 bus effet9;
#X obj 383 171 bus effet10;
#X obj 413 142 bus effet11;
#X obj 483 142 bus effet13;
#X obj 553 142 bus effet15;
#X obj 625 143 bus effet17;
#X obj 696 143 bus effet19;
#X obj 766 143 bus effet21;
#X obj 836 143 bus effet23;
#X obj 453 171 bus effet12;
#X obj 522 171 bus effet14;
#X obj 593 171 bus effet16;
#X obj 662 171 bus effet18;
#X obj 732 171 bus effet20;
#X obj 802 171 bus effet22;
#X obj 872 171 bus effet24;
#X obj 906 143 bus effet25;
#X obj 942 171 bus effet26;
#X obj 62 80 inlet;
#X obj 980 142 bus effet27;
#X obj 1020 172 bus effet28;
#X obj 1050 142 bus effet29;
#X obj 1090 171 bus effet30;
#X obj 1120 142 bus effet31;
#X obj 1160 172 bus effet32;
#X obj 1192 143 bus effet33;
#X obj 1230 172 bus effet34;
#X obj 1261 142 bus effet35;
#X obj 1300 172 bus effet36;
#X obj 1330 143 bus effet37;
#X obj 1369 172 bus effet38;
#X obj 1400 143 bus effet39;
#X obj 1440 172 bus effet40;
#X obj 1472 144 bus effet41;
#X obj 1509 172 bus effet42;
#X obj 1543 144 bus effet43;
#X obj 1579 172 bus effet44;
#X obj 1614 144 bus effet45;
#X obj 1649 172 bus effet46;
#X obj 1683 144 bus effet47;
#X obj 1719 172 bus effet48;
#X obj 63 107 route 1 2 3 4 5 6 7 8 9 10 11 12 13 14 15 16 17 18 19
20 21 22 23 24 25 26 27 28 29 30 31 32 33 34 35 36 37 38 39 40 41 42
43 44 45 46 47 48, f 277;
#X connect 26 0 49 0;
#X connect 49 0 0 0;
#X connect 49 1 1 0;
#X connect 49 2 2 0;
#X connect 49 3 3 0;
#X connect 49 4 4 0;
#X connect 49 5 5 0;
#X connect 49 6 6 0;
#X connect 49 7 7 0;
#X connect 49 8 8 0;
#X connect 49 9 9 0;
#X connect 49 10 10 0;
#X connect 49 11 17 0;
#X connect 49 12 11 0;
#X connect 49 13 18 0;
#X connect 49 14 12 0;
#X connect 49 15 19 0;
#X connect 49 16 13 0;
#X connect 49 17 20 0;
#X connect 49 18 14 0;
#X connect 49 19 21 0;
#X connect 49 20 15 0;
#X connect 49 21 22 0;
#X connect 49 22 16 0;
#X connect 49 23 23 0;
#X connect 49 24 24 0;
#X connect 49 25 25 0;
#X connect 49 26 27 0;
#X connect 49 27 28 0;
#X connect 49 28 29 0;
#X connect 49 29 30 0;
#X connect 49 30 31 0;
#X connect 49 31 32 0;
#X connect 49 32 33 0;
#X connect 49 33 34 0;
#X connect 49 34 35 0;
#X connect 49 35 36 0;
#X connect 49 36 37 0;
#X connect 49 37 38 0;
#X connect 49 38 39 0;
#X connect 49 39 40 0;
#X connect 49 40 41 0;
#X connect 49 41 42 0;
#X connect 49 42 43 0;
#X connect 49 43 44 0;
#X connect 49 44 45 0;
#X connect 49 45 46 0;
#X connect 49 46 47 0;
#X connect 49 47 48 0;
#X restore 82 501 pd output;
#X obj 154 324 until;
#X obj 154 346 f;
#X obj 180 346 + 1;
#X obj 163 277 t b f b;
#X msg 200 306 1;
#X msg 158 191 30;
#X floatatom 158 252 5 0 0 1 % - -, f 5;
#X msg 177 226 0;
#X text 191 194 tout à 30%;
#X text 209 228 tout éteint;
#X msg 154 302 30;
#X obj 74 197 metro 500;
#X obj 74 111 tgl 15 0 empty empty empty 17 7 0 10 -262144 -1 -1 0
1;
#X obj 74 218 f;
#X obj 103 259 + 1;
#X obj 103 280 % 30;
#X obj 74 240 t f f;
#X msg 117 352 0;
#X obj 90 400 pack;
#X msg 74 353 \$1 100;
#X obj 74 92 ossia.parameter test @type bool @recall_safe 1;
#X obj 74 131 sel 0 1;
#X obj 93 151 t b b;
#X msg 120 172 0;
#X msg 93 172 1;
#X obj 33 151 t b b;
#X msg 60 172 0;
#X obj 90 324 t b b;
#X obj 74 301 t f b;
#X obj 74 261 + 1;
#X connect 0 0 1 0;
#X connect 2 0 3 0;
#X connect 3 0 4 0;
#X connect 3 0 0 0;
#X connect 4 0 3 1;
#X connect 5 0 12 0;
#X connect 5 1 0 1;
#X connect 5 2 6 0;
#X connect 6 0 3 1;
#X connect 7 0 8 0;
#X connect 8 0 5 0;
#X connect 9 0 8 0;
#X connect 12 0 2 0;
#X connect 13 0 15 0;
#X connect 14 0 23 0;
#X connect 15 0 18 0;
#X connect 16 0 17 0;
#X connect 17 0 15 1;
#X connect 18 0 31 0;
#X connect 18 1 16 0;
#X connect 19 0 20 1;
#X connect 20 0 1 0;
#X connect 21 0 20 0;
#X connect 22 0 14 0;
#X connect 23 0 27 0;
#X connect 23 1 24 0;
#X connect 24 0 26 0;
#X connect 24 1 25 0;
#X connect 25 0 15 1;
#X connect 26 0 13 0;
#X connect 27 0 29 0;
#X connect 27 1 28 0;
#X connect 28 0 13 0;
#X connect 29 0 20 0;
#X connect 29 1 19 0;
#X connect 30 0 21 0;
#X connect 30 1 29 0;
#X connect 31 0 30 0;
#X restore 91 306 pd check-projos;
#X text 204 304 <-- controle des projecteurs;
#X text 80 239 Aveuglement - 2018;
#X obj 239 141 ossia;
#X msg 234 104 namespace;
#X msg 204 74 expose oscquery;
#X obj 204 50 loadbang;
#X msg 283 40 get protocols;
#X msg 327 77 stop 0;
#N canvas 2 843 956 216 preset-save 0;
#X obj 53 501 ossia;
#X msg 53 98 preset save preset-0.txt;
#X msg 63 138 preset save preset-1.txt;
#X msg 73 178 preset save preset-2.txt;
#X msg 83 218 preset save preset-3.txt;
#X msg 93 258 preset save preset-4.txt;
#X msg 103 298 preset save preset-5.txt;
#X msg 113 338 preset save preset-6.txt;
#X msg 123 378 preset save preset-7.txt;
#X msg 133 418 preset save preset-8.txt;
#X msg 143 458 preset save preset-9.txt;
#X obj 90 558 ø.model save;
#X obj 53 78 ø.param preset.0 @access set @type impulse @recall_safe
1;
#X obj 63 118 ø.param preset.1 @access set @type impulse @recall_safe
1;
#X obj 73 158 ø.param preset.2 @access set @type impulse @recall_safe
1;
#X obj 83 198 ø.param preset.3 @access set @type impulse @recall_safe
1;
#X obj 93 238 ø.param preset.4 @access set @type impulse @recall_safe
1;
#X obj 103 278 ø.param preset.5 @access set @type impulse @recall_safe
1;
#X obj 113 318 ø.param preset.6 @access set @type impulse @recall_safe
1;
#X obj 123 358 ø.param preset.7 @access set @type impulse @recall_safe
1;
#X obj 133 398 ø.param preset.8 @access set @type impulse @recall_safe
1;
#X obj 143 438 ø.param preset.9 @access set @type impulse @recall_safe
1;
#X obj 53 526 print;
#X connect 0 0 22 0;
#X connect 1 0 0 0;
#X connect 2 0 0 0;
#X connect 3 0 0 0;
#X connect 4 0 0 0;
#X connect 5 0 0 0;
#X connect 6 0 0 0;
#X connect 7 0 0 0;
#X connect 8 0 0 0;
#X connect 9 0 0 0;
#X connect 10 0 0 0;
#X connect 12 0 1 0;
#X connect 13 0 2 0;
#X connect 14 0 3 0;
#X connect 15 0 4 0;
#X connect 16 0 5 0;
#X connect 17 0 6 0;
#X connect 18 0 7 0;
#X connect 19 0 8 0;
#X connect 20 0 9 0;
#X connect 21 0 10 0;
#X restore 361 141 pd preset-save;
#N canvas 2 843 956 216 preset-load 0;
#X obj 53 501 ossia;
#X obj 90 558 ø.model load;
#X msg 53 98 preset load preset-0.txt;
#X msg 63 138 preset load preset-1.txt;
#X msg 73 178 preset load preset-2.txt;
#X msg 83 218 preset load preset-3.txt;
#X msg 93 258 preset load preset-4.txt;
#X msg 103 298 preset load preset-5.txt;
#X msg 113 338 preset load preset-6.txt;
#X msg 123 378 preset load preset-7.txt;
#X msg 133 418 preset load preset-8.txt;
#X msg 143 458 preset load preset-9.txt;
#X obj 106 528 print;
#X obj 53 78 ø.param preset.0 @access set @type impulse @recall_safe
1;
#X obj 63 118 ø.param preset.1 @access set @type impulse @recall_safe
1;
#X obj 73 158 ø.param preset.2 @access set @type impulse @recall_safe
1;
#X obj 83 198 ø.param preset.3 @access set @type impulse @recall_safe
1;
#X obj 93 238 ø.param preset.4 @access set @type impulse @recall_safe
1;
#X obj 103 278 ø.param preset.5 @access set @type impulse @recall_safe
1;
#X obj 113 318 ø.param preset.6 @access set @type impulse @recall_safe
1;
#X obj 123 358 ø.param preset.7 @access set @type impulse @recall_safe
1;
#X obj 133 398 ø.param preset.8 @access set @type impulse @recall_safe
1;
#X obj 143 438 ø.param preset.9 @access set @type impulse @recall_safe
1;
#X connect 0 0 12 0;
#X connect 2 0 0 0;
#X connect 3 0 0 0;
#X connect 4 0 0 0;
#X connect 5 0 0 0;
#X connect 6 0 0 0;
#X connect 7 0 0 0;
#X connect 8 0 0 0;
#X connect 9 0 0 0;
#X connect 10 0 0 0;
#X connect 11 0 0 0;
#X connect 13 0 2 0;
#X connect 14 0 3 0;
#X connect 15 0 4 0;
#X connect 16 0 5 0;
#X connect 17 0 6 0;
#X connect 18 0 7 0;
#X connect 19 0 8 0;
#X connect 20 0 9 0;
#X connect 21 0 10 0;
#X connect 22 0 11 0;
#X restore 361 161 pd preset-load;
#X connect 11 0 10 0;
#X connect 12 0 10 0;
#X connect 13 0 12 0;
#X connect 14 0 10 0;
#X connect 15 0 10 0;
